<?xml version="1.0" standalone="no"?><!DOCTYPE svg PUBLIC "-//W3C//DTD SVG 1.1//EN" "http://www.w3.org/Graphics/SVG/1.1/DTD/svg11.dtd"><svg t="1568877514588" class="icon" viewBox="0 0 1027 1024" version="1.1" xmlns="http://www.w3.org/2000/svg" p-id="6253" xmlns:xlink="http://www.w3.org/1999/xlink" width="200.5859375" height="200"><defs><style type="text/css"></style></defs><path d="M947.791792 80.303696c-78.257742-78.257742-204.595405-78.257742-282.853147 0-78.257742-78.257742-204.595405-78.257742-282.853146 0s-78.257742 204.595405 0 282.853147l258.301698 258.301698c13.298701 13.298701 34.781219 13.298701 48.07992 0l258.301698-258.301698c78.769231-78.257742 78.769231-205.106893 1.022977-282.853147z" fill="#ED6B6B" p-id="6254"></path><path d="M861.350234 47.568432C960.067516 112.015984 974.389195 253.186813 796.391193 416.351648c-81.838162 75.188811-155.492507 204.595405-155.492508 204.595405 13.298701 13.298701 34.781219 13.298701 48.07992 0l258.301699-258.301698c78.257742-77.746254 55.752248-277.738262-85.93007-315.076923z" fill="#C66060" p-id="6255"></path><path d="M657.266318 94.625375c-78.257742-78.257742-204.595405-100.251748-282.341659-21.994006-77.746254 77.746254-66.493506 230.681319 35.804196 294.105894 3.068931 2.045954-70.073926-156.515485 14.833167-242.445555 70.073926-71.608392 176.975025-54.217782 231.704296-29.666333z" fill="#FF9D8D" p-id="6256"></path><path d="M664.938645 651.636364c-14.321678 0-28.131868-5.626374-38.361638-15.856144L367.76382 377.478521c-85.93007-85.93007-85.93007-225.566434 0-311.496503 81.326673-81.326673 210.733267-85.418581 297.174825-13.298701 86.441558-72.631369 215.848152-68.027972 297.174826 13.298701 41.430569 41.430569 64.447552 96.671329 64.447552 155.492507s-23.016983 114.061938-64.447552 156.003996l-258.301699 258.301699c-10.741259 10.22977-24.551449 15.856144-38.873127 15.856144zM523.767816 41.942058c-46.033966 0-92.067932 17.390609-126.849151 52.683317-33.758242 33.758242-52.683317 78.769231-52.683316 126.84915s18.925075 93.090909 52.683316 126.849151l258.301699 258.301699c5.114885 5.114885 13.81019 5.114885 19.436563 0l258.301698-258.301699c33.758242-33.758242 52.683317-79.280719 52.683317-126.849151 0-48.07992-18.413586-93.090909-52.171828-126.84915-70.073926-70.073926-183.624376-70.073926-253.698302 0-8.183816 8.183816-20.971029 8.183816-29.154845 0A179.379021 179.379021 0 0 0 523.767816 41.942058z" fill="#333333" p-id="6257"></path><path d="M811.22436 307.916084c-98.717283-98.717283-257.79021-98.717283-356.507493 0-98.717283-98.717283-257.79021-98.717283-356.507492 0s-98.717283 257.79021 0 356.507492l325.818181 325.818182c16.879121 16.879121 43.988012 16.879121 60.867133 0l325.818182-325.818182c98.717283-98.717283 98.717283-258.301698 0.511489-356.507492z" fill="#FF8383" p-id="6258"></path><path d="M702.277307 266.997003c124.291708 81.326673 142.705295 259.324675-81.838162 464.943057-103.320679 94.625375-196.411588 257.79021-196.411589 257.79021 16.879121 16.879121 43.988012 16.879121 60.867133 0l325.818182-325.818182c98.717283-98.205794 70.585415-350.36963-108.435564-396.915085z" fill="#E06868" p-id="6259"></path><path d="M444.487097 319.168831c-98.717283-98.717283-257.79021-120.1998-356.507493-21.482517-98.205794 98.205794-83.884116 290.525475 45.010989 371.340659 4.091908 2.557443-88.487512-197.434565 18.413587-305.87013 89.51049-90.021978 224.543457-74.677323 293.082917-43.988012z" fill="#FCAD9A" p-id="6260"></path><path d="M454.205379 1023.488511c-16.879121 0-32.735265-6.649351-45.010989-18.413586L83.376208 679.256743C32.227357 627.084915 3.584 558.545455 3.584 485.914086c0-72.631369 28.643357-141.170829 79.792208-192.831169 51.66034-51.66034 120.1998-79.792208 192.831169-79.792208 65.982018 0 128.895105 23.528472 178.50949 66.493507 49.614386-42.965035 112.015984-66.493506 178.509491-66.493507 72.631369 0 141.170829 28.643357 192.831168 79.792208 51.148851 51.148851 79.792208 119.688312 79.792208 192.831169 0 72.631369-28.643357 141.170829-79.792208 192.831169l-325.818181 325.818182c-12.787213 12.275724-28.643357 18.925075-46.033966 18.925074zM276.207377 254.20979c-61.89011 0-120.1998 24.03996-163.676324 68.027972C68.543041 366.225774 44.503081 424.023976 44.503081 485.914086c0 61.89011 24.03996 120.1998 68.027972 163.676324l325.818182 325.818181c8.695305 8.695305 23.016983 8.695305 31.712287 0L796.391193 650.101898c43.988012-43.988012 68.027972-102.297702 68.027972-164.187812 0-61.89011-24.03996-120.1998-67.516484-163.676324-43.988012-43.988012-101.786214-68.027972-163.676323-68.027972s-120.1998 24.03996-163.676324 68.027972c-4.091908 4.091908-9.206793 6.137862-14.321678 6.137862s-10.741259-2.045954-14.321679-6.137862c-44.4995-43.988012-102.809191-68.027972-164.6993-68.027972zM831.172412 899.196803c-8.695305 0-15.344655-6.649351-15.344656-15.344655s6.649351-15.344655 15.344656-15.344655c25.574426 0 46.033966-20.45954 46.033966-46.033967 0-8.695305 6.649351-15.344655 15.344655-15.344655s15.344655 6.649351 15.344655 15.344655c0 41.942058-34.26973 76.723277-76.723276 76.723277zM861.861722 968.759241c-8.695305 0-15.344655-6.649351-15.344655-15.344656s6.649351-15.344655 15.344655-15.344655c47.056943 0 84.907093-38.361638 84.907093-84.907093 0-8.695305 6.649351-15.344655 15.344656-15.344655s15.344655 6.649351 15.344655 15.344655c0 63.424575-51.66034 115.596404-115.596404 115.596404zM84.910673 151.400599c-8.695305 0-15.344655-6.649351-15.344655-15.344655 0-42.453546 34.26973-76.723277 76.723277-76.723277 8.695305 0 15.344655 6.649351 15.344655 15.344656s-6.649351 15.344655-15.344655 15.344655c-25.574426 0-46.033966 20.45954-46.033966 46.033966 0 8.695305-6.649351 15.344655-15.344656 15.344655zM15.348236 130.941059c-8.695305 0-15.344655-6.649351-15.344656-15.344655 0-63.936064 51.66034-115.596404 115.596404-115.596404 8.695305 0 15.344655 6.649351 15.344655 15.344655s-6.649351 15.344655-15.344655 15.344656c-47.056943 0-84.907093 38.361638-84.907093 84.907093 0 8.695305-6.649351 15.344655-15.344655 15.344655z" fill="#333333" p-id="6261"></path></svg>