<?xml version="1.0" standalone="no"?><!DOCTYPE svg PUBLIC "-//W3C//DTD SVG 1.1//EN" "http://www.w3.org/Graphics/SVG/1.1/DTD/svg11.dtd"><svg t="1568821858258" class="icon" viewBox="0 0 1024 1024" version="1.1" xmlns="http://www.w3.org/2000/svg" p-id="3648" xmlns:xlink="http://www.w3.org/1999/xlink" width="200" height="200"><defs><style type="text/css"></style></defs><path d="M970.524444 891.448889l-6.257777-2.275556s5.688889-17.635556-3.413334-28.444444c-7.395556-8.533333-22.755556-10.808889-45.511111-6.826667-17.635556 3.413333-33.564444-3.413333-45.511111-19.911111-30.72-42.666667-32.426667-145.066667-2.844444-198.542222 36.408889-65.422222-27.875556-152.462222-28.444445-153.6l5.12-3.982222c0.568889 1.137778 17.066667 22.755556 29.013334 53.475555 15.928889 40.96 15.928889 77.937778 0 106.951111-27.875556 50.631111-26.737778 151.324444 2.275555 191.715556 10.24 14.791111 23.893333 20.48 38.684445 17.635555 25.031111-4.551111 42.097778-1.706667 51.2 8.533334 12.515556 14.222222 6.257778 34.133333 5.688888 35.271111z" fill="#231815" p-id="3649"></path><path d="M504.035556 852.195556l-19.911112 32.426666 7.395556 0.568889-10.24 27.875556c-3.413333 13.084444 163.271111 9.671111 192.284444 7.964444 19.911111-1.137778 37.546667 9.102222 37.546667 9.102222s36.977778-5.688889 22.755556-17.066666-31.288889-14.222222-31.288889-14.222223l40.391111 14.222223s32.995556-6.257778 13.653333-21.617778-41.528889-36.408889-58.595555-23.324445c-17.635556 13.084444-58.595556 14.222222-58.595556 14.222223l-35.271111-21.617778s-21.048889-9.102222-6.826667-65.991111-54.613333-37.546667-54.613333-37.546667l-38.684444 95.004445z" fill="#7D83F9" p-id="3650"></path><path d="M500.053333 852.764444l2.275556 5.12-29.582222-3.413333 1.137777 6.826667-43.804444-9.102222v6.826666l-18.773333-5.688889v8.533334c-25.6-3.982222-55.182222-30.151111-55.182223-30.151111L352.711111 841.955556c-15.928889-6.826667-36.977778-27.875556-36.977778-27.875556l-1.706666 18.773333c-35.271111-14.222222-56.888889-43.804444-56.888889-43.804444l-21.617778 30.72c-31.857778-26.168889-60.302222-112.64-60.302222-112.64l-51.768889 27.306667c-46.648889-70.542222-1.706667-220.16-1.706667-220.16L62.577778 510.862222c25.031111-118.897778 111.502222-190.008889 111.502222-190.008889L125.155556 288.426667C163.271111 214.471111 317.44 182.044444 317.44 182.044444l-25.6-52.906666C352.711111 91.591111 512 135.964444 512 135.964444l-2.275556-36.408888c78.506667 11.946667 155.306667 57.457778 191.146667 94.435555 26.168889 26.737778 77.368889 24.462222 104.106667 21.048889 10.24-1.137778 19.911111-6.257778 27.875555-13.653333L905.671111 130.844444l-8.533333 28.444445s-29.582222 32.995556-57.457778 73.955555c-25.031111 36.408889-35.84 85.902222-62.577778 107.52-69.404444 55.751111-62.008889 89.315556-76.231111 184.888889-25.031111 170.097778-39.253333 208.213333-85.902222 267.946667-51.768889 66.56-114.915556 59.164444-114.915556 59.164444z" fill="#171C61" p-id="3651"></path><path d="M680.391111 232.106667c-30.151111-2.844444-191.715556-46.08-120.035555 329.386666 26.168889 138.24 12.515556 221.866667 29.582222 242.346667 6.257778 7.395556 2.844444 10.808889 3.413333 11.946667 0.568889 0.568889 3.413333-2.844444 3.413333-2.844445s30.72-29.013333 49.493334-51.2c73.955556-88.177778 106.382222-240.64 70.542222-304.355555-35.84-63.715556 74.524444-113.208889 60.302222-131.413334-14.791111-17.635556-96.711111-93.866667-96.711111-93.866666z" fill="#7D83F9" p-id="3652"></path><path d="M905.671111 130.844444S799.288889 206.506667 716.8 200.248889s-137.102222 50.631111-153.031111 79.644444c-20.48 37.546667 19.911111 116.622222 84.764444 125.724445 64.853333 9.102222 68.835556 60.871111 68.835556 60.871111s30.72-52.337778 51.768889-86.471111c21.048889-34.702222 47.786667-105.813333 87.608889-168.391111 17.635556-27.875556 48.355556-42.666667 42.666666-50.631111-24.462222-32.995556 6.257778-30.151111 6.257778-30.151112z" fill="#CFAAF7" p-id="3653"></path><path d="M682.097778 238.933333a22.186667 21.048889 0 1 0 44.373333 0 22.186667 21.048889 0 1 0-44.373333 0Z" fill="#171C61" p-id="3654"></path><path d="M698.595556 344.746667c-1.137778 0-2.844444-0.568889-3.982223-1.137778-2.844444-2.275556-3.413333-6.257778-1.137777-9.102222 0.568889-0.568889 33.564444-44.373333 86.471111-17.066667 3.413333 1.706667 4.551111 5.688889 2.844444 8.533333-1.706667 3.413333-5.688889 4.551111-8.533333 2.844445-43.235556-22.186667-68.835556 11.946667-69.973334 13.084444-1.706667 1.706667-3.413333 2.844444-5.688888 2.844445z" fill="#171C61" p-id="3655"></path><path d="M731.591111 517.12c70.542222-17.066667 69.973333-47.786667 69.973333-47.786667s0-62.577778 32.995556-20.48 48.355556 66.56 24.462222 63.715556c-15.928889-1.706667-48.355556 55.751111-85.333333 75.662222-7.964444 3.982222-40.391111 9.102222-49.493333 7.395556-42.097778-7.395556-151.893333-27.875556-167.822223-64.853334-2.844444-7.395556 1.137778-27.306667 4.551111-70.542222 1.706667-17.066667 150.186667 62.008889 170.666667 56.888889z" fill="#CFAAF7" p-id="3656"></path><path d="M870.968889 146.773333a26.737778 25.6 0 1 0 53.475555 0 26.737778 25.6 0 1 0-53.475555 0Z" fill="#171C61" p-id="3657"></path><path d="M885.191111 131.982222a12.515556 10.808889 0 1 0 25.031111 0 12.515556 10.808889 0 1 0-25.031111 0Z" fill="#FFFFFF" p-id="3658"></path></svg>