<?xml version="1.0" standalone="no"?><!DOCTYPE svg PUBLIC "-//W3C//DTD SVG 1.1//EN" "http://www.w3.org/Graphics/SVG/1.1/DTD/svg11.dtd"><svg t="1568821850044" class="icon" viewBox="0 0 1024 1024" version="1.1" xmlns="http://www.w3.org/2000/svg" p-id="3238" xmlns:xlink="http://www.w3.org/1999/xlink" width="200" height="200"><defs><style type="text/css"></style></defs><path d="M649.6 400.9l12.1 7.8c6.8 4.4 16 2.7 20.6-4L823 216.5c5-7 3.1-16.8-4.1-21.5l-25-27c-7.2-4.7-16.9-2.4-21.3 5L644.8 380.4c-4.2 7-2.1 16 4.8 20.5z" fill="#76A0FC" p-id="3239"></path><path d="M670 422.1c-4.9 0-9.8-1.4-14.3-4.2l-12.1-7.8c-11.8-7.6-15.4-23.1-8.2-35.2l127.9-207.5c3.6-6 9.4-10.3 16.4-11.9 6.9-1.7 14.1-0.4 20.1 3.5 0.8 0.5 1.5 1.1 2.1 1.7l24.2 26.1c5.3 3.9 8.9 9.5 10.1 16.1 1.4 7-0.2 14.1-4.3 20L691 411.2c-4.9 7.1-12.9 10.9-21 10.9z m115.6-245.6c-0.4 0-0.7 0.1-1 0.1-0.7 0.2-1.9 0.6-2.7 2L654 386.1c-1.1 1.8-0.5 4.4 1.4 5.6l12.1 7.8c1.9 1.3 4.5 0.8 5.8-1.1l141-188.4c0.7-1 0.7-2.4 0.5-3-0.1-0.7-0.5-1.9-1.9-2.8-0.8-0.5-1.5-1.1-2.1-1.7L787 176.8c-0.4-0.3-0.9-0.3-1.4-0.3z" fill="#333333" p-id="3240"></path><path d="M586.1 372.6l13.4 5.3c7.6 3 16.2-0.5 19.5-7.9l100.2-208.2c3.5-7.9-0.3-17.1-8.3-20.3l-29.8-21.6c-8-3.2-17 0.9-19.9 9l-83.8 224.5c-2.7 7.7 1.2 16.2 8.7 19.2z" fill="#76A0FC" p-id="3241"></path><path d="M605.2 389.9c-3.2 0-6.5-0.6-9.7-1.9l-13.4-5.3c-13-5.2-19.6-19.7-14.9-32.9L651 125.1c2.3-6.6 7.2-11.9 13.7-14.9 6.5-2.9 13.8-3.1 20.4-0.5 0.8 0.3 1.6 0.8 2.4 1.3l28.8 20.9c6 2.8 10.6 7.6 13.1 13.8 2.7 6.6 2.6 13.9-0.3 20.4L628.8 374.7c-4.2 9.5-13.6 15.2-23.6 15.2z m-15-27.4l13.4 5.3c2.1 0.8 4.6-0.1 5.5-2.3L709.3 157c0.5-1.1 0.2-2.4-0.1-3.1-0.3-0.6-0.9-1.8-2.4-2.4-0.8-0.3-1.6-0.8-2.4-1.3L676 129.6c-1-0.1-1.9 0.1-2.4 0.3-0.6 0.3-1.7 1-2.3 2.5l-83.8 224.7c-0.6 2.1 0.5 4.5 2.7 5.4z" fill="#333333" p-id="3242"></path><path d="M298.5 473.3c-5.3 0-10-3.9-10.8-9.4-6.1-43.6 14.6-65 36-70.4 28.2-7.2 58.8 9.8 69.7 38.7 2.1 5.6-0.7 11.9-6.3 14-5.6 2.1-11.9-0.7-14-6.3-7.7-20.6-28.8-29.1-43.9-25.3-16.1 4.1-23.3 21-19.8 46.3 0.8 6-3.3 11.5-9.3 12.3-0.5 0.1-1.1 0.1-1.6 0.1z" fill="#805939" p-id="3243"></path><path d="M947.5 455.8c-5.5-10.3-16.5-19.1-42.7-27.9 3.7-7.8 6-16.5 6-25.7 0-33.1-26.8-60-59.9-60-29.6 0-54 21.5-58.9 49.6-10.8-18.4-31.6-31.1-55.9-31.1-24.3 0-45.2 12.8-56 31.3-1.9-0.1-3.8-0.3-5.7-0.4-4.5-23.7-25.2-41.6-50.2-41.6-14.7 0-27.9 6.3-37.3 16.3-7.6-21.9-29-37.8-54.3-37.8-24.2 0-44.8 27.5-53.3 47.8-2.5-25.9-24.1-59.5-50.6-59.5-24.4 0-44.7 17.1-49.8 40-9.2-19.8-29.2-33.6-52.4-33.6-30.5 0-55.2 23.7-57.5 53.6-8.7-15.9-25.3-26.9-44.7-26.9-23.5 0-43 15.9-49.1 37.5-7.8-4.9-17-7.8-26.8-7.8-28.2 0-51.1 22.9-51.1 51.2 0 2.7 0.4 5.3 0.8 7.8-15.4 7.9-21.5 8.1-21.5 16.9 303.4 293.2 594.7 302.1 870.9 0.3z" fill="#FFFFFF" p-id="3244"></path><path d="M525.7 689.7c-147.7 0-301.2-76-456.7-226-2.1-2-3.3-4.9-3.3-7.8 0-13.8 9.5-18.2 18.7-22.4 0.7-0.3 1.3-0.6 2.1-0.9v-1.4c0-34.2 27.8-62.1 62-62.1 7.2 0 14.3 1.3 21 3.8 10.5-20.2 31.6-33.5 54.8-33.5 14.7 0 28.6 5.3 39.5 14.4 10.7-24.3 35.1-41.2 62.8-41.2 19.2 0 37.4 8.2 50.2 22 11.1-17.3 30.4-28.3 52.1-28.3 23.5 0 43.6 19.3 54.1 42.5 11.7-15.9 28.8-30.8 49.8-30.8 24 0 45.8 12.2 58 31.4 9.9-6.5 21.5-10 33.6-10 24.1 0 45.5 14 55.7 34.9 14-15.2 34.4-24.2 56.1-24.2 19.6 0 38.1 7.3 51.8 19.9 11.8-23.1 35.7-38.5 62.9-38.5 39 0 70.8 31.8 70.8 70.9 0 6.5-0.9 12.9-2.8 19.2 19.9 7.9 31.6 16.9 38.2 29.2 2.2 4.1 1.6 9.1-1.5 12.5C822.1 608.9 682 685 539 689.5c-4.4 0.1-8.9 0.2-13.3 0.2zM90.8 454.4c153.5 146 304.1 217.7 447.5 213.3C673.1 663.5 806 592 933.4 455c-4.8-4.9-13.8-10.6-32.1-16.7-3-1-5.4-3.2-6.6-6.1-1.2-2.9-1.1-6.1 0.2-8.9 3.3-6.9 4.9-13.9 4.9-21 0-27.1-22-49.1-49-49.1-23.8 0-44 17.1-48.1 40.6-0.8 4.5-4.3 8-8.8 8.8-4.5 0.8-9-1.3-11.3-5.2-9.3-15.9-27.1-25.7-46.5-25.7-19.5 0-37.3 9.9-46.6 25.9-2.1 3.6-6 5.7-10.2 5.4l-5.6-0.4c-4.9-0.3-9-4-10-8.8-3.6-19-20.2-32.7-39.5-32.7-11.1 0-21.6 4.6-29.3 12.9-2.6 2.8-6.5 4-10.2 3.2-3.7-0.8-6.8-3.5-8-7.1-6.4-18.2-24.1-30.5-44.1-30.5-16.9 0-34.9 21.2-43.3 41.1-1.9 4.6-6.8 7.3-11.7 6.5-4.9-0.8-8.7-4.7-9.2-9.7-2.2-22.3-21-49.6-39.8-49.6-18.9 0-35.1 12.9-39.2 31.5-1 4.6-4.8 7.9-9.5 8.4-4.6 0.5-9.1-2-11-6.2-7.7-16.6-24.5-27.3-42.6-27.3-24.3 0-44.8 19.1-46.7 43.6-0.4 4.8-3.9 8.8-8.6 9.8-4.8 1.1-9.5-1.2-11.8-5.4-7.1-13.1-20.6-21.2-35.2-21.2-17.9 0-33.7 12.1-38.6 29.5-0.9 3.3-3.3 6-6.5 7.2-3.2 1.2-6.8 0.9-9.7-0.9-6.5-4-13.8-6.1-21.1-6.1-22.2 0-40.3 18.1-40.3 40.3 0 2.1 0.3 4.1 0.7 6.2 0.7 4.6-1.6 9.2-5.8 11.3-3.7 1.9-6.8 3.3-9.5 4.6-0.6 0.3-1.5 0.8-2.4 1.2z" fill="#333333" p-id="3245"></path><path d="M947.5 455.8c0 255.9-195 445.8-435.5 445.8S76.5 706.8 76.5 455.8c305 118.6 595.3 119.3 871 0z" fill="#4880E5" p-id="3246"></path><path d="M512 916.1c-252.3 0-450-202.2-450-460.3 0-4.8 2.4-9.3 6.3-12 4-2.7 9-3.3 13.5-1.6 300.7 117 590 117 859.9 0.2 4.5-1.9 9.7-1.5 13.7 1.2 4.1 2.7 6.5 7.2 6.5 12.1 0.1 258.2-197.6 460.4-449.9 460.4zM91.5 477C102 708.6 282.9 887 512 887c228.8 0 409.6-178 420.5-409.2-265.2 108.7-547.9 108.4-841-0.8z" fill="#333333" p-id="3247"></path><path d="M594.3 520.3c-2.2 0-4.5-0.7-6.4-2.1-4.9-3.5-5.9-10.3-2.4-15.2 11.1-15.2 15.1-27.7 12.2-38-1.4-4.9-8.3-6.4-11.1-6.8-11.3-1.5-27 3.2-33.5 13.9-3.1 5.2-9.8 6.8-14.9 3.7-5.1-3.1-6.8-9.8-3.7-14.9 11.6-19.2 36.5-26.7 55-24.2 14.9 2 25.8 10.4 29.2 22.5 4.8 17.2-0.2 35.8-15.5 56.8-2.2 2.8-5.6 4.3-8.9 4.3z" fill="#333333" p-id="3248"></path><path d="M302.9 473.3c-5.3 0-10-3.9-10.8-9.4-6.1-43.6 14.6-65 36-70.4 28.2-7.2 58.8 9.8 69.7 38.7 2.1 5.6-0.7 11.9-6.3 14-5.6 2.1-11.9-0.7-14-6.3-7.7-20.6-28.8-29.1-43.9-25.3-16.1 4.1-23.3 21-19.8 46.3 0.8 6-3.3 11.5-9.3 12.3-0.6 0.1-1.1 0.1-1.6 0.1z" fill="#333333" p-id="3249"></path><path d="M835.4 511.4c-6.4 1.5-23.4 73.4-27 83.2C770.1 699.8 691 802.9 587.2 852.5c-119.8 57.2-247.2 12.9-345.8-66.4-95.2-76.6-145.5-190-151.2-310.9 233.5 68.7 388 120.1 745.2 36.2z" fill="#76A0FC" p-id="3250"></path><path d="M396.9 841.8l0.7-1.6-0.8 1.6 11.8-26.5zM348 814.4c-2.2 0-4.4-0.5-6.4-1.5-13.7-6.8-16.4-8.6-23.5-13.8-2.4-1.7-5.5-4-10.2-7.2-7-4.8-13.8-9.7-20.4-14.8-20.7-16-40-33.7-57.3-52.9-8.7-9.6-17.1-19.8-25.1-30.1-4.9-6.4-3.7-15.5 2.7-20.3 6.4-4.9 15.5-3.7 20.3 2.7 7.5 9.8 15.4 19.3 23.6 28.4 16.1 17.8 34.1 34.4 53.4 49.3 6.2 4.8 12.6 9.4 19.1 13.9 4.9 3.4 8.2 5.7 10.8 7.6 5.9 4.2 7.3 5.2 19.4 11.3 7.2 3.6 10.1 12.3 6.6 19.5-2.5 5-7.7 7.9-13 7.9z" fill="#FFFFFF" p-id="3251"></path></svg>