<?xml version="1.0" standalone="no"?><!DOCTYPE svg PUBLIC "-//W3C//DTD SVG 1.1//EN" "http://www.w3.org/Graphics/SVG/1.1/DTD/svg11.dtd"><svg t="1568877491121" class="icon" viewBox="0 0 1024 1024" version="1.1" xmlns="http://www.w3.org/2000/svg" p-id="4887" xmlns:xlink="http://www.w3.org/1999/xlink" width="200" height="200"><defs><style type="text/css"></style></defs><path d="M680.344671 268.061476c-37.357927-38.007926-109.571786 75.601852-161.545684 9.205982 18.261964 109.791786-63.689876 133.505739-30.69194 133.50574 130.251746 0.002 175.311658-85.047834 192.237624-142.711722z" fill="#FFBA4C" p-id="4888"></path><path d="M896.866248 843.982352c214.719581-233.331544 39.039924-977.022092-346.529323-717.538599-34.131933 22.967955-49.805903 41.02992-31.541938 150.825705 51.973898 66.39587 124.191757-47.213908 161.545684-9.205982 8.131984-27.703946 9.769981-49.093904 11.239978-51.683899 54.573893-87.423829 348.425319 232.121547 49.171904 470.553081 36.06193-168.88567-139.699727-148.035711-272.455468-195.807617-132.757741-47.767907-171.839664-92.34782-197.265614-131.285744-38.419925 75.007854 36.987928 197.435614 36.987927 197.435615-82.691838-0.004-188.097633-144.309718-202.077605-235.49554-34.515933 126.721752-22.539956 253.961504 41.857918 313.231388l-120.889764-69.137865c7.933985 148.57771 52.037898 236.649538 94.067817 284.121445 12.299976-0.471999 26.033949 1.117998 41.359919 5.383989 119.555766 33.287935 110.889783-47.111908 270.891471-6.847986 160.005687 40.261921 98.523808-37.473927 258.525495 2.787994 2.033996 0.511999 4.039992 0.999998 6.023988 1.467997 120.761764 28.453944 151.841703-23.515954 199.087611-8.803982z" fill="#F0F0F0" p-id="4889"></path><path d="M691.756649 851.318337c-160.001687-40.261921-98.519808 37.473927-258.525495-2.787994-160.001687-40.265921-151.335704 40.135922-270.891471 6.847986-15.32397-4.267992-29.059943-5.857989-41.359919-5.383989-83.665837 3.211994-100.991803 101.787801-100.991803 101.787801l984.020078-2.759995c-51.483899-69.783864-81.663841-97.10781-107.143791-105.041794l-0.012 0.012c-45.83991-14.257972-76.473851 34.227933-188.591631 11.107978a391.669235 391.669235 0 0 1-16.503968-3.781993z" fill="#00E7E2" p-id="4890"></path><path d="M1020.096008 937.15617c-37.885926-51.3539-66.30987-82.781838-91.835821-99.715806 58.313886-77.107849 87.423829-196.809616 80.309843-333.739348-7.467985-143.737719-54.283894-278.871455-125.231755-361.481294-43.447915-50.589901-93.771817-80.185843-149.575708-87.965828-61.54188-8.581983-127.009752 10.12798-194.58362 55.603891-18.431964 12.405976-35.63193 25.871949-43.511915 54.055895-7.025986 25.129951-6.007988 60.003883 3.403993 116.599772l0.022 0.136c10.27798 62.003879-15.36797 91.455821-27.695946 105.611794-6.485987 7.449985-15.37197 17.653966-9.273982 31.049939 6.121988 13.451974 21.069959 13.451974 25.97995 13.451974 79.515845 0 139.719727-29.183943 178.93965-86.733831 30.71394-45.075912 38.879924-94.217816 42.367917-115.203775 0.214-1.293997 0.457999-2.759995 0.669999-3.969992 2.063996-2.295996 5.419989-4.011992 12.629975-2.933994 34.769932 5.17599 97.783809 66.42587 121.427763 154.425698 15.103971 56.21589 22.463956 160.307687-78.771846 261.907488-1.761997-39.059924-17.815965-69.155865-48.445905-91.235821-36.127929-26.039949-87.22183-36.977928-141.317724-48.555906-33.815934-7.237986-68.785866-14.721971-100.537804-26.147948-128.707749-46.31191-164.165679-87.983828-187.297634-123.405759-3.893992-5.963988-10.655979-9.369982-17.787965-9.033983a19.991961 19.991961 0 0 0-16.741968 10.849979c-28.327945 55.305892-4.471991 129.451747 16.109969 175.241658-62.863877-33.803934-132.749741-136.117734-143.64972-207.217596a19.991961 19.991961 0 0 0-18.621963-16.927966c-9.417982-0.503999-17.941965 5.595989-20.42396 14.701971-26.835948 98.533808-25.67995 192.261624 0.567999 260.80949L36.833928 548.518929a19.989961 19.989961 0 0 0-29.885942 18.417964c7.215986 135.169736 43.133916 219.097572 78.293848 269.745473-25.219951 9.093982-46.437909 27.251947-62.497878 53.825895C5.621989 918.848205 0.511999 947.13015 0.301999 948.320148a19.981961 19.981961 0 0 0 19.687962 23.449954h0.056l984.020078-2.759995a19.989961 19.989961 0 0 0 16.029969-31.853937zM519.526985 388.92724c10.36198-16.541968 20.39596-40.033922 21.803958-72.509858a65.055873 65.055873 0 0 0 16.691967 2.141996c3.529993 0 7.141986-0.263999 10.831979-0.791999 20.087961-2.871994 39.283923-13.315974 56.22189-22.529956 10.873979-5.915988 21.153959-11.481978 29.457943-13.927972-24.289953 63.879875-68.897865 99.399806-135.007737 107.617789zM137.181732 651.962727c28.771944 20.41196 60.721881 37.009928 95.009815 49.313903 2.229996 0.799998 4.509991 1.181998 6.749986 1.181998 8.197984 0 15.887969-5.08399 18.815964-13.243974 3.729993-10.38998-1.673997-21.837957-12.063977-25.56795-30.79594-11.049978-59.451884-25.919949-85.213833-44.177914-43.913914-41.293919-61.739879-124.905756-49.681903-220.22757 40.81392 85.881832 122.581761 178.017652 197.221614 178.021653h0.002a19.993961 19.993961 0 0 0 17.029967-30.459941c-15.42997-25.135951-46.729909-89.753825-44.769912-141.823723 29.387943 32.425937 78.461847 67.969867 181.249646 104.955795 34.287933 12.339976 70.595862 20.109961 105.705793 27.623946 49.875903 10.673979 96.987811 20.757959 126.307753 41.891918 20.059961 14.459972 41.333919 39.271923 27.659946 103.307798a19.989961 19.989961 0 0 0 32.005938 19.807962c157.649692-125.609755 148.829709-264.801483 129.539747-336.593343-12.279976-45.693911-35.575931-90.015824-65.601872-124.801756-28.713944-33.263935-60.987881-54.689893-88.549827-58.793885-22.889955-3.405993-42.557917 5.12599-53.971895 23.413954a17.409966 17.409966 0 0 0-0.427999 0.717999c-2.267996 3.999992-2.881994 7.687985-4.223992 15.763969a370.909276 370.909276 0 0 1-3.463993 18.095965c-5.907988-0.613999-12.613975-0.206-20.17196 1.705996-13.443974 3.393993-26.519948 10.511979-40.369922 18.043965-35.205931 19.153963-52.301898 25.73995-68.335866 8.465983-15.885969-98.801807-1.637997-108.399788 23.867953-125.561754 141.329724-95.113814 236.531538-38.771924 291.511431 25.24195 65.383872 76.131851 108.611788 202.301605 115.635774 337.509341 6.811987 131.121744-22.645956 248.121515-79.099845 316.207383-0.427999-0.056-0.849998-0.088-1.277998-0.138-0.639999-0.072-1.277998-0.148-1.919996-0.208-0.593999-0.05-1.183998-0.086-1.773997-0.126-0.633999-0.042-1.267998-0.092-1.903996-0.117999-0.553999-0.024-1.105998-0.028-1.657997-0.04-0.595999-0.014-1.191998-0.042-1.791996-0.042-0.066 0-0.13 0.006-0.194 0.006a87.21983 87.21983 0 0 0-4.589991 0.152 93.501817 93.501817 0 0 0-5.801989 0.499999c-0.653999 0.078-1.303997 0.174-1.953996 0.263999-0.873998 0.122-1.745997 0.25-2.613995 0.389999-1.093998 0.18-2.185996 0.371999-3.275993 0.577999-0.807998 0.154-1.615997 0.307999-2.419996 0.475999a156.559694 156.559694 0 0 0-2.717994 0.595999c-0.433999 0.1-0.865998 0.204-1.299998 0.305999-1.797996 0.423999-3.593993 0.873998-5.395989 1.349998l-0.407999 0.108c-4.347992 1.159998-8.715983 2.431995-13.159975 3.739992-6.875987 2.025996-14.097972 4.149992-21.959957 6.023989l-0.963998 0.225999a251.393509 251.393509 0 0 1-4.231992 0.947998c-0.585999 0.128-1.183998 0.248-1.777996 0.372-0.753999 0.154-1.505997 0.309999-2.269996 0.457999l-0.633998 0.117999a202.739604 202.739604 0 0 1-10.35398 1.703997l-0.08 0.012c-1.227998 0.168-2.471995 0.323999-3.733993 0.471999l-0.193999 0.024a198.899612 198.899612 0 0 1-20.329961 1.295998l-0.949998 0.014c-1.027998 0.01-2.069996 0.006-3.117994 0-1.995996-0.012-4.005992-0.044-6.027988-0.11-0.757999-0.026-1.533997-0.066-2.301995-0.1a233.759543 233.759543 0 0 1-4.937991-0.266c-0.789998-0.05-1.567997-0.092-2.367995-0.149999a257.687497 257.687497 0 0 1-9.267982-0.869999 275.879461 275.879461 0 0 1-8.997983-1.155997 282.967447 282.967447 0 0 1-8.073984-1.277998 324.983365 324.983365 0 0 1-7.157986-1.309997c-0.617999-0.122-1.255998-0.259999-1.877996-0.383999a350.687315 350.687315 0 0 1-6.427988-1.361998c-0.799998-0.178-1.603997-0.355999-2.411995-0.539999-2.743995-0.625999-5.509989-1.279998-8.319984-1.985996-33.579934-8.451983-60.595882-12.557975-82.587838-12.557975-27.457946 0-44.029914 6.301988-58.651886 11.865976-13.055975 4.96399-24.329952 9.253982-44.449913 9.253982-18.659964 0-42.485917-3.711993-72.835858-11.347977-32.561936-8.195984-60.675881-12.177976-85.941832-12.177977-36.181929 0-60.497882 8.209984-81.95184 15.44997-17.901965 6.041988-33.361935 11.263978-54.127894 11.263978-14.287972 0-30.113941-2.471995-48.383906-7.559985-12.929975-3.599993-25.50395-5.645989-37.453926-6.097988-27.445946-33.685934-67.677868-102.881799-80.501843-228.061555l87.447829 49.999903zM46.829909 931.71818c10.04998-25.261951 32.519936-61.811879 78.363846-61.811879 9.817981 0 20.51196 1.591997 31.785938 4.731991 21.809957 6.069988 41.14392 9.023982 59.107885 9.023982 27.331947 0 47.455907-6.789987 66.915869-13.361974 20.33796-6.865987 39.547923-13.351974 69.165865-13.351974 21.935957 0 46.855908 3.587993 76.187851 10.967979 33.579934 8.449983 60.595882 12.557975 82.589839 12.557975 27.465946 0 44.039914-6.301988 58.663885-11.865977 13.053975-4.96599 24.325952-9.253982 44.437914-9.253981 18.659964 0 42.481917 3.713993 72.829857 11.347977h0.004c3.327994 0.837998 6.579987 1.607997 9.789981 2.331996 0.417999 0.096 0.837998 0.196 1.253998 0.289999 2.967994 0.661999 5.875989 1.271998 8.743983 1.841997 0.683999 0.136 1.369997 0.277999 2.047996 0.409999 2.727995 0.529999 5.405989 1.011998 8.043984 1.461997a340.201336 340.201336 0 0 0 10.17398 1.579997c0.657999 0.092 1.315997 0.184 1.967996 0.271999 2.809995 0.373999 5.565989 0.701999 8.271984 0.989998l1.093998 0.116c9.99998 1.025998 19.307962 1.481997 27.983945 1.481997 35.151931-0.002 60.113883-7.347986 80.445843-13.333974 11.433978-3.365993 19.987961-5.771989 27.507947-6.551987a43.099916 43.099916 0 0 1 2.447995-0.197999c0.218-0.012 0.433999-0.016 0.649999-0.026 2.959994-0.128 5.799989 0.03 8.625983 0.517999 0.263999 0.046 0.527999 0.096 0.793998 0.147999 0.297999 0.058 0.597999 0.128 0.897998 0.192 15.19797 3.415993 36.623928 17.799965 75.983852 66.923869l-916.778209 2.567995z" p-id="4891"></path><path d="M588.242851 185.261638c-11.009978 0-19.989961 8.979982-19.989961 19.989961 0 11.009978 8.979982 19.989961 19.989961 19.989961s19.987961-8.979982 19.987961-19.989961c0-11.009978-8.977982-19.989961-19.987961-19.989961zM293.601427 718.408597l0.247999 0.052a20.099961 20.099961 0 0 0 4.097992 0.423999c9.269982 0 17.583966-6.483987 19.547962-15.917969 2.251996-10.805979-4.683991-21.393958-15.49197-23.645954l-0.875998-0.175999c-10.829979-2.071996-21.251958 5.01799-23.345955 15.839969-2.093996 10.821979 5.00399 21.305958 15.81997 23.423954zM446.939127 678.370675c36.551929 32.793936 83.013838 50.633901 150.649706 57.847887 0.719999 0.078 1.435997 0.116 2.143996 0.116 10.08598 0 18.757963-7.615985 19.851961-17.869965 1.171998-10.975979-6.777987-20.825959-17.757965-21.995957-58.751885-6.267988-98.287808-21.027959-128.19375-47.853907-8.215984-7.369986-20.855959-6.683987-28.227945 1.531997-7.369986 8.211984-6.683987 20.851959 1.533997 28.223945z" p-id="4892"></path></svg>