<?xml version="1.0" standalone="no"?><!DOCTYPE svg PUBLIC "-//W3C//DTD SVG 1.1//EN" "http://www.w3.org/Graphics/SVG/1.1/DTD/svg11.dtd"><svg t="1568877471465" class="icon" viewBox="0 0 1024 1024" version="1.1" xmlns="http://www.w3.org/2000/svg" p-id="3666" xmlns:xlink="http://www.w3.org/1999/xlink" width="200" height="200"><defs><style type="text/css"></style></defs><path d="M297.548 608.016a742.856 742.856 0 0 1-11.06 9.024l-0.004 0.004c-17.052 11.32-33.204 16.472-33.204 16.472l0.004-0.008c-23.08 8.288-47.908 9.036-70.6 1.304l-0.02 0.024c-5.344-0.964-5.668 5.072-5.668 5.072 0.98 9.132 0.62 14.04 0.62 14.04-0.38 23.012-7.38 46.748-21.528 68.004-17.2 25.844-41.848 43.332-68.276 51.144l0.024 0.028c-6.612 4.7-1.964 9.412-1.964 9.412l-0.012 0.016c28.288 30.852 35.324 77.956 17.952 120.288l0.024-0.008c0.32 7.12 6.908 5.552 6.908 5.552l-0.004 0.028c26.652-5.48 54.408-1.208 77.716 14.328 19.292 12.86 32.636 31.516 39.628 52.716l0.02-0.008s1.756 4.256 3.48 13.416l0.012-0.004s2.908 5.58 8.624 2.044l0.016 0.052c27.344-27.54 64.64-40.236 99.372-34.88a99.84 99.84 0 0 1 11.54 2.868l0.004-0.02s6.268 1.256 8.084-5.944a199.252 199.252 0 0 1-0.16-1.736l-0.04-0.068c-0.024-0.312-0.02-0.628-0.04-0.94a71.392 71.392 0 0 1-0.248-6.536l0.004 0.004c-0.084-4.768 0.168-7.816 0.168-7.816h0.004c0.216-3.784 3.54-6.828 7.128-6.532l52.076 4.292 31.44-47.724-24.36-47.092c-1.684-3.252-0.18-7.576 3.252-9.32a119.508 119.508 0 0 1 12.92-5.608l-0.008-0.032s13.284-6.64 6.06-17.408c-21.188-27.548-27.348-65.44-16.744-101.412l-0.028-0.012c3.36-14.432-12.9-14.016-12.9-14.016-22.728 2.056-45.628-3.028-65.344-16.168-22.368-14.912-36.784-37.596-42.524-63.024-1.264-5.648-7.7-7.688-12.344-3.816z" fill="#FFEA92" p-id="3667"></path><path d="M663.016 752.948h-39.82c-0.088-0.004-0.172-0.016-0.256-0.016l-0.016 0.016H360.984c-69.2 0-125.296 56.096-125.296 125.296V992h552.62v-113.756c0.004-69.196-56.092-125.296-125.292-125.296z" fill="#6BDDDD" p-id="3668"></path><path d="M759.236 396.144c-0.524 0-1.032 0.068-1.552 0.076v-23.004c0-134.464-109.996-243.472-245.684-243.472S266.316 238.748 266.316 373.216v23.004c-0.52-0.012-1.028-0.076-1.552-0.076-41.396 0-74.956 33.256-74.956 74.28s33.56 74.28 74.956 74.28c2.72 0 5.396-0.16 8.044-0.44 25.352 107.712 122.784 187.972 239.196 187.972 116.412 0 213.84-80.26 239.196-187.972 2.644 0.28 5.324 0.44 8.044 0.44 41.396 0 74.956-33.256 74.956-74.28-0.008-41.024-33.568-74.28-74.964-74.28z" fill="#F9CFCF" p-id="3669"></path><path d="M512 740.236c-116.228 0-216.148-76.772-245.34-187.556-46.612 1.108-84.852-36.264-84.852-82.252 0-43.216 33.764-78.76 76.508-82.032v-15.172c0-138.66 113.8-251.468 253.684-251.468s253.684 112.808 253.684 251.468v15.172c42.744 3.272 76.508 38.816 76.508 82.032 0 45.368-37.216 82.276-82.956 82.276-0.624 0-1.256-0.008-1.896-0.024-29.192 110.78-129.112 187.556-245.34 187.556z m-239.188-203.972a8 8 0 0 1 7.78 6.168c25.196 107.044 120.356 181.804 231.408 181.804s206.212-74.76 231.408-181.804a8.008 8.008 0 0 1 8.628-6.12c2.516 0.264 4.872 0.396 7.2 0.396 36.92 0 66.956-29.732 66.956-66.276 0-36.536-30.024-66.264-66.928-66.28-0.684 0.044-1.056 0.068-1.428 0.076h-0.148a7.984 7.984 0 0 1-5.6-2.292c-1.536-1.504-2.4-3.56-2.4-5.708v-23.004c0-129.836-106.624-235.468-237.684-235.468S274.316 243.38 274.316 373.22v23.004c0 2.148-0.864 4.204-2.4 5.708-1.532 1.504-3.784 2.432-5.752 2.288a17.204 17.204 0 0 1-1.12-0.056h-0.036c-37.188 0-67.204 29.724-67.204 66.26 0 36.544 30.036 66.276 66.956 66.276 2.324 0 4.68-0.128 7.2-0.396 0.292-0.028 0.572-0.04 0.852-0.04z" fill="#3762CC" p-id="3670"></path><path d="M512 732.236c-40.144 0-78.028-9.552-111.484-26.476v42.548c0 61.552 49.9 111.452 111.452 111.452s111.452-49.9 111.452-111.452v-42.516c-33.436 16.904-71.3 26.444-111.42 26.444z" fill="#F9CFCF" p-id="3671"></path><path d="M788.312 1000H235.688a8 8 0 0 1-8-8v-113.756c0-73.5 59.796-133.296 133.296-133.296h31.532v-39.188a8 8 0 0 1 11.612-7.14c33.592 16.996 69.888 25.612 107.872 25.612 37.96 0 74.236-8.608 107.812-25.584a7.996 7.996 0 0 1 11.608 7.14v39.16h31.592c73.5 0 133.296 59.796 133.296 133.296V992c0.004 4.416-3.576 8-7.996 8z m-544.624-16h536.624v-105.756c0-64.676-52.62-117.296-117.296-117.296h-39.712a7.988 7.988 0 0 1-7.992-8.324c0.06-1.432 0.108-2.872 0.108-4.32v-29.864c-32.54 14.468-67.264 21.792-103.42 21.792-36.18 0-70.928-7.332-103.484-21.82v29.892c0 1.448 0.052 2.884 0.108 4.32a8 8 0 0 1-7.992 8.324h-39.648c-64.676 0-117.296 52.62-117.296 117.296z" fill="#3762CC" p-id="3672"></path><path d="M443.356 356.656H198.04V271.48C198.04 139.22 305.26 32 437.52 32h68.888c34.82 0 63.048 28.228 63.048 63.048V230.56c0 69.64-56.456 126.096-126.1 126.096z" fill="#4671C6" p-id="3673"></path><path d="M822.052 348.224h-142.764c-60.66 0-109.836-49.176-109.836-109.836V89.62c0-31.824 25.796-57.62 57.62-57.62 107.684 0 194.976 87.296 194.976 194.976v121.248zM223.868 356.656v51.568a75.04 75.04 0 0 1 40.896-12.076c0.524 0 1.032 0.068 1.552 0.076v-23.004c0-5.572 0.224-11.088 0.596-16.564zM756.36 348.224c0.848 8.22 1.324 16.552 1.324 24.996v23.004c0.52-0.012 1.028-0.076 1.552-0.076 15.076 0 29.08 4.452 40.836 12.04V348.224z" fill="#4671C6" p-id="3674"></path><path d="M356.78 513.472a8 8 0 0 1-3.848-15.02l59.648-32.62c0.144-0.08 0.444-0.244 0.44-0.748-0.004-0.508-0.32-0.672-0.452-0.748l-59.532-31.42a8 8 0 1 1 7.468-14.148l59.532 31.42c5.496 2.9 8.936 8.564 8.984 14.776s-3.312 11.924-8.76 14.904l-59.648 32.624a7.976 7.976 0 0 1-3.832 0.98zM666.44 513.472a7.96 7.96 0 0 1-3.832-0.984l-59.648-32.62a16.832 16.832 0 0 1-8.764-14.908 16.828 16.828 0 0 1 8.984-14.776l59.536-31.42a8 8 0 1 1 7.468 14.148l-59.536 31.42c-0.144 0.08-0.448 0.24-0.452 0.744s0.296 0.668 0.44 0.752l59.652 32.62a8 8 0 0 1-3.848 15.024z" fill="#3762CC" p-id="3675"></path><path d="M575.252 622h-126.5a12.84 12.84 0 0 1-12.844-12.844c0-32.304 26.188-58.488 58.488-58.488h35.216c32.304 0 58.488 26.188 58.488 58.488a12.852 12.852 0 0 1-12.848 12.844z" fill="#F9A7A7" p-id="3676"></path><path d="M443.356 364.656H198.044a8 8 0 0 1-8-8V271.48C190.044 135.016 301.06 24 437.52 24h68.888c39.176 0 71.048 31.872 71.048 71.048V230.56c-0.004 73.94-60.16 134.096-134.1 134.096z m-237.312-16h237.312c65.12 0 118.096-52.98 118.096-118.096V95.048c0-30.352-24.696-55.048-55.048-55.048H437.52c-127.636 0-231.476 103.84-231.476 231.48z" fill="#3762CC" p-id="3677"></path><path d="M822.056 356.224h-142.76c-64.976 0-117.84-52.86-117.84-117.836V89.62c0-36.184 29.436-65.62 65.62-65.62 111.92 0 202.98 91.056 202.98 202.98v121.244a8 8 0 0 1-8 8zM627.076 40c-27.36 0-49.62 22.26-49.62 49.62v148.764c0 56.152 45.684 101.836 101.84 101.836h134.76v-113.24c0-103.1-83.88-186.98-186.98-186.98zM223.868 416.224a7.996 7.996 0 0 1-8-8V356.656a8 8 0 0 1 8-8h43.044a7.988 7.988 0 0 1 7.98 8.54 234.956 234.956 0 0 0-0.576 16.02v23.004c0 2.148-0.864 4.204-2.4 5.708-1.532 1.504-3.784 2.432-5.752 2.288a17.348 17.348 0 0 1-1.12-0.056h-0.1c-13.248 0-25.848 3.732-36.732 10.772a7.932 7.932 0 0 1-4.344 1.292z m8-51.568v30.256a82.96 82.96 0 0 1 26.448-6.516v-15.176c0-2.796 0.056-5.636 0.16-8.564z" fill="#3762CC" p-id="3678"></path><path d="M800.072 416.184c-1.512 0-3.024-0.428-4.34-1.28a67.144 67.144 0 0 0-36.496-10.76 30.656 30.656 0 0 1-1.404 0.076h-0.148a7.984 7.984 0 0 1-5.6-2.292c-1.536-1.504-2.4-3.56-2.4-5.708v-23.004c0-7.792-0.428-15.924-1.28-24.176a7.988 7.988 0 0 1 7.956-8.82h43.712a8 8 0 0 1 8 8v59.964a8 8 0 0 1-8 8z m-34.388-27.788c9.116 0.704 18.024 2.9 26.388 6.496v-38.668h-26.992c0.404 5.772 0.604 11.46 0.604 16.996zM575.252 630h-126.5a20.868 20.868 0 0 1-20.844-20.844c0-36.664 29.828-66.488 66.488-66.488h35.212c36.66 0 66.488 29.828 66.488 66.488a20.872 20.872 0 0 1-20.844 20.844z m-80.856-71.332c-27.84 0-50.488 22.648-50.488 50.488 0 2.672 2.172 4.844 4.844 4.844h126.5c2.672 0 4.844-2.172 4.844-4.844 0-27.84-22.648-50.488-50.488-50.488z" fill="#3762CC" p-id="3679"></path><path d="M360.124 976.712L375.412 992h167.28l-83.46-77.156-21.848-21.848a18 18 0 0 1-4.404-7.212l-2.464-7.672-10.164-37.096a45.72 45.72 0 0 0-2.772-8.38l-13.788-42.116a16.544 16.544 0 0 0-4.284-7.4l-37.452-37.452a16.596 16.596 0 0 0-10.94-4.84l-22.016-1.048-11.892-11.892a13.808 13.808 0 0 0-17.404-1.736l-36.928 21.004c-0.48 0.272-0.944 0.568-1.408 0.864a13.812 13.812 0 0 0-3.684 2.616l-1.672 1.672-11.932 11.932-15.24 15.24a31.82 31.82 0 0 0-6.04 8.432l-22.2 45.06-5.684 10.144 0.008-0.004a13.376 13.376 0 0 0 2.328 15.776l6.316 6.316 78.952 78.952a45.704 45.704 0 0 0 21.8 12.196l48.608 16a17.88 17.88 0 0 1 7.096 4.36z" fill="#F9CFCF" p-id="3680"></path><path d="M542.696 1000H375.412a8 8 0 0 1-5.656-2.344l-15.28-15.284a10.032 10.032 0 0 0-3.936-2.424l-48.304-15.904a53.776 53.776 0 0 1-25.256-14.24l-85.268-85.268a21.24 21.24 0 0 1-3.944-24.788c0.084-0.184 0.18-0.368 0.28-0.552l5.584-9.96 22.104-44.868a39.664 39.664 0 0 1 7.56-10.552l28.84-28.84a21.708 21.708 0 0 1 5.376-3.92 34.4 34.4 0 0 1 1.44-0.872l36.688-20.872a21.856 21.856 0 0 1 27.232 2.916l9.708 9.704 18.924 0.904a24.52 24.52 0 0 1 16.22 7.172l37.452 37.452a24.608 24.608 0 0 1 6.288 10.748l13.612 41.572c1.32 3.06 2.36 6.244 3.088 9.476L438.24 876l2.368 7.336c0.48 1.5 1.324 2.888 2.444 4.004l21.848 21.848 83.236 76.936a8.008 8.008 0 0 1-5.44 13.876z m-163.972-16h143.536l-68.452-63.28-22.08-22.068a26.044 26.044 0 0 1-6.364-10.428l-2.464-7.668-10.26-37.432a39.224 39.224 0 0 0-2.372-7.26 7.292 7.292 0 0 1-0.284-0.744l-13.788-42.116a6.6 6.6 0 0 1-0.12-0.4 8.62 8.62 0 0 0-2.22-3.836L356.4 751.32a8.58 8.58 0 0 0-5.664-2.504l-22.016-1.048a7.972 7.972 0 0 1-5.276-2.332l-11.896-11.892a5.8 5.8 0 0 0-7.312-0.736 8.44 8.44 0 0 1-0.476 0.292l-36.924 21.004a19.06 19.06 0 0 0-1.032 0.636c-0.26 0.168-0.536 0.32-0.812 0.46a5.796 5.796 0 0 0-1.552 1.092l-28.84 28.836a23.736 23.736 0 0 0-4.52 6.316l-22.2 45.056a11.108 11.108 0 0 1-0.196 0.376l-5.504 9.82-0.096 0.192a5.348 5.348 0 0 0 0.932 6.34l85.268 85.272a37.852 37.852 0 0 0 17.992 10.072c0.22 0.052 0.436 0.112 0.648 0.184l48.608 16c3.836 1.26 7.376 3.44 10.244 6.3l0.004 0.004z" fill="#3762CC" p-id="3681"></path></svg>