<?xml version="1.0" standalone="no"?><!DOCTYPE svg PUBLIC "-//W3C//DTD SVG 1.1//EN" "http://www.w3.org/Graphics/SVG/1.1/DTD/svg11.dtd"><svg t="1568877469304" class="icon" viewBox="0 0 1024 1024" version="1.1" xmlns="http://www.w3.org/2000/svg" p-id="3538" xmlns:xlink="http://www.w3.org/1999/xlink" width="200" height="200"><defs><style type="text/css"></style></defs><path d="M747.988038 490.203494c0-38.477714 29.110069-69.655853 65.03121-69.655853h1.446142c35.843669 0 64.947282 31.053323 65.031211 69.460021 0.30128 125.65513 0.1076 137.988227-0.068864 325.666075-0.1076 105.381162-79.882145 190.731532-178.245643 190.731532h-211.197028c-64.628787 0-124.213292-37.494251-155.701318-97.958923l-188.299774-361.772287 19.669256-16.316445c40.737311-37.440451 102.002526-32.835177 137.45238 10.308068l52.698113 64.155347 0.301279-441.353152c0.025824-38.458346 29.138045-69.621421 65.033363-69.621421h0.023672c35.918989 0 65.03121 31.203963 65.03121 69.681677v267.10592c0.865103-37.659955 29.633005-67.852479 64.98817-67.852479h1.53007c35.918989 0 65.039818 31.184595 65.039819 69.660157v22.428117c0-38.48417 29.110069-69.662309 65.046274-69.662308h0.15064c35.921141 0 65.039818 31.178139 65.039818 69.662308z m0 0" fill="#F7CAA5" p-id="3539"></path><path d="M814.463238 404.205373h-1.44399a78.969698 78.969698 0 0 0-53.195224 20.258904c-11.810162-32.716817-41.836982-56.253213-77.026444-56.253213a79.93164 79.93164 0 0 0-57.120468 24.59733c-13.727592-27.818871-41.266703-46.706952-72.965625-46.706952h-1.53007a75.45979 75.45979 0 0 0-46.9738 15.399694V163.525981c0-47.905615-37.298419-86.895504-82.666829-86.895505-45.327522 0-82.421501 38.955457-82.449477 86.820185L338.721167 556.786294l-22.266717-27.041999a112.280466 112.280466 0 0 0-79.322625-41.65191 110.483548 110.483548 0 0 0-82.783037 29.286533l-19.352913 16.047444a17.215979 17.215979 0 0 0-4.286779 21.201479l188.299775 361.963815c34.431959 66.139489 99.951673 107.406192 170.967587 107.406192h211.197028c107.666583 0 195.354022-93.461248 195.47023-208.113215 0.051648-51.975042 0.092536-90.603396 0.135576-121.807359 0.1076-82.313902 0.142032-112.725929-0.07532-203.606932-0.101144-47.789407-36.99714-86.264969-82.238582-86.264969z m47.892703 289.72987c-0.04304 31.203963-0.092536 69.9227-0.144184 121.897742-0.101144 95.688566-72.33509 173.715688-161.029663 173.715688h-211.197028c-58.138363 0-111.946906-34.162959-140.42644-88.871038L167.671804 551.148061l8.969525-7.488951c0.219504-0.185072 0.445463-0.404576 0.664967-0.596103a76.382997 76.382997 0 0 1 57.398075-20.613983 78.115355 78.115355 0 0 1 55.093287 29.153109l52.698113 64.148891a17.215979 17.215979 0 0 0 30.523931-10.919235l0.30128-441.353152c0.017216-28.901325 21.864294-52.414049 48.237022-52.41405s48.217654 23.538548 48.217654 52.465698v266.95528c0 0.645599-0.04304 1.286894-0.043039 1.941102 0 0.27976 0.04304 0.555215 0.043039 0.832823v114.163464a17.215979 17.215979 0 0 0 34.431959 0V430.937485c0-28.094326 21.300471-50.404084 46.9738-50.404084h1.53007c26.370576 0 48.333862 22.991941 48.333863 51.90833v104.113636c0 9.513981 7.710607 17.215979 17.215979 17.215979 9.509677 0 17.215979-7.701999 17.215979-17.215979V454.867696c0-28.916389 20.900199-52.446329 47.430024-52.446329 26.370576 0 47.257864 23.52994 47.257863 52.446329v77.060876a17.215979 17.215979 0 0 0 34.431959 0v-41.72723c0-28.918541 22.051518-51.566162 48.419942-51.566162h1.448294c26.295257 0 47.746367 23.015612 47.815231 51.858834 0.217352 90.820747 0.176464 121.166063 0.07532 203.439077z m0 0" fill="#083863" p-id="3540"></path><path d="M284.400448 170.956828a17.215979 17.215979 0 0 0 17.215979-17.21598c0-65.894161 53.412576-119.308889 119.311042-119.308889 65.887705 0 119.300281 53.412576 119.300281 119.308889a17.215979 17.215979 0 0 0 34.431959 0C574.659709 68.829486 505.830223 0 420.927469 0 336.016106 0 267.184469 68.829486 267.184469 153.740848a17.215979 17.215979 0 0 0 17.215979 17.21598z m0 0" fill="#083863" p-id="3541"></path></svg>