<?xml version="1.0" standalone="no"?><!DOCTYPE svg PUBLIC "-//W3C//DTD SVG 1.1//EN" "http://www.w3.org/Graphics/SVG/1.1/DTD/svg11.dtd"><svg t="1568877502323" class="icon" viewBox="0 0 1024 1024" version="1.1" xmlns="http://www.w3.org/2000/svg" p-id="5563" xmlns:xlink="http://www.w3.org/1999/xlink" width="200" height="200"><defs><style type="text/css"></style></defs><path d="M560 796.8c-118.4-22.4-208-128-208-252.8s89.6-230.4 208-252.8c118.4 22.4 208 128 208 252.8s-89.6 230.4-208 252.8z" fill="#E5E7EB" p-id="5564"></path><path d="M512 832c-160 0-288-128-288-288s128-288 288-288 288 128 288 288-128 288-288 288z m0-512c-124.8 0-224 99.2-224 224s99.2 224 224 224 224-99.2 224-224-99.2-224-224-224zM512 192c-19.2 0-32-12.8-32-32V32c0-19.2 12.8-32 32-32s32 12.8 32 32v128c0 19.2-12.8 32-32 32zM512 896c19.2 0 32 12.8 32 32v64c0 19.2-12.8 32-32 32s-32-12.8-32-32v-64c0-19.2 12.8-32 32-32zM272 822.4c12.8 12.8 12.8 32 0 44.8l-44.8 44.8c-12.8 12.8-32 12.8-44.8 0-12.8-12.8-12.8-32 0-44.8l44.8-44.8c12.8-12.8 32-12.8 44.8 0zM758.4 822.4c-12.8 12.8-12.8 32 0 44.8l44.8 44.8c12.8 12.8 32 12.8 44.8 0 12.8-12.8 12.8-32 0-44.8l-44.8-44.8c-12.8-12.8-32-12.8-44.8 0z" fill="#3C3C3C" p-id="5565"></path><path d="M560 99.2c217.6 22.4 387.2 201.6 400 422.4v25.6c0 32-25.6 60.8-60.8 60.8H160v-76.8-9.6c12.8-220.8 182.4-400 400-422.4z" fill="#EF9943" p-id="5566"></path><path d="M480 99.2c22.4-3.2 41.6-3.2 64-3.2 240 0 435.2 188.8 448 425.6v25.6c0 32-25.6 60.8-60.8 60.8h-128c32 0 60.8-25.6 60.8-60.8v-16-9.6c-12.8-214.4-176-390.4-384-422.4z" fill="#D86C2D" p-id="5567"></path><path d="M899.2 640H192c-19.2 0-32-12.8-32-32s12.8-32 32-32h707.2c16 0 28.8-12.8 28.8-28.8v-16-6.4C915.2 300.8 732.8 128 512 128S108.8 300.8 96 524.8V576c0 19.2-12.8 32-32 32s-32-12.8-32-32v-44.8-16C48 265.6 256 64 512 64s464 201.6 480 457.6v28.8c0 48-41.6 89.6-92.8 89.6z" fill="#3C3C3C" p-id="5568"></path><path d="M364.8 259.2c12.8-9.6 35.2-6.4 44.8 6.4 9.6 12.8 6.4 35.2-6.4 44.8-41.6 28.8-67.2 70.4-80 121.6-3.2 16-22.4 28.8-38.4 22.4-16-3.2-28.8-22.4-22.4-38.4 12.8-64 48-118.4 102.4-156.8z" fill="#FBCB7C" p-id="5569"></path></svg>