<?xml version="1.0" standalone="no"?><!DOCTYPE svg PUBLIC "-//W3C//DTD SVG 1.1//EN" "http://www.w3.org/Graphics/SVG/1.1/DTD/svg11.dtd"><svg t="1568821246055" class="icon" viewBox="0 0 1024 1024" version="1.1" xmlns="http://www.w3.org/2000/svg" p-id="2275" xmlns:xlink="http://www.w3.org/1999/xlink" width="200" height="200"><defs><style type="text/css"></style></defs><path d="M511.99778469 34.00865375C247.454555 34.00865375 32.99845813 248.46475063 32.99845813 513.00798031a478.99932656 478.99932656 0 0 0 450.1381425 478.0830975l1.73848406 0.0939722a479.069805 479.069805 0 0 0 266.64585562-63.4311722q17.37309375-10.01977594 33.67725469-21.35516156c1.632765-1.17465094 3.26553094-2.27882345 4.88654906-3.44172844l2.63121939-1.89118875 0.18794436-0.12921187a479.0110725 479.0110725 0 0 0 198.09320344-387.92860688C990.99711125 248.46475063 776.55276125 34.00865375 511.99778469 34.00865375z" fill="#F5D762" p-id="2276"></path><path d="M311.602265 318.53270281m151.50653063 0l96.33315656 0q151.50653063 0 151.50653062 151.50653063l0 4.74559219q0 151.50653063-151.50653062 151.50653062l-96.33315656 0q-151.50653063 0-151.50653063-151.50653062l0-4.74559219q0-151.50653063 151.50653063-151.50653063Z" fill="#7F6152" p-id="2277"></path><path d="M597.53589594 984.40731219a485.90627625 485.90627625 0 0 1-171.0762225 0V757.84056031H597.53589594z m0 0" fill="#FCE9E9" p-id="2278"></path><path d="M597.53589594 761.37626094H426.50665906v65.780475c17.96041875 17.61977063 49.33535625 29.36628375 84.99777188 29.36628375a148.33497188 148.33497188 0 0 0 45.34154156-6.84821719l-71.97088781 141.54548719a478.08309844 478.08309844 0 0 0 112.66081125-6.9304425v-156.22862906l-1.17465188-0.96321468 1.17465188-1.17465095z" fill="#FAD5D5" p-id="2279"></path><path d="M233.25302 902.61633875L426.50665906 827.34468031l31.71558656 161.66726532a476.60303719 476.60303719 0 0 1-224.8635075-86.39560688z" fill="#FCE9E9" p-id="2280"></path><path d="M565.66760469 989.01194563l31.86829125-161.66726532 193.19490656 75.27165844a477.29608219 477.29608219 0 0 1-225.06319781 86.39560688z" fill="#FAD5D5" p-id="2281"></path><path d="M597.53589594 808.10389156l-114.39929532 183.02242594a478.81138219 478.81138219 0 0 0 268.36084688-63.30196031q17.37309375-10.01977594 33.67725469-21.35516157c1.632765-1.17465094 3.26553094-2.27882345 4.88654906-3.44172843l2.63121937-1.89118875 0.18794438-0.12921188z" fill="#E3B765" p-id="2282"></path><path d="M313.32900219 529.464845c-5.02750781-135.78969563 88.43950031-211.13183344 198.51607781-211.1318325 109.58322375 0 202.85054156 75.74151844 198.51607781 208.11297938 6.519315-3.85285689 16.29241406-8.53971563 27.60430594-2.34930282 13.63770187 7.44729001 14.27201344 73.14553969-4.82781656 114.1526175a61.234575 61.234575 0 0 0-5.68531219 21.26118938c-4.12302656 55.20861375-7.48252875 101.27843906-20.61513187 101.27843906-14.09581594 0-12.78020625-99.39899719-12.69798094-99.62218031-35.627175 95.14675875-109.65370313 157.52074594-182.1414375 157.520745-73.02807469 0-137.140545-53.85776438-176.47961813-143.30746407-0.63431156 0.31715625-4.95702844 91.03547906-16.7035425 91.03547907-10.85377875 0-13.05037687-58.08650906-13.32054656-105.0725625a31.19874 31.19874 0 0 0-5.99072156-18.32456063c-26.2534575-35.79162656-31.92702375-113.27162906-15.88128656-118.53406781a32.39688375 32.39688375 0 0 1 29.70693281 4.98052125z" fill="#F9E3E6" p-id="2283"></path><path d="M495.96379344 488.44602031a16.03399125 16.03399125 0 1 0 8.06985468-13.88437875 16.04573719 16.04573719 0 0 0-8.01112218 13.88437875z m0 0M511.83333313 743.40409531c18.60647719 0 33.68900062-6.07294781 33.68900062-13.54372968H478.19131906c0 7.47078281 15.04728375 13.54372969 33.64201407 13.54372968z" fill="#D16279" p-id="2284"></path><path d="M289.95344 551.56003719a10.33693219 10.33693219 0 0 1 16.33940062-7.96413563c3.70015219 2.7369375 6.519315 7.10664094 7.6234875 15.15300189 2.34930281 17.03244469-2.34930281 28.45005563-2.34930281 28.45005561a66.26208281 66.26208281 0 0 1 8.80988532 24.99658031 105.71862094 105.71862094 0 0 1 0 25.84233s-24.66767813-15.17649563-28.77895875-50.16935906a221.3747925 221.3747925 0 0 1-1.64451188-36.30847312zM733.86593094 551.56003719c-0.38763469-8.22255937-9.74960625-12.83893969-16.32765375-7.96413563-3.71189812 2.7369375-6.519315 7.10664094-7.63523344 15.15300189-2.34930281 17.03244469 2.34930281 28.45005563 2.34930281 28.45005561a66.26208281 66.26208281 0 0 0-8.80988531 24.99658031 105.71862094 105.71862094 0 0 0 0 25.84233s24.66767813-15.17649563 28.77895781-50.16935906a221.3747925 221.3747925 0 0 0 1.64451188-36.30847312z" fill="#F2B2B1" p-id="2285"></path><path d="M710.94848281 482.10290281v45.8114025a108.15014906 108.15014906 0 0 0-103.15788093-75.63580031H415.59414875a108.06792375 108.06792375 0 0 0-103.99188375 78.45496406v-48.63056625c0-91.39962094 75.58881375-166.1896725 167.97514219-166.1896725h63.43117312c92.35108875 0 167.93990345 74.79005156 167.9399025 166.1896725z" fill="#7F6152" p-id="2286"></path><path d="M444.71375562 249.357485m50.82716344 0l31.46890969 0q50.82716343 0 50.82716344 50.82716438l0 11.11220156q0 50.82716343-50.82716344 50.82716344l-31.46890969 0q-50.82716343 0-50.82716344-50.82716344l0-11.11220156q0-50.82716343 50.82716344-50.82716438Z" fill="#7F6152" p-id="2287"></path><path d="M599.36835125 578.51828563c-15.27046781 0-30.92857031 13.70818125-30.92856937 13.70818125l65.39284031-1.96166813s-19.19380311-11.74651312-34.46427094-11.74651312zM388.71812562 590.26479875l65.39284032 1.96166812s-15.66984938-13.70818125-30.94031625-13.70818124-34.45252406 11.74651312-34.45252406 11.74651312z" fill="#262626" p-id="2288"></path><path d="M518.11771813 592.22646687v85.74954844l17.99565844-4.48716843-17.99565844-81.26238001z" fill="#F2B2B1" p-id="2289"></path><path d="M655.76336281 537.21754437c-19.9690725 0-78.114315-4.59288656-95.73408468 9.50292938M371.8501325 537.21754437c19.9690725 0 78.114315-4.59288656 95.73408469 9.50292938" fill="#262626" p-id="2290"></path></svg>