<?xml version="1.0" standalone="no"?><!DOCTYPE svg PUBLIC "-//W3C//DTD SVG 1.1//EN" "http://www.w3.org/Graphics/SVG/1.1/DTD/svg11.dtd"><svg t="1568821833177" class="icon" viewBox="0 0 1024 1024" version="1.1" xmlns="http://www.w3.org/2000/svg" p-id="2270" xmlns:xlink="http://www.w3.org/1999/xlink" width="200" height="200"><defs><style type="text/css"></style></defs><path d="M997.3248 175.2576c-69.12-6.0928-131.2256-2.3552-186.7776 7.936-180.224-176.4864-469.2992-175.104-648.0896 3.7376-180.224 180.224-180.224 472.064 0 651.8272C312.32 988.672 539.6992 1013.4016 715.776 913.9712l182.1184 12.1344-14.4896-156.8768c42.496-25.1904 63.0272-47.1552 63.0272-47.1552-17.2544 1.3824-33.1776 2.3552-48.5376 3.2768 63.488-122.3168 68.6592-266.5984 15.4112-392.2432 40.6016-122.8288 84.0192-157.8496 84.0192-157.8496zM879.2064 367.616c-40.6016 133.9904-74.24 255.4368-246.0672 307.2512 0 0 9.8304 74.24 251.6992 54.1696 0 0-48.0768 77.9776-197.9904 109.2608l-56.5248-28.4672 21.9648 34.56c-14.0288 1.8432-28.4672 3.7376-44.3392 5.12-212.9408 15.4112-342.7328-111.616-396.9024-314.2656-47.616-176.9472-111.1552-120.9344-111.1552-120.9344s8.3968-26.624 22.4256-28.0064 37.8368-90.112 125.1328-34.0992C311.8592 394.24 380.9792 472.2176 413.184 436.736c32.6656-35.4816 197.9904-272.2304 553.7792-241.408 0 0.4608-46.6944 38.2976-87.7568 172.288z" fill="#0099FF" p-id="2271"></path></svg>