<?xml version="1.0" standalone="no"?><!DOCTYPE svg PUBLIC "-//W3C//DTD SVG 1.1//EN" "http://www.w3.org/Graphics/SVG/1.1/DTD/svg11.dtd"><svg t="1568821828665" class="icon" viewBox="0 0 1024 1024" version="1.1" xmlns="http://www.w3.org/2000/svg" p-id="2009" xmlns:xlink="http://www.w3.org/1999/xlink" width="200" height="200"><defs><style type="text/css"></style></defs><path d="M977.4592 423.8336c10.9056-23.7568 0.4608-51.8144-23.2448-62.72a49.4592 49.4592 0 0 0-4.5568-1.792L246.3232 120.8832l-12.2368 5.5808c-11.776 5.1712-73.5744 38.4-143.7696 191.3344C20.1216 470.784 35.1744 539.2896 38.912 551.5264l3.8912 13.0048 639.488 377.6c22.4768 13.312 51.456 5.8368 64.768-16.64 0.8704-1.4336 1.6384-2.9184 2.304-4.4032l228.096-497.2544zM105.6256 519.8848c-0.3072-22.5792 4.9152-77.4656 48.64-172.7488 43.9808-95.8464 82.3296-135.4752 99.072-149.504l600.4224 203.5712c24.7296 8.3456 37.9904 35.1744 29.6448 59.904-0.512 1.5872-1.1264 3.1232-1.8432 4.608l-163.0208 355.328c-10.8544 23.7056-38.8608 34.1504-62.6176 23.3472-1.536-0.7168-3.0208-1.4848-4.4544-2.304L105.6256 519.8848z" fill="#1296DB" p-id="2010"></path><path d="M488.448 441.344c-29.2864-111.2064-212.1728-164.6592-212.1728-164.6592s-36.9152 27.6992-65.024 89.0368c-28.2112 61.44-33.6896 126.1568-33.6896 126.1568l447.0272 257.3312c4.7616-11.9296 9.3184-24.064 14.848-35.4304 25.1904-98.9184-121.7536-161.2288-150.9888-272.4352z" fill="#1296DB" p-id="2011"></path></svg>