<?xml version="1.0" standalone="no"?><!DOCTYPE svg PUBLIC "-//W3C//DTD SVG 1.1//EN" "http://www.w3.org/Graphics/SVG/1.1/DTD/svg11.dtd"><svg t="1568877461063" class="icon" viewBox="0 0 1024 1024" version="1.1" xmlns="http://www.w3.org/2000/svg" p-id="3137" xmlns:xlink="http://www.w3.org/1999/xlink" width="200" height="200"><defs><style type="text/css"></style></defs><path d="M330.06 37.44l-117.04 39.9L30.78 192l83.52 191.84 114.68-27.64-2.66 638.96h569.3V356.2l117.06 11.12L991.16 192l-194.2-132.16L624 32l-24.34 59.74L512 128l-80-28.84-46.06-60.4z" fill="#D4EBFC" p-id="3138"></path><path d="M672 64c0 70.72-71.68 128-160 128s-160-57.28-160-128c0-8.02 0.92-16.02 2.72-23.84L400 32c0 52.96 50.08 96 112 96s112-43.04 112-96l45.28 8.16c1.8 7.82 2.72 15.82 2.72 23.84z" fill="#57A4FF" p-id="3139"></path><path d="M1000.88 178.68l-192-128c-1.82-1.2-3.86-2.04-6-2.44l-176-32c-8.7-1.6-17.02 4.16-18.62 12.86-0.18 0.96-0.26 1.94-0.26 2.9 0 44.12-43.06 80-96 80s-96-35.88-96-80a15.996 15.996 0 0 0-18.84-15.74l-176 32c-2.14 0.4-4.18 1.22-6 2.44l-192 128a16.022 16.022 0 0 0-5.68 19.94l80 176a16.03 16.03 0 0 0 16.84 9.22l93.7-13.4V992c0 8.84 7.16 16 16 16h576c8.84 0 16-7.16 16-16V370.44l93.72 13.4c7.04 1 13.9-2.74 16.84-9.22l80-176c3.22-7.14 0.82-15.58-5.7-19.94zM512 144c63.24 0 115.94-40.36 126.2-93.18l17.24 3.2c0.36 3.32 0.56 6.64 0.56 9.98 0 61.76-64.6 112-144 112s-144-50.24-144-112c0-3.36 0.2-6.72 0.58-10.04l17.24-3.2C396.06 103.64 448.76 144 512 144z m390.4 206.4l-100.12-14.3c-8.74-1.26-16.86 4.8-18.12 13.54-0.12 0.78-0.16 1.56-0.16 2.36v624H240V352a15.996 15.996 0 0 0-18.28-15.84L121.6 350.4 52.2 197.76l177.92-118.6 106.12-19.32c0 1.4-0.24 2.76-0.24 4.16 0 79.4 78.96 144 176 144s176-64.6 176-144c0-1.4-0.2-2.76-0.24-4.16l106.12 19.32 177.92 118.6-69.4 152.64z" fill="#004FAC" p-id="3140"></path><path d="M416 912h-128c-8.84 0-16 7.16-16 16s7.16 16 16 16h128c8.84 0 16-7.16 16-16s-7.16-16-16-16zM480 912h-16c-8.84 0-16 7.16-16 16s7.16 16 16 16h16c8.84 0 16-7.16 16-16s-7.16-16-16-16z" fill="#004FAC" p-id="3141"></path><path d="M553.1 554.2v-77.72h18.66v-20.36h-18.66V378.4h14.02c-0.08-1.26-0.14-2.52-0.14-3.78 0-14 5.52-27.02 15.56-36.68 9.84-9.46 22.2-14.44 35.78-14.44 13.82 0 26.3 5.18 36.1 14.98 9.82 9.84 15 22.32 15 36.14 0 5.7-0.88 11.2-2.6 16.38v85.48h18.88v77.72h-132.6z" fill="#014FAC" p-id="3142"></path><path d="M634.16 499.4c-0.3 6.5 6 9.76 18.88 9.76v12.36h-67.26v-12.36c12.44 0 18.66-3.26 18.66-9.76v-65.96c0-6.66-6.22-9.98-18.66-9.98v-12.36h48.38v88.3z m2.6-124.76c0 5.06-1.78 9.44-5.32 13.12-3.54 3.68-7.92 5.54-13.12 5.54-2.6 0-5.02-0.5-7.26-1.52s-4.2-2.34-5.86-4.02c-1.66-1.66-3-3.62-4.02-5.86-1.02-2.24-1.52-4.66-1.52-7.26 0-5.2 1.84-9.58 5.54-13.12 3.68-3.54 8.06-5.32 13.12-5.32 5.06 0 9.4 1.8 13.02 5.42 3.62 3.62 5.42 7.96 5.42 13.02z" fill="#FFFFFF" p-id="3143"></path></svg>