<?xml version="1.0" standalone="no"?><!DOCTYPE svg PUBLIC "-//W3C//DTD SVG 1.1//EN" "http://www.w3.org/Graphics/SVG/1.1/DTD/svg11.dtd"><svg t="1568877480365" class="icon" viewBox="0 0 1024 1024" version="1.1" xmlns="http://www.w3.org/2000/svg" p-id="4206" xmlns:xlink="http://www.w3.org/1999/xlink" width="200" height="200"><defs><style type="text/css"></style></defs><path d="M510.685026 261.218893c-139.081281 139.081281-228.745528 228.715528-277.812569 277.790569-7.497853 7.497853-20.099607 4.893904-24.193527-4.893904-24.193527-58.006866-9.345817-135.02136 40.365211-197.858132 63.494759-80.090434 178.244515-126.011536 261.640885-75.038533z" fill="#5EAC24" p-id="4207"></path><path d="M474.581732 245.5312c-138.351295 138.313296-123.443587 123.431587-194.098206 194.078205-7.497853 7.497853-20.099607 4.893904-24.193527-4.893904-12.26576-29.381426-14.491717-63.634756-7.245858-98.456075 63.452759-80.040435 156.862933-109.645856 225.537591-90.728226z" fill="#6DC82A" p-id="4208"></path><path d="M630.352686 349.991157s0.002 0.002 0 0c-0.705986-0.483991-0.689987-0.483991 0 0z" fill="#5EAC24" p-id="4209"></path><path d="M850.810376 477.244669c-2.267956 10.353798-14.197722 15.183703-22.913552 9.177821-244.917212-169.136693-97.486094-67.336684-323.28168-223.269635 13.209742-12.075764 29.613421-21.695576 48.241057-28.247448 54.646932-19.217624 128.551487-12.201761 197.732134 35.555305 23.983531 16.569676 44.209136 36.123294 60.212823 57.31488 35.491306 46.875084 50.405015 101.690012 40.009218 149.469077z" fill="#5EAC24" p-id="4210"></path><path d="M587.72352 258.978937l0.131997 0.089998 0.008 0.008a12.457756 12.457756 0 0 1-0.203996-0.139997l0.063999 0.041999z" fill="#5EAC24" p-id="4211"></path><path d="M810.801158 327.773592c-16.003687-21.191586-36.227292-40.743203-60.212823-57.31488-69.180647-47.759066-143.085203-54.772929-197.732134-35.555305 12.577754 8.67983 225.091599 155.444961 234.443417 161.902835 8.71583 6.005883 20.645596 1.175977 22.913552-9.17782 4.157919-19.131626 4.263917-39.419229 0.587988-59.85483z" fill="#6DC82A" p-id="4212"></path><path d="M516.10292 257.606964l-2.667948-1.323975h-0.02c-1.239976-0.609988-21.925571-10.773789-51.180999-25.139508a860371.25307 860371.25307 0 0 0-209.975895-103.119984 216522.566815 216522.566815 0 0 1-87.830283-43.135157l-0.209996-0.105998-0.021999-0.019999-0.105998-0.041999c-0.022-0.022-0.041999-0.022-0.063999-0.042a2.243956 2.243956 0 0 1-0.315994-0.147997l-0.125997-0.063998c-0.02-0.02-0.041999-0.02-0.063999-0.02l-0.063999-0.041999c-9.491814-4.661909-11.089783-17.451659-3.171938-24.467522a150.805052 150.805052 0 0 1 15.499697-11.991765h0.022c107.465899-72.498583 296.944195 0.293994 337.05941 134.769365v0.019999c7.439855 24.847514 8.929825 50.091021 3.237937 74.872537z" fill="#5EAC24" p-id="4213"></path><path d="M462.233973 231.145481a860371.25307 860371.25307 0 0 0-209.975895-103.119984C185.66138 95.326136 168.27172 86.778303 164.427795 84.88834l-0.209996-0.105998-0.021999-0.019999-0.105998-0.041999c-0.022-0.022-0.041999-0.022-0.063999-0.042a2.243956 2.243956 0 0 1-0.315994-0.147997l-0.125997-0.063998c-0.02-0.02-0.041999-0.02-0.063999-0.02l-0.063999-0.041999c-9.491814-4.661909-11.089783-17.451659-3.171938-24.467522a150.805052 150.805052 0 0 1 15.499697-11.991765h0.022c107.465899-24.215527 247.275166 45.301114 281.046505 158.5629v0.021999a159.06489 159.06489 0 0 1 5.381895 24.615519z" fill="#6DC82A" p-id="4214"></path><path d="M860.722182 78.882458c-0.609988 0.315994-2.855944 1.449972-6.531872 3.339934-39.567226 20.203605-243.599237 124.435567-317.315796 162.092831-14.281721 7.287858-23.669537 12.097763-26.021492 13.293741-17.40966-66.786694 22.157567-161.546842 123.071594-213.063835 83.418369-42.613167 175.680565-36.353289 229.591512 9.829808 8.041843 6.885865 6.63587 19.697615-2.793946 24.507521z" fill="#5EAC24" p-id="4215"></path><path d="M854.19031 82.220393c-39.567226 20.203605-243.601237 124.435567-317.315796 162.09283 11.403777-54.604932 52.104981-112.843794 123.659582-149.365079 66.99469-34.233331 139.703269-36.921278 193.656214-12.727751z" fill="#6DC82A" p-id="4216"></path><path d="M573.267802 414.847889c0 13.335739-0.147997 26.755477-0.419992 40.239214-0.229996 10.459796-0.545989 20.95959-0.945981 31.503384-3.107939 83.398369-11.509775 168.834699-24.719517 251.497083a1894.092969 1894.092969 0 0 1-5.291896 31.503384c-14.953708 84.994338-35.009316 166.334748-59.560836 238.643334h-130.211454l11.887767-30.557402c11.677772-30.011413 22.661557-61.91279 32.867358-95.202139a1506.404549 1506.404549 0 0 0 9.323818-31.503384c18.333642-64.202745 33.855338-132.773404 46.0351-202.500041a2223.93652 2223.93652 0 0 0 5.249897-31.503384c20.897591-131.051438 29.781418-264.350832 23.165547-378.558599l-3.129939-17.829652h79.744441l5.355895 7.517854c7.187859 58.470857 10.649792 121.539624 10.649792 186.750348z" fill="#EE8700" p-id="4217"></path><path d="M573.267802 414.847889c0 13.335739-0.147997 26.755477-0.419992 40.239214-0.229996 10.459796-0.545989 20.95959-0.945981 31.503384-3.107939 83.398369-11.509775 168.834699-24.719517 251.497083a1894.092969 1894.092969 0 0 1-5.291896 31.503384c-14.953708 84.994338-35.009316 166.334748-59.560836 238.643334h-75.606522l11.887768-30.557402c11.677772-30.011413 22.661557-61.91279 32.867357-95.202139a1518.568311 1518.568311 0 0 0 9.325818-31.503384c18.333642-64.202745 33.855338-132.773404 46.0351-202.500041a2223.93652 2223.93652 0 0 0 5.249897-31.503384c20.897591-131.051438 29.781418-264.350832 23.165547-378.558599l-3.129938-17.829652h25.139508l5.355895 7.517854c7.18586 58.470857 10.647792 121.539624 10.647792 186.750348z" fill="#CC7400" p-id="4218"></path><path d="M524.27276 341.131331c0 5.817886-0.713986 11.467776-2.079959 16.84367-7.517853 29.907415-34.589324 52.020983-66.806694 52.020983-38.035256 0-68.864654-30.831397-68.864654-68.864653 0-20.203605 8.69383-38.37125 22.555559-50.993003 12.243761-11.089783 28.479443-17.871651 46.309095-17.871651 38.035256 0 68.886653 30.831397 68.886653 68.864654z" fill="#47821C" p-id="4219"></path><path d="M524.27276 341.131331c0 5.817886-0.713986 11.467776-2.079959 16.84367-12.243761 11.109783-28.499443 17.89365-46.329095 17.89365-38.035256 0-68.864654-30.831397-68.864653-68.864653 0-5.817886 0.713986-11.467776 2.079959-16.86367 12.243761-11.089783 28.479443-17.871651 46.309095-17.871651 38.033256-0.002 68.884653 30.829397 68.884653 68.862654z" fill="#4E901E" p-id="4220"></path><path d="M649.400314 341.131331c0 38.035256-30.831397 68.864654-68.864654 68.864653-27.827456 0-51.790987-16.507677-62.648775-40.261213a68.52866 68.52866 0 0 1-6.215879-28.60544c0-38.035256 30.831397-68.864654 68.864654-68.864654a68.592659 68.592659 0 0 1 44.271135 16.107685c15.039706 12.645753 24.593519 31.589382 24.593519 52.758969z" fill="#6DC82A" p-id="4221"></path><path d="M631.024673 316.979803c0 38.035256-30.831397 68.864654-68.864654 68.864653a68.55266 68.55266 0 0 1-44.271134-16.107685 68.52866 68.52866 0 0 1-6.215879-28.60544c0-38.035256 30.831397-68.864654 68.864654-68.864654a68.592659 68.592659 0 0 1 44.271134 16.107685 68.498661 68.498661 0 0 1 6.215879 28.605441z" fill="#7ED63E" p-id="4222"></path><path d="M588.937496 250.529102a68.394663 68.394663 0 0 1-7.769848 31.797378c-11.487775 22.031569-34.527325 37.067275-61.094806 37.067276-38.055256 0-68.886653-30.831397-68.886653-68.864654 0-22.597558 10.879787-42.655166 27.701458-55.23492a68.784655 68.784655 0 0 1 41.185195-13.629734c38.033256 0 68.864654 30.831397 68.864654 68.864654z" fill="#91DC5A" p-id="4223"></path><path d="M588.937496 250.529102a68.394663 68.394663 0 0 1-7.769848 31.797378 68.52666 68.52666 0 0 1-41.143196 13.629734c-38.055256 0-68.886653-30.831397-68.886653-68.886653a68.53466 68.53466 0 0 1 7.749848-31.775379 68.784655 68.784655 0 0 1 41.185195-13.629734c38.033256 0 68.864654 30.831397 68.864654 68.864654z" fill="#A4E276" p-id="4224"></path><path d="M638.426528 210.127892l-0.037999 0.017999 0.037999-0.017999zM873.765927 42.401171C771.717922-44.973121 579.977671 9.915806 512.554989 140.963244 442.224364 9.437815 249.284136-39.723223 149.85208 48.135059c-16.303681 14.475717-12.869748 40.829202 6.67787 50.425014a1311617.036862 1311617.036862 0 0 0 257.482966 126.451528c-151.083046 13.525736-273.65665 186.150361-219.867702 315.173838 8.449835 20.181605 34.525325 25.309505 49.859026 9.975805l42.969159-42.96916 107.297903-107.297902c18.155645 18.869631 43.727145 27.909454 69.074649 25.475502-22.01557 338.029391-120.18765 560.719038-121.997615 567.108912h-136.471332a15.749692 15.749692 0 0 0-15.751692 15.751692 15.749692 15.749692 0 0 0 15.751692 15.751692h560.439043a15.749692 15.749692 0 0 0 15.751693-15.751692 15.749692 15.749692 0 0 0-15.751693-15.751692H504.111154c11.697771-36.519286 22.469561-75.604522 32.067373-116.471723 1.995961-8.463835-3.255936-16.947669-11.719771-18.943629-8.463835-1.973961-16.947669 3.255936-18.943629 11.73977-10.269799 43.661146-21.863573 85.220334-34.525325 123.675582h-95.832127c3.815925-10.383797 17.701654-42.613167 38.179254-110.003849h29.213429a15.757692 15.757692 0 0 0 15.751692-15.751692 15.755692 15.755692 0 0 0-15.751692-15.751692h-19.97361c18.103646-64.180745 33.497345-132.731405 45.615108-202.500041h21.085588a15.745692 15.745692 0 0 0 15.751692-15.751692 15.757692 15.757692 0 0 0-15.751692-15.751692H473.399755c10.669791-67.394682 18.207644-135.461352 22.093568-201.344064a85.648326 85.648326 0 0 0 22.47156-17.577656c10.479795 11.529775 24.109529 20.161606 39.525228 24.509521a1691.118937 1691.118937 0 0 1-0.419992 32.531364H525.678733a15.757692 15.757692 0 0 0-15.751692 15.751692 15.757692 15.757692 0 0 0 15.751692 15.751692h30.473404c-3.08794 83.502367-11.529775 168.602704-24.907513 251.497083h-22.681557c-8.69383 0-15.751692 7.055862-15.751692 15.751692s7.055862 15.751692 15.751692 15.751692h17.347661a1986.447163 1986.447163 0 0 1-7.18186 38.161254c-1.679967 8.525833 3.863924 16.821671 12.391758 18.501638 8.525833 1.701967 16.821671-3.843925 18.523638-12.369758 25.189508-127.393509 38.799241-262.094876 39.337231-388.554404 27.175469-2.709947 50.573011-18.291642 64.034748-40.555207l165.934756 114.60776c17.517658 12.131763 42.495169 3.039941 47.255076-18.795633 13.159743-60.902809-10.609793-125.177553-52.378976-174.210594-5.64989-6.615871-15.583695-7.413855-22.199566-1.785965a15.751692 15.751692 0 0 0-1.785965 22.219566c42.629167 50.049022 54.390937 104.453958 45.825104 145.837148l-53.868947-37.195272 13.419738-18.649636c5.061901-7.077862 3.465932-16.905669-3.59193-21.98957a15.739692 15.739692 0 0 0-21.98957 3.59193l-13.755731 19.133626-41.521188-28.66744 31.397386-41.773183c5.229898-6.951864 3.821925-16.821671-3.129939-22.051569s-16.821671-3.821925-22.051569 3.129939l-32.153371 42.781164-24.277526-16.779672c6.183879-39.215233-15.923689-76.922496-51.936984-91.504211a83.978358 83.978358 0 0 0 0.315994-21.883573c47.599069 0.045999 94.670149 17.787652 133.845383 45.993101 7.055862 5.081901 16.905669 3.507931 21.98957-3.527931a15.757692 15.757692 0 0 0-3.527931-22.00957c-37.217272-26.907474-81.516406-45.453111-127.501507-50.551011-0.039999 0.022-0.043999 0.024 0 0l1.061979-0.54199 77.714481-39.697224h0.021999c79.424447-40.581207-30.045413 15.307701 151.759033-77.538484a30.511403 30.511403 0 0 0 16.423679-23.563539 30.773398 30.773398 0 0 0-10.543794-26.951473z m-511.857993 121.937616l23.417543-35.451307a15.723693 15.723693 0 0 0-4.451913-21.821573 15.723693 15.723693 0 0 0-21.821574 4.451913l-25.643498 38.811241-73.820557-36.269291 18.123646-35.639303c3.947923-7.749848 0.861983-17.241663-6.887866-21.169586a15.737692 15.737692 0 0 0-21.169586 6.887865l-18.333641 36.039295-59.624835-29.277427c90.180237-78.084473 272.822666-20.127606 321.601713 102.677992a85.184335 85.184335 0 0 0-38.959239 36.143294l-92.430193-45.383113z m54.688931 213.231831c-8.553833-9.095822-13.337739-20.911591-14.091724-31.461385-0.819984-8.651831-8.525833-15.015706-17.137665-14.239721-8.67383 0.819984-15.037706 8.483834-14.239722 17.137665a85.39833 85.39833 0 0 0 5.691889 23.773535l-16.023687 16.023687-47.695067-45.889103a15.713693 15.713693 0 0 0-22.261565 0.419992c-6.027882 6.257878-5.837886 16.233683 0.419992 22.261564l47.255076 45.489111-50.531012 50.531012-12.685752-13.839729c-5.879885-6.425874-15.83569-6.867866-22.241565-0.987981a15.747692 15.747692 0 0 0-0.987981 22.261565l13.609734 14.869709-42.949161 42.94916c-48.467052-119.659661 85.542328-281.546496 221.295674-270.712707 0.02 0.377993 0.041999 0.735986 0.083998 1.113978-17.305662 2.289955-33.455346 9.891807-46.393093 21.925571-6.363876 5.943884-6.719869 15.897689-0.797984 22.261565a15.741692 15.741692 0 0 0 22.261565 0.797985 52.782968 52.782968 0 0 1 33.477345-14.155724c10.327798 20.883592 29.781418 37.987257 55.170922 44.50313 8.591832 51.554992-55.618913 82.892379-91.230217 44.967121z m84.848341-172.740623h0.651988a6.399875 6.399875 0 0 0-0.063999-0.335993c35.889298-20.835593 83.632365 6.465874 79.218451 52.020983-2.967942 26.389484-25.443503 47.129079-52.776968 47.129079-54.428936 0-73.016572-71.764597-27.029472-98.814069z m125.569545 161.986833c-19.95761 36.033296-70.664618 36.32729-91.694207 2.141959 4.029921-11.537774 5.361895-23.605538 4.431913-34.569325 26.317485-3.467932 49.283036-19.385621 62.164785-41.877181 28.539442 12.585754 40.235213 46.965082 25.097509 74.304547z m11.033785-156.49694a0.333993 0.333993 0 0 0 0.045999-0.023999c-0.014 0.01-0.027999 0.016-0.045999 0.023999z m150.197063-112.095808l-12.579754-26.671479c-3.695928-7.853846-13.105744-11.23578-20.95959-7.517853-7.875846 3.717927-11.23578 13.105744-7.517853 20.95959l12.999746 27.553462-58.532856 29.907415-23.54354-45.51111c-4.011922-7.727849-13.503736-10.75379-21.233584-6.761868-7.727849 4.011922-10.75379 13.503736-6.761868 21.233585l23.479541 45.385112-79.366449 40.533208c-14.197722-17.515658-35.241311-29.277428-59.036845-31.145391 52.028983-120.471645 228.365535-175.030578 317.0858-100.682032l-64.032748 32.717361zM637.32455 210.689881l0.017999-0.008-0.017999 0.008z" p-id="4225"></path></svg>