<?xml version="1.0" standalone="no"?><!DOCTYPE svg PUBLIC "-//W3C//DTD SVG 1.1//EN" "http://www.w3.org/Graphics/SVG/1.1/DTD/svg11.dtd"><svg t="1568821843199" class="icon" viewBox="0 0 1024 1024" version="1.1" xmlns="http://www.w3.org/2000/svg" p-id="2797" xmlns:xlink="http://www.w3.org/1999/xlink" width="200" height="200"><defs><style type="text/css"></style></defs><path d="M616.689 512.477a99.277 99.277 0 1 1-99.159-99.159 99.158 99.158 0 0 1 99.159 99.159z" fill="#55398E" p-id="2798"></path><path d="M810.953 848.566c-111.315 0-267.203-59.59-417.132-159.344-111.315-74.25-204.872-161.371-263.39-245.155-62.212-89.147-77.943-165.78-44.454-215.955 22.883-34.443 66.86-52.678 127.047-52.678 111.434 0 267.322 59.59 417.132 159.344 111.434 74.25 205.11 161.252 263.628 245.274 62.093 89.028 77.825 165.661 44.454 215.836-23.121 34.443-67.099 52.678-127.285 52.678zM213.023 215.24c-32.178 0-74.725 5.96-93.913 34.92-23.837 35.754-7.39 97.49 43.977 171.024 55.777 79.97 145.52 162.801 252.901 234.905 141.349 94.749 292.708 152.67 394.965 152.67 32.298 0 74.726-6.077 94.034-34.92 23.836-35.753 7.27-97.489-43.978-171.143-55.777-79.731-145.639-163.158-253.02-234.785C466.64 274.115 315.28 215.24 213.023 215.24z" fill="#ED59A3" p-id="2799"></path><path d="M212.547 840.82c-64.357 0-110.719-19.427-133.84-56.016-32.06-51.128-14.301-127.284 50.056-214.525 60.782-82.234 156.484-166.853 269.825-238.36C546.372 238.36 700.711 183.06 811.43 183.06c64.477 0 110.838 19.427 133.84 56.135 32.178 51.009 14.301 127.284-50.056 214.525-60.663 82.353-156.484 166.853-269.706 238.36-147.903 93.2-302.242 148.738-412.96 148.738zM811.43 222.986c-102.019 0-252.067 54.585-391.628 143.017-109.17 68.171-201.177 149.214-258.86 227.754-53.393 72.223-71.508 134.197-48.507 169.832 19.427 30.987 65.192 37.423 100.112 37.423 102.019 0 252.067-54.585 391.628-143.017 109.288-68.767 201.177-149.81 258.98-228.23 53.273-72.224 71.508-134.198 48.387-169.833-19.427-30.51-65.192-36.946-100.112-36.946z" fill="#ED59A3" p-id="2800"></path><path d="M512.048 1024c-119.18 0-212.976-224.894-212.976-512.477S392.63 0 512.048 0s212.857 224.894 212.857 512.477S631.348 1024 512.048 1024z m0-984.194c-83.426 0-173.17 189.736-173.17 472.194s89.505 472.194 173.17 472.194 173.05-189.736 173.05-471.717-89.504-472.67-173.05-472.67z" fill="#ED59A3" p-id="2801"></path></svg>