<?xml version="1.0" standalone="no"?><!DOCTYPE svg PUBLIC "-//W3C//DTD SVG 1.1//EN" "http://www.w3.org/Graphics/SVG/1.1/DTD/svg11.dtd"><svg t="1568821878002" class="icon" viewBox="0 0 1024 1024" version="1.1" xmlns="http://www.w3.org/2000/svg" p-id="4916" xmlns:xlink="http://www.w3.org/1999/xlink" width="200" height="200"><defs><style type="text/css"></style></defs><path d="M541.65587451 902.3969807l-59.52207428 0 0.52581317-323.58555515a223.08372469 223.08372469 0 0 0-10.41110518-67.19894987l-9.0439904-28.60424815a223.08372469 223.08372469 0 0 1-10.4111047-67.19895039L452.79341312 83.91587056a44.61674508 44.61674508 0 0 1 44.58897464-44.58897465l29.65587502 0a44.61674508 44.61674508 0 0 1 44.58897464 44.58897465L571.41691216 416.22992768a223.08372469 223.08372469 0 0 1-10.41110469 67.19895041l-9.0439904 28.60424813a223.08372469 223.08372469 0 0 0-10.4111052 67.19894988z" fill="#C7DB6F" p-id="4917"></path><path d="M566.15877876 518.86870021l9.04398936-28.60424814a237.95597329 237.95597329 0 0 0 11.04208155-71.61578218L586.35001229 86.65010067a59.48899297 59.48899297 0 0 0-59.52207479-59.52207479l-29.655875 0a59.48899297 59.48899297 0 0 0-59.52207479 59.5220748L437.64998771 418.54350724a237.95597329 237.95597329 0 0 0 11.04208153 71.6157822l8.62333882 28.39392285a208.21147609 208.21147609 0 0 1 9.67496623 62.67695495L467.3058627 891.77555073a31.97533362 31.97533362 0 0 0-29.76103764 31.8642904l0 25.2390422a32.12405605 32.12405605 0 0 0 31.54880301 31.54880301l84.13014116 4.9e-7a32.12405605 32.12405605 0 0 0 31.54880299-31.54880298l0-25.2390422a31.97533362 31.97533362 0 0 0-29.76103765-31.86429143l0-310.22989506a208.21147609 208.21147609 0 0 1 11.14724419-62.67695495z m-9.46464097 430.11534626a2.23083714 2.23083714 0 0 1-2.31357903 2.31357906l-84.13014118-5.1e-7a2.23083714 2.23083714 0 0 1-2.31357904-2.31357905l0-25.2390422a2.23083714 2.23083714 0 0 1 2.31357854-2.31357853l84.13014169 0a2.23083714 2.23083714 0 0 1 2.31357853 2.31357853z m-59.41691215-286.35796767l29.65587399 0 0.42065107 227.57203186-29.6558745-5.1e-7z m50.05743334-181.30045398l-9.0439899 28.60424762a237.95597329 237.95597329 0 0 0-11.14724366 71.30029481l-5.1e-7 51.10906072-29.65587399 0-5e-7-51.10906072a237.95597329 237.95597329 0 0 0-10.93691789-70.87964374l-9.04399041-28.60424814a208.21147609 208.21147609 0 0 1-9.67496622-62.67695494L467.8316759 87.17591386a29.74449648 29.74449648 0 0 1 29.76103766-29.76103765l29.6558745 5.2e-7a29.74449648 29.74449648 0 0 1 29.76103714 29.76103713L556.90446256 418.9641578a208.21147609 208.21147609 0 0 1-9.99045413 62.36146703z" fill="#25274B" p-id="4918"></path><path d="M749.14183493 453.87816622m-42.06507032 42.06507033a59.48899297 59.48899297 0 1 0 84.13014115-84.13014116 59.48899297 59.48899297 0 1 0-84.13014115 84.13014116Z" fill="#C7DB6F" p-id="4919"></path><path d="M801.61801046 506.35434174a74.36124157 74.36124157 0 1 1 0-105.16267632 74.36124157 74.36124157 0 0 1 0 105.16267632z m-84.13014117-84.13014116a44.61674508 44.61674508 0 1 0 63.097606 0 44.61674508 44.61674508 0 0 0-63.097606 0z" fill="#25274B" p-id="4920"></path></svg>