<?xml version="1.0" standalone="no"?><!DOCTYPE svg PUBLIC "-//W3C//DTD SVG 1.1//EN" "http://www.w3.org/Graphics/SVG/1.1/DTD/svg11.dtd"><svg t="1568821871857" class="icon" viewBox="0 0 1024 1024" version="1.1" xmlns="http://www.w3.org/2000/svg" p-id="4490" xmlns:xlink="http://www.w3.org/1999/xlink" width="200" height="200"><defs><style type="text/css"></style></defs><path d="M593.6 98.45333333c-4.48-17.70666667-19.52-30.61333333-35.62666667-30.61333333-12.37333333 0-23.36 7.36-31.89333333 21.33333333-3.09333333 5.12-8.64 8.21333333-14.61333333 8.21333334s-11.52-3.09333333-14.61333334-8.21333334c-8.42666667-13.97333333-19.41333333-21.33333333-31.89333333-21.33333333-16.10666667 0-31.14666667 12.90666667-35.62666667 30.61333333-3.52 13.65333333-7.46666667 61.22666667 82.02666667 112.96 89.70666667-51.73333333 85.76-99.30666667 82.24-112.96z" fill="#FDB9D0" p-id="4491"></path><path d="M563.30666667 218.02666667c20.90666667-15.89333333 37.12-32.85333333 48.32-50.77333334 20.48-32.64 19.52-60.05333333 15.14666666-77.33333333-8.42666667-33.17333333-36.69333333-56.32-68.69333333-56.32-17.17333333 0-33.28 6.93333333-46.50666667 19.41333333C498.34666667 40.53333333 482.24 33.70666667 465.06666667 33.70666667c-32 0-60.26666667 23.14666667-68.69333334 56.32-4.37333333 17.28-5.33333333 44.69333333 15.14666667 77.33333333 11.2 17.92 27.41333333 34.88 48.32 50.77333333C305.06666667 242.98666667 186.45333333 377.49333333 186.45333333 539.09333333v394.98666667c0 30.08 32 53.65333333 72.96 53.65333333s72.96-23.57333333 72.96-53.65333333V580.48c73.92-20.58666667 119.25333333-64.21333333 146.34666667-104 14.93333333-21.97333333 25.49333333-44.26666667 32.96-64.10666667 7.46666667 19.84 18.02666667 42.13333333 32.96 64.10666667 27.09333333 39.68 72.42666667 83.41333333 146.34666667 104v353.49333333c0 30.08 32 53.65333333 72.96 53.65333334s72.96-23.57333333 72.96-53.65333334V538.98666667c-0.21333333-161.6-118.82666667-296.10666667-273.6-320.96zM429.44 98.45333333c4.48-17.70666667 19.52-30.61333333 35.62666667-30.61333333 12.37333333 0 23.36 7.36 31.89333333 21.33333333 3.09333333 5.12 8.64 8.21333333 14.61333333 8.21333334s11.52-3.09333333 14.61333334-8.21333334c8.42666667-13.97333333 19.52-21.33333333 31.89333333-21.33333333 16.10666667 0 31.14666667 12.90666667 35.62666667 30.61333333 3.52 13.65333333 7.46666667 61.22666667-82.13333334 112.96-89.6-51.73333333-85.65333333-99.30666667-82.13333333-112.96zM298.02666667 933.97333333c0 8-15.14666667 19.52-38.72 19.52s-38.72-11.52-38.72-19.52v-66.98666666h77.54666666v66.98666666z m0-101.12h-77.54666667v-100.58666666h77.54666667v100.58666666z m0-134.72h-77.54666667v-105.92c6.18666667 0.21333333 12.16 0.42666667 18.02666667 0.42666667 21.44 0 41.17333333-1.6 59.52-4.58666667v110.08z m152.32-240.85333333c-29.22666667 42.98666667-68.8 72.21333333-118.08 87.89333333v-6.18666666c0-91.94666667 69.65333333-168 158.93333333-178.13333334-4.8 22.29333333-16 59.94666667-40.85333333 96.42666667z m44.16-131.09333333c-109.76 8.74666667-196.37333333 100.8-196.37333334 212.8v14.50666666c-23.89333333 4.26666667-49.81333333 5.76-77.54666666 4.48v-18.98666666c0-154.77333333 121.38666667-281.6 273.92-290.45333334v77.65333334z m196.37333333 218.98666666c-48.96-15.46666667-88.21333333-44.37333333-117.33333333-86.72-25.28-36.69333333-36.69333333-74.98666667-41.49333334-97.49333333 89.28 10.13333333 158.93333333 86.18666667 158.93333334 178.13333333v6.08z m111.68 388.8c0 8-15.14666667 19.52-38.72 19.52-23.68 0-38.72-11.52-38.72-19.52v-66.98666666h77.54666667v66.98666666z m0-101.12h-77.54666667v-100.58666666h77.54666667v100.58666666z m0-134.72h-77.54666667V587.94666667c18.34666667 2.98666667 38.08 4.58666667 59.52 4.58666666 5.86666667 0 11.94666667-0.10666667 18.02666667-0.42666666v106.02666666z m0-140.16c-27.73333333 1.28-53.54666667-0.21333333-77.54666667-4.48v-14.50666666c0-112-86.61333333-204.05333333-196.37333333-212.8V248.53333333c152.53333333 8.85333333 273.92 135.78666667 273.92 290.45333334v18.98666666z" fill="#13227a" p-id="4492"></path></svg>