<?xml version="1.0" standalone="no"?><!DOCTYPE svg PUBLIC "-//W3C//DTD SVG 1.1//EN" "http://www.w3.org/Graphics/SVG/1.1/DTD/svg11.dtd"><svg t="1568877492933" class="icon" viewBox="0 0 1024 1024" version="1.1" xmlns="http://www.w3.org/2000/svg" p-id="5017" xmlns:xlink="http://www.w3.org/1999/xlink" width="200" height="200"><defs><style type="text/css"></style></defs><path d="M735.36 824.62s-93.9 47.24-93.9 97.26c0 0-66.16-51.48-36.5-99.64v-0.02c41.66 9.78 85.92 11.1 130.4 2.4z" fill="#CCCCCC" p-id="5018"></path><path d="M363.66 487.98s102.7 42.78 255.06-7.26c125.78-41.3 86.5-181.1 68.98-228.64-0.26-0.68-0.5-1.34-0.76-2-13.88-36.86-4.04-79.04 26.18-104.32 13.24-11.08 29.74-18.64 48.4-21.04 23.14-2.96 45.82 3.04 64.16 15.44 7.78 5.26 14.78 11.64 20.7 19.02a92.532 92.532 0 0 1 17.26 33.74c3.52 12.94 4.18 25.9 2.38 38.22a92.83 92.83 0 0 1-9.98 30.52c14.42 10.18 27.98 21.56 40.5 34.06l7.28 8.42c1.92 2.2 4 4.18 6.26 5.88 35.5 40.06 61.14 89.76 72.38 146.02 33.92 170-76.78 335.32-247.08 368.56-44.48 8.68-88.74 7.36-130.4-2.42-114.56-26.78-209.56-117.36-235.66-239.18-6.88-32.08-8.56-64.02-5.66-95.02z" fill="#F2F2F2" p-id="5019"></path><path d="M982.44 456.06c-11.24-56.26-36.88-105.94-72.38-146.02a41.28 41.28 0 0 1-6.26-5.88l-7.28-8.42a311.868 311.868 0 0 0-40.5-34.06c5.02-9.42 8.44-19.74 9.98-30.52 1.8-12.32 1.14-25.28-2.38-38.22a92.374 92.374 0 0 0-17.26-33.74 94.44 94.44 0 0 0-20.7-19.02c-18.32-12.4-41-18.4-64.16-15.44-4.8 0.62-9.46 1.58-13.96 2.86a95.12 95.12 0 0 1 26.96 12.58c7.78 5.26 14.78 11.64 20.7 19.02a92.532 92.532 0 0 1 17.26 33.74c3.52 12.94 4.18 25.9 2.38 38.22a92.83 92.83 0 0 1-9.98 30.52c14.42 10.18 27.98 21.56 40.5 34.06l7.28 8.42c1.92 2.2 4 4.18 6.26 5.88 35.5 40.06 61.14 89.76 72.38 146.02 33.92 170-76.78 335.3-247.08 368.56-11.36 2.22-22.7 3.78-33.98 4.72 27.86 2.3 56.46 0.88 85.14-4.72 170.3-33.24 281-198.54 247.08-368.56zM447.62 504.2c-53.04-3.36-83.96-16.24-83.96-16.24-0.4 4.18-0.68 8.36-0.9 12.56 22.06 3.48 50.76 5.76 84.86 3.68z" fill="#CCCCCC" p-id="5020"></path><path d="M964 182.82l-74.8 36.9-23.2 11.44c1.8-12.32 1.14-25.28-2.38-38.22a92.374 92.374 0 0 0-17.26-33.74s63.06-10.5 117.64 23.62z" fill="#FED159" p-id="5021"></path><path d="M956.9 260.42c19.1 11.46 19.72 38.96 1.12 51.26-7 4.62-14.94 6.86-22.84 6.86-8.94 0-17.82-2.88-25.12-8.48-4.36-4.92-8.86-9.68-13.54-14.3a311.868 311.868 0 0 0-40.5-34.06c5.02-9.42 8.44-19.74 9.98-30.52l23.2-11.44 67.7 40.68zM686.94 250.08c0.26 0.66 0.5 1.32 0.76 2l-1.52 0.54c-4.88 1.54-10.12 2.38-15.54 2.38-28.56 0-51.74-23.14-51.74-51.72 0-24.56 17.12-45.1 40.06-50.4a51.31 51.31 0 0 1-4.04-20.1c0-28.56 23.14-51.72 51.72-51.72 12.04 0 23.1 4.12 31.88 11 5.3-22.92 25.84-40.02 50.38-40.02 28.56 0 51.72 23.18 51.72 51.74 0 14.18-5.68 27.02-14.94 36.36-18.32-12.4-41-18.4-64.16-15.44-18.64 2.38-35.16 9.96-48.4 21.04-30.22 25.3-40.04 67.48-26.18 104.34z" fill="#EE4948" p-id="5022"></path><path d="M714.92 573.7c91.82-71.6 208.44 54.2 128.66 139-1.06 1.14-2.16 2.26-3.28 3.38-52.48 52.48-230.62 82.16-364-13-6.14-4.38-4.02-14 3.38-15.44 41.7-8.1 140.26-30.9 180.96-71.62l54.28-42.32z" fill="#CCCCCC" p-id="5023"></path><path d="M731.96 536.18c91.82-71.6 208.44 54.2 128.66 139-1.06 1.14-2.16 2.26-3.28 3.38-54.58 54.58-245.06 84.48-379.76-25.02 0 0 147.82-22.74 200.12-75.04l54.26-42.32z" fill="#EE4948" p-id="5024"></path><path d="M613.4 464.52a17.042 17.042 0 0 0-10.88 21.52c2.94 8.94 12.58 13.82 21.52 10.88 40.4-13.26 69.12-37.06 85.38-70.7 12.86-26.6 29.2-85.36-5.7-179.98l-0.8-2.16c-11.56-30.72-3.06-64.98 21.16-85.22 11.2-9.36 24.88-15.32 39.6-17.2 18.3-2.34 36.92 2.16 52.44 12.66 6.46 4.36 12.16 9.6 16.96 15.58 6.6 8.2 11.34 17.46 14.08 27.52 2.82 10.36 3.48 20.88 1.96 31.32-1.26 8.76-4 17.14-8.14 24.9a17.066 17.066 0 0 0 5.2 21.96c13.7 9.68 26.58 20.52 38.34 32.26 4.26 4.22 8.56 8.76 12.76 13.5 34.5 38.96 58.16 86.68 68.42 138.04 3.46 17.32 5.38 34.96 5.72 52.44a17.054 17.054 0 0 0 17.04 16.72h0.34c9.42-0.18 16.9-7.98 16.72-17.38-0.38-19.5-2.54-39.16-6.38-58.46a330.24 330.24 0 0 0-49.38-119.04c6.22-1.6 12.18-4.2 17.64-7.8 13.66-9.02 21.58-24.18 21.22-40.54-0.36-16.36-8.94-31.14-22.96-39.56l-40.92-24.6 46.78-23.08a17.054 17.054 0 0 0 1.48-29.76c-46.9-29.32-98.7-28.82-119.8-27.1-1.36-1.4-2.74-2.8-4.16-4.12 5.6-10.08 8.6-21.48 8.6-33.32 0-37.94-30.84-68.78-68.76-68.78-24.74 0-46.72 12.92-58.88 33.12a68.762 68.762 0 0 0-23.38-4.12c-37.92 0-68.76 30.84-68.76 68.76 0 3.24 0.22 6.46 0.66 9.62-22.24 11.64-36.68 34.72-36.68 60.88 0 37.92 30.86 68.76 68.78 68.76 1.94 0 3.88-0.1 5.8-0.26 10.84 33.94 24.22 94.14 2.28 139.56-12.24 25.38-33.6 42.76-65.3 53.18z m334.72-189.48c5.64 3.4 6.38 8.86 6.42 11.06 0.04 2.2-0.44 7.7-5.92 11.32a24.32 24.32 0 0 1-13.44 4.06c-4.88 0-9.68-1.5-13.72-4.24-4.28-4.76-8.62-9.34-12.88-13.56-9.8-9.78-20.32-19-31.4-27.56a108.3 108.3 0 0 0 3.96-13.4l7.24-3.58 59.74 35.9z m-65.02-71.32c-0.66-5.1-1.64-10.2-3.02-15.26-1.28-4.7-2.88-9.24-4.74-13.68 13.58 0.4 31.14 2.38 49.38 8.42l-41.62 20.52z m-247.14-0.42c0-16.24 11.04-30.12 26.86-33.78a17.14 17.14 0 0 0 11.36-8.86 17.108 17.108 0 0 0 0.52-14.4A34.28 34.28 0 0 1 672 132.8c0-19.1 15.54-34.66 34.66-34.66 7.82 0 15.22 2.54 21.36 7.36a17.06 17.06 0 0 0 27.14-9.58c3.64-15.78 17.52-26.8 33.76-26.8 19.1 0 34.66 15.56 34.66 34.68 0 4.88-1.02 9.58-2.92 13.92-19.04-9.08-40.28-12.58-61.28-9.92-21.2 2.72-40.98 11.32-57.16 24.86-30.46 25.46-43.96 65.86-36.42 104.9-16.84-2.36-29.84-16.8-29.84-34.26z" p-id="5025"></path><path d="M345.48 506.58a331 331 0 0 0 7.16 80c25.22 117.7 114.2 212.74 229.3 247.08-4.06 17.18-2 39.46 16.06 66.02 5.3 7.8 11.14 14.66 16.42 20.24-1.24 1.04-2.5 2.12-3.76 3.28-16.28 14.84-24.9 31.7-24.9 48.7 0 9.42 7.64 17.06 17.06 17.06 9.42 0 17.06-7.64 17.06-17.06 0-7.26 4.8-14.46 10.68-20.48 12.56 27.04 41.88 37.54 63.24 37.54 9.42 0 17.06-7.64 17.06-17.06s-7.64-17.06-17.06-17.06c-3.6 0-35.24-0.92-35.24-32.98 0-14.66 14.18-33.7 39.9-53.58 18.38-14.2 37.08-24.48 42.8-27.5 137.84-28.06 242.78-140.06 261.48-279.56 1.24-9.32-5.32-17.9-14.64-19.16-9.34-1.26-17.92 5.3-19.18 14.64-16.88 125.88-112.04 226.82-236.8 251.18-41.12 8.04-82.58 7.26-123.24-2.28-111.54-26.08-199.02-114.84-222.86-226.14a297.564 297.564 0 0 1-6.54-68.62c19.7 5.18 51.68 11.24 93.36 11.24 28.46 0 61.44-2.84 98.1-10.72 9.2-1.98 15.06-11.06 13.08-20.26-1.98-9.22-11.06-15.06-20.26-13.08-60.7 13.08-110.06 10.8-140.78 6.6-23.24-3.22-46.74-10.5-62.44-26.34M633.2 889.7c-10.76-12.92-21.48-30.8-17.94-47.9 18.14 3.44 36.42 5.3 54.72 5.62-17 14.18-29.28 28.3-36.78 42.28z" p-id="5026"></path><path d="M689.74 566.44a17.056 17.056 0 0 0-24.12 0c-19.28 19.28-57.96 37.5-111.88 52.68-42.04 11.84-78.42 17.52-78.78 17.58a17.032 17.032 0 0 0-13.86 12.4c-1.76 6.5 0.48 13.44 5.7 17.7 61.86 50.28 142.52 77.88 227.46 77.88 1.12 0 2.24 0 3.36-0.02 72.14-0.62 139.56-21.82 171.74-54.02 34.2-34.2 48.5-77.26 40.28-121.28-8.92-47.7-43.76-90.24-90.92-111.06-8.62-3.8-18.68 0.1-22.5 8.72-3.8 8.62 0.1 18.68 8.72 22.48 37.02 16.34 64.28 49.32 71.16 86.12 4.32 23.06 2.46 57.56-30.86 90.88-29.8 29.8-95.76 43.58-147.92 44.02-64.34 0.54-126.06-16.22-177.38-47.78 49.36-10.88 131.44-33.84 169.76-72.18a17.02 17.02 0 0 0 0.04-24.12z" p-id="5027"></path><path d="M805.2 204.42m-17.06 0a17.06 17.06 0 1 0 34.12 0 17.06 17.06 0 1 0-34.12 0Z" p-id="5028"></path><path d="M71.28 312.36c15.64-17.36 34-30.78 53.88-40.22-22.34 63.46-6.04 136.9 47.06 184.7s127.86 56.34 188.62 27.46c-7.3 20.74-18.72 40.42-34.36 57.78-63.44 70.46-172.02 76.18-242.48 12.74-70.46-63.42-76.16-172-12.72-242.46z" fill="#EE4948" p-id="5029"></path><path d="M294.86 471.42c-87.68-36.06-129.56-136.38-93.5-224.08 36.04-87.7 136.36-129.58 224.06-93.52a171.28 171.28 0 0 1 55.98 37.22c-67.26 0.3-130.94 40.34-158.1 106.44-27.18 66.1-10.08 139.34 37.54 186.86a171.644 171.644 0 0 1-65.98-12.92z" fill="#EE4948" p-id="5030"></path><path d="M360.48 458.28c-34.24-43.5-42.84-102.18-21.4-154.32 23.8-57.94 79.7-95.58 142.4-95.86 6.88-0.04 13.08-4.2 15.7-10.58 2.62-6.38 1.14-13.7-3.74-18.56a174.64 174.64 0 0 0-3.38-3.3c-16.92-16.06-36.46-28.7-58.16-37.62-46.62-19.18-97.94-19.04-144.46 0.38-46.52 19.42-82.7 55.8-101.86 102.42-19.18 46.62-19.04 97.92 0.38 144.46 18.34 43.94 51.82 78.64 94.74 98.5-35.22-1.44-69.64-14.96-97.06-39.64-5.96-5.36-11.52-11.2-16.52-17.34-5.96-7.3-16.7-8.4-24-2.44-7.3 5.94-8.4 16.7-2.44 24 6.12 7.5 12.88 14.6 20.14 21.14 45.88 41.3 107.76 57 166.26 44.24-4 5.9-8.42 11.56-13.26 16.92-57.06 63.38-155.02 68.52-218.4 11.46-30.68-27.58-48.8-65.58-50.96-106.82-2.16-41.26 11.86-80.88 39.5-111.56 4.86-5.38 10.02-10.4 15.5-15a189.058 189.058 0 0 0 12.98 92.08c3.56 8.72 13.52 12.9 22.24 9.34 8.72-3.56 12.9-13.52 9.34-22.24a154.984 154.984 0 0 1-2.76-110.14c2.28-6.5 0.4-13.68-4.68-18.34a17.046 17.046 0 0 0-18.72-2.72c-22.54 10.7-42.46 25.58-59.24 44.2-33.74 37.46-50.86 85.82-48.2 136.18 2.64 50.34 24.76 96.62 62.2 130.38 77.34 69.64 196.92 63.36 266.56-14a187.644 187.644 0 0 0 30.58-46.02m-48-45.04c-6.92-1.78-13.72-4.04-20.42-6.8-17.96-7.38-34.06-17.86-47.74-30.84-15.4-14.62-27.72-32.44-36.16-52.62-15.9-38.12-16.02-80.16-0.3-118.36 15.7-38.2 45.34-68 83.46-83.92s80.16-16.02 118.36-0.3c6.68 2.74 13.12 5.92 19.28 9.52-58.26 13.84-107.24 54.78-130.68 111.88-23.5 57.08-17.48 120.64 14.2 171.44z" p-id="5031"></path></svg>