<?xml version="1.0" standalone="no"?><!DOCTYPE svg PUBLIC "-//W3C//DTD SVG 1.1//EN" "http://www.w3.org/Graphics/SVG/1.1/DTD/svg11.dtd"><svg t="1568877512591" class="icon" viewBox="0 0 1024 1024" version="1.1" xmlns="http://www.w3.org/2000/svg" p-id="6118" xmlns:xlink="http://www.w3.org/1999/xlink" width="200" height="200"><defs><style type="text/css"></style></defs><path d="M537.8 570.1m-301.5 0a301.5 301.5 0 1 0 603 0 301.5 301.5 0 1 0-603 0Z" fill="#FB5754" p-id="6119"></path><path d="M512 888.9c-190 0-344.6-154.6-344.6-344.6S322 199.7 512 199.7s344.6 154.6 344.6 344.6S702 888.9 512 888.9z m0-654.8c-171 0-310.2 139.1-310.2 310.2S341 854.4 512 854.4s310.2-139.1 310.2-310.2S683 234.1 512 234.1z" fill="#331212" p-id="6120"></path><path d="M477.5 372H512v206.8h-34.5z" fill="#331212" p-id="6121"></path><path d="M684.335 544.289v34.5h-206.8v-34.5z" fill="#331212" p-id="6122"></path><path d="M322.5 178.4L122.7 378.2c-55.2-55.2-55.2-144.7 0-199.8s144.6-55.2 199.8 0z" fill="#FB5754" p-id="6123"></path><path d="M122.6 402.6l-12.2-12.2C80.5 360.5 64 320.7 64 278.3c0-42.4 16.5-82.2 46.4-112.1 29.9-30 69.8-46.4 112.1-46.4s82.2 16.5 112.1 46.4l12.2 12.2-224.2 224.2z m99.9-248.4c-33.1 0-64.3 12.9-87.7 36.3-23.4 23.4-36.3 54.6-36.3 87.7 0 27.3 8.8 53.3 25 74.7l173.8-173.8c-21.4-16.1-47.4-24.9-74.8-24.9z" fill="#331212" p-id="6124"></path><path d="M701.5 178.4l199.8 199.8c55.2-55.2 55.2-144.7 0-199.8s-144.6-55.2-199.8 0z" fill="#FB5754" p-id="6125"></path><path d="M901.4 402.6L677.2 178.4l12.2-12.2c29.9-30 69.8-46.4 112.1-46.4 42.4 0 82.2 16.5 112.1 46.4 29.9 30 46.4 69.8 46.4 112.1s-16.5 82.1-46.4 112.1l-12.2 12.2zM726.7 179.2L900.6 353c16.2-21.4 25-47.4 25-74.7 0-33.1-12.9-64.3-36.3-87.7-23.4-23.4-54.6-36.3-87.7-36.3-27.5-0.1-53.5 8.7-74.9 24.9z" fill="#331212" p-id="6126"></path><path d="M296.156 770.204l24.395 24.395-109.67 109.671-24.396-24.394z" fill="#331212" p-id="6127"></path><path d="M837.481 879.802l-24.395 24.395-109.67-109.67 24.394-24.396z" fill="#331212" p-id="6128"></path></svg>