<?xml version="1.0" standalone="no"?><!DOCTYPE svg PUBLIC "-//W3C//DTD SVG 1.1//EN" "http://www.w3.org/Graphics/SVG/1.1/DTD/svg11.dtd"><svg t="1568820381014" class="icon" viewBox="0 0 1534 1024" version="1.1" xmlns="http://www.w3.org/2000/svg" p-id="2011" xmlns:xlink="http://www.w3.org/1999/xlink" width="299.609375" height="200"><defs><style type="text/css"></style></defs><path d="M1399.41414688 957.38546973s-110.87441016 2.29828711-167.88271026-52.8426545C984.60918653 665.79025888 601.19021269 247.0889832 601.19021269 247.0889832c-19.75090693-23.1265169-47.61764121-37.54467862-78.48292324-37.54467949-47.92288271 0-88.57384102 34.74364131-103.04586914 82.93585517l-0.5027502-0.25137597L188.75536016 873.73140049c-14.6695377 37.04192842 10.77322237 78.03403857 48.69496406 78.21359209z" fill="#C7B299" p-id="2012"></path><path d="M1398.82161992 962c-31.60145127 0-206.34311338-2.4239751-260.72992969-55.01525449-244.19303349-236.18493896-626.82197168-653.57547276-630.6644206-657.79498477-19.40975508-22.67763222-45.21162217-35.04888281-72.82698135-35.04888193-43.34426367 0-81.80466592 31.13461143-95.72007831 77.47742197a7.63103232 7.63103232 0 0 1-1.79553692 3.10627881L76.92931513 951.28064404A7.66694268 7.66694268 0 1 1 62.69070693 945.6426582l261.21472471-659.30323623a7.61307714 7.61307714 0 0 1 1.20300996-2.046912c16.60871778-51.26258145 60.25822207-85.48551738 109.52775791-85.48551739 32.15806787 0 62.10762539 14.36429619 84.3004626 40.2200288 3.59107383 4.00404727 385.9147705 421.08934042 629.85642891 656.95108273 54.11748516 52.3399043 252.54228076 50.75983125 254.55328242 50.68800966h0.08977675a7.66694268 7.66694268 0 0 1 0 15.31593105zM846.83763125 482.75321592a7.6489875 7.6489875 0 0 1-5.38661074-2.29828711l-69.3077291-70.43891748a7.6759207 7.6759207 0 0 1 10.9348207-10.77322237l69.21795146 70.4927839a7.66694268 7.66694268 0 0 1-5.38661074 13.03559823z" fill="#7F7F7E" p-id="2013"></path><path d="M929.03731543 602.19233808a7.63103232 7.63103232 0 0 1-5.38661074-2.29828711l-69.23590752-70.43891748a7.6759207 7.6759207 0 0 1 10.9348207-10.77322235l69.23590752 70.43891748a7.66694268 7.66694268 0 0 1-5.38661162 13.03559823zM812.21967793 626.34231055a7.63103232 7.63103232 0 0 1-5.38661162-2.29828711l-69.23590664-70.43891748a7.6759207 7.6759207 0 1 1 10.93481983-10.77322149l69.14613076 70.54664941a7.66694268 7.66694268 0 0 1-5.38661163 13.03559825zM1034.32760615 755.31573477a7.63103232 7.63103232 0 0 1-5.38661074-2.298288l-69.23590752-70.43891659a7.6759207 7.6759207 0 0 1 10.9348207-10.77322237l69.23590664 70.43891748a7.66694268 7.66694268 0 0 1-5.38661074 13.03559825zM1058.45962344 878.31001953a7.63103232 7.63103232 0 0 1-5.38661074-2.29828711l-69.30772911-70.51073818a7.6759207 7.6759207 0 0 1 10.93482071-10.77322237l69.21795146 70.56460459a7.66694268 7.66694268 0 0 1-5.38661074 13.03559912zM1171.11161622 825.75465136a7.63103232 7.63103232 0 0 1-5.38661163-2.2982871l-69.23590664-70.43891749a7.6759207 7.6759207 0 1 1 10.93481983-10.77322148l69.19999628 70.43891661a7.66694268 7.66694268 0 0 1-5.38661074 13.03559912zM347.13968047 263.42836982a7.59512197 7.59512197 0 0 1-2.53170703-0.43092949c-23.48562393-8.18764893-39.69932344-30.29070938-41.29735167-56.32599551-2.15464482-34.97706123 23.10856172-65.32163613 56.29008516-67.61992412a58.21131006 58.21131006 0 0 1 42.60809356 14.66953769 64.26226933 64.26226933 0 0 1 21.54644472 44.88842549 67.6917457 67.6917457 0 0 1 0 9.31883643 7.66694268 7.66694268 0 0 1-15.2800207-1.16709873 52.37581465 52.37581465 0 0 0 0-7.18214853 49.05407109 49.05407109 0 0 0-16.44711855-34.22293506 42.84151348 42.84151348 0 0 0-31.42189776-10.77322236c-24.83227705 1.79553691-43.7033707 24.77841065-42.06943213 51.38826943 1.22096513 19.84068369 13.39470615 36.64691016 31.04483467 42.78764707a7.66694268 7.66694268 0 0 1-2.53170703 14.90295761zM358.16427793 122.06574072a7.66694268 7.66694268 0 0 1-7.63103233-7.18214853L347.80402901 70.37222979a7.66694268 7.66694268 0 1 1 15.29797587-0.93367882l2.72921572 44.51136241a7.66694268 7.66694268 0 0 1-7.18214765 8.11582735zM330.10003408 129.35562119a7.66694268 7.66694268 0 0 1-7.07441572-4.74021826L306.11165996 83.78489112a7.66694268 7.66694268 0 0 1 14.16678662-5.85345059l16.9139584 40.83051181a7.66694268 7.66694268 0 0 1-7.07441572 10.59366885zM306.07574873 146.3952667a7.6489875 7.6489875 0 0 1-5.69185225-2.53170703l-29.03383301-32.31966621a7.66694268 7.66694268 0 0 1 11.3837045-10.25251612l29.033833 32.31966621a7.66694268 7.66694268 0 0 1-5.69185224 12.78422315zM288.96428076 171.11981182a7.66694268 7.66694268 0 0 1-3.59107383-0.87981328l-37.70627695-19.75090693a7.67771631 7.67771631 0 0 1 7.18214765-13.57425968l37.70627784 19.75090694a7.66694268 7.66694268 0 0 1-3.59107471 14.36429619zM280.88436465 200.56661914a7.55921074 7.55921074 0 0 1-0.89776846 0l-41.76419062-4.86590537a7.66694268 7.66694268 0 0 1 1.79553691-15.2261543l41.76419062 4.86590537a7.66694268 7.66694268 0 0 1-0.87981328 15.28001983zM241.93916651 241.70237158a7.66694268 7.66694268 0 0 1-1.92122403-15.08251113l40.81255577-10.59366797a7.66694268 7.66694268 0 1 1 3.8424498 14.83113604l-40.81255664 10.59366796a7.66694268 7.66694268 0 0 1-1.9212249 0.2513751zM259.44565273 284.04113487a7.66694268 7.66694268 0 0 1-4.43497675-13.91541241l34.94115087-24.83227705a7.69208027 7.69208027 0 1 1 8.86995265 12.56875928l-34.94115 24.77841064a7.61307714 7.61307714 0 0 1-4.43497677 1.40051954zM289.50294219 317.40221269a7.66694268 7.66694268 0 0 1-6.30233438-12.01214267l24.85023223-35.91074092a7.66694268 7.66694268 0 1 1 12.5687584 8.70835517l-24.85023223 35.91074005a7.6489875 7.6489875 0 0 1-6.26642402 3.30378837zM444.4039206 189.25473535a7.66694268 7.66694268 0 0 1-1.9212249-15.08251025l40.81255664-10.59366885a7.66694268 7.66694268 0 0 1 3.84244893 14.83113604l-40.81255664 10.59366797a7.66694268 7.66694268 0 0 1-1.92122403 0.25137509zM432.78679619 161.17253633a7.66694268 7.66694268 0 0 1-4.43497676-13.91541152l34.94115-24.77841065a7.69208027 7.69208027 0 0 1 8.86995352 12.56875928l-34.94115088 24.77841064a7.63103232 7.63103232 0 0 1-4.43497588 1.34665225zM412.80246934 138.9976543a7.66694268 7.66694268 0 0 1-6.30233526-12.01214268l24.85023223-35.91074004a7.66694268 7.66694268 0 0 1 12.56875927 8.7083543l-24.85023222 35.91074092a7.66694268 7.66694268 0 0 1-6.26642403 3.3037875zM386.89287031 125.42339463a7.68489873 7.68489873 0 0 1-7.39761328-9.69589952l11.77872276-42.80560224a7.66694268 7.66694268 0 0 1 14.77726962 4.05791367l-11.77872275 42.82355742a7.66694268 7.66694268 0 0 1-7.37965635 5.62003067z" fill="#7F7F7E" p-id="2014"></path><path d="M467.5304375 375.23645967c10.39615928 0 10.41411445-16.1598331 0-16.15983311s-10.41411445 16.1598331 0 16.15983311zM648.86172031 599.01423769c10.39615928 0 10.41411445-16.1598331 0-16.1598331s-10.41411445 16.1598331 0 16.1598331zM406.21284776 727.66446435c10.39615928 0 10.41411445-16.1598331 0-16.1598331s-10.41411445 16.1598331 0 16.1598331zM289.14383516 914.59782266c10.39615928 0 10.41411445-16.1598331 0-16.15983311s-10.41411445 16.1598331 0 16.15983311zM678.11101807 871.70244365c10.39615928 0 10.41411445-16.1598331 0-16.1598331s-10.41411445 16.1598331 0 16.1598331zM932.5386125 785.89372959c10.39615928 0 10.41411445-16.1598331 0-16.15983311s-10.41411445 16.1598331 0 16.15983311z" fill="#5E5E5C" p-id="2015"></path><path d="M496.77973526 332.70018769c6.93077256 0 6.94872862-10.77322237 0-10.77322236s-6.94872862 10.77322237 0 10.77322237zM303.75950644 890.46580537c6.93077256 0 6.94872862-10.77322237 1e-8-10.77322237s-6.94872862 10.77322237 0 10.77322237zM578.58440117 749.48023935c6.93077256 0 6.94872862-10.77322237 0-10.77322235s-6.94872862 10.77322237 0 10.77322235zM675.18429278 584.00354815c6.93077256 0 6.94872862-10.77322237-1e-8-10.77322237s-6.94872862 10.77322237 0 10.77322237zM847.71744453 764.81412559c6.93077256 0 6.94872862-10.77322237 0-10.77322237s-6.94872862 10.77322237 0 10.77322236zM1005.65288018 899.65895469c6.93077256 0 6.94872862-10.77322237 0-10.77322149s-6.94872862 10.77322237 0 10.77322149z" fill="#FFFFFF" p-id="2016"></path></svg>