<?xml version="1.0" standalone="no"?><!DOCTYPE svg PUBLIC "-//W3C//DTD SVG 1.1//EN" "http://www.w3.org/Graphics/SVG/1.1/DTD/svg11.dtd"><svg t="1568821865431" class="icon" viewBox="0 0 1024 1024" version="1.1" xmlns="http://www.w3.org/2000/svg" p-id="4069" xmlns:xlink="http://www.w3.org/1999/xlink" width="200" height="200"><defs><style type="text/css"></style></defs><path d="M941.83424 430.62272c-4.56192 117.20704-91.31008 209.00864-193.76128 205.05088-102.4512-3.95776-181.80608-102.18496-177.24416-219.392s91.31008-209.00864 193.76128-205.05088c102.44608 3.96288 181.80096 102.18496 177.24416 219.392z" fill="#76E276" p-id="4070"></path><path d="M754.42176 653.71648c-2.35008 0-4.6848-0.04608-7.05024-0.13824-112.19456-4.33664-199.4496-111.09888-194.51392-237.99296 2.37056-61.00992 25.472-117.67296 65.04448-159.54944 40.2176-42.56256 92.544-64.8704 147.3792-62.70976 112.19968 4.33664 199.45472 111.09888 194.51904 237.99808-4.8384 124.2112-96.2816 222.39232-205.37856 222.39232z m3.77344-424.68864c-42.22464 0-82.53952 18.176-114.10944 51.57376-33.61792 35.57888-53.25824 84.00896-55.296 136.3712-4.16768 107.14624 67.59424 197.2224 159.9744 200.79104 92.24192 3.38944 170.92608-80.69632 175.104-187.83744 4.16768-107.14112-67.59936-197.21728-159.97952-200.79104a151.4496 151.4496 0 0 0-5.69344-0.10752z m183.63904 201.59488h0.0512-0.0512z" fill="" p-id="4071"></path><path d="M82.08896 428.94848c3.47648 117.24288 89.3696 209.8432 191.85152 206.8224s182.74816-100.5056 179.27168-217.74848S363.84256 208.18432 261.36064 211.2 78.61248 311.7056 82.08896 428.94848z" fill="#FF5757" p-id="4072"></path><path d="M269.10208 653.76256c-109.86496 0.01536-201.28768-99.37408-204.98944-224.28672-3.75808-126.92992 84.48512-232.88832 196.71552-236.19072 112.26624-3.31264 206.59712 97.28 210.36032 224.20992 1.80736 61.0304-17.3568 119.13216-53.97504 163.60448-37.20704 45.19936-87.90016 70.97344-142.74048 72.58624-1.78688 0.0512-3.58912 0.0768-5.37088 0.0768z m-2.89792-424.71424c-1.4336 0-2.8672 0.02048-4.31104 0.06144-92.41088 2.72384-165.00736 92.1344-161.82784 199.30624 3.1232 105.50272 78.53568 189.49632 169.0368 189.50144 1.4336 0 2.8672-0.02048 4.31104-0.06144 44.288-1.3056 85.48352-22.43584 115.99872-59.4944 31.104-37.78048 47.38048-87.43936 45.82912-139.81696-3.1232-105.4976-78.53568-189.49632-169.0368-189.49632z" fill="" p-id="4073"></path><path d="M254.25408 379.66848a297.74848 260.26496 90 1 0 520.52992 0 297.74848 260.26496 90 1 0-520.52992 0Z" fill="#FFDD50" p-id="4074"></path><path d="M514.51904 695.34208c-153.42592 0-278.2464-141.60896-278.2464-315.66848S361.088 64 514.51904 64s278.2464 141.60896 278.2464 315.66848-124.82048 315.6736-278.2464 315.6736z m0-595.50208c-133.59616 0-242.28352 125.52704-242.28352 279.82848 0 154.29632 108.68736 279.82848 242.28352 279.82848 133.59616 0 242.28352-125.53216 242.28352-279.82848 0-154.29632-108.68736-279.82848-242.28352-279.82848zM633.97888 960c-1.4848 0-2.99008-0.18432-4.49536-0.56832a17.92 17.92 0 0 1-12.93312-21.82144c13.28128-51.44576 27.008-83.76832 40.28416-115.02592 14.81216-34.88256 28.8-67.82976 39.63392-124.78464a17.9712 17.9712 0 0 1 21.0176-14.26432 17.92512 17.92512 0 0 1 14.31552 20.94592c-11.55072 60.71808-26.2656 95.38048-41.84576 132.0704-12.76416 30.04928-25.9584 61.12768-38.56896 109.99296a17.9968 17.9968 0 0 1-17.408 13.45536z" fill="" p-id="4075"></path><path d="M560.75776 960a17.9968 17.9968 0 0 1-16.59904-11.01824c-32.0512-76.50816-47.62624-165.34016-47.62624-271.55968 0-9.89696 8.04864-17.92 17.98144-17.92a17.95072 17.95072 0 0 1 17.98144 17.92c0 101.39136 14.6688 185.7024 44.84608 257.75104a17.8944 17.8944 0 0 1-9.66144 23.43936c-2.25792 0.94208-4.608 1.38752-6.92224 1.38752zM438.43584 959.99488a17.9712 17.9712 0 0 1-15.1552-8.24832c-22.28224-34.64192-42.78272-58.20416-62.60736-80.98304-36.66944-42.14272-68.33664-78.53568-94.49984-164.81792a17.92 17.92 0 0 1 12.01152-22.34368 18.01216 18.01216 0 0 1 22.41536 11.97056c23.936 78.96064 51.87072 111.06304 87.2448 151.71072 19.70176 22.63552 42.03008 48.29696 65.7152 85.12512a17.87904 17.87904 0 0 1-5.43744 24.7552 17.9712 17.9712 0 0 1-9.68704 2.83136z" fill="" p-id="4076"></path><path d="M514.51904 677.42208c-37.66272 0-58.06592 67.9168-58.06592 67.9168h125.49632s-29.7728-67.9168-67.4304-67.9168z" fill="#FFDD50" p-id="4077"></path><path d="M581.94944 763.25888H456.45312a17.99168 17.99168 0 0 1-14.42304-7.2192 17.8688 17.8688 0 0 1-2.80064-15.84128c2.4832-8.25856 25.6768-80.70144 75.2896-80.70144 48.04608 0 80.37888 70.61504 83.90656 78.66368a17.89952 17.89952 0 0 1-1.42848 16.99328 18.0224 18.0224 0 0 1-15.04768 8.10496z m-98.90816-35.84h68.5824c-11.1872-16.92672-25.40544-32.0768-37.10464-32.0768-11.20768 0-22.97856 15.28832-31.47776 32.0768z" fill="" p-id="4078"></path><path d="M275.87584 637.2864c-36.93056 7.35232-45.12768 70.24128-45.12768 70.24128l109.87008-14.12608c0-0.00512-27.81184-63.47264-64.7424-56.1152z" fill="#FF5757" p-id="4079"></path><path d="M230.74304 725.44768a18.0224 18.0224 0 0 1-12.7232-5.25312 17.87392 17.87392 0 0 1-5.10976-14.976c1.00864-7.74144 11.25376-75.91424 59.43808-85.504 49.63328-9.87136 81.30048 58.67008 84.74112 66.51904a17.85856 17.85856 0 0 1-0.83456 16 17.98656 17.98656 0 0 1-13.34784 8.94464l-109.87008 14.12608a19.09248 19.09248 0 0 1-2.29376 0.14336z m51.08224-70.82496c-0.8192 0-1.62304 0.08192-2.42688 0.24064-11.42272 2.26816-19.78368 16.91136-24.97024 31.54432l57.44128-7.38304c-8.66816-12.5696-19.91168-24.40192-30.04416-24.40192z m-5.94944-17.33632h0.0512-0.0512z" fill="" p-id="4080"></path><path d="M725.27872 634.44992c36.864 7.69536 43.76576 74.04032 43.76576 74.04032l-109.824-14.70976s29.19936-67.02592 66.05824-59.33056z" fill="#76E276" p-id="4081"></path><path d="M769.04448 726.41024a18.688 18.688 0 0 1-2.39104-0.15872l-109.824-14.70976a17.96608 17.96608 0 0 1-13.26592-8.95488 17.8432 17.8432 0 0 1-0.83456-15.93856c3.584-8.23296 36.48-80.08192 86.23616-69.73952h0.00512c48.3072 10.0864 57.1136 81.6128 57.96352 89.73312a17.87904 17.87904 0 0 1-5.36576 14.70976 18.00704 18.00704 0 0 1-12.52352 5.05856z m-81.54624-46.9248l58.89024 7.88992c-4.80256-16.16896-13.02016-32.92672-24.79104-35.38944-10.71104-2.23232-24.02304 12.15488-34.0992 27.49952z" fill="" p-id="4082"></path></svg>