<?xml version="1.0" standalone="no"?><!DOCTYPE svg PUBLIC "-//W3C//DTD SVG 1.1//EN" "http://www.w3.org/Graphics/SVG/1.1/DTD/svg11.dtd"><svg t="1568821826154" class="icon" viewBox="0 0 1118 1024" version="1.1" xmlns="http://www.w3.org/2000/svg" p-id="1874" xmlns:xlink="http://www.w3.org/1999/xlink" width="218.359375" height="200"><defs><style type="text/css"></style></defs><path d="M246.28992427 515.86532693C246.28992427 701.77509867 397.2870624 852.39817387 583.44621013 852.39817387c186.15914773 0 337.15628587-150.74776213 337.15628587-336.53284694S769.60535787 179.33248107 583.44621013 179.33248107c-186.28383573 0-337.15628587 150.62307413-337.15628586 336.53284586z m0 0" fill="#F9D706" p-id="1875"></path><path d="M357.01284587 267.611568c97.0072448-88.15439893 236.53309013-111.9698016 357.35573866-60.97242027C835.19123307 257.63653013 915.36560107 374.21978667 919.72968 505.26684907s-67.7055712 252.74252693-184.78757973 311.8446272c124.56328747-113.2166816 146.3836832-301.12146133 50.9973824-439.7744896-95.38630187-138.65302933-278.6776256-185.53570773-428.9266368-109.72541867z m0 0" fill="#FEBD34" p-id="1876"></path><path d="M400.65363733 234.0705024c105.48602773-68.70307413 240.52310507-72.81777813 349.99914774-10.59847787 109.47604267 62.21930027 175.06191787 180.2988128 169.94971093 306.23366827C915.49028907 655.51586027 840.677504 767.98441387 726.4633184 821.2261792c148.0046272-96.5084928 196.2588736-290.89704747 110.47354667-445.38544853-85.66063893-154.48840213-276.1838656-216.33363733-436.28322774-141.77022827z m0 0" fill="#F78F22" p-id="1877"></path><path d="M424.59372907 473.97016747c0 8.97753387 4.73814293 17.3316288 12.59348586 21.82039573 7.73065493 4.48876693 17.3316288 4.48876693 25.18697067 0 7.73065493-4.48876693 12.59348587-12.84286187 12.59348587-21.82039573 0-8.97753387-4.73814293-17.3316288-12.59348587-21.82039574-7.73065493-4.48876693-17.3316288-4.48876693-25.18697067 0-7.73065493 4.48876693-12.59348587 12.84286187-12.59348586 21.82039574z m0 0M631.45108053 473.97016747c0 8.97753387 4.73814293 17.3316288 12.59348587 21.82039573 7.73065493 4.48876693 17.3316288 4.48876693 25.18697067 0 7.73065493-4.48876693 12.59348587-12.84286187 12.59348586-21.82039573 0-8.97753387-4.73814293-17.3316288-12.59348586-21.82039574-7.73065493-4.48876693-17.3316288-4.48876693-25.18697067 0-7.73065493 4.48876693-12.59348587 12.84286187-12.59348587 21.82039574z m0 0" fill="" p-id="1878"></path><path d="M496.7880672 573.47117227h128.5533024c0 35.53607253-28.80292267 64.3389952-64.3389952 64.3389952-35.4113856 0-64.2143072-28.80292267-64.2143072-64.3389952z m0 0" fill="#F48373" p-id="1879"></path><path d="M561.0023744 646.16426133c-40.39890453 0-73.69059413-31.7954336-75.43622507-72.06964906-0.124688-3.11719893 0.997504-6.10971093 3.11719894-8.22940694 2.119696-2.244384 4.98751893-3.49126293 8.10471893-3.49126293h128.5533024c3.11719893 0 5.98502293 1.24688 8.10471893 3.49126293 2.119696 2.244384 3.24188693 5.23689493 3.11719894 8.22940694-1.87032 40.27421653-35.1620096 72.06965013-75.56091307 72.06964906z m-51.3714464-61.4711712c5.98502293 23.44133973 27.18197867 39.90015253 51.4961344 39.90015147 24.18946773 0 45.38642347-16.4588128 51.3714464-39.90015147h-102.8675808z m0 0" fill="" p-id="1880"></path><path d="M693.5456928 578.4586912c0 10.34910187 5.48627093 19.95007573 14.5884928 25.18697067 8.97753387 5.23689493 20.07476373 5.23689493 29.05229867 0 8.97753387-5.23689493 14.5884928-14.8378688 14.5884928-25.18697067 0-10.34910187-5.48627093-19.95007573-14.5884928-25.18697173-8.97753387-5.23689493-20.07476373-5.23689493-29.05229867 0-8.97753387 5.23689493-14.5884928 14.8378688-14.5884928 25.18697173z m0 0" fill="#F79121" p-id="1881"></path><path d="M535.31665173 889.3058144c-198.3785696 0-359.2260576-160.59811307-359.4754336-358.9766816-0.124688-51.99488533 11.09722987-103.24164373 33.0423136-150.3736992 5.23689493-11.22191787 18.5785088-16.2094368 29.9251136-10.84785387 11.22191787 5.23689493 16.2094368 18.5785088 10.84785387 29.92511467-19.20194773 41.14703147-29.05229867 86.03470293-29.05229867 131.4211264 0.249376 128.30392747 78.42873707 243.640304 197.5057536 291.5204864 119.07701653 47.7554944 255.36097387 18.5785088 344.2635008-74.06465707 8.60346987-8.35409387 22.31914773-8.47878187 30.9226176-0.124688 8.72815787 8.22940587 9.35159787 21.94508373 1.496256 30.9226176-67.5808832 70.94745813-161.470928 110.97229867-259.4756768 110.59823467zM818.73242027 733.94459627c-8.22940587 0.124688-15.9600608-4.36407893-19.9500768-11.59598187-3.99001493-7.23190293-3.61595093-16.0847488 0.872816-23.06727467 14.3391168-22.31914773 25.81041067-46.38392747 34.1645056-71.57089813 3.86532693-11.72066987 16.4588128-18.0797568 28.17948266-14.21442987 11.72066987 3.86532693 18.0797568 16.4588128 14.2144288 28.17948267-9.35159787 28.67823467-22.31914773 56.10958933-38.52858453 81.670624-3.99001493 6.60846293-11.09722987 10.59847787-18.95257173 10.59847787z m53.11707733-181.67037974c-12.34410987 0-22.31914773-9.97503787-22.31914773-22.31914773-0.62344-173.19159787-141.02210027-313.3408832-314.21369814-313.5902592l-30.17449066 1.620944c-7.98003093 0.872816-15.8353728-2.618448-20.57351574-9.22690987-4.73814293-6.48377493-5.61095893-15.0872448-2.244384-22.44383573s10.34910187-12.34410987 18.3291328-13.09223787l34.6632576-1.620944c198.3785696 0 359.2260576 160.59811307 359.4754336 358.97668267 0 5.98502293-2.49376 11.84535787-6.73315093 15.9600608-4.36407893 4.23939093-10.09972587 6.48377493-16.2094368 6.35908693v-0.62344zM278.21004587 334.69369813c-8.72815787-0.124688-16.5835008-5.23689493-20.19945174-13.0922368-3.61595093-7.85534293-2.244384-17.2069408 3.36657494-23.81540373 19.0772608-22.56852373 40.89765653-42.64328747 64.8377472-59.85022827 10.09972587-7.23190293 24.06477973-4.98751893 31.2966816 4.98751894 7.23190293 10.09972587 4.98751893 24.06477973-4.98751894 31.29668266-21.07226773 15.0872448-40.27421653 32.7929376-56.98240426 52.49363734-4.36407893 5.23689493-10.72316587 8.10471893-17.3316288 7.98002986z m120.69796053-89.90002986c-10.72316587 0.249376-20.19945173-7.23190293-22.31914773-17.8303808s3.49126293-21.19695573 13.4663008-25.18697067l30.79793066-11.22191787c11.72066987-3.99001493 24.43884373 2.244384 28.5535456 13.9650528 3.99001493 11.72066987-2.244384 24.43884373-13.9650528 28.55354667l-27.43135466 10.09972587c-2.99251093 0.997504-5.98502293 1.620944-9.10222187 1.620944z m0 0" fill="" p-id="1882"></path><path d="M323.47178133 578.4586912c0 10.34910187 5.48627093 19.95007573 14.5884928 25.18697067 8.97753387 5.23689493 20.07476373 5.23689493 29.05229867 0 8.97753387-5.23689493 14.5884928-14.8378688 14.5884928-25.18697067 0-10.34910187-5.48627093-19.95007573-14.5884928-25.18697173-8.97753387-5.23689493-20.07476373-5.23689493-29.05229867 0-9.10222187 5.23689493-14.5884928 14.8378688-14.5884928 25.18697173z m0 0" fill="#F79121" p-id="1883"></path><path d="M605.26660587 1033.07105067c-8.22940587 0.124688-15.3366208-5.86033493-16.8328768-13.96505387l-8.97753387-50.3739424c-0.872816-8.72815787 5.23689493-16.7081888 13.8403648-18.07975573 8.60346987-1.496256 16.9575648 3.99001493 19.0772608 12.5934848l8.97753387 50.3739424c0.872816 4.36407893-0.124688 8.85284587-2.618448 12.59348586-2.49376 3.61595093-6.35908693 6.23439893-10.72316587 6.98252694h-2.74313493z m-333.78971094-83.291568c-5.98502293 0-11.47129387-3.24188693-14.5884928-8.35409494-2.99251093-5.23689493-2.99251093-11.59598187 0-16.8328768L282.5741248 879.82952853c2.99251093-5.23689493 8.47878187-8.60346987 14.5884928-8.60347093 6.10971093 0 11.72066987 3.24188693 14.71318187 8.47878293 2.99251093 5.23689493 2.99251093 11.72066987-0.124688 16.9575648l-25.68572374 44.7629824c-3.11719893 5.11220693-8.60346987 8.35409387-14.5884928 8.35409494z m642.89120214-67.0821312c-3.86532693 0-7.60596693-1.371568-10.59847787-3.86532694l-39.15202453-33.0423136c-4.61345493-3.86532693-6.73315093-9.97503787-5.73564694-15.8353728 1.122192-5.98502293 5.23689493-10.84785387 10.84785387-12.84286186 5.61095893-1.995008 11.97004587-0.872816 16.5835008 2.992512l39.15202453 33.0423136c5.36158293 4.48876693 7.35659093 11.84535787 4.98751894 18.57850773-2.369072 6.60846293-8.60346987 11.09722987-15.5859968 11.09722987h-0.498752zM69.6070624 671.35123307c-7.98003093-0.249376-14.7131808-5.98502293-16.0847488-13.96505387-1.371568-7.85534293 2.99251093-15.5859968 10.47378987-18.45381973l48.1295584-17.3316288c8.35409387-2.369072 17.2069408 1.995008 20.32413973 10.22441386s-0.62344 17.3316288-8.60346987 21.07226774l-48.6283104 17.3316288-5.61095893 1.122192zM1003.270624 568.48365333c-9.22690987 0-16.8328768-7.48127893-16.8328768-16.7081888s7.48127893-16.8328768 16.8328768-16.8328768h51.3714464c9.22690987 0 16.8328768 7.48127893 16.8328768 16.8328768 0 9.22690987-7.48127893 16.7081888-16.8328768 16.7081888H1003.270624zM142.30015253 345.41686507l-5.61095893-1.122192-48.6283104-17.3316288c-7.48127893-3.86532693-10.97254187-12.59348587-8.10471893-20.57351574 2.86782293-7.85534293 11.09722987-12.46879787 19.3266368-10.72316586l48.6283104 17.33162773c7.48127893 2.86782293 11.84535787 10.59847787 10.47378986 18.4538208-1.371568 7.85534293-8.10471893 13.7156768-16.0847488 13.96505387z m778.17765547-74.93747414c-6.98252693 0-13.21692587-4.48876693-15.5859968-11.09722986-2.369072-6.60846293-0.374064-13.9650528 4.98751893-18.57850774l39.15202454-33.0423136c7.10721493-5.98502293 17.7056928-5.11220693 23.81540373 1.99500694 5.98502293 7.10721493 5.11220693 17.7056928-1.995008 23.81540373l-39.15202453 33.0423136c-3.11719893 2.49376-7.10721493 3.99001493-11.22191787 3.86532693zM358.63378987 125.09321173c-5.98502293 0-11.59598187-3.24188693-14.5884928-8.35409493l-25.68572374-44.13954347c-3.11719893-5.23689493-3.11719893-11.72066987-0.124688-16.95756373 2.99251093-5.23689493 8.60346987-8.47878187 14.71318187-8.47878293s11.59598187 3.36657493 14.5884928 8.60347093l25.68572267 44.1395424c2.99251093 5.23689493 2.99251093 11.59598187 0 16.8328768-2.99251093 5.11220693-8.60346987 8.35409387-14.5884928 8.35409493z m307.48054826-29.67573866h-2.743136c-4.36407893-0.872816-8.22940587-3.36657493-10.72316586-6.98252587-2.49376-3.61595093-3.49126293-8.22940587-2.61844694-12.59348587l8.97753387-50.3739424c2.119696-8.47878187 10.47378987-13.9650528 19.0772608-12.59348586 8.60346987 1.496256 14.7131808 9.35159787 13.8403648 18.0797568l-8.97753387 50.3739424c-1.371568 8.35409387-8.47878187 14.2144288-16.8328768 14.0897408z m0 0" fill="" p-id="1884"></path></svg>