<?xml version="1.0" standalone="no"?><!DOCTYPE svg PUBLIC "-//W3C//DTD SVG 1.1//EN" "http://www.w3.org/Graphics/SVG/1.1/DTD/svg11.dtd"><svg t="1568821830930" class="icon" viewBox="0 0 1024 1024" version="1.1" xmlns="http://www.w3.org/2000/svg" p-id="2136" xmlns:xlink="http://www.w3.org/1999/xlink" width="200" height="200"><defs><style type="text/css"></style></defs><path d="M89.088 537.2928c0-223.488 189.2864-404.6848 422.912-404.6848 233.5744 0 422.912 181.1968 422.912 404.6848v-1.024c-18.2784-30.8224-74.3936-53.1968-140.8-53.1968-66.7136 0-122.9824 22.5792-141.0048 53.6064-17.92-30.976-74.2912-53.6064-141.0048-53.6064-66.9184 0-123.392 22.6816-141.2096 53.9136l0.2048-0.3072c-17.92-30.976-74.2912-53.6064-141.0048-53.6064-65.8944 0-121.8048 22.1184-140.3904 52.5824l-0.6144 1.6384z" fill="#83CAFF" p-id="2137"></path><path d="M89.2928 553.4208c-0.512 0-1.0752 0-1.6896-0.1024a16.11776 16.11776 0 0 1-14.3872-15.9744c0-112.5888 45.824-218.4192 128.6144-297.984C284.7232 160 394.8032 116.2752 512 116.2752s227.2768 43.7248 310.2208 122.9824c82.7904 79.3088 128.512 184.576 128.8192 296.704V537.1904c0 8.9088-7.2192 16.0768-16.0768 16.0768-7.1168 0-13.2096-4.608-15.3088-11.1104-15.104-21.7088-61.9008-43.008-125.3888-43.008-66.0992 0-114.0224 22.8864-127.0784 45.6192a16.08704 16.08704 0 0 1-22.0672 5.7856c-2.4064-1.3824-4.4032-3.3792-5.7856-5.7856-13.2096-22.6816-60.9792-45.6192-127.0784-45.6192-66.2016 0-113.92 22.8864-127.0784 45.6192l-0.1024 0.3072c-4.4032 7.7824-14.2848 10.3936-22.016 5.9904-3.3792-1.8944-5.7856-4.9152-7.1168-8.2944-14.8992-22.016-61.7984-43.52-125.7984-43.52-63.2832 0-110.2848 21.2992-125.3888 43.008a16.34816 16.34816 0 0 1-15.4624 11.1616z m827.4944-56.2176c-21.0944-195.4816-194.5088-348.5184-404.5824-348.5184s-383.488 152.9856-404.48 348.5184c30.208-18.7904 74.3936-30.208 122.5216-30.208 59.392 0 112.5888 17.2032 141.0048 44.288 28.5184-27.0848 81.6128-44.288 141.1072-44.288 59.392 0 112.5888 17.2032 141.0048 44.288 28.416-27.0848 81.6128-44.288 141.0048-44.288 48.128 0 92.2112 11.4176 122.4192 30.208z" fill="#232323" p-id="2138"></path><path d="M370.7904 553.216a16.27136 16.27136 0 0 1-15.9232-16.384c1.5872-110.6944 17.3056-214.3232 44.1856-291.6864 29.2864-84.224 68.4032-128.7168 113.1008-128.7168s83.712 44.4928 112.9984 128.6144c26.88 77.312 42.5984 180.7872 44.1856 291.4816 0.1024 8.9088-7.0144 16.2816-15.9232 16.384h-0.2048c-8.8064 0-15.9744-7.1168-16.0768-15.9232-1.5872-107.3152-16.6912-207.2064-42.3936-281.3952-23.296-67.0208-54.2208-107.008-82.5856-107.008-28.416 0-59.2896 40.0896-82.5856 107.1104-25.8048 74.1888-40.9088 174.1824-42.3936 281.6a16.13824 16.13824 0 0 1-16.0768 15.9232h-0.3072z" p-id="2139"></path><path d="M371.0976 537.2928c17.8176-31.0784 74.2912-53.9136 141.2096-53.9136 66.7136 0 122.9824 22.5792 141.0048 53.6064v-0.2048c-3.2768-225.024-65.1776-404.2752-141.1072-404.2752S374.3232 312.0128 371.0976 537.088" fill="#EDF4FC" p-id="2140"></path><path d="M370.9952 553.4208c-2.816 0-5.4784-0.7168-7.9872-2.0992-5.9904-3.2768-8.9088-9.8816-7.9872-16.2816 1.6896-109.9776 17.408-212.8896 44.0832-289.792 29.2864-84.224 68.4032-128.7168 113.1008-128.7168s83.712 44.4928 112.9984 128.6144c26.88 77.312 42.5984 180.7872 44.1856 291.4816a15.36 15.36 0 0 1-0.4096 3.7888v0.2048a15.872 15.872 0 0 1-9.3184 11.2128c-4.8128 1.9968-10.1888 1.6896-14.592-0.9216-2.4064-1.3824-4.4032-3.3792-5.7856-5.7856-13.2096-22.6816-60.9792-45.6192-127.0784-45.6192-65.4848 0-112.9984 22.4256-126.72 44.9024-0.512 1.024-1.024 1.8944-1.6896 2.7136-3.072 4.096-7.8848 6.2976-12.8 6.2976z m58.624-297.6256c-22.5792 65.0752-37.0176 150.016-41.216 242.3808 30.1056-19.2 74.8032-30.9248 123.8016-30.9248s93.696 11.6224 123.8016 30.9248c-4.1984-92.416-18.5856-177.408-41.216-242.4832-23.296-67.0208-54.2208-107.008-82.5856-107.008-28.416 0-59.2896 40.0384-82.5856 107.1104z" fill="#232323" p-id="2141"></path><path d="M496.0768 132.5056v-49.8176a16.07168 16.07168 0 1 1 32.1536 0v49.92c0 8.9088-7.2192 16.0768-16.0768 16.0768-8.8576 0-16.0768-7.2704-16.0768-16.1792z" fill="#232323" p-id="2142"></path><path d="M498.1248 879.9232v-113.7152l27.0848 0.4096v113.5104c0 20.8896 16.384 38.4 37.3248 38.912 21.504 0.512 39.1168-16.7936 39.1168-38.1952 0-7.5776 6.2976-13.7216 13.9776-13.5168 7.4752 0.2048 13.2096 6.7072 13.1072 14.1824-0.4096 35.6864-29.4912 64.6144-65.28 64.6144-36.2496 0-65.3312-30.0032-65.3312-66.2016z" fill="#1C6EB6" p-id="2143"></path><path d="M563.4048 957.3888c-42.1888 0-76.5952-34.816-76.5952-77.6192v-113.7152c0-3.0208 1.1776-5.888 3.3792-7.9872 2.2016-2.0992 5.12-3.1744 8.0896-3.1744l27.0848 0.4096c6.0928 0.1024 11.1104 5.12 11.1104 11.3152v113.408c0 14.8992 11.776 27.2896 26.3168 27.5968 7.3216 0.1024 14.1824-2.6112 19.4048-7.68s8.0896-11.8784 8.0896-19.2c0-6.7072 2.6112-13.1072 7.4752-17.8176s11.3152-7.2192 18.1248-7.0144c13.4144 0.512 24.2176 11.9808 24.1152 25.7024-0.512 41.7792-34.816 75.776-76.5952 75.776z m50.0736-78.08c-0.3072 0.3072-0.7168 0.8192-0.7168 1.5872 0 13.4144-5.3248 26.0096-14.8992 35.3792a48.8704 48.8704 0 0 1-35.6864 14.08c-26.624-0.6144-48.2816-23.1936-48.2816-50.176v-102.4l-4.5056-0.1024v102.0928c0 30.3104 24.2176 54.8864 54.016 54.8864 29.4912 0 53.7088-23.9104 54.016-53.4016 0-1.3824-1.024-2.816-2.304-2.816 0.1024 0 0.1024 0 0 0-0.7168 0.0512-1.2288 0.4608-1.6384 0.8704z" fill="#232323" p-id="2144"></path><path d="M512.1024 776.2944c-8.9088 0-16.0768-7.2192-16.0768-16.0768V495.3088c0-8.9088 7.2192-16.0768 16.0768-16.0768 8.9088 0 16.0768 7.2192 16.0768 16.0768v264.9088c0 8.8576-7.168 16.0768-16.0768 16.0768z" fill="#232323" p-id="2145"></path></svg>