<?xml version="1.0" standalone="no"?><!DOCTYPE svg PUBLIC "-//W3C//DTD SVG 1.1//EN" "http://www.w3.org/Graphics/SVG/1.1/DTD/svg11.dtd"><svg t="1568877487120" class="icon" viewBox="0 0 1026 1024" version="1.1" xmlns="http://www.w3.org/2000/svg" p-id="4624" xmlns:xlink="http://www.w3.org/1999/xlink" width="200.390625" height="200"><defs><style type="text/css"></style></defs><path d="M1008.368501 830.121954a14.861896 14.861896 0 0 1-13.938372 8.717896h-161.276793a15.789695 15.789695 0 0 1-8.794856-2.565345l-117.300376-76.960334a12.228142 12.228142 0 0 1-5.130689-14.361653 14.853344 14.853344 0 0 1 13.938372-8.726447h161.27038a15.924376 15.924376 0 0 1 8.792718 2.563207l117.302514 76.960334a12.228142 12.228142 0 0 1 5.137102 14.372342z m0 0M256.534447 223.157177v119.716076a16.850038 16.850038 0 0 1-7.867057 14.361653 16.230079 16.230079 0 0 1-9.23524 2.740643 16.796593 16.796593 0 0 1-7.014079-1.537069l-188.125261-85.511482a16.903482 16.903482 0 0 1-9.919332-17.619641 16.713219 16.713219 0 0 1 13.85286-14.707975l188.125261-34.204593a16.704668 16.704668 0 0 1 14.019608 3.591482 16.993269 16.993269 0 0 1 6.16324 13.168769z m0 0" fill="#333333" p-id="4625"></path><path d="M922.805712 724.885111a15.503232 15.503232 0 0 1-14.846931 11.34096H361.386489c-87.792501-1.795741-157.604075-74.23038-156.158932-162.029294V258.27033c-1.310463-74.662213 58.08795-136.283925 132.74375-137.726931 74.6558 1.453695 134.037111 63.073269 132.735198 137.726931v83.801252a81.026405 81.026405 0 0 0 36.701528 68.684961l409.461044 295.983031a16.465236 16.465236 0 0 1 5.936635 18.145537z m0 0" fill="#333333" p-id="4626"></path><path d="M734.094697 658.989962a15.95858 15.95858 0 0 1-14.603223 8.826923 20.095198 20.095198 0 0 1-3.163925-0.292877l-336.436376-63.992517a46.740576 46.740576 0 0 1-33.969436-25.326364 40.010823 40.010823 0 0 1 3.422597-40.10916l37.695599-54.981746a47.078347 47.078347 0 0 1 30.613111-19.547925 51.469361 51.469361 0 0 1 36.669461 6.654932s282.780058 182.387441 279.772192 188.766597z m0 0" fill="#333333" p-id="4627"></path><path d="M342.045929 240.259474c0 18.889486-15.315106 34.204593-34.204593 34.204593-18.898038 0-34.204593-15.315106-34.204593-34.204593s15.306555-34.204593 34.204593-34.204593c18.889486 0 34.204593 15.315106 34.204593 34.204593z m0 0" fill="#FFCC5C" p-id="4628"></path><path d="M735.398747 684.919182a17.102296 17.102296 0 0 0 9.645696-31.207416l-295.516994-202.204726a51.328267 51.328267 0 0 0-39.457136-7.87347 51.289787 51.289787 0 0 0-33.001019 23.013278l-40.617954 64.986588a51.289787 51.289787 0 0 0-3.70906 47.30709 51.281236 51.281236 0 0 0 36.66091 30.110731l362.570823 75.506639c1.128752 0.235157 2.272468 0.352735 3.424734 0.361286z m-358.930171-109.354222c-5.479148-1.133027-10.05615-4.874154-12.24952-10.019808s-1.746572-11.039532 1.218539-15.783281l40.617954-64.993003a17.136501 17.136501 0 0 1 10.988226-7.725962 17.121537 17.121537 0 0 1 13.177319 2.597411l224.927265 153.920668z m0 0M359.148225 240.259474c0-28.33423-22.97266-51.306889-51.306889-51.306889-28.342781 0-51.306889 22.97266-51.306889 51.306889s22.964109 51.306889 51.306889 51.306889c28.33423 0 51.306889-22.97266 51.306889-51.306889z m-51.306889 17.102296a17.102296 17.102296 0 1 1 0-34.20673 17.102296 17.102296 0 0 1 0 34.204593z m0 0" p-id="4629"></path><path d="M1019.290455 825.16015L923.524008 753.328367h34.204593a17.102296 17.102296 0 0 0 9.761136-31.124041L519.065386 409.828743A85.019791 85.019791 0 0 1 478.864301 337.30218V248.810622c-0.126129-72.184518-53.186004-133.344468-124.632986-143.642188-71.442706-10.295582-139.625286 33.38582-160.126664 102.596677L14.038848 240.535248a17.087332 17.087332 0 0 0-13.904167 14.720802 17.091608 17.091608 0 0 0 9.887265 17.670948L188.125261 353.887132v228.418271c0.106889 87.781812 66.581378 161.268242 153.920668 170.152885v137.688451h-34.204593v34.204593h102.613779v-34.204593h-34.204593v-136.818372h102.613779v136.818372h-34.204593v34.204593h102.613778v-34.204593h-34.204592v-136.818372h165.327899l132.249921 99.197595a17.123674 17.123674 0 0 0 10.263516 3.416184h188.125261c7.356125 0 13.895616-4.709545 16.217252-11.691557a17.08947 17.08947 0 0 0-5.964426-19.090439zM73.928952 264.410054L188.125261 243.682071V316.349729zM359.148225 719.123775c-75.532292-0.085511-136.73286-61.286079-136.818371-136.818372v-333.494781c0-61.395106 49.76982-111.164927 111.164927-111.164927s111.164927 49.76982 111.164927 111.164927v88.491558a118.563808 118.563808 0 0 0 55.565361 101.053194L903.257787 719.123775z m467.457069 102.613778l-91.206547-68.409186h131.123307l91.206547 68.409186z m0 0" p-id="4630"></path></svg>