<?xml version="1.0" standalone="no"?><!DOCTYPE svg PUBLIC "-//W3C//DTD SVG 1.1//EN" "http://www.w3.org/Graphics/SVG/1.1/DTD/svg11.dtd"><svg t="1568877485278" class="icon" viewBox="0 0 1024 1024" version="1.1" xmlns="http://www.w3.org/2000/svg" p-id="4485" xmlns:xlink="http://www.w3.org/1999/xlink" width="200" height="200"><defs><style type="text/css"></style></defs><path d="M698.778 207.25l-87.244 63.356-33.068 241.392 41.004 240.068 79.308 64.68c31.05-4.722 61.108-12.34 89.48-22.698v-564.1c-28.372-10.356-58.43-17.976-89.48-22.698z" fill="#EFEDEE" p-id="4486"></path><path d="M707.212 776.396a525.072 525.072 0 0 1-51.568 5.174l43.132 35.176c31.05-4.722 61.108-12.34 89.48-22.698v-36.926c-25.966 8.552-53.12 15.026-81.044 19.274z" fill="#D2D2D2" p-id="4487"></path><path d="M998.552 587.674l-7.918-13.898 14.656-16.12A279.956 279.956 0 0 0 1009 512c0-135.172-93.626-235.762-220.744-282.05-46.604 79.38-71.902 177.828-71.902 282.05s25.296 202.688 71.902 282.05c102.086-37.174 182.556-109.376 210.296-206.376z" fill="#FA9F6A" p-id="4488"></path><path d="M124.062 647.746C60.772 687.486 15 656.514 15 511.998s45.772-175.488 109.062-135.748v271.496z" fill="#3A484A" p-id="4489"></path><path d="M200.23 447.42v129.16c-26.844 31.982-52.716 56.426-76.168 71.168-18.71-21.308-29.7-64.878-29.7-135.748s10.992-114.438 29.7-135.748c23.452 14.74 49.324 39.184 76.168 71.168z" fill="#E0712F" p-id="4490"></path><path d="M406.292 251.892C310.82 131.758 440.12 79.122 571.84 124.814l-165.548 127.078zM406.292 772.104c-95.472 120.134 33.828 172.77 165.548 127.078l-165.548-127.078z" fill="#3A484A" p-id="4491"></path><path d="M698.778 207.25l-292.486 44.64s37.24-98.27 165.548-127.078c44.976 15.616 90.252 42.678 126.938 82.438z" fill="#E0712F" p-id="4492"></path><path d="M698.778 816.746l-292.486-44.64s37.24 98.268 165.548 127.078c44.976-15.616 90.252-42.678 126.938-82.438z" fill="#FA9F6A" p-id="4493"></path><path d="M406.31 251.892h-0.02l-0.014 0.036-63.25 66.296-46.294 213.344 46.294 172.88 63.264 67.656c39.542 19.404 80.75 32.896 122.316 40.95V210.942c-41.544 8.054-82.774 21.546-122.296 40.95z" fill="#EFEDEE" p-id="4494"></path><path d="M526.332 772.472h-0.022c-44.186-8.562-87.994-22.906-130.03-43.534a510.11 510.11 0 0 1-55.096-31.37l1.842 6.88 63.264 67.656a483.074 483.074 0 0 0 29.948 13.452 490.45 490.45 0 0 0 92.368 27.498v-40.166c-0.758-0.142-1.516-0.268-2.274-0.416z" fill="#D2D2D2" p-id="4495"></path><path d="M627.074 511.998c0 110.49 25.118 216.08 71.702 304.748-54.818 8.294-112.772 7.48-170.15-3.69h-0.02c-54.104-82.358-83.706-188.346-83.706-301.058s29.602-218.68 83.706-301.058h0.02c57.378-11.17 115.332-11.984 170.15-3.69-46.564 88.67-71.702 194.26-71.702 304.748zM355.618 511.998c0 92.476 17.598 181.538 50.672 260.106-87.06-42.636-165.866-113.784-221.458-218.342a89.164 89.164 0 0 1 0-83.528c55.592-104.558 134.378-175.706 221.458-218.342-33.052 78.568-50.672 167.61-50.672 260.106z" fill="#FA9F6A" p-id="4496"></path><path d="M800.504 789.378c40.838-16.29 79.438-38.938 112.296-68.268 0.148-0.132 0.302-0.262 0.45-0.396 15.036-13.47 28.846-28.346 40.96-44.5l0.362-0.488c15.388-20.596 27.928-43.086 37.072-67.304-41.772 65.286-109.276 114.702-189.308 143.844a474.32 474.32 0 0 1-31.056 10.094 467.512 467.512 0 0 0 16.978 31.688 435.316 435.316 0 0 0 12.246-4.67zM526.31 772.472a526.386 526.386 0 0 1-24.068-5.256c8.008 15.952 16.794 31.272 26.384 45.838 49.126 9.564 99.692 11.744 149.454 6.37 6.942-0.75 13.844-1.644 20.696-2.68a575.226 575.226 0 0 1-17.79-37.09 533.902 533.902 0 0 1-154.676-7.182zM406.29 772.104a611.96 611.96 0 0 1-17.48-46.904c-82.458-42.066-157.52-108.576-213.786-203.238 0.11 0.98 0.256 1.958 0.398 2.936a88.892 88.892 0 0 0 9.41 28.864c15.008 28.226 32.368 55.228 52.082 80.402 48.494 61.922 106.804 107.296 169.376 137.94z" fill="#E0712F" p-id="4497"></path><path d="M927.63 500.946c-13.452-8.404-30.148-10.504-45.816-5.764-15.664 4.744-28.392 15.754-34.922 30.21a15.004 15.004 0 0 0 7.498 19.848c7.482 3.378 16.456-0.002 19.842-7.496 2.966-6.568 8.9-11.614 16.278-13.848 7.378-2.236 15.114-1.326 21.226 2.492 7.026 4.392 16.28 2.252 20.668-4.772s2.252-16.278-4.774-20.67z" p-id="4498"></path><path d="M1024 511.998c0-67.65-22.862-131.234-66.114-183.878-40.154-48.876-97.026-87.69-164.486-112.262-27.688-10.106-57.016-17.676-87.23-22.59-35.208-36.876-79.826-65.408-129.416-82.624-32.368-11.228-65.836-17.162-96.788-17.162-56.772 0-98.586 19.17-114.716 52.594-9.744 20.192-13.616 53.428 18.504 100.534-75.006 40.2-138.794 99.604-187.06 173.96-22.91-25.264-44.606-44.418-64.656-57.022-19.234-12.078-37.188-18.202-53.366-18.202-18.188 0-43.36 7.732-59.998 44.572C6.284 417.358 0 458.432 0 511.998c0 53.56 6.284 94.632 18.678 122.074 16.636 36.838 41.808 44.576 60 44.578 16.172 0 34.126-6.124 53.366-18.206 20.046-12.6 41.742-31.754 64.652-57.018 48.26 74.346 112.048 133.75 187.06 173.96-32.116 47.102-28.244 80.338-18.5 100.528 16.132 33.426 57.942 52.6 114.724 52.602 30.942 0 64.41-5.936 96.782-17.166 49.586-17.216 94.2-45.746 129.408-82.622 30.218-4.916 59.548-12.486 87.252-22.6 67.44-24.564 124.312-63.378 164.466-112.254C1000.256 644.306 1024 578.758 1024 511.998zM549.554 192.182c-35.554 5.224-71.28 14.272-105.218 26.994-0.31 0.116-0.624 0.224-0.934 0.342l0.494-0.622c12.602-15.856 27.458-29.798 43.972-41.51 24.172-17.144 51.814-29.112 80.508-36.302 0.878-0.22 1.764-0.428 2.648-0.642 30.864 11.208 59.512 27.22 84.616 47.178a512.784 512.784 0 0 0-106.086 4.562z m-157.286-33.068c10.77-22.312 43.554-35.634 87.7-35.634 12.166 0 24.804 1.038 37.632 3.066-63.038 27.046-97.23 70.05-113.358 96.614-15.864-25.484-20.02-47.372-11.974-64.046zM78.676 648.648C36.324 648.644 30 563.03 30 511.998c0-51.036 6.324-136.652 48.672-136.652 6.956 0 14.86 2.03 23.612 6.052-0.094 0.168-0.178 0.35-0.272 0.52-18.484 33.564-21.42 74.996-22.414 112.538-0.424 15.982-0.344 32.998 0.55 49.348l0.01 0.224c1.754 33.322 5.45 68.328 21.854 98.048 0.092 0.168 0.178 0.352 0.272 0.52-8.75 4.024-16.652 6.052-23.608 6.052z m101.692-71.966c-18.644 21.266-36.216 38.084-52.45 50.208a159.508 159.508 0 0 1-0.666-1.26c-17.378-33.7-17.888-76.596-17.888-113.632 0-30.422 1.316-61.376 9.38-90.87 2.138-7.824 4.784-15.538 8.508-22.76 0.116-0.226 0.562-1.064 0.666-1.262 16.236 12.122 33.806 28.94 52.45 50.206 0.638 0.728-8.076 14.56-8.78 15.884a103.9 103.9 0 0 0 0.002 97.606c0.706 1.334 9.384 15.188 8.778 15.88z m31.16-6.148a556.74 556.74 0 0 1-13.448-23.81 73.922 73.922 0 0 1-0.002-69.448 541.152 541.152 0 0 1 13.47-23.848c42.412-70.89 99.102-128.47 166.258-168.948-25.132 72.992-37.186 150.38-37.186 227.518 0 33.05 2.272 66.358 6.754 99 1.126 8.206 8.678 13.962 16.9 12.82 8.012-1.112 13.922-8.872 12.82-16.9a700.534 700.534 0 0 1-6.474-94.92c0-84.862 15.204-170.424 47.392-249.088l0.73-0.352a467.382 467.382 0 0 1 39.78-16.64 480.054 480.054 0 0 1 39-12.37c-0.202 0.366-0.394 0.738-0.594 1.104-35.836 65.602-56.336 139.114-63.816 213.312a638.65 638.65 0 0 0-3.212 64.032c0 77.02 13.64 154.39 42.65 225.868 7.142 17.596 15.218 34.884 24.394 51.516 0.194 0.354 0.38 0.712 0.574 1.066l-1.532-0.416a471.682 471.682 0 0 1-77.262-28.594c-0.242-0.114-0.482-0.234-0.724-0.348-1.006-0.478-2.328-5.746-2.834-7.028-11.508-29.158-20.686-59.268-27.652-89.826a14.994 14.994 0 0 0-17.958-11.292 15 15 0 0 0-11.292 17.958 662.7 662.7 0 0 0 19.532 68.608c-67.166-40.494-123.864-98.084-166.268-168.974zM548.102 831.62c35.568 5.298 71.644 6.944 107.538 4.75-25.104 19.96-53.752 35.974-84.618 47.182-31.582-7.584-62.262-20.71-88.126-40.558-14.418-11.064-27.664-23.634-38.984-37.874l-0.506-0.638c0.284 0.106 0.57 0.206 0.854 0.312a510.644 510.644 0 0 0 103.842 26.826z m-68.134 68.896c-44.142-0.002-76.924-13.326-87.694-35.642-8.046-16.674-3.888-38.558 11.97-64.038 16.128 26.564 50.32 69.566 113.354 96.612-12.826 2.026-25.456 3.068-37.618 3.068h-0.012z m227.178-100.34a571.552 571.552 0 0 1-18.524-40.956c-31.748-78.216-46.55-162.95-46.55-247.222 0-49.348 5.146-98.174 15.294-145.124a15 15 0 0 0-11.49-17.83c-7.686-1.662-16.086 3.414-17.832 11.492-10.598 49.024-15.97 99.984-15.97 151.46 0 100.064 20.376 200.706 63.232 291.358l0.568 1.2a484.598 484.598 0 0 1-51.296 2.742c-26.982 0-86.466-7.196-86.87-7.834-0.248-0.388-0.5-0.772-0.746-1.162-40.39-63.99-63.676-138.184-72.7-213.032a612.29 612.29 0 0 1-4.362-73.064v-0.208c0-74.408 13.428-149.948 42.144-218.722 8.654-20.728 18.828-40.698 30.264-60.022 0.82-1.364 5.16-8.34 5.402-8.722 1.25-0.226 5.438-0.978 6.284-1.12a488.726 488.726 0 0 1 80.586-6.714c17.146 0 34.324 0.932 51.304 2.742-8.356 17.446-29.172 72.208-32.134 81.698l-0.044 0.132c-2.458 7.814 2.018 16.362 9.806 18.812a14.994 14.994 0 0 0 18.81-9.806c8.002-25.428 17.668-50.372 29.026-74.492a553.934 553.934 0 0 1 5.81-11.964c20.292 3.562 40.11 8.414 59.194 14.494a498.454 498.454 0 0 0-3.962 7.532c-42.15 81.756-61.034 174.528-61.034 266.154 0 94.572 20.044 190.022 64.998 273.684-19.09 6.08-38.908 10.932-59.208 14.494z m87.812-24.728a794.86 794.86 0 0 1-2.88-5.302c-32.056-60.172-50.614-127.052-57.51-194.738a625.772 625.772 0 0 1-3.214-63.412c0-70.116 11.524-141.358 37.164-206.758 7.616-19.428 16.388-38.398 26.438-56.69C919.862 298.204 994 395.916 994 511.998c0 15.644-1.392 30.94-4.026 45.844-9.082-0.042-22.706-0.898-36.566-4.712a15 15 0 0 0-18.442 10.482 15 15 0 0 0 10.482 18.442c13.668 3.762 26.93 5.19 37.38 5.63-25.052 82.176-91.256 149.354-187.87 187.764z" p-id="4499"></path></svg>