<?xml version="1.0" standalone="no"?><!DOCTYPE svg PUBLIC "-//W3C//DTD SVG 1.1//EN" "http://www.w3.org/Graphics/SVG/1.1/DTD/svg11.dtd"><svg t="1568877473532" class="icon" viewBox="0 0 1024 1024" version="1.1" xmlns="http://www.w3.org/2000/svg" p-id="3806" xmlns:xlink="http://www.w3.org/1999/xlink" width="200" height="200"><defs><style type="text/css"></style></defs><path d="M700.022633 301.577411c-48.859905 0-88.607827-39.751922-88.607827-88.609827a5.565989 5.565989 0 1 0-11.135978 0c0 48.861905-39.751922 88.609827-88.609827 88.609827a5.565989 5.565989 0 1 0 0 11.135978c48.859905 0 88.609827 39.751922 88.609827 88.607827a5.565989 5.565989 0 1 0 11.135978 0c0-48.859905 39.751922-88.607827 88.607827-88.607827a5.565989 5.565989 0 1 0 0-11.135978z" fill="#F29F26" p-id="3807"></path><path d="M595.842836 307.1434c14.165972-12.373976 24.393952-29.145943 28.459945-48.197906a88.083828 88.083828 0 0 1-12.889975-45.98191 5.565989 5.565989 0 1 0-11.135978 0c0 31.493938-16.531968 59.185884-41.35992 74.901854a89.079826 89.079826 0 0 1-10.499979 5.693989l-0.399999 0.181999a88.159828 88.159828 0 0 1-11.045979 4.129992c-0.261999 0.078-0.527999 0.15-0.789998 0.224-1.607997 0.465999-3.235994 0.881998-4.881991 1.255997-0.329999 0.076-0.657999 0.158-0.985998 0.23-1.847996 0.397999-3.715993 0.741999-5.603989 1.021998-0.325999 0.046-0.653999 0.08-0.979998 0.124-1.553997 0.214-3.125994 0.383999-4.703991 0.511999-0.541999 0.044-1.083998 0.09-1.627997 0.123999a88.319828 88.319828 0 0 1-5.515989 0.2l-0.213999 0.004a5.565989 5.565989 0 1 0 0 11.135978l0.213999 0.004a88.429827 88.429827 0 0 1 7.143986 0.324c1.579997 0.132 3.149994 0.299999 4.703991 0.511999 0.325999 0.044 0.653999 0.078 0.979998 0.123999 1.887996 0.279999 3.755993 0.623999 5.603989 1.021998 0.331999 0.072 0.657999 0.154 0.985998 0.23 1.643997 0.373999 3.269994 0.789998 4.877991 1.255997 0.265999 0.076 0.533999 0.148 0.797998 0.228a88.131828 88.131828 0 0 1 11.443978 4.309992 88.497827 88.497827 0 0 1 10.499979 5.693988c24.827952 15.719969 41.359919 43.407915 41.35992 74.901854a5.565989 5.565989 0 1 0 11.135978 0 88.089828 88.089828 0 0 1 12.889975-45.98191c-4.065992-19.035963-14.293972-35.80993-28.461945-48.183906z" fill="#EF8229" p-id="3808"></path><path d="M763.878508 498.681026m-37.613926 0a37.613927 37.613927 0 1 0 75.227853 0 37.613927 37.613927 0 1 0-75.227853 0Z" fill="#F29F26" p-id="3809"></path><path d="M82.309839 935.260173m-37.613926 0a37.613927 37.613927 0 1 0 75.227853 0 37.613927 37.613927 0 1 0-75.227853 0Z" fill="#F29F26" p-id="3810"></path><path d="M584.278859 736.364562c-171.595665-56.759889-295.751422-218.685573-295.751423-409.059201 0-95.295814 30.51594-185.617637 88.239828-261.18549a27.113947 27.113947 0 0 0-32.819936-41.11392c-87.897828 40.199921-162.427683 104.289796-215.529579 185.331638-54.513894 83.195838-83.323837 179.959649-83.323837 279.835454 0 281.919449 229.359552 511.279001 511.279001 511.279001 99.877805 0 196.641616-28.813944 279.837454-83.323837 81.041842-53.101896 145.129717-127.631751 185.331638-215.531579a27.111947 27.111947 0 0 0-41.11392-32.821936c-75.567852 57.727887-165.885676 88.239828-261.18549 88.239828a432.013156 432.013156 0 0 1-77.253849-6.935987" fill="#EDE21B" p-id="3811"></path><path d="M882.932276 871.646298c-83.197838 54.511894-179.959649 83.323837-279.837454 83.323837-281.919449 0-511.279001-229.359552-511.279001-511.279002 0-99.875805 28.811944-196.641616 83.323837-279.835453a515.098994 515.098994 0 0 1 44.791912-58.697885 513.502997 513.502997 0 0 0-91.517821 105.183794c-54.513894 83.195838-83.323837 179.959649-83.323837 279.835454 0 281.919449 229.359552 511.279001 511.279001 511.279001 99.877805 0 196.641616-28.813944 279.837454-83.323837a513.662997 513.662997 0 0 0 103.451798-89.541825 515.376993 515.376993 0 0 1-56.725889 43.055916z" fill="#EAC71C" p-id="3812"></path><path d="M605.842817 521.022982m-22.341957 0a22.341956 22.341956 0 1 0 44.683913 0 22.341956 22.341956 0 1 0-44.683913 0Z" fill="#EDE21B" p-id="3813"></path><path d="M22.341956 789.274458m-22.341956 0a22.341956 22.341956 0 1 0 44.683913 0 22.341956 22.341956 0 1 0-44.683913 0Z" fill="#EDE21B" p-id="3814"></path><path d="M749.110537 175.721657m-22.341956 0a22.341956 22.341956 0 1 0 44.683912 0 22.341956 22.341956 0 1 0-44.683912 0Z" fill="#EDE21B" p-id="3815"></path></svg>