<?xml version="1.0" standalone="no"?><!DOCTYPE svg PUBLIC "-//W3C//DTD SVG 1.1//EN" "http://www.w3.org/Graphics/SVG/1.1/DTD/svg11.dtd"><svg t="1568877477625" class="icon" viewBox="0 0 1024 1024" version="1.1" xmlns="http://www.w3.org/2000/svg" p-id="4077" xmlns:xlink="http://www.w3.org/1999/xlink" width="200" height="200"><defs><style type="text/css"></style></defs><path d="M832 672c88.368 0 160-71.632 160-160s-71.632-160-160-160c-29.296 0-56.672 8-80.288 21.76 0.048-1.936 0.288-3.824 0.288-5.76 0-114.88-93.12-208-208-208-99.808 0-183.12 70.336-203.28 164.128A127.296 127.296 0 0 0 272 304a128 128 0 0 0-128 128c0 5.456 0.448 10.784 1.12 16.064C144.736 448.048 144.368 448 144 448a112 112 0 1 0 0 224z" fill="#A1CDFB" p-id="4078"></path><path d="M832 864c88.368 0 160-71.632 160-160s-71.632-160-160-160c-29.296 0-56.672 8-80.288 21.76 0.048-1.936 0.288-3.824 0.288-5.76 0-114.88-93.12-208-208-208-99.808 0-183.12 70.336-203.28 164.128A127.296 127.296 0 0 0 272 496a128 128 0 0 0-128 128c0 5.456 0.448 10.784 1.12 16.064C144.736 640.048 144.368 640 144 640a112 112 0 1 0 0 224z" fill="#C7E2FC" p-id="4079"></path><path d="M832 880H144c-70.576 0-128-57.424-128-128 0-65.168 48.944-119.104 112-127.008V624c0-79.392 64.608-144 144-144 20.224 0 40.096 4.272 58.464 12.48C359.552 400.672 446.208 336 544 336c116.944 0 213.248 90.08 223.152 204.48A175.456 175.456 0 0 1 832 528c97.04 0 176 78.96 176 176s-78.96 176-176 176zM143.376 655.984C91.056 656 48 699.056 48 752s43.056 96 96 96h688c79.392 0 144-64.608 144-144s-64.608-144-144-144c-25.248 0-50.24 6.768-72.24 19.584a16.016 16.016 0 0 1-24.048-14.272L736 560c0-105.872-86.128-192-192-192-89.856 0-168.768 63.712-187.632 151.488-1.104 5.12-4.64 9.376-9.472 11.408a16.096 16.096 0 0 1-14.768-1.28A111.744 111.744 0 0 0 272 512c-61.76 0-112 50.24-112 112 0 4.768 0.416 9.44 0.992 14.048a16 16 0 0 1-3.872 12.592 16.896 16.896 0 0 1-13.744 5.344z" p-id="4080"></path><path d="M78.032 669.712A127.12 127.12 0 0 1 16 560c0-65.168 48.944-119.104 112-127.008V432c0-79.392 64.608-144 144-144 20.224 0 40.096 4.272 58.464 12.48C359.552 208.672 446.208 144 544 144c116.944 0 213.248 90.08 223.152 204.48A175.456 175.456 0 0 1 832 336c97.04 0 176 78.96 176 176 0 38.4-12.144 74.896-35.136 105.52l-25.6-19.2A142.688 142.688 0 0 0 976 512c0-79.392-64.608-144-144-144-25.248 0-50.24 6.768-72.24 19.584a16.016 16.016 0 0 1-24.048-14.272L736 368c0-105.872-86.128-192-192-192-89.856 0-168.768 63.712-187.632 151.488-1.104 5.12-4.64 9.376-9.472 11.408a16.096 16.096 0 0 1-14.768-1.28A111.744 111.744 0 0 0 272 320c-61.76 0-112 50.24-112 112 0 4.768 0.416 9.44 0.992 14.048a16 16 0 0 1-3.872 12.592 16.88 16.88 0 0 1-13.728 5.344C91.056 464 48 507.056 48 560a95.392 95.392 0 0 0 46.56 82.32z" p-id="4081"></path></svg>