<?xml version="1.0" standalone="no"?><!DOCTYPE svg PUBLIC "-//W3C//DTD SVG 1.1//EN" "http://www.w3.org/Graphics/SVG/1.1/DTD/svg11.dtd"><svg t="1568821870051" class="icon" viewBox="0 0 1024 1024" version="1.1" xmlns="http://www.w3.org/2000/svg" p-id="4355" xmlns:xlink="http://www.w3.org/1999/xlink" width="200" height="200"><defs><style type="text/css"></style></defs><path d="M530.41152 121.35424L180.7872 452.56704l18.41152 441.61024H843.2128V415.75424z" fill="#FDDC00" p-id="4356"></path><path d="M162.39616 912.55808V771.7376c64.08192 30.96576 135.68 48.83456 211.6096 48.83456 234.57792 0 430.336-165.70368 476.95872-386.4064h10.63936v478.39232H162.39616z" fill="#F4B03A" p-id="4357"></path><path d="M502.79424 599.77728h18.41152c66.03776 0 119.6032 53.53472 119.6032 119.6032v91.98592c0 66.06848-53.56544 119.6032-119.6032 119.6032h-18.41152c-66.06848 0-119.6032-53.53472-119.6032-119.6032v-91.98592c0-66.06848 53.53472-119.6032 119.6032-119.6032z" fill="#FFFFFF" p-id="4358"></path><path d="M1005.45536 567.67488L533.36064 101.66272a30.18752 30.18752 0 0 0-42.2912 0L18.9952 567.67488c-11.6736 11.49952-11.6736 30.19776 0 41.728s26.86976 11.53024 38.54336 0l94.04416-101.632v378.66496c0 16.30208 17.18272 36.06528 33.67936 36.06528H842.9568c16.50688 0 29.91104-19.77344 29.91104-36.06528v-360.6528l86.55872 83.6096c5.84704 5.76512 15.34976 8.66304 23.02976 8.66304 7.64928 0 16.2304-2.88768 22.0672-8.66304 11.6736-11.53024 12.60544-30.21824 0.93184-41.71776zM602.38848 868.4032h-180.3264v-198.3488c0-24.40192 29.37856-36.06528 54.08768-36.06528h90.1632c24.71936 0 36.06528 11.6736 36.06528 36.06528v198.3488z m216.39168 0h-162.304l-0.36864-204.10368c0-56.95488-32.1024-84.39808-89.79456-84.39808H458.12736c-57.69216 0-90.1632 33.20832-90.1632 90.1632v198.3488H205.6704V453.67296c-7.1168 0.08192 0-0.08192 0 0l300.96384-289.40288L818.7904 471.69536v396.70784z" fill="#464646" p-id="4359"></path></svg>