<?xml version="1.0" standalone="no"?><!DOCTYPE svg PUBLIC "-//W3C//DTD SVG 1.1//EN" "http://www.w3.org/Graphics/SVG/1.1/DTD/svg11.dtd"><svg t="1568821862601" class="icon" viewBox="0 0 1024 1024" version="1.1" xmlns="http://www.w3.org/2000/svg" p-id="3921" xmlns:xlink="http://www.w3.org/1999/xlink" width="200" height="200"><defs><style type="text/css"></style></defs><path d="M793.6 102.4c192 192 192 501.76 0 691.2s-501.76 192-691.2 0l-61.44 61.44c135.68 135.68 320 186.88 494.08 161.28 28.16-5.12 56.32-10.24 81.92-17.92 87.04-25.6 168.96-74.24 238.08-143.36 225.28-225.28 225.28-588.8 0-814.08L793.6 102.4z" fill="#0B9854" p-id="3922"></path><path d="M752.64 752.64c-192 192-501.76 192-691.2 0L0 814.08c225.28 225.28 588.8 225.28 814.08 0s225.28-588.8 0-814.08l-61.44 61.44c192 189.44 192 501.76 0 691.2z" fill="#99DB31" p-id="3923"></path><path d="M752.64 752.64c192-192 192-501.76 0-691.2l-691.2 691.2c189.44 192 501.76 192 691.2 0z" fill="#EA3D3D" p-id="3924"></path><path d="M217.6 701.44c-10.24-2.56-35.84-2.56-38.4 7.68 10.24-5.12 25.6-2.56 33.28-2.56 10.24 2.56 15.36 12.8 12.8 20.48 0 2.56 0 2.56-2.56 5.12 2.56-2.56 7.68-5.12 7.68-10.24 2.56-7.68-2.56-17.92-12.8-20.48z" fill="" p-id="3925"></path><path d="M212.48 709.12c-7.68-2.56-25.6-2.56-33.28 0-2.56 10.24 20.48 23.04 28.16 25.6 5.12 2.56 10.24 0 12.8-2.56 0-2.56 2.56-2.56 2.56-5.12 2.56-5.12-2.56-15.36-10.24-17.92z" fill="#212121" p-id="3926"></path><path d="M442.88 680.96c-10.24-2.56-35.84-2.56-38.4 7.68 10.24-5.12 25.6-2.56 33.28-2.56 10.24 2.56 15.36 12.8 12.8 20.48 0 2.56 0 2.56-2.56 5.12 2.56-2.56 7.68-5.12 7.68-10.24 0-7.68-5.12-17.92-12.8-20.48z" fill="" p-id="3927"></path><path d="M435.2 688.64c-7.68-2.56-23.04-2.56-33.28 2.56-2.56 10.24 20.48 23.04 28.16 25.6 5.12 2.56 10.24 0 12.8-2.56 0-2.56 2.56-2.56 2.56-5.12 5.12-7.68 0-17.92-10.24-20.48z" fill="#212121" p-id="3928"></path><path d="M401.92 519.68c-10.24-2.56-35.84-2.56-38.4 7.68 10.24-5.12 25.6-2.56 33.28-2.56 10.24 2.56 15.36 12.8 12.8 20.48 0 2.56 0 2.56-2.56 5.12 2.56-2.56 7.68-5.12 7.68-10.24 0-7.68-5.12-17.92-12.8-20.48z" fill="" p-id="3929"></path><path d="M394.24 524.8c-7.68-2.56-23.04-2.56-33.28 2.56-2.56 10.24 20.48 23.04 28.16 25.6 5.12 2.56 10.24 0 12.8-2.56 0-2.56 2.56-2.56 2.56-5.12 5.12-7.68 0-17.92-10.24-20.48z" fill="#212121" p-id="3930"></path><path d="M604.16 519.68c-10.24-2.56-35.84-2.56-38.4 7.68 10.24-5.12 25.6-2.56 33.28-2.56 10.24 2.56 15.36 12.8 12.8 20.48 0 2.56 0 2.56-2.56 5.12 2.56-2.56 7.68-5.12 7.68-10.24 2.56-7.68-2.56-17.92-12.8-20.48z" fill="" p-id="3931"></path><path d="M599.04 524.8c-7.68-2.56-23.04-2.56-33.28 2.56-2.56 10.24 20.48 23.04 28.16 25.6 5.12 2.56 10.24 0 12.8-2.56 0-2.56 2.56-2.56 2.56-5.12 5.12-7.68-2.56-17.92-10.24-20.48z" fill="#212121" p-id="3932"></path><path d="M583.68 335.36c-10.24-2.56-35.84-2.56-38.4 7.68 10.24-5.12 25.6-2.56 33.28-2.56 10.24 2.56 15.36 12.8 12.8 20.48 0 2.56 0 2.56-2.56 5.12 2.56-2.56 7.68-5.12 7.68-10.24 2.56-7.68-2.56-17.92-12.8-20.48z" fill="" p-id="3933"></path><path d="M578.56 343.04c-7.68-2.56-23.04-2.56-33.28 2.56-2.56 10.24 20.48 23.04 28.16 25.6 5.12 2.56 10.24 0 12.8-2.56 0-2.56 2.56-2.56 2.56-5.12 5.12-10.24-2.56-17.92-10.24-20.48z" fill="#212121" p-id="3934"></path><path d="M747.52 376.32c-10.24-2.56-35.84-2.56-38.4 7.68 10.24-5.12 25.6-2.56 33.28-2.56 10.24 2.56 15.36 12.8 12.8 20.48 0 2.56 0 2.56-2.56 5.12 2.56-2.56 7.68-5.12 7.68-10.24 2.56-7.68-2.56-17.92-12.8-20.48z" fill="" p-id="3935"></path><path d="M739.84 381.44c-7.68-2.56-23.04-2.56-33.28 2.56-2.56 10.24 20.48 23.04 28.16 25.6 5.12 2.56 10.24 0 12.8-2.56 0-2.56 2.56-2.56 2.56-5.12 5.12-7.68 0-15.36-10.24-20.48z" fill="#212121" p-id="3936"></path><path d="M727.04 192c-10.24-2.56-35.84 0-38.4 7.68 10.24-5.12 25.6-2.56 33.28-2.56 10.24 2.56 15.36 12.8 12.8 20.48 0 2.56 0 2.56-2.56 5.12 2.56-2.56 7.68-5.12 7.68-10.24 2.56-7.68-2.56-15.36-12.8-20.48z" fill="" p-id="3937"></path><path d="M719.36 199.68c-7.68-2.56-23.04-2.56-33.28 2.56-2.56 10.24 20.48 23.04 28.16 25.6 5.12 2.56 10.24 0 12.8-2.56 0-2.56 2.56-2.56 2.56-5.12 5.12-7.68 0-17.92-10.24-20.48z" fill="#212121" p-id="3938"></path></svg>