<?xml version="1.0" standalone="no"?><!DOCTYPE svg PUBLIC "-//W3C//DTD SVG 1.1//EN" "http://www.w3.org/Graphics/SVG/1.1/DTD/svg11.dtd"><svg t="1568821823010" class="icon" viewBox="0 0 1024 1024" version="1.1" xmlns="http://www.w3.org/2000/svg" p-id="1732" xmlns:xlink="http://www.w3.org/1999/xlink" width="200" height="200"><defs><style type="text/css"></style></defs><path d="M750 159.24l-130.9-35.07a24 24 0 0 0-23.1 6.11 120 120 0 0 1-168.08 0 24 24 0 0 0-23.06-6.11l-130.81 35.07a24 24 0 0 0-10.76 6.21L71.12 357.62a8 8 0 0 0 0 11.31L211.59 509.4a8 8 0 0 0 11.31 0l38.1-38.11a4 4 0 0 1 6.83 2.83v418.51a8 8 0 0 0 8 8h472.33a8 8 0 0 0 8-8V474.12a4 4 0 0 1 6.83-2.83l38.11 38.11a8 8 0 0 0 11.31 0l140.47-140.47a8 8 0 0 0 0-11.31L760.71 165.45a24 24 0 0 0-10.71-6.21z" fill="#F46288" p-id="1733"></path><path d="M952.88 357.62L760.71 165.45a24 24 0 0 0-10.71-6.21l-130.9-35.07a24 24 0 0 0-23.1 6.11 119.6 119.6 0 0 1-75 34H400.78a44 44 0 0 0 0 88h82a44 44 0 0 1 0 88h-22a44 44 0 0 0-0.11 88h45.12a44 44 0 1 1 0 88h-65a44 44 0 0 0 0 88h40c-1.35 0-2.68 0.07-4 0.19a44 44 0 0 1 0 87.62c1.32 0.12 2.65 0.19 4 0.19h-40a44 44 0 0 0 0 88l98 0.09a44 44 0 0 1 0 88h-40.6a44.2 44.2 0 0 0-39.81 32.25h289.78a8 8 0 0 0 8-8v-418.5a4 4 0 0 1 6.83-2.83l38.11 38.11a8 8 0 0 0 11.31 0l140.47-140.47a8 8 0 0 0 0-11.31z" fill="#EF5484" p-id="1734"></path><path d="M756.16 455.4c-24.8 0-40 20.06-40 44.86v352.37a8 8 0 0 1-8 8H267.84v32a8 8 0 0 0 8 8h472.32a8 8 0 0 0 8-8V460.12" fill="#EA4983" p-id="1735"></path><path d="M619.1 124.17a24 24 0 0 0-23.1 6.11 120 120 0 0 1-168.08 0 24 24 0 0 0-23.06-6.11l-57.5 15.41a190 190 0 0 0 329.2 0z" fill="#756CEF" p-id="1736"></path><path d="M750 159.24a24 24 0 0 1 10.76 6.21l192.12 192.17a8 8 0 0 1 0 11.31l-23 23L904 366 739.4 201.45a24 24 0 0 0-10.76-6.21l-77.86-20.87a190 190 0 0 0 25.82-34.79z" fill="#EA4983" p-id="1737"></path><path d="M274.05 159.24a24 24 0 0 0-10.76 6.21L71.12 357.62a8 8 0 0 0 0 11.31l23 23L120 366l164.6-164.55a24 24 0 0 1 10.76-6.21l77.86-20.87a190 190 0 0 1-25.82-34.79z" fill="#F27CA0" p-id="1738"></path><path d="M512 250.63a205.86 205.86 0 0 1-104.49-28.44 207.07 207.07 0 0 1-74-74.6l-10.41-18.06 77.66-20.81a40.21 40.21 0 0 1 38.41 10.14 104 104 0 0 0 145.66 0 40.21 40.21 0 0 1 38.41-10.14l77.66 20.81-10.45 18.06a207.07 207.07 0 0 1-74 74.6A205.86 205.86 0 0 1 512 250.63zM373 149.29a174 174 0 0 0 278 0l-36-9.66a8.06 8.06 0 0 0-7.71 2.07 136 136 0 0 1-190.5 0 8.06 8.06 0 0 0-7.71-2.07z" fill="#414060" p-id="1739"></path><path d="M634.8 478.62c33-0.43 59.2-27.91 59.2-60.89v-71.1a8 8 0 0 0-8-8H582a8 8 0 0 0-8 8v72a60 60 0 0 0 60.8 59.99z" fill="#EF739A" p-id="1740"></path><path d="M748.17 916.63H275.83a24 24 0 0 1-24-24V503.09l-17.62 17.62a24 24 0 0 1-33.94 0L59.8 380.24a24 24 0 0 1 0-33.94L252 154.13a40.17 40.17 0 0 1 17.94-10.35l130.85-35.06a40.21 40.21 0 0 1 38.41 10.14 104 104 0 0 0 145.66 0 40.21 40.21 0 0 1 38.41-10.14l130.85 35.06A40.17 40.17 0 0 1 772 154.13L964.2 346.3a24 24 0 0 1 0 33.94L823.73 520.71a24 24 0 0 1-33.94 0l-17.62-17.62v389.54a24 24 0 0 1-24 24z m-464.34-32h456.34V474.12A20 20 0 0 1 774.31 460l32.45 32.45 129.15-129.18L749.4 176.76a8 8 0 0 0-3.59-2.07L615 139.63a8.06 8.06 0 0 0-7.71 2.07 136 136 0 0 1-190.5 0 8.06 8.06 0 0 0-7.71-2.07l-130.89 35.06a8 8 0 0 0-3.59 2.07L88.09 363.27l129.15 129.16L249.69 460a20 20 0 0 1 34.14 14.14z" fill="#414060" p-id="1741"></path><path d="M634 494.63a76 76 0 0 1-76-76v-72a24 24 0 0 1 24-24h104a24 24 0 0 1 24 24v71.1c0 41.86-33.64 76.35-75 76.89h-1z m-44-140v64a44 44 0 0 0 44 44h0.59c23.94-0.31 43.41-20.45 43.41-44.89v-63.1z" fill="#414060" p-id="1742"></path><path d="M164 371a16 16 0 0 1-11.36-27.27l85.53-86.15a16 16 0 1 1 22.71 22.54l-85.52 86.15A15.94 15.94 0 0 1 164 371zM288.54 245.53a16 16 0 0 1-11.36-27.27l10.46-10.54a16 16 0 0 1 22.72 22.54l-10.47 10.55a15.93 15.93 0 0 1-11.35 4.72z" fill="#F9C0D8" p-id="1743"></path></svg>