<?xml version="1.0" encoding="iso-8859-1"?>
<!-- Generator: Adobe Illustrator 19.0.0, SVG Export Plug-In . SVG Version: 6.00 Build 0)  -->
<svg version="1.1" id="Layer_1" xmlns="http://www.w3.org/2000/svg" xmlns:xlink="http://www.w3.org/1999/xlink" x="0px" y="0px"
	 viewBox="0 0 512 512" style="enable-background:new 0 0 512 512;" xml:space="preserve">
<path style="fill:#185F8D;" d="M255.999,68.567c2.77,0,5.494,0.199,8.17,0.55V16.34h-16.34v52.777
	C250.506,68.767,253.229,68.567,255.999,68.567z"/>
<g>
	<path style="fill:#C1E8E6;" d="M213.582,177.245l-37.76,103.747h23.185l33.403-91.775
		C225.417,186.363,219.051,182.286,213.582,177.245z"/>
	<path style="fill:#C1E8E6;" d="M193.059,297.332h-23.185l-41.22,113.251c-2.722,7.48-2.352,15.608,1.041,22.887
		c2.2,4.719,5.496,8.687,9.577,11.641L193.059,297.332z"/>
</g>
<g>
	<path style="fill:#98D9D5;" d="M279.589,189.217l33.403,91.775h23.185l-37.76-103.748
		C292.948,182.286,286.582,186.363,279.589,189.217z"/>
	<path style="fill:#98D9D5;" d="M318.94,297.332l53.786,147.779c4.081-2.953,7.376-6.922,9.577-11.641
		c3.393-7.279,3.764-15.408,1.041-22.886l-41.22-113.252H318.94z"/>
</g>
<path style="fill:#6DA8D6;" d="M255.999,177.503c25.529,0,46.298-20.769,46.298-46.298s-20.769-46.298-46.298-46.298
	s-46.298,20.769-46.298,46.298S230.47,177.503,255.999,177.503z M255.999,101.248c16.518,0,29.957,13.438,29.957,29.957
	s-13.439,29.957-29.957,29.957s-29.957-13.438-29.957-29.957S239.482,101.248,255.999,101.248z"/>
<g>
	<path style="fill:#082947;" d="M255.999,161.163c16.518,0,29.957-13.438,29.957-29.957s-13.439-29.957-29.957-29.957
		s-29.957,13.438-29.957,29.957S239.482,161.163,255.999,161.163z M255.999,117.588c7.509,0,13.617,6.108,13.617,13.617
		c0,7.509-6.108,13.617-13.617,13.617c-7.509,0-13.617-6.108-13.617-13.617C242.383,123.696,248.491,117.588,255.999,117.588z"/>
	<path style="fill:#082947;" d="M401.826,270.098c-4.513,0-8.17,3.658-8.17,8.17v2.723h-40.089l-43.21-118.72
		c5.258-9.164,8.281-19.765,8.281-31.066c0-25.845-15.736-48.081-38.127-57.639V8.17c0-4.512-3.657-8.17-8.17-8.17h-32.681
		c-4.513,0-8.17,3.658-8.17,8.17v65.396c-22.392,9.558-38.127,31.794-38.127,57.639c0,11.301,3.024,21.903,8.281,31.066
		l-43.21,118.72h-40.089v-2.723c0-4.512-3.657-8.17-8.17-8.17c-4.513,0-8.17,3.658-8.17,8.17v21.787c0,4.512,3.657,8.17,8.17,8.17
		c4.513,0,8.17-3.658,8.17-8.17v-2.723h34.143l-39.186,107.662c-7.777,21.369,1.232,44.813,20.245,55.855l-14.626,40.184
		c-1.544,4.24,0.644,8.928,4.882,10.472c0.924,0.336,1.866,0.495,2.793,0.495c3.337,0,6.471-2.061,7.679-5.378l76.175-209.289
		h37.381v19.064c0,4.512,3.657,8.17,8.17,8.17s8.17-3.658,8.17-8.17v-19.064h37.381l76.175,209.289
		c1.207,3.318,4.34,5.378,7.679,5.378c0.928,0,1.872-0.159,2.793-0.495c4.24-1.544,6.426-6.232,4.883-10.472l-14.625-40.182
		c8.105-4.703,14.594-11.764,18.656-20.476c5.239-11.235,5.802-23.8,1.587-35.381l-39.185-107.663h34.143v2.723
		c0,4.512,3.657,8.17,8.17,8.17s8.17-3.658,8.17-8.17v-21.787C409.996,273.757,406.339,270.098,401.826,270.098z M382.303,433.47
		c-2.2,4.719-5.496,8.687-9.577,11.641l-53.787-147.779h23.185l41.22,113.252C386.066,418.064,385.697,426.191,382.303,433.47z
		 M312.992,280.992l-33.403-91.775c6.993-2.854,13.359-6.93,18.827-11.973l37.76,103.748H312.992z M129.696,433.47
		c-3.393-7.279-3.764-15.408-1.041-22.887l41.22-113.251h23.185l-53.787,147.779C135.192,442.157,131.897,438.19,129.696,433.47z
		 M175.822,280.992l37.76-103.747c5.469,5.042,11.835,9.118,18.827,11.972l-33.403,91.775H175.822z M264.17,16.34v52.777
		c-2.677-0.351-5.4-0.55-8.17-0.55c-2.77,0-5.494,0.199-8.17,0.55V16.34H264.17z M255.999,84.908
		c25.529,0,46.298,20.769,46.298,46.298s-20.769,46.298-46.298,46.298s-46.298-20.769-46.298-46.298S230.47,84.908,255.999,84.908z
		 M264.17,280.992v-19.064c0-4.512-3.657-8.17-8.17-8.17c-4.513,0-8.17,3.658-8.17,8.17v19.064h-31.433l31.897-87.64
		c2.527,0.312,5.095,0.491,7.706,0.491c2.611,0,5.178-0.18,7.706-0.491l31.897,87.64H264.17z"/>
</g>
<g>
</g>
<g>
</g>
<g>
</g>
<g>
</g>
<g>
</g>
<g>
</g>
<g>
</g>
<g>
</g>
<g>
</g>
<g>
</g>
<g>
</g>
<g>
</g>
<g>
</g>
<g>
</g>
<g>
</g>
</svg>
