<?xml version="1.0" standalone="no"?><!DOCTYPE svg PUBLIC "-//W3C//DTD SVG 1.1//EN" "http://www.w3.org/Graphics/SVG/1.1/DTD/svg11.dtd"><svg t="1568821835361" class="icon" viewBox="0 0 1024 1024" version="1.1" xmlns="http://www.w3.org/2000/svg" p-id="2396" xmlns:xlink="http://www.w3.org/1999/xlink" width="200" height="200"><defs><style type="text/css"></style></defs><path d="M809.3184 1024H214.6816c-71.3216 0-129.3824-58.0096-129.3824-129.3824V129.3824C85.2992 58.0096 143.4112 0 214.6816 0h594.5856c71.3216 0 129.3824 58.0096 129.3824 129.3824v765.2864c0.0512 71.3216-58.0608 129.3312-129.3312 129.3312zM214.6816 85.2992c-24.32 0-43.9808 19.8144-43.9808 43.9808v765.2864c0 24.32 19.8144 43.9808 43.9808 43.9808h594.5856c24.32 0 43.9808-19.8144 43.9808-43.9808V129.3824c0-24.32-19.8144-43.9808-43.9808-43.9808H214.6816v-0.1024z" fill="#3688FF" p-id="2397"></path><path d="M322.8672 760.064c-10.8032-0.5632-20.1728-4.096-28.1088-10.6496-7.9872-6.5024-11.9296-15.2064-11.9296-26.0096 0-6.2464 1.1264-11.0592 3.4304-14.4896 2.2528-3.4304 3.9424-7.1168 5.12-11.0592 37.4784-62.5152 81.1008-122.5728 130.816-180.2752a4846.44864 4846.44864 0 0 1 152.1152-168.3456c-9.6768 0-18.5856 0.1536-26.8288 0.4096-8.2432 0.3072-16.896 0.4096-26.0096 0.4096a4317.4656 4317.4656 0 0 1-121.856 1.6896h-36.1984c-12.2368 0-24.2688-0.256-36.1984-0.8704-14.7968-2.2528-25.5488-6.8096-32.4096-13.6192-6.8096-6.8096-10.24-14.7456-10.24-23.8592 0-9.0624 3.6864-17.4592 11.0592-25.1392 7.3728-7.68 19.3024-11.776 35.7888-12.3392 38.656 1.6896 76.1344 2.4064 112.4864 2.1504 36.352-0.256 72.704-0.9728 109.1072-2.1504 21.5552-0.5632 43.3152-0.9728 65.1776-1.28 21.8624-0.256 43.3152-0.4096 64.3584-0.4096 23.296 6.2464 34.9696 18.4832 34.9696 36.6592 0 9.6768-3.6864 19.0464-11.0592 28.1088a917.64736 917.64736 0 0 0-123.136 116.3264 3402.18368 3402.18368 0 0 0-108.6464 129.9968c-16.4864 19.9168-30.2592 36.8128-41.3184 50.688-11.0592 13.9264-21.4528 27.6992-31.1296 41.3184h9.3696c13.056 0 26.4192 0.3072 40.0384 0.8704 13.6192 0.5632 26.9824 1.1264 40.0384 1.6896 27.2896 1.6896 54.8352 2.56 82.688 2.56 19.3024 0 38.5024-0.8704 57.5488-2.56 19.0464-1.6896 39.0656-5.12 60.1088-10.24 15.36 0 27.136 3.6864 35.3792 11.0592 8.2432 7.3728 12.3392 15.9232 12.3392 25.5488 0 6.2464-1.8432 12.2368-5.5296 17.92-3.6864 5.6832-10.3936 11.3664-20.0192 17.0496-13.056 3.9936-26.1632 7.3728-39.2192 10.24s-26.1632 4.8128-39.2192 5.9904c-23.296 2.816-46.1824 3.5328-68.608 2.1504-22.4256-1.4336-44.7488-2.7136-66.9184-3.84-14.1824-1.1264-28.2624-1.9968-42.1888-2.56-13.9264-0.5632-28.2624-0.8704-43.0592-0.8704-14.2336 0-28.5696 0.5632-43.0592 1.6896a387.072 387.072 0 0 0-43.8784 5.9904h-5.1712z" fill="#5F6379" p-id="2398"></path></svg>