<?xml version="1.0" standalone="no"?><!DOCTYPE svg PUBLIC "-//W3C//DTD SVG 1.1//EN" "http://www.w3.org/Graphics/SVG/1.1/DTD/svg11.dtd"><svg t="1568821845621" class="icon" viewBox="0 0 1024 1024" version="1.1" xmlns="http://www.w3.org/2000/svg" p-id="2932" xmlns:xlink="http://www.w3.org/1999/xlink" width="200" height="200"><defs><style type="text/css"></style></defs><path d="M953 579.5c10.5 7.5 24.75 5.25 32.25-6 6.75-10.5 3-24-6.75-31.5l-133.5-99c-6.75-5.25-16.5-6-24-1.5l-115.5 61.5c-3 1.5-7.5 0.75-9.75-2.25-37.5-51-95.25-86.25-161.25-92.25V175.25c0-11.25-7.5-21-18-23.25-14.25-2.25-27 8.25-27 22.5v234c-66 6.75-124.5 42-160.5 93-2.25 3-6 3.75-9.75 2.25l-115.5-61.5c-7.5-3.75-17.25-3.75-24 1.5L45.5 542.75c-9 6.75-12.75 18-7.5 28.5 6 13.5 22.5 16.5 33.75 8.25l123.75-91.5 103.5 54.75c3 1.5 4.5 6 3.75 9-6 15.75-10.5 33-12.75 50.25-0.75 3.75-3.75 6.75-7.5 6.75H137c-9 0-16.5 5.25-20.25 12.75L43.25 776c-5.25 10.5-2.25 23.25 7.5 29.25 3.75 2.25 8.25 3.75 12 3.75 8.25 0 16.5-4.5 20.25-12.75l67.5-141h130.5c3.75 0 6.75 3 7.5 6.75 2.25 15 5.25 29.25 9.75 42.75 1.5 3.75 0 7.5-3.75 9l-130.5 63.75c-7.5 3.75-12.75 11.25-12.75 20.25V962c0 11.25 7.5 21 18 23.25 14.25 3 27-8.25 27-21.75v-150.75l117.75-57.75c3.75-1.5 7.5-0.75 9.75 3 40.5 60.75 109.5 101.25 187.5 101.25s147-39.75 187.5-101.25c2.25-3 6-4.5 9.75-3l117.75 57.75v150c0 11.25 7.5 21 18 23.25 14.25 3 27-8.25 27-21.75v-165c0-8.25-5.25-16.5-12.75-20.25l-130.5-63.75c-3.75-1.5-5.25-5.25-3.75-9 4.5-13.5 8.25-27.75 9.75-42.75 0.75-3.75 3.75-6.75 7.5-6.75H872l67.5 141c3.75 8.25 12 12.75 20.25 12.75 4.5 0 8.25-1.5 12-3.75 9.75-6 12.75-18.75 7.5-29.25L905.75 624.5c-3.75-7.5-12-12.75-20.25-12.75H742.25c-3.75 0-6.75-3-7.5-6.75-2.25-17.25-6.75-34.5-12.75-50.25-1.5-3.75 0-7.5 3.75-9l103.5-54.75L953 579.5z" fill="#444B54" p-id="2933"></path><path d="M512 62m-22.5 0a22.5 22.5 0 1 0 45 0 22.5 22.5 0 1 0-45 0Z" fill="#444B54" p-id="2934"></path><path d="M414.5 632m-60 0a60 60 0 1 0 120 0 60 60 0 1 0-120 0Z" fill="#FFFFFF" p-id="2935"></path><path d="M414.5 632m-22.5 0a22.5 22.5 0 1 0 45 0 22.5 22.5 0 1 0-45 0Z" fill="#444B54" p-id="2936"></path><path d="M609.5 632m-60 0a60 60 0 1 0 120 0 60 60 0 1 0-120 0Z" fill="#FFFFFF" p-id="2937"></path><path d="M609.5 632m-22.5 0a22.5 22.5 0 1 0 45 0 22.5 22.5 0 1 0-45 0Z" fill="#444B54" p-id="2938"></path></svg>