<?xml version="1.0" encoding="utf-8"?>
<!-- Generator: Adobe Illustrator 23.0.6, SVG Export Plug-In . SVG Version: 6.00 Build 0)  -->
<svg version="1.1" id="Layer_1" xmlns="http://www.w3.org/2000/svg" xmlns:xlink="http://www.w3.org/1999/xlink" x="0px" y="0px"
	 viewBox="0 0 200 200" style="enable-background:new 0 0 200 200;" xml:space="preserve">
<style type="text/css">
	.st0{fill:#444444;}
	.st1{fill:#00CC3A;}
</style>
<path class="st0" d="M100,187.2c-48.1,0-87.2-39.1-87.2-87.2S51.9,12.8,100,12.8s87.2,39.1,87.2,87.2S148.1,187.2,100,187.2z
	 M100,26.2c-40.7,0-73.8,33.1-73.8,73.8s33.1,73.8,73.8,73.8s73.8-33.1,73.8-73.8S140.7,26.2,100,26.2z"/>
<path class="st1" d="M122.8,138.7l-29.2-29.2c-1.3-1.3-2-3-2-4.7V58.1h16.8v42.5l26.3,26.3L122.8,138.7L122.8,138.7z"/>
</svg>
