<?xml version="1.0" standalone="no"?><!DOCTYPE svg PUBLIC "-//W3C//DTD SVG 1.1//EN" "http://www.w3.org/Graphics/SVG/1.1/DTD/svg11.dtd"><svg t="1568945754246" class="icon" viewBox="0 0 1024 1024" version="1.1" xmlns="http://www.w3.org/2000/svg" p-id="1134" xmlns:xlink="http://www.w3.org/1999/xlink" width="200" height="200"><defs><style type="text/css"></style></defs><path d="M629.333333 629.333333m-352 0a352 352 0 1 0 704 0 352 352 0 1 0-704 0Z" fill="#FFFF00" p-id="1135"></path><path d="M263.04 771.626667a42.666667 42.666667 0 0 1-42.666667-49.066667l26.88-177.706667a42.666667 42.666667 0 0 1 11.946667-23.68L625.066667 155.733333a85.333333 85.333333 0 0 1 121.6 0l90.453333 90.453334a85.333333 85.333333 0 0 1 0 120.746666L471.04 732.16a42.666667 42.666667 0 0 1-23.68 11.946667l-177.92 26.88z m177.92-69.546667z m-110.72-130.56l-16.213333 106.666667 106.666666-16.213334 355.2-355.413333-90.453333-90.453333zM789.333333 896H277.333333a42.666667 42.666667 0 0 1 0-85.333333h512a42.666667 42.666667 0 0 1 0 85.333333z" fill="#4D4D4D" p-id="1136"></path></svg>