<?xml version="1.0" standalone="no"?><!DOCTYPE svg PUBLIC "-//W3C//DTD SVG 1.1//EN" "http://www.w3.org/Graphics/SVG/1.1/DTD/svg11.dtd"><svg t="1568948917587" class="icon" viewBox="0 0 1024 1024" version="1.1" xmlns="http://www.w3.org/2000/svg" p-id="2635" xmlns:xlink="http://www.w3.org/1999/xlink" width="200" height="200"><defs><style type="text/css"></style></defs><path d="M821.257459 958.708971H202.742541c-37.902238 0-68.724221-30.821983-68.724221-68.724221V202.738447c0-37.894052 30.821983-68.724221 68.724221-68.724221h120.26713c18.97619 0 34.361599 15.385409 34.361599 34.361599s-15.385409 34.361599-34.361599 34.361599H202.742541v687.247326h618.514918V202.738447H709.580984c-18.97619 0-34.361599-15.385409-34.361599-34.361599s15.385409-34.361599 34.361599-34.361598h111.676475c37.902238 0 68.724221 30.830169 68.724221 68.724221v687.247326c-0.001023 37.901215-30.821983 68.722174-68.724221 68.722174z" fill="#444444" p-id="2636"></path><path d="M632.266108 271.461645H391.732869c-56.844659 0-103.08582-46.24116-103.08582-103.08582S334.88821 65.290005 391.732869 65.290005h240.533239c56.844659 0 103.08582 46.24116 103.085819 103.08582s-46.240137 103.08582-103.085819 103.08582zM391.732869 134.014226c-18.942421 0-34.361599 15.410991-34.361599 34.361599s15.419178 34.361599 34.361599 34.361599h240.533239c18.942421 0 34.361599-15.410991 34.361598-34.361599s-15.419178-34.361599-34.361598-34.361599H391.732869z" fill="#444444" p-id="2637"></path><path d="M448.994014 705.446827l-142.432966-159.298076 64.042595-57.264215 105.703437 118.219495L675.78425 403.062915l61.424978 60.049655L499.178997 706.565301c-13.901615 14.217816-36.931121 13.704117-50.184983-1.118474z" fill="#00D8A0" p-id="2638"></path></svg>