<?xml version="1.0" encoding="utf-8"?>
<!-- Generator: Adobe Illustrator 23.0.6, SVG Export Plug-In . SVG Version: 6.00 Build 0)  -->
<svg version="1.1" id="Layer_1" xmlns="http://www.w3.org/2000/svg" xmlns:xlink="http://www.w3.org/1999/xlink" x="0px" y="0px"
	 viewBox="0 0 200 200" style="enable-background:new 0 0 200 200;" xml:space="preserve">
<style type="text/css">
	.st0{fill:#000333;}
</style>
<path class="st0" d="M43.8,184.2c-5.7,0-10.4-4.7-10.4-10.4V33.4c0-9.6,7.8-17.4,17.4-17.4H152c5.9,0,10.6,2.7,13,7.3
	c2.4,4.7,1.8,10.1-1.7,14.8l-23,31.7l23,31.7c3.4,4.7,4.1,10.3,1.7,14.8c-2.4,4.7-7.1,7.3-13,7.3H54.2v50.2
	C54.2,179.6,49.6,184.2,43.8,184.2z M54.2,103l84.5,0l-24-33.1l24-33.1l-84.5-0.1V103z"/>
<path class="st0" d="M50.9,106.3v-73l94.5,0.1l-26.4,36.4l26.4,36.4L50.9,106.3z M160.6,103.5l-24.4-33.6l24.4-33.7
	c2.7-3.7,3.2-7.8,1.4-11.3c-1.8-3.5-5.4-5.5-10-5.5H50.9c-7.7,0-14,6.2-14.1,14v140.5c0,3.9,3.1,7,7,7s7-3.1,7-7v-53.5H152
	c4.6,0,8.3-2,10-5.5C163.9,111.3,163.3,107.2,160.6,103.5z"/>
</svg>
