<?xml version="1.0" encoding="utf-8"?>
<!-- Generator: Adobe Illustrator 23.0.6, SVG Export Plug-In . SVG Version: 6.00 Build 0)  -->
<svg version="1.1" id="Layer_1" xmlns="http://www.w3.org/2000/svg" xmlns:xlink="http://www.w3.org/1999/xlink" x="0px" y="0px"
	 viewBox="0 0 200 200" style="enable-background:new 0 0 200 200;" xml:space="preserve">
<style type="text/css">
	.st0{fill:#FFFFFF;}
</style>
<path class="st0" d="M160.4,187.2H39.6c-7.4,0-13.4-6-13.4-13.4V39.6c0-7.4,6-13.4,13.4-13.4h23.5c3.7,0,6.7,3,6.7,6.7
	s-3,6.7-6.7,6.7H39.6v134.2h120.8V39.6h-21.8c-3.7,0-6.7-3-6.7-6.7s3-6.7,6.7-6.7h21.8c7.4,0,13.4,6,13.4,13.4v134.2
	C173.8,181.2,167.8,187.2,160.4,187.2z"/>
<path class="st0" d="M123.5,53h-47c-11.1,0-20.1-9-20.1-20.1s9-20.1,20.1-20.1h47c11.1,0,20.1,9,20.1,20.1S134.6,53,123.5,53z
	 M76.5,26.2c-3.7,0-6.7,3-6.7,6.7s3,6.7,6.7,6.7h47c3.7,0,6.7-3,6.7-6.7s-3-6.7-6.7-6.7H76.5z"/>
<path class="st0" d="M87.7,137.8l-27.8-31.1l12.5-11.2L93,118.6l39-39.9l12,11.7L97.5,138C94.8,140.8,90.3,140.7,87.7,137.8z"/>
</svg>
