<?xml version="1.0" encoding="utf-8"?>
<!-- Generator: Adobe Illustrator 23.0.6, SVG Export Plug-In . SVG Version: 6.00 Build 0)  -->
<svg version="1.1" id="Layer_1" xmlns="http://www.w3.org/2000/svg" xmlns:xlink="http://www.w3.org/1999/xlink" x="0px" y="0px"
	 viewBox="0 0 200 200" style="enable-background:new 0 0 200 200;" xml:space="preserve">
<style type="text/css">
	.st0{fill:#444444;}
	.st1{fill:#00CC3A;}
</style>
<path class="st0" d="M163.8,187.2H36.2c-7.4,0-13.4-6-13.4-13.4V83.3c0-3.8,1.6-7.5,4.5-10l63.9-57.1c5.1-4.6,12.8-4.6,17.9,0
	l63.6,57.1c2.8,2.5,4.5,6.2,4.5,10v90.5C177.2,181.2,171.2,187.2,163.8,187.2L163.8,187.2z M100.1,26.2L36.2,83.3v90.5h127.5V83.3
	L100.1,26.2C100.1,26.2,100.1,26.2,100.1,26.2z M95.6,21.2L95.6,21.2L95.6,21.2z"/>
<path class="st1" d="M108.4,163.8H91.6v-47c0-3.7,3-6.7,6.7-6.7h3.4c3.7,0,6.7,3,6.7,6.7V163.8z"/>
</svg>
