<?xml version="1.0" standalone="no"?><!DOCTYPE svg PUBLIC "-//W3C//DTD SVG 1.1//EN" "http://www.w3.org/Graphics/SVG/1.1/DTD/svg11.dtd"><svg t="1568997140324" class="icon" viewBox="0 0 1024 1024" version="1.1" xmlns="http://www.w3.org/2000/svg" p-id="721" xmlns:xlink="http://www.w3.org/1999/xlink" width="200" height="200"><defs><style type="text/css"></style></defs><path d="M853.33333333 490.66666667a34.13333333 34.13333333 0 0 0-34.13333333 34.13333333c0 169.3696-137.8304 307.2-307.2 307.2s-307.2-137.8304-307.2-307.2 137.8304-307.2 307.2-307.2c70.62186667 0 138.17173333 24.2688 192.64853333 68.26666667H614.4a34.13333333 34.13333333 0 0 0 0 68.26666667h170.66666667a34.13333333 34.13333333 0 0 0 34.13333333-34.13333334V149.33333334a34.13333333 34.13333333 0 0 0-68.26666667 0v86.35733333A373.82826667 373.82826667 0 0 0 512 149.33333334C304.98133333 149.33333334 136.53333333 317.78133334 136.53333333 524.8s168.448 375.46666667 375.46666667 375.46666667 375.46666667-168.448 375.46666667-375.46666667a34.13333333 34.13333333 0 0 0-34.13333334-34.13333333" fill="#ffffff" p-id="722"></path></svg>