<?xml version="1.0" standalone="no"?><!DOCTYPE svg PUBLIC "-//W3C//DTD SVG 1.1//EN" "http://www.w3.org/Graphics/SVG/1.1/DTD/svg11.dtd"><svg t="1568913666811" class="icon" viewBox="0 0 1024 1024" version="1.1" xmlns="http://www.w3.org/2000/svg" p-id="4752" xmlns:xlink="http://www.w3.org/1999/xlink" width="200" height="200"><defs><style type="text/css"></style></defs><path d="M257.49 322.4l215.577-133.054c24.978-15.416 57.882-7.918 73.493 16.748a52.183 52.183 0 0 1 8.107 27.914v555.991c0 29.088-23.878 52.668-53.334 52.668a53.833 53.833 0 0 1-28.266-8.006L257.489 701.607H160c-41.237 0-74.667-33.012-74.667-73.735V396.135c0-40.723 33.43-73.735 74.667-73.735h97.49z m26.137 58.398a32.3 32.3 0 0 1-16.96 4.803H160c-5.891 0-10.667 4.716-10.667 10.534v231.737c0 5.818 4.776 10.534 10.667 10.534h106.667a32.3 32.3 0 0 1 16.96 4.803l207.04 127.785v-517.98l-207.04 127.784z m517.278 448.867c-12.707 12.128-32.966 11.787-45.248-0.762-12.282-12.549-11.937-32.554 0.771-44.683 157.652-150.468 157.652-393.965 0-544.433-12.708-12.129-13.053-32.134-0.77-44.683 12.281-12.55 32.54-12.89 45.247-0.761 183.682 175.312 183.682 460.01 0 635.322zM694.001 703.487c-12.834 12-33.088 11.452-45.238-1.221-12.15-12.674-11.597-32.675 1.236-44.673 86.223-80.615 86.223-210.564 0-291.179-12.833-11.998-13.387-32-1.236-44.673 12.15-12.673 32.404-13.22 45.238-1.221 112.888 105.545 112.888 277.422 0 382.967z" p-id="4753"></path></svg>