<?xml version="1.0" encoding="utf-8"?>
<!-- Generator: Adobe Illustrator 23.0.6, SVG Export Plug-In . SVG Version: 6.00 Build 0)  -->
<svg version="1.1" id="Layer_1" xmlns="http://www.w3.org/2000/svg" xmlns:xlink="http://www.w3.org/1999/xlink" x="0px" y="0px"
	 viewBox="0 0 200 200" style="enable-background:new 0 0 200 200;" xml:space="preserve">
<style type="text/css">
	.st0{fill:#FFFFFF;}
</style>
<path class="st0" d="M192.2,26.8c-3.1-3.4-8.4-3.7-11.8-0.6c-0.3,0.3-0.7,0.6-0.9,1l-104.8,124l-54-63.2c-2.9-3.6-8.2-4.2-11.8-1.3
	c-0.4,0.3-0.7,0.6-1,0.9c-3.6,4.1-3.7,10.1-0.3,14.3l60.6,70.9c1.7,2,4.1,3.1,6.5,3.1h0c2.5,0,4.9-1.2,6.5-3.2L192.5,41.1
	C196,37,195.8,30.6,192.2,26.8"/>
</svg>
