<?xml version="1.0" standalone="no"?><!DOCTYPE svg PUBLIC "-//W3C//DTD SVG 1.1//EN" "http://www.w3.org/Graphics/SVG/1.1/DTD/svg11.dtd"><svg t="1569299973855" class="icon" viewBox="0 0 1024 1024" version="1.1" xmlns="http://www.w3.org/2000/svg" p-id="3914" xmlns:xlink="http://www.w3.org/1999/xlink" width="200" height="200"><defs><style type="text/css"></style></defs><path d="M972.8 567.416471a51.2 51.2 0 0 0-51.2 51.139764v262.02353a41.020235 41.020235 0 0 1-40.96 41.020235H143.36a40.96 40.96 0 0 1-40.96-40.96V143.36a40.96 40.96 0 0 1 40.96-40.96h230.339765a51.2 51.2 0 1 0 0-102.4H143.36A143.540706 143.540706 0 0 0 0 143.36v737.28A143.540706 143.540706 0 0 0 143.36 1024h737.28A143.600941 143.600941 0 0 0 1024 880.64v-262.083765a51.2 51.2 0 0 0-51.2-51.2z" fill="#8a8a8a" p-id="3915" data-spm-anchor-id="a313x.7781069.0.i3" class="selected"></path><path d="M467.064471 722.642824l4.517647 0.180705a50.176 50.176 0 0 0 49.633882-46.019764c2.831059-31.322353 16.323765-124.566588 44.995765-178.959059 39.333647-74.511059 112.519529-213.232941 308.404706-239.314824 3.312941-0.481882 6.204235-2.168471 9.276235-3.252706l-83.84753 177.874824a50.718118 50.718118 0 0 0 23.491765 67.343059 49.754353 49.754353 0 0 0 66.499765-23.792941L1019.181176 202.992941a50.959059 50.959059 0 0 0-23.491764-67.463529L725.413647 4.939294a49.754353 49.754353 0 0 0-66.56 23.853177 50.718118 50.718118 0 0 0 23.552 67.403294l141.974588 68.72847c-219.136 45.176471-307.501176 211.847529-346.23247 285.274353-44.032 83.486118-55.838118 212.208941-56.380236 217.569883a50.356706 50.356706 0 0 0 45.176471 54.934588z" fill="#8a8a8a" p-id="3916" data-spm-anchor-id="a313x.7781069.0.i4" class="selected"></path></svg>