<?xml version="1.0" encoding="utf-8"?>
<!-- Generator: Adobe Illustrator 23.0.6, SVG Export Plug-In . SVG Version: 6.00 Build 0)  -->
<svg version="1.1" id="Layer_1" xmlns="http://www.w3.org/2000/svg" xmlns:xlink="http://www.w3.org/1999/xlink" x="0px" y="0px"
	 viewBox="0 0 200 200" style="enable-background:new 0 0 200 200;" xml:space="preserve">
<style type="text/css">
	.st0{fill:#444444;}
	.st1{fill:#00CC3A;}
</style>
<path class="st0" d="M52.7,184.4h-27c-7.4,0-13.5-6.1-13.5-13.5V127c0-7.4,6.1-13.5,13.5-13.5h27c11.2,0,20.3,9.1,20.3,20.3v30.4
	C73,175.3,63.9,184.4,52.7,184.4z M25.7,127v43.9l27,0c3.7,0,6.8-3,6.8-6.8v-30.4c0-3.7-3-6.8-6.8-6.8L25.7,127L25.7,127z
	 M174.3,184.4h-27c-11.2,0-20.3-9.1-20.3-20.3v-30.4c0-11.2,9.1-20.3,20.3-20.3h27c7.4,0,13.5,6.1,13.5,13.5v43.9
	C187.8,178.4,181.7,184.4,174.3,184.4z M174.3,170.9v6.8V170.9z M147.3,127c-3.7,0-6.8,3-6.8,6.8v30.4c0,3.7,3,6.8,6.8,6.8h27
	l0-43.9L147.3,127L147.3,127z"/>
<path class="st0" d="M181,150.6c-3.7,0-6.8-3-6.8-6.8v-40.5c0-41-33.3-74.3-74.3-74.3s-74.3,33.3-74.3,74.3v40.5
	c0,3.7-3,6.8-6.8,6.8s-6.8-3-6.8-6.8v-40.5c0-48.4,39.4-87.8,87.8-87.8s87.8,39.4,87.8,87.8v40.5C187.8,147.6,184.8,150.6,181,150.6
	L181,150.6z"/>
<path class="st1" d="M144.2,104.5c0-14.4-5.5-26.4-15.4-33.9l10.1-13.5C153,67.7,161,84.9,161,104.4L144.2,104.5L144.2,104.5z"/>
</svg>
