<?xml version="1.0" standalone="no"?><!DOCTYPE svg PUBLIC "-//W3C//DTD SVG 1.1//EN" "http://www.w3.org/Graphics/SVG/1.1/DTD/svg11.dtd"><svg t="1568948886569" class="icon" viewBox="0 0 1024 1024" version="1.1" xmlns="http://www.w3.org/2000/svg" p-id="2500" xmlns:xlink="http://www.w3.org/1999/xlink" width="200" height="200"><defs><style type="text/css"></style></defs><path d="M269.97513579 944.19008532h-138.29963949c-38.13660348 0-69.14981927-31.03004734-69.14981926-69.15872991V650.29567952c0-38.12868257 31.01321675-69.14981927 69.14981925-69.14982023h138.2996395c57.1969848 0 103.72423402 46.52725018 103.72423497 103.72423498v155.58684638c0.00098974 57.20589448-46.52625946 103.73314467-103.72423497 103.73314467z m-138.29963949-293.8944058v224.73666563l138.29963949 0.00891066c19.06038131 0 34.5754045-15.51502319 34.57540547-34.58332541V684.87009427c0-19.06830126-15.51502319-34.57441475-34.57540547-34.57441476h-138.29963949zM892.32351299 944.19008532h-138.2996395c-57.1969848 0-103.72423402-46.52725018-103.724234-103.73314467V684.87009427c0-57.1969848 46.52725018-103.72423402 103.724234-103.72423498h138.2996395c38.13660348 0 69.14981927 31.02113669 69.14982022 69.14982022v224.73666564c0 38.12868257-31.01222603 69.15774017-69.14982022 69.15774017z m0-69.14981925v34.57441475-34.57441475z m-138.2996395-224.74458655c-19.06038131 0-34.57441475 15.50611349-34.57441475 34.57441475v155.58684638c0 19.06830126 15.51502319 34.58332541 34.57441475 34.58332542H892.22252844l0.10098455-224.74557727h-138.2996395z" fill="#444444" p-id="2501"></path><path d="M926.89891846 771.30712139c-19.0940425 0-34.57441475-15.48136199-34.57441476-34.57441475V529.28324692c0-209.71171603-170.61278766-380.32351299-380.32351396-380.32351299S131.6754963 319.57153089 131.6754963 529.28324692v207.44945972c0 19.0940425-15.48136199 34.57441475-34.57540451 34.57441475s-34.57441475-15.48136199-34.57441475-34.57441475V529.28324692c0-247.84039861 201.6250137-449.47333321 449.47333322-449.47333224s449.47333321 201.63392436 449.47333223 449.47333224v207.44945972c0.00098974 19.0940425-15.47938153 34.57441475-34.57342403 34.57441475z" fill="#444444" p-id="2502"></path><path d="M738.12075199 534.81166852c-0.0336612-73.53968714-28.10940951-135.10871849-79.07701939-173.36412687l51.89627453-69.13298963c72.1714426 54.17536145 113.58411078 142.54594999 113.61777198 242.46345529l-86.43702712 0.0336612z" fill="#00D8A0" p-id="2503"></path></svg>