<?xml version="1.0" standalone="no"?><!DOCTYPE svg PUBLIC "-//W3C//DTD SVG 1.1//EN" "http://www.w3.org/Graphics/SVG/1.1/DTD/svg11.dtd"><svg t="1568945731938" class="icon" viewBox="0 0 1024 1024" version="1.1" xmlns="http://www.w3.org/2000/svg" p-id="999" xmlns:xlink="http://www.w3.org/1999/xlink" width="200" height="200"><defs><style type="text/css"></style></defs><path d="M629.333333 629.333333m-352 0a352 352 0 1 0 704 0 352 352 0 1 0-704 0Z" fill="#FFFF00" p-id="1000"></path><path d="M250.88 675.2A123.093333 123.093333 0 0 1 128 552.106667v-80.213334a122.88 122.88 0 0 1 245.973333 0v80.426667a123.093333 123.093333 0 0 1-123.093333 122.88z m0-240.853333A37.76 37.76 0 0 0 213.333333 471.893333v80.426667a37.546667 37.546667 0 1 0 75.306667 0v-80.426667a37.76 37.76 0 0 0-37.76-37.76zM773.12 675.2a123.093333 123.093333 0 0 1-122.88-122.88v-80.426667a122.88 122.88 0 1 1 245.973333 0v80.426667a123.093333 123.093333 0 0 1-123.093333 122.88z m0-240.853333a37.76 37.76 0 0 0-37.546667 37.546666v80.426667a37.546667 37.546667 0 1 0 75.306667 0v-80.426667a37.76 37.76 0 0 0-37.76-37.76z" fill="#4D4D4D" p-id="1001"></path><path d="M512 936.106667a42.666667 42.666667 0 0 1 0-85.333334 218.666667 218.666667 0 0 0 218.453333-218.24 42.666667 42.666667 0 0 1 85.333334 0A304 304 0 0 1 512 936.106667zM773.12 434.133333a42.666667 42.666667 0 0 1-42.666667-42.666666 218.453333 218.453333 0 1 0-436.693333 0 42.666667 42.666667 0 0 1-85.333333 0 303.786667 303.786667 0 0 1 607.36 0 42.666667 42.666667 0 0 1-42.666667 42.666666z" fill="#4D4D4D" p-id="1002"></path></svg>