<?xml version="1.0" encoding="utf-8"?>
<!-- Generator: Adobe Illustrator 23.0.6, SVG Export Plug-In . SVG Version: 6.00 Build 0)  -->
<svg version="1.1" id="Layer_1" xmlns="http://www.w3.org/2000/svg" xmlns:xlink="http://www.w3.org/1999/xlink" x="0px" y="0px"
	 viewBox="0 0 200 200" style="enable-background:new 0 0 200 200;" xml:space="preserve">
<style type="text/css">
	.st0{fill:#FFFFFF;}
</style>
<path class="st0" d="M109.9,99.5L175,34.3c2.8-2.9,2.7-7.5-0.2-10.4c-2.8-2.7-7.3-2.7-10.2,0L99.5,89.1L34.3,24
	c-2.9-2.8-7.5-2.7-10.4,0.2c-2.7,2.8-2.7,7.3,0,10.2l65.2,65.2L24,164.6c-2.8,2.9-2.7,7.5,0.2,10.4c2.8,2.7,7.3,2.7,10.2,0
	l65.2-65.2l65.2,65.2c2.8,2.9,7.5,2.9,10.3,0c0,0,0,0,0,0c2.9-2.9,2.9-7.5,0-10.4L109.9,99.5z"/>
</svg>
