<?xml version="1.0" standalone="no"?><!DOCTYPE svg PUBLIC "-//W3C//DTD SVG 1.1//EN" "http://www.w3.org/Graphics/SVG/1.1/DTD/svg11.dtd"><svg t="1568785547017" class="icon" viewBox="0 0 1025 1024" version="1.1" xmlns="http://www.w3.org/2000/svg" p-id="5156" xmlns:xlink="http://www.w3.org/1999/xlink" width="200.1953125" height="200"><defs><style type="text/css"></style></defs><path d="M156.584 342.556l312.879-224.563c26.02-18.676 61.054-18.676 87.074 0l312.879 224.563a117.333 117.333 0 0 1 48.917 95.322V800c0 64.801-52.532 117.333-117.333 117.333H225c-64.801 0-117.333-52.532-117.333-117.333V437.878c0-37.799 18.21-73.282 48.917-95.322z m37.318 51.994a53.333 53.333 0 0 0-22.235 43.328V800c0 29.455 23.878 53.333 53.333 53.333h576c29.455 0 53.333-23.878 53.333-53.333V437.878a53.333 53.333 0 0 0-22.235-43.328L519.22 169.987a10.667 10.667 0 0 0-12.44 0L193.902 394.55z" p-id="5157"></path></svg>