<?xml version="1.0" encoding="utf-8"?>
<!-- Generator: Adobe Illustrator 23.0.6, SVG Export Plug-In . SVG Version: 6.00 Build 0)  -->
<svg version="1.1" id="Layer_1" xmlns="http://www.w3.org/2000/svg" xmlns:xlink="http://www.w3.org/1999/xlink" x="0px" y="0px"
	 viewBox="0 0 200 200" style="enable-background:new 0 0 200 200;" xml:space="preserve">
<style type="text/css">
	.st0{fill:#FEC43C;}
	.st1{fill:#FFD73A;}
	.st2{fill:#873A18;}
	.st3{fill:#F44444;}
</style>
<g id="Layer_1">
	<g>
		
			<ellipse transform="matrix(0.7071 -0.7071 0.7071 0.7071 -41.4081 100.0054)" class="st0" cx="100" cy="100" rx="96.4" ry="96.4"/>
		<path class="st0" d="M10,100c0,49.7,40.3,90,90,90s90-40.3,90-90s-40.3-90-90-90S10,50.3,10,100z"/>
		<path class="st0" d="M188.2,81.8C179.8,40.8,143.6,10,100,10c-49.7,0-90,40.3-90,90c0,21.8,7.7,41.6,20.5,57.1
			c15.3,8.5,32.8,13.1,51.5,13.1C134.9,170.2,178.9,132.1,188.2,81.8z"/>
		<path class="st0" d="M46,69.4c0,9,7.3,16.2,16.2,16.2s16.2-7.3,16.2-16.2s-7.3-16.2-16.2-16.2S46,60.4,46,69.4z"/>
		<path class="st0" d="M121.6,69.4c0,9,7.3,16.2,16.2,16.2S154,78.3,154,69.4s-7.3-16.2-16.2-16.2S121.6,60.4,121.6,69.4z"/>
		<path class="st0" d="M100,159.4c-14.9,0-27-12.1-27-27v-19.8c0-14.9,12.1-27,27-27s27,12.1,27,27v19.8
			C127,147.4,114.9,159.4,100,159.4L100,159.4z"/>
		<path class="st0" d="M100,159.4c14.2,0,25.7-11,26.8-24.8c-2.9-4.3-7.9-7.4-13.7-7.4c-5.4,0-10.3,2.7-13.3,6.8
			c-2.9-4.1-7.7-6.8-13.3-6.8c-5.8,0-10.6,2.9-13.7,7.4C74.3,148.4,85.8,159.4,100,159.4z"/>
	</g>
	<g>
		<ellipse transform="matrix(0.7071 -0.7071 0.7071 0.7071 -41.4081 100.0054)" cx="100" cy="100" rx="96.4" ry="96.4"/>
		<path class="st0" d="M10,100c0,49.7,40.3,90,90,90s90-40.3,90-90s-40.3-90-90-90S10,50.3,10,100z"/>
		<path class="st1" d="M188.2,81.8C179.8,40.8,143.6,10,100,10c-49.7,0-90,40.3-90,90c0,21.8,7.7,41.6,20.5,57.1
			c15.3,8.5,32.8,13.1,51.5,13.1C134.9,170.2,178.9,132.1,188.2,81.8z"/>
		<path class="st2" d="M46,69.4c0,9,7.3,16.2,16.2,16.2s16.2-7.3,16.2-16.2s-7.3-16.2-16.2-16.2S46,60.4,46,69.4z"/>
		<path class="st2" d="M121.6,69.4c0,9,7.3,16.2,16.2,16.2S154,78.3,154,69.4s-7.3-16.2-16.2-16.2S121.6,60.4,121.6,69.4z"/>
		<path class="st2" d="M100,159.4c-14.9,0-27-12.1-27-27v-19.8c0-14.9,12.1-27,27-27s27,12.1,27,27v19.8
			C127,147.4,114.9,159.4,100,159.4L100,159.4z"/>
		<path class="st3" d="M100,159.4c14.2,0,25.7-11,26.8-24.8c-2.9-4.3-7.9-7.4-13.7-7.4c-5.4,0-10.3,2.7-13.3,6.8
			c-2.9-4.1-7.7-6.8-13.3-6.8c-5.8,0-10.6,2.9-13.7,7.4C74.3,148.4,85.8,159.4,100,159.4z"/>
	</g>
</g>
</svg>
