<?xml version="1.0" encoding="utf-8"?>
<!-- Generator: Adobe Illustrator 23.0.6, SVG Export Plug-In . SVG Version: 6.00 Build 0)  -->
<svg version="1.1" id="Layer_1" xmlns="http://www.w3.org/2000/svg" xmlns:xlink="http://www.w3.org/1999/xlink" x="0px" y="0px"
	 viewBox="0 0 512 512" style="enable-background:new 0 0 512 512;" xml:space="preserve">
<style type="text/css">
	.st0{fill:#FFD73A;}
	.st1{fill:#FEC43C;}
	.st2{fill:#E09B2D;}
	.st3{fill:#FFFFFF;}
</style>
<circle class="st0" cx="256" cy="256" r="246.9"/>
<g>
	<path class="st1" d="M126.3,385.7c-88.8-88.8-95.8-228.4-21-325.2c-8.3,6.4-16.3,13.4-23.9,21c-96.4,96.4-96.4,252.7,0,349.1
		s252.7,96.4,349.1,0c7.6-7.6,14.6-15.6,21-23.9C354.7,481.5,215.1,474.5,126.3,385.7z"/>
	<path class="st2" d="M287.1,364c-1.4,0-2.9-0.3-4.2-1c-8.2-4.3-17.5-6.6-26.9-6.6c-9.4,0-18.6,2.3-26.8,6.6
		c-4.5,2.3-10,0.6-12.4-3.9c-2.3-4.5-0.6-10,3.9-12.3c10.8-5.7,23-8.7,35.3-8.7c12.3,0,24.5,3,35.3,8.7c4.5,2.3,6.2,7.9,3.9,12.3
		C293.6,362.2,290.4,364,287.1,364z"/>
</g>
<path d="M256,0C114.8,0,0,114.8,0,256s114.8,256,256,256s256-114.8,256-256C512,114.8,397.2,0,256,0z M256,497.6
	C122.8,497.6,14.4,389.2,14.4,256S122.8,14.4,256,14.4S497.6,122.8,497.6,256C497.6,389.2,389.2,497.6,256,497.6z"/>
<path d="M257.1,300.4c-37.7,0-73.2,14.7-99.9,41.4c-3.6,3.6-3.6,9.4,0,12.9c3.6,3.6,9.4,3.6,12.9,0c23.2-23.2,54.1-36,86.9-36
	s63.7,12.8,86.9,36c1.8,1.8,4.1,2.7,6.5,2.7c2.3,0,4.7-0.9,6.5-2.7c3.6-3.6,3.6-9.4,0-12.9C330.3,315.1,294.9,300.4,257.1,300.4z"/>
<path d="M161.9,136.6c0-5.1-4.1-9.2-9.1-9.2s-9.1,4.1-9.1,9.2c0,26.9-21.8,48.7-48.7,48.7c-5.1,0-9.2,4.1-9.2,9.1s4.1,9.1,9.2,9.1
	C131.8,203.6,161.9,173.5,161.9,136.6z"/>
<path d="M417.2,185.3c-26.9,0-48.7-21.8-48.7-48.7c0-5.1-4.1-9.2-9.1-9.2c-5.1,0-9.1,4.1-9.1,9.2c0,36.9,30.1,67,67,67
	c5.1,0,9.1-4.1,9.1-9.1C426.3,189.4,422.2,185.3,417.2,185.3z"/>
<path d="M180.6,230c0-18.7-15.2-33.9-33.9-33.9s-33.9,15.2-33.9,33.9s15.2,33.9,33.9,33.9S180.6,248.6,180.6,230z"/>
<path d="M365.3,196.1c-18.7,0-33.9,15.2-33.9,33.9s15.2,33.9,33.9,33.9s33.9-15.2,33.9-33.9S383.9,196.1,365.3,196.1z"/>
<g>
	<circle class="st3" cx="150.5" cy="225.4" r="9.1"/>
	<circle class="st3" cx="368.8" cy="225.4" r="9.1"/>
</g>
</svg>
