<?xml version="1.0" encoding="utf-8"?>
<!-- Generator: Adobe Illustrator 23.0.6, SVG Export Plug-In . SVG Version: 6.00 Build 0)  -->
<svg version="1.1" id="Layer_1" xmlns="http://www.w3.org/2000/svg" xmlns:xlink="http://www.w3.org/1999/xlink" x="0px" y="0px"
	 viewBox="0 0 261.7 200" style="enable-background:new 0 0 261.7 200;" xml:space="preserve">
<style type="text/css">
	.st0{fill:#FAD03E;}
	.st1{fill:#260208;}
	.st2{fill:#F75670;}
	.st3{fill:#000333;}
	.st4{fill:#FE474D;}
	.st5{fill:#C00A1B;}
	.st6{fill:#B30C1E;}
</style>
<path class="st0" d="M83.6,2.9v7.7h99c-0.3-1-0.3-3.5,0-7.7c9.3,26.1,30,43.3,61.8,51.7c-8.4,4.2-20.6,6.3-36.7,6.3H56.5
	c-18.4,0-28.5-2.4-40.1-6.3c9.7,0,23.7-4.8,40.1-17.4C67.5,28.8,76.5,17.4,83.6,2.9z M2.9,100c13.2,1.6,24.3,0.2,33.3-4.3
	s17.4-10.9,25.1-19.3h145.9c14.5,13.5,31.7,21.4,51.7,23.7c-48.8,5.3-201.9,2.4-222.7,2.4C22.4,102.4,11.3,101.6,2.9,100z"/>
<path class="st1" d="M179.7,2.7c0.2-3.1,4.6-3.7,5.6-0.8c9,25.1,28.8,41.7,59.8,49.9c2.6,0.7,3,4.2,0.6,5.4
	c-8.8,4.4-21.5,6.6-38,6.6H56.5c-16.8,0-27.1-1.8-41-6.4c-3.1-1-2.4-5.6,0.9-5.6c10.1,0,23.7-5.6,38.3-16.8
	C65.3,26.8,74.1,15.7,81,1.6c1.3-2.8,5.5-1.8,5.5,1.3v4.8h93C179.5,6.4,179.6,4.7,179.7,2.7L179.7,2.7z M81.6,12.7
	c-6.5,10.9-14.2,19.8-23.3,26.8c-10.2,7.8-20,13.1-28.8,15.8c8.2,1.9,16.1,2.7,27.1,2.7h151.2c11.2,0,20.4-1,27.6-3
	c-24.4-8.1-41.6-22-51.5-41.7c-0.4,0.2-0.8,0.3-1.3,0.3h-99C82.8,13.5,82.1,13.2,81.6,12.7L81.6,12.7z"/>
<path class="st2" d="M58,61.8v14.5h146.9V61.8H58z"/>
<path class="st3" d="M55.1,61.8c0-1.6,1.3-2.9,2.9-2.9h146.9c1.6,0,2.9,1.3,2.9,2.9v14.5c0,1.6-1.3,2.9-2.9,2.9H58
	c-1.6,0-2.9-1.3-2.9-2.9C55.1,76.3,55.1,61.8,55.1,61.8z M60.9,64.7v8.7h141.1v-8.7H60.9z"/>
<path class="st1" d="M36.2,99.5c2.4,0,6.5,0,14.4,0.1l11.3,0.1c5,0.1,9.2,0.1,13.5,0.1c29.1,0.3,54.2,0.4,78.5,0.4
	c35.7-0.1,64.6-0.6,85-1.7c-12.1-4-23-10.5-32.8-19.4H62.6c-7.7,8.2-16.1,14.5-25.1,19c-0.9,0.5-1.8,0.9-2.8,1.3
	C35.2,99.5,35.7,99.5,36.2,99.5z M3.2,97.1c12.7,1.5,23.2,0.2,31.7-4.1c8.7-4.3,16.8-10.6,24.3-18.7c0.5-0.6,1.3-0.9,2.1-0.9h145.9
	c0.7,0,1.4,0.3,2,0.8c14,13.1,30.7,20.7,50,22.9c3.4,0.4,3.4,5.4,0,5.8c-19.4,2.1-55.8,3.1-105.4,3.2c-24.3,0.1-49.5-0.1-78.6-0.4
	c-4.3,0-8.5-0.1-13.5-0.1l-11.3-0.1c-7.8-0.1-11.9-0.1-14.3-0.1c-14,0-25.3-0.8-33.9-2.5C-1.3,102.1-0.5,96.7,3.2,97.1z"/>
<path class="st4" d="M42.5,102.4v28.7h177.8v-28.7H42.5z"/>
<path class="st3" d="M39.6,102.4c0-1.6,1.3-2.9,2.9-2.9h177.8c1.6,0,2.9,1.3,2.9,2.9v28.7c0,1.6-1.3,2.9-2.9,2.9H42.5
	c-1.6,0-2.9-1.3-2.9-2.9l0,0C39.6,131.1,39.6,102.4,39.6,102.4z M45.4,105.3v22.9h172v-22.9C217.4,105.3,45.4,105.3,45.4,105.3z"/>
<path class="st2" d="M20.3,130.4v66.4h221.2v-66.4H20.3z"/>
<path class="st5" d="M66.2,167.2c7.7,0,14,6.3,14,14V200h-28v-18.8C52.2,173.4,58.4,167.2,66.2,167.2L66.2,167.2z M205.3,167.2
	c7.7,0,14,6.3,14,14V200h-28v-18.8C191.3,173.4,197.6,167.2,205.3,167.2L205.3,167.2z M130.4,156.5c10.1,0,18.4,8.2,18.4,18.4V200
	h-36.7v-25.1C112.1,164.7,120.3,156.5,130.4,156.5z"/>
<path class="st1" d="M17.4,130.4c0-1.6,1.3-2.9,2.9-2.9c0,0,0,0,0,0h221.2c1.6,0,2.9,1.3,2.9,2.9v66.4c0,1.6-1.3,2.9-2.9,2.9H20.3
	c-1.6,0-2.9-1.3-2.9-2.9l0,0V130.4z M23.2,133.3v60.6h215.5v-60.6H23.2z"/>
<path class="st0" d="M117.9,116.9H143v29h-25.1V116.9z"/>
<path class="st6" d="M120.8,119.8V143h19.3v-23.2H120.8z M117.9,114H143c1.6,0,2.9,1.3,2.9,2.9c0,0,0,0,0,0v29
	c0,1.6-1.3,2.9-2.9,2.9c0,0,0,0,0,0h-25.1c-1.6,0-2.9-1.3-2.9-2.9c0,0,0,0,0,0v-29C115,115.3,116.3,114,117.9,114
	C117.9,114,117.9,114,117.9,114z"/>
<path class="st3" d="M74.9,104.3c0-1.6,1.3-2.9,2.9-2.9c1.6,0,2.9,1.3,2.9,2.9l0,0v24.2c0,1.6-1.3,2.9-2.9,2.9
	c-1.6,0-2.9-1.3-2.9-2.9V104.3z M109.7,104.3c0-1.6,1.3-2.9,2.9-2.9c1.6,0,2.9,1.3,2.9,2.9v24.2c0,1.6-1.3,2.9-2.9,2.9
	c-1.6,0-2.9-1.3-2.9-2.9V104.3z M145.4,104.3c0-1.6,1.3-2.9,2.9-2.9c1.6,0,2.9,1.3,2.9,2.9v24.2c0,1.6-1.3,2.9-2.9,2.9
	c-1.6,0-2.9-1.3-2.9-2.9V104.3z M181.2,104.3c0-1.6,1.3-2.9,2.9-2.9c1.6,0,2.9,1.3,2.9,2.9v24.2c0,1.6-1.3,2.9-2.9,2.9
	c-1.6,0-2.9-1.3-2.9-2.9V104.3z"/>
</svg>
