<?xml version="1.0" standalone="no"?><!DOCTYPE svg PUBLIC "-//W3C//DTD SVG 1.1//EN" "http://www.w3.org/Graphics/SVG/1.1/DTD/svg11.dtd"><svg t="1568877516455" class="icon" viewBox="0 0 1024 1024" version="1.1" xmlns="http://www.w3.org/2000/svg" p-id="6392" xmlns:xlink="http://www.w3.org/1999/xlink" width="200" height="200"><defs><style type="text/css"></style></defs><path d="M100.59449375 640.574375h822.830625v154.280625H100.59449375z" fill="#C83741" p-id="6393"></path><path d="M100.59449375 743.4275h822.830625v51.4275H100.59449375z" fill="#FFB450" p-id="6394"></path><path d="M83.44574375 571.998125v119.99625h17.143125l22.1625-22.1625a17.145 17.145 0 0 1 24.24375 0l22.1625 22.1625 32.146875-25.7175a17.145 17.145 0 0 1 21.418125 0l32.146875 25.7175 32.146875-25.7175a17.145 17.145 0 0 1 21.418125 0l32.146875 25.7175 41.9175-27.946875a17.145 17.145 0 0 1 19.018125 0l41.9175 27.946875 42.789375-28.52625a34.284375 34.284375 0 0 1 19.018125-5.758125h13.5225a34.29375 34.29375 0 0 1 19.018125 5.758125l42.789375 28.52625 41.9175-27.946875a17.145 17.145 0 0 1 19.018125 0l41.9175 27.946875 32.146875-25.7175a17.14125 17.14125 0 0 1 21.41625 0l32.146875 25.7175 32.146875-25.7175a17.14125 17.14125 0 0 1 21.41625 0l32.146875 25.7175 22.1625-22.1625a17.145 17.145 0 0 1 24.24375 0l22.1625 22.1625h17.143125v-119.99625H83.44574375zM186.30636875 417.723125h651.40875v102.853125H186.30636875z" fill="#50B4AF" p-id="6395"></path><path d="M186.30636875 417.723125h651.40875v51.4275H186.30636875zM83.45324375 572.00375h857.116875v51.4275H83.45324375z" fill="#37A0A0" p-id="6396"></path><path d="M323.43824375 212.009375a17.131875 17.131875 0 0 0-17.143125 17.143125v51.4275h34.284375v-51.4275a17.13 17.13 0 0 0-17.14125-17.143125zM700.57011875 212.009375a17.131875 17.131875 0 0 0-17.143125 17.143125v51.4275h34.284375v-51.4275a17.131875 17.131875 0 0 0-17.14125-17.143125z" fill="#FFB450" p-id="6397"></path><path d="M923.41949375 657.71a17.131875 17.131875 0 0 0-17.143125 17.143125v119.99625h34.284375v-119.99625a17.13 17.13 0 0 0-17.14125-17.143125zM100.58886875 657.71a17.131875 17.131875 0 0 0-17.143125 17.143125v119.99625h34.284375v-119.99625a17.131875 17.131875 0 0 0-17.14125-17.143125z" fill="#FF4B4B" p-id="6398"></path><path d="M837.70761875 503.429375H186.30074375S116.17199375 573.558125 39.34574375 548.886875c-5.7-1.83-9.980625 5.308125-5.43 9.196875 16.801875 14.35875 44.7225 31.044375 83.76375 31.059375h788.6475c39.04125-0.015 66.961875-16.700625 83.76375-31.059375 4.550625-3.88875 0.271875-11.026875-5.43-9.196875-76.820625 24.673125-146.953125-45.4575-146.953125-45.4575z" fill="#FFCF65" p-id="6399"></path><path d="M477.71886875 434.85875v68.56875a17.145 17.145 0 0 0 17.143125 17.143125h34.284375a17.145 17.145 0 0 0 17.143125-17.143125v-68.56875h-68.570625z" fill="#5091D7" p-id="6400"></path><path d="M722.16824375 273.00125c43.655625 86.5425 151.378125 115.621875 197.205 124.284375 6.913125 1.306875 7.97625 10.7175 1.561875 13.6125-22.36125 10.093125-62.985 23.95125-117.465 23.95875H220.53449375c-54.48-0.009375-95.10375-13.865625-117.465-23.95875-6.4125-2.895-5.35125-12.305625 1.561875-13.6125 45.82875-8.660625 153.549375-37.741875 197.205-124.284375 2.896875-5.74125 8.551875-9.56625 14.983125-9.56625h390.3675c6.433125 0.001875 12.08625 3.826875 14.98125 9.56625z" fill="#FFCF65" p-id="6401"></path><path d="M443.43449375 657.71a17.131875 17.131875 0 0 0-17.143125 17.143125v119.99625h34.284375v-119.99625a17.13 17.13 0 0 0-17.14125-17.143125zM340.58136875 657.71a17.131875 17.131875 0 0 0-17.143125 17.143125v119.99625h34.284375v-119.99625a17.131875 17.131875 0 0 0-17.14125-17.143125zM254.86949375 657.71a17.131875 17.131875 0 0 0-17.143125 17.143125v119.99625h34.284375v-119.99625a17.13 17.13 0 0 0-17.14125-17.143125zM169.15761875 657.71a17.131875 17.131875 0 0 0-17.143125 17.143125v119.99625h34.284375v-119.99625a17.13 17.13 0 0 0-17.14125-17.143125zM683.42699375 657.71a17.131875 17.131875 0 0 0-17.143125 17.143125v119.99625h34.284375v-119.99625a17.13 17.13 0 0 0-17.14125-17.143125zM769.13886875 657.71a17.131875 17.131875 0 0 0-17.143125 17.143125v119.99625h34.284375v-119.99625a17.13 17.13 0 0 0-17.14125-17.143125zM854.85074375 657.71a17.131875 17.131875 0 0 0-17.143125 17.143125v119.99625h34.284375v-119.99625a17.131875 17.131875 0 0 0-17.14125-17.143125zM580.57386875 657.71a17.131875 17.131875 0 0 0-17.143125 17.143125v119.99625h34.284375v-119.99625a17.131875 17.131875 0 0 0-17.14125-17.143125z" fill="#FF4B4B" p-id="6402"></path><path d="M512.00511875 709.1375a17.131875 17.131875 0 0 0-17.143125 17.143125v68.56875h34.284375v-68.56875a17.131875 17.131875 0 0 0-17.14125-17.143125z" fill="#504B5A" p-id="6403"></path><path d="M974.84699375 811.990625H49.16136875a17.131875 17.131875 0 0 1-17.143125-17.143125 17.131875 17.131875 0 0 1 17.143125-17.143125H974.84699375a17.131875 17.131875 0 0 1 17.143125 17.143125 17.135625 17.135625 0 0 1-17.143125 17.143125z" fill="#CAC9CD" p-id="6404"></path></svg>