<?xml version="1.0" encoding="utf-8"?>
<!-- Generator: Adobe Illustrator 23.0.6, SVG Export Plug-In . SVG Version: 6.00 Build 0)  -->
<svg version="1.1" id="Layer_1" xmlns="http://www.w3.org/2000/svg" xmlns:xlink="http://www.w3.org/1999/xlink" x="0px" y="0px"
	 viewBox="0 0 200.4 200" style="enable-background:new 0 0 200.4 200;" xml:space="preserve">
<style type="text/css">
	.st0{fill:#F5D3BD;}
	.st1{fill:#EBEBEB;}
	.st2{fill:#8D7761;}
	.st3{fill:#EECDB8;}
</style>
<path class="st0" d="M39.5,22.9l59.7,29.3l-29.3,59.7L32,93.2C14,84.4,6.5,62.7,15.4,44.7l8-16.3C26.3,22.4,33.5,20,39.5,22.9z"/>
<path class="st1" d="M194.6,119.2l-49-24.1c5.9-12,0.9-26.5-11.1-32.4c-2-1-4.2-1.6-6.4-2c3-11.6-3-23.6-13.9-28.2
	c-11-4.7-23.7-0.7-30,9.5c-6.3,10.1-4.2,23.4,4.8,31.1l-37.7,76.7c-8.4,17.1,6.9,12.9,6.9,12.9l22.6-4.3L194.6,119.2z"/>
<path class="st2" d="M65.5,66c-2.2,4.5-7.6,6.4-12.1,4.1c-4.5-2.2-6.4-7.6-4.1-12.1c2.2-4.5,7.6-6.4,12.1-4.1S67.8,61.5,65.5,66z"/>
<path class="st3" d="M105,95.4l40.8,26.7l-10.6,5c-14.3,6.7-31.3,2.5-40.8-10L105,95.4z"/>
<path d="M65.5,66c-2.2,4.5-7.6,6.4-12.1,4.1c-4.5-2.2-6.4-7.6-4.1-12.1c2.2-4.5,7.6-6.4,12.1-4.1S67.8,61.5,65.5,66z M147,123.8
	c2-0.9,3.3-2.9,3.5-5c0.2-2.2-0.9-4.3-2.7-5.5L107,86.5c-2.8-1.8-6.5-1.1-8.4,1.7c-0.1,0.2-0.3,0.4-0.4,0.7l-10.7,21.7
	c-1,2.1-0.8,4.5,0.6,6.4l0,0c3.7,4.8,8.5,8.7,13.9,11.4c8.2,4,19.4,5.2,26.5,3C137.6,129.2,147,123.8,147,123.8z M106.1,100.4l26,17
	l-0.8,0.4c-10.5,4.9-22.9,2.7-31.1-5.5L106.1,100.4z"/>
<path d="M188.9,132.5l8.4-18.8l-44.2-21.7c3.9-14.8-3.9-30.2-18.2-35.7c0.6-13.2-7.3-25.3-19.7-29.8c-12.4-4.6-26.3-0.6-34.4,9.9
	L42.2,17.5c-9-4.4-19.9-0.7-24.3,8.3L9.9,42C-0.3,63,8.3,88.4,29.3,98.7l32.6,16l-24.7,50.4l16.4,7.4 M178.1,117.3l-3.1,6L53.5,159
	l40.8-83.2c1.2-2.5,0.6-5.5-1.5-7.2c-6.9-5.9-8.4-16.1-3.3-23.7c5-7.6,14.9-10.3,23.1-6.3l0,0c7.7,3.8,11.7,12.4,9.6,20.7
	c-0.4,1.6-0.1,3.3,0.8,4.8c0.9,1.4,2.4,2.4,4,2.7c1.7,0.3,3.3,0.8,4.8,1.5c9,4.4,12.7,15.3,8.3,24.3c-1.5,3,2.8,8.1,2.8,8.1
	L178.1,117.3z M28.8,31.1c1.5-3,5.1-4.2,8.1-2.8l38.6,18.9c-2.5,9.5-0.2,19.6,6.2,27l-14.5,29.5l-32.6-16
	c-15-7.4-21.2-25.5-13.8-40.4L28.8,31.1z"/>
<path class="st1" d="M56.7,152.5"/>
</svg>
