<?xml version="1.0" standalone="no"?><!DOCTYPE svg PUBLIC "-//W3C//DTD SVG 1.1//EN" "http://www.w3.org/Graphics/SVG/1.1/DTD/svg11.dtd"><svg t="1568877466632" class="icon" viewBox="0 0 1026 1024" version="1.1" xmlns="http://www.w3.org/2000/svg" p-id="3404" xmlns:xlink="http://www.w3.org/1999/xlink" width="200.390625" height="200"><defs><style type="text/css"></style></defs><path d="M701.194154 668.049904l34.204593 85.511482-17.102296 153.920668h68.409186l34.204593-153.920668v-85.511482l0.701194-21.970038L703.331942 650.947608z m0 0M478.864301 668.049904l17.102296 102.613779-17.102296 136.818371h51.306889l51.306889-136.818371v-102.613779l-10.03691-22.521587L478.864301 650.947608z m0 0" fill="#CBCBCB" p-id="3405"></path><path d="M51.306889 189.185603h188.125261v188.125261H119.716075c-56.668459 0-102.613779-45.936768-102.613779-102.613778v-51.30689c0-18.889486 15.315106-34.204593 34.204593-34.204593z m0 0" fill="#F5D3BD" p-id="3406"></path><path d="M1009.035491 377.310864c0-75.557946-61.251875-136.818372-136.818372-136.818371H410.455115c0-37.778973-30.630213-68.409186-68.409186-68.409186-6.312885 0.091925-12.585152 1.068894-18.620125 2.890288-6.892225-33.060877-36.876827-56.151115-70.606831-54.355374-33.730004 1.78719-61.10223 27.923775-64.443591 61.536201C185.036159 215.766848 206.724008 246.779724 239.43215 255.181228v241.847849a170.595407 170.595407 0 0 0 68.900877 136.957328l-0.491691-0.141094 51.306889 136.818372-34.204592 136.818371h68.409185l34.204593-136.818371v-102.613779h410.455115l85.511482 85.511482-17.102296 153.920668h68.409186l34.204593-153.920668v-153.920668h-1.71023c1.141578-5.628793 1.718781-11.355925 1.71023-17.102296z m0 0" fill="#EBEBEB" p-id="3407"></path><path d="M171.022965 266.145937c0 14.17139-11.482054 25.653445-25.653445 25.653445s-25.653445-11.482054-25.653445-25.653445c0-14.162839 11.482054-25.653445 25.653445-25.653444s25.653445 11.490605 25.653445 25.653444z m0 0" fill="#8D7761" p-id="3408"></path><path d="M564.375783 428.617754a68.396359 68.396359 0 0 1-61.360902-38.681119A67.436493 67.436493 0 0 1 478.864301 394.413161c-37.778973 0-68.409186-30.621662-68.409186-68.409186h34.204593a34.018605 34.018605 0 0 0 20.366697 31.331407 34.037846 34.037846 0 0 0 36.84476-6.238063 17.076643 17.076643 0 0 1 17.912518-3.281503 17.08947 17.08947 0 0 1 10.712451 14.72294c1.137303 17.8719 15.969269 31.791031 33.879649 31.791031s32.742347-13.921269 33.879649-31.791031a17.08947 17.08947 0 0 1 10.712451-14.72294 17.076643 17.076643 0 0 1 17.914656 3.281503 34.037846 34.037846 0 0 0 36.842622 6.238063A34.018605 34.018605 0 0 0 684.091858 326.003975h34.204593c0 37.787524-30.630213 68.409186-68.409186 68.409186-8.258271 0-16.44172-1.517829-24.15058-4.476526A68.396359 68.396359 0 0 1 564.375783 428.617754z m0 0M803.807933 565.436125a68.396359 68.396359 0 0 1-61.360902-38.681119A67.436493 67.436493 0 0 1 718.296451 531.231532c-37.778973 0-68.409186-30.621662-68.409186-68.409185h34.204593a34.018605 34.018605 0 0 0 20.366697 31.331407 34.037846 34.037846 0 0 0 36.84476-6.238063 17.076643 17.076643 0 0 1 17.912518-3.281503 17.08947 17.08947 0 0 1 10.712451 14.722939c1.137303 17.8719 15.969269 31.791031 33.879649 31.791032s32.742347-13.921269 33.879649-31.791032a17.08947 17.08947 0 0 1 10.712451-14.722939 17.076643 17.076643 0 0 1 17.914656 3.281503 34.037846 34.037846 0 0 0 36.842622 6.238063A34.018605 34.018605 0 0 0 923.524008 462.822347h34.204593c0 37.787524-30.630213 68.409186-68.409186 68.409185-8.258271 0-16.44172-1.517829-24.15058-4.476526A68.396359 68.396359 0 0 1 803.807933 565.436125z m0 0M650.246413 633.845311a68.396359 68.396359 0 0 1-61.360902-38.681119 67.436493 67.436493 0 0 1-24.15058 4.476526A68.257403 68.257403 0 0 1 513.068894 576.090856a67.917495 67.917495 0 0 1-60.458756 22.949144 67.923908 67.923908 0 0 1-52.260343-38.080401A67.348843 67.348843 0 0 1 376.250522 565.436125c-37.778973 0-68.409186-30.621662-68.409186-68.409186h34.204593a34.018605 34.018605 0 0 0 20.366697 31.331408 34.037846 34.037846 0 0 0 36.84476-6.238063 17.076643 17.076643 0 0 1 17.912518-3.281503 17.08947 17.08947 0 0 1 10.712451 14.722939c1.137303 17.8719 15.969269 31.791031 33.879649 31.791032s32.742347-13.921269 33.879649-31.791032a16.076159 16.076159 0 0 1 0.324944-2.189094l0.701194-3.50597a17.102296 17.102296 0 0 1 33.87965 3.416183 34.037846 34.037846 0 0 0 57.194354 25.110447 17.115123 17.115123 0 0 1 17.903967-3.292192 17.110848 17.110848 0 0 1 10.721002 14.714388c1.068894 17.938171 15.926514 31.934263 33.888201 31.934263 17.970238 0 32.817169-13.996092 33.886062-31.934263l34.204593 2.34729c-2.529002 35.773729-32.225002 63.549996-68.099207 63.684677z m0 0" fill="#DBDBDB" p-id="3409"></path><path d="M1009.035491 535.015415V493.82881l-62.664952-42.037445A51.14228 51.14228 0 0 1 923.524008 409.101896v-65.993487h-34.204593v65.993487a85.218605 85.218605 0 0 0 38.05261 71.132726z m0 0" fill="#DBDBDB" p-id="3410"></path><path d="M307.841336 291.799382l136.818372 17.102296-20.62537 25.796677c-27.868192 34.828827-76.293344 45.468593-116.193002 25.510213z m0 0" fill="#EECDB8" p-id="3411"></path><path d="M171.022965 266.145937c0 14.17139-11.482054 25.653445-25.653445 25.653445s-25.653445-11.482054-25.653445-25.653445c0-14.162839 11.482054-25.653445 25.653445-25.653444s25.653445 11.490605 25.653445 25.653444z m0 0M300.200885 375.598497a110.848534 110.848534 0 0 0 49.594522 11.665904 112.845228 112.845228 0 0 0 71.089971-25.343466 68.233887 68.233887 0 0 0 57.978923 32.494364c8.258271 0 16.44172-1.522104 24.15058-4.478664 11.298205 23.633236 35.166597 38.672568 61.360902 38.672568s50.062697-15.039332 61.360902-38.672568A67.436493 67.436493 0 0 0 649.887265 394.413161c37.778973 0 68.409186-30.621662 68.409186-68.409186h-34.204593a34.018605 34.018605 0 0 1-20.366697 31.331407 34.037846 34.037846 0 0 1-36.84476-6.238063 17.076643 17.076643 0 0 0-17.912518-3.281503 17.08947 17.08947 0 0 0-10.712451 14.72294c-1.137303 17.8719-15.969269 31.791031-33.879649 31.791031s-32.742347-13.921269-33.879649-31.791031a17.08947 17.08947 0 0 0-10.712451-14.72294 17.076643 17.076643 0 0 0-17.914656 3.281503 33.898889 33.898889 0 0 1-32.64187 7.740927 33.871098 33.871098 0 0 1-23.297604-24.124927l12.082773-15.122705a17.087332 17.087332 0 0 0 2.496935-17.119399 17.087332 17.087332 0 0 0-13.728869-10.528601l-136.818371-17.102297A17.08947 17.08947 0 0 0 290.73904 291.799382v68.409186a17.095883 17.095883 0 0 0 9.461845 15.387791zM324.943633 311.182697l87.221711 10.904852-1.543482 1.919733A77.933027 77.933027 0 0 1 324.943633 348.869745z m0 0M616.3518 567.766313c-0.451073-6.554455-4.61762-12.275173-10.72314-14.714388s-13.068292-1.160818-17.903967 3.292192a34.037846 34.037846 0 1 1-57.194355-25.110447 17.102296 17.102296 0 0 0-33.879649-3.418321l-0.684092 3.559415c-0.149645 0.716159-0.258672 1.453695-0.309979 2.186956-1.133027 17.8719-15.964994 31.791031-33.877512 31.791032-17.914656 0-32.744484-13.921269-33.879649-31.791032a17.08947 17.08947 0 0 0-10.714589-14.722939 17.080919 17.080919 0 0 0-17.910379 3.281503 34.03357 34.03357 0 0 1-36.861863 6.255165A34.018605 34.018605 0 0 1 342.045929 497.026939h-34.204593c0 37.787524 30.630213 68.409186 68.409186 68.409186 8.258271 0 16.44172-1.517829 24.15058-4.476526a67.893979 67.893979 0 0 0 52.241103 38.037645A67.900392 67.900392 0 0 0 513.068894 576.090856a68.257403 68.257403 0 0 0 51.666037 23.549862c8.258271 0 16.44172-1.517829 24.15058-4.476526 13.36972 27.975081 43.948626 43.390664 74.388577 37.496785 30.446363-5.889603 53.059875-31.609319 55.022363-62.555925l-34.204593-2.338739c-1.068894 17.92962-15.926514 31.932125-33.8882 31.932125-17.970238 0-32.82572-14.002505-33.886063-31.932125z m0 0" p-id="3412"></path><path d="M119.716075 394.413161h102.613779v102.613778a186.421445 186.421445 0 0 0 71.072868 147.07975l47.890706 127.617336-32.900543 131.691958a17.104434 17.104434 0 0 0 3.131858 14.605361 17.117261 17.117261 0 0 0 13.41889 6.563007h68.409185a17.112985 17.112985 0 0 0 16.593504-12.944301l34.204592-136.818372a17.444342 17.444342 0 0 0 0.508794-4.157995v-85.511483h19.71681l14.295382 85.870631-16.775215 134.338539a17.110848 17.110848 0 0 0 16.967616 19.222981h51.306889a17.098021 17.098021 0 0 0 16.024852-11.097253l51.306889-136.818371a17.117261 17.117261 0 0 0 1.077445-6.005044v-85.511483h91.039799l28.317128 70.788543-16.642673 149.662196a17.102296 17.102296 0 0 0 17.001821 18.98355h68.409186c8.016701 0.006413 14.964509-5.562522 16.708943-13.388961l34.204593-153.920668c0.258672-1.218539 0.393353-2.462731 0.393353-3.715474V692.236827l67.607516 67.607515-16.200151 145.760735a17.102296 17.102296 0 0 0 17.001821 18.983549h68.409186c8.016701 0.006413 14.964509-5.562522 16.708943-13.38896l34.204593-153.920668c0.258672-1.218539 0.393353-2.462731 0.393353-3.715474v-376.250522c-0.091925-84.968484-68.952184-153.820192-153.920668-153.920668H425.847182c-8.461361-42.537687-47.608518-71.88309-90.815332-68.06714C320.240501 121.026539 284.89433 100.300693 247.733177 104.133745 210.572025 107.975349 180.209035 135.482255 172.733194 172.083307H51.306889c-28.33423 0-51.306889 22.97266-51.306889 51.306889v51.30689c0.074823 66.087549 53.628526 119.641253 119.716075 119.716075z m444.659708 373.161419l-46.054347 122.805178h-20.082371l14.697286-117.595391a17.209186 17.209186 0 0 0-0.109027-4.942563l-13.763073-82.689604H564.375783z m239.43215-15.892309l-30.779858 138.699625h-35.624083l14.996576-134.932844a17.499925 17.499925 0 0 0-1.111649-8.251858l-24.834673-62.044994H803.807933zM256.534447 137.880852c24.191198 0.081236 45.060276 16.991132 50.163173 40.632918a17.072367 17.072367 0 0 0 7.899123 11.105804 17.085194 17.085194 0 0 0 13.510814 1.812844 50.60142 50.60142 0 0 1 13.938372-2.244677c28.33423 0 51.306889 22.970522 51.306889 51.306889a17.102296 17.102296 0 0 0 17.102297 17.102297h461.762004c66.087549 0.072685 119.641253 53.626388 119.716075 119.716075v104.875557l-45.562655-30.399331A51.14228 51.14228 0 0 1 923.524008 409.104033v-65.993486h-34.204593v65.993486a85.212192 85.212192 0 0 0 31.72476 66.331257 33.909578 33.909578 0 0 1-24.058655 20.742948 33.933094 33.933094 0 0 1-30.672969-8.260409 17.076643 17.076643 0 0 0-17.912518-3.281503 17.08947 17.08947 0 0 0-10.712451 14.722939c-1.137303 17.8719-15.969269 31.791031-33.879649 31.791031s-32.742347-13.921269-33.879649-31.791031a17.08947 17.08947 0 0 0-10.712451-14.722939 17.076643 17.076643 0 0 0-17.914656 3.281503 34.037846 34.037846 0 0 1-36.842622 6.238062A34.018605 34.018605 0 0 1 684.091858 462.822347h-34.204593c0 37.787524 30.630213 68.409186 68.409186 68.409185 8.258271 0 16.44172-1.517829 24.15058-4.476526 11.298205 23.633236 35.166597 38.672568 61.360902 38.672568s50.062697-15.039332 61.360902-38.672568A67.436493 67.436493 0 0 0 889.319415 531.231532a68.206096 68.206096 0 0 0 60.050439-36.325277L991.933194 523.281102v228.401169l-30.779858 138.699625h-35.626221l14.998714-134.932844a17.112985 17.112985 0 0 0-4.910497-13.981127l-85.511482-85.511482a17.104434 17.104434 0 0 0-12.091324-5.008835H427.557411a17.102296 17.102296 0 0 0-17.102296 17.102296v100.510196l-30.454915 121.819658h-33.152801l28.89433-115.55808c0.842288-3.364877 0.641336-6.905052-0.568652-10.160901l-49.887399-133.002422a17.123674 17.123674 0 0 0-6.706237-11.373027A152.620894 152.620894 0 0 1 256.534447 497.024802V255.166263a17.100159 17.100159 0 0 0-12.80962-16.550747c-24.986455-6.413361-41.287081-30.429261-38.037645-56.016435C208.943031 157.001219 230.739908 137.838096 256.534447 137.878714z m-222.329854 85.511482a17.102296 17.102296 0 0 1 17.102296-17.102296h121.661462A85.359699 85.359699 0 0 0 222.329854 267.313169v92.893261H119.716075c-47.206614-0.05772-85.453762-38.304868-85.511482-85.511482z m0 0" p-id="3413"></path></svg>