<?xml version="1.0" standalone="no"?><!DOCTYPE svg PUBLIC "-//W3C//DTD SVG 1.1//EN" "http://www.w3.org/Graphics/SVG/1.1/DTD/svg11.dtd"><svg t="1568877475798" class="icon" viewBox="0 0 1024 1024" version="1.1" xmlns="http://www.w3.org/2000/svg" p-id="3940" xmlns:xlink="http://www.w3.org/1999/xlink" width="200" height="200"><defs><style type="text/css"></style></defs><path d="M546.72168 218.148H275.33568l-15.89 4.446a168.72 168.72 0 0 0-115.15 110.75L51.47768 621.46l124.4 46.5 72.866-188.484v475.906c0 21.58 17.5 39.072 39.08 39.072h273.186l80-462.204-27.226-201.054z m0 0" fill="#E95666" p-id="3941"></path><path d="M184.29768 353.344a168.736 168.736 0 0 1 115.15-110.75l15.89-4.446h243.242l-11.86-20H275.33768l-15.89 4.446a168.72 168.72 0 0 0-115.15 110.75L51.47768 621.46l41.454 15.494z m0 0" fill="#D64655" p-id="3942"></path><path d="M879.70568 333.344a168.718 168.718 0 0 0-115.158-110.75l-15.89-4.446H546.72168l67.064 113.048-96.134 69.116 5.04 52.774 38.312 79.164v462.204h175.18c21.578 0 39.07-17.494 39.07-39.072V479.476l72.868 188.484 124.398-46.5z m0 0" fill="#E95666" p-id="3943"></path><path d="M560.92168 418.726c63.518-12.444 131.86-58.898 161.626-111.406 30.508-53.836 36.76-123.438 6.93-178.938C687.80568 50.828 593.38368 29.008 512.00168 29.008c-286.492 0-274.992 247.25-164.92 331.726 121.568 93.306 213.928 171.524 213.928 171.524v-108.672z" fill="#E4E7EB" p-id="3944"></path><path d="M561.00968 398.43h58.554v596.024h-58.554z m0 0" fill="#D64655" p-id="3945"></path><path d="M559.25968 283.54l-59.446 26.234a136.348 136.348 0 0 1 61.102 108.952h0.008c19.508-3.82 39.476-10.866 58.64-20.296-3.726-34.172-16.64-85.806-60.304-114.89z m0 0" fill="#CAC8C9" p-id="3946"></path><path d="M512.00168 318.828a136.028 136.028 0 0 1 12.188-9.054c41.772-27.602 89.594-69.852 89.594-118.672C613.78168 87.43 512.00168 89.946 512.00168 89.946s-101.78-2.516-101.78 101.156c0 48.82 47.812 91.07 89.592 118.672z m0 0" fill="#3A4047" p-id="3947"></path><path d="M830.45568 700.094l-16.744-44.798c-6.312-16.882 2.26-35.68 19.134-41.992l115.352-43.116c16.874-6.306 35.68 2.266 41.984 19.14l16.75 44.804c6.304 16.876-2.266 35.68-19.14 41.986l-115.344 43.116c-16.884 6.312-35.68-2.258-41.992-19.14z m0 0M193.54168 700.094l16.75-44.798c6.312-16.882-2.26-35.68-19.14-41.992l-115.346-43.116c-16.882-6.306-35.68 2.266-41.984 19.14l-16.75 44.804c-6.312 16.876 2.26 35.68 19.14 41.986l115.344 43.116c16.884 6.312 35.68-2.258 41.986-19.14z m0 0" fill="#E4E7EB" p-id="3948"></path><path d="M70.25968 688.656c-16.876-6.304-25.446-25.11-19.132-41.984l16.74-44.804c5.908-15.806 22.766-24.32 38.744-20.164l-30.806-11.516c-16.882-6.314-35.68 2.258-41.992 19.14l-16.74 44.804c-6.314 16.876 2.256 35.672 19.132 41.986z m0 0" fill="#CAC8C9" p-id="3949"></path><path d="M503.89168 620.57c0 15.094-12.24 27.328-27.336 27.328s-27.328-12.234-27.328-27.328 12.234-27.336 27.328-27.336 27.336 12.242 27.336 27.336z m0 0M503.89168 753.586c0 15.094-12.24 27.328-27.336 27.328s-27.328-12.234-27.328-27.328 12.234-27.328 27.328-27.328 27.336 12.234 27.336 27.328z m0 0M503.89168 886.6c0 15.096-12.24 27.33-27.336 27.33s-27.328-12.234-27.328-27.328 12.234-27.328 27.328-27.328 27.336 12.234 27.336 27.328z m0 0" fill="#E4E7EB" p-id="3950"></path><path d="M476.55568 662.9c23.344 0 42.336-18.994 42.336-42.33 0-23.344-18.992-42.336-42.336-42.336-23.336 0-42.328 18.992-42.328 42.336 0 23.336 18.992 42.328 42.328 42.328z m0-54.658c6.798 0 12.336 5.524 12.336 12.328 0 6.798-5.54 12.328-12.336 12.328a12.344 12.344 0 0 1-12.328-12.328 12.34 12.34 0 0 1 12.328-12.328z m0 0M476.55568 795.914c23.344 0 42.336-18.984 42.336-42.328s-18.992-42.328-42.336-42.328c-23.336 0-42.328 18.984-42.328 42.328 0 23.336 18.992 42.328 42.328 42.328z m0-54.656c6.798 0 12.336 5.532 12.336 12.328 0 6.796-5.54 12.328-12.336 12.328a12.344 12.344 0 0 1-12.328-12.328 12.344 12.344 0 0 1 12.328-12.328z m0 0M476.55568 928.93c23.344 0 42.336-18.992 42.336-42.328 0-23.344-18.992-42.328-42.336-42.328-23.336 0-42.328 18.984-42.328 42.328s18.992 42.328 42.328 42.328z m0-54.656c6.798 0 12.336 5.53 12.336 12.328 0 6.804-5.54 12.328-12.336 12.328a12.344 12.344 0 0 1-12.328-12.328 12.344 12.344 0 0 1 12.328-12.328z m0 0" p-id="3951"></path><path d="M30.95568 690.172s115.336 43.11 115.35 43.11c24.274 9.078 52.22-3.664 61.29-27.94l16.75-44.796c6.61-17.702 1.984-36.898-10.304-49.702l19.71-50.97v395.508c0 29.814 24.25 54.072 54.07 54.072h60.76a15 15 0 0 0 15-15 15 15 0 0 0-15-15h-60.76c-13.274 0-24.07-10.798-24.07-24.072V479.476a15.004 15.004 0 0 0-12.25-14.75 15.006 15.006 0 0 0-16.742 9.336l-47.134 121.906-100.116-37.42 71.07-220.602c15.72-48.798 54.376-86.282 103.554-100.524 0.11 0.766 0.236 1.524 0.352 2.28 6.806 44.97 27.618 88.08 60.36 119.868 21.148 20.524 46.992 37.618 70.296 55.922 40.97 31.22 81.54 63.476 120.65 97 3.1 2.476 24.54 20.352 32.218 26.742v440.22h-137.43a15 15 0 1 0 0 30h327.6c29.822 0 54.072-24.25 54.072-54.072V559.876l19.71 50.968c-12.288 12.804-16.914 32-10.304 49.702 0 0 16.742 44.79 16.75 44.798 9.032 24.172 37.148 36.968 61.29 27.938l115.35-43.11c24.602-9.204 37.134-36.696 27.94-61.298l-16.752-44.804c-6.116-16.36-20.828-27.96-37.812-30.444L893.97768 328.74c-18.96-58.86-65.836-103.938-125.382-120.6l-4.618-1.29c-0.288-30.188-7.328-59.61-21.28-85.57a175.288 175.288 0 0 0-10.102-16.46 15 15 0 0 0-24.672 17.07c35.164 50.826 32.368 119.788 4.258 173.124-22.032 41.788-61.172 72.304-103.36 92.04-11.366 5.32-23.024 9.726-34.688 13.054a151.682 151.682 0 0 0-38.78-79.76c61.14-41.1 93.42-85.74 93.42-129.256 0-35.086-10.576-63.204-31.452-83.57-33.132-32.32-80.288-32.64-85.328-32.586-5.032-0.064-52.196 0.266-85.32 32.586-20.876 20.366-31.454 48.484-31.454 83.57 0 44.196 33.306 89.562 96.328 131.188 32.65 21.57 52.978 57.796 54.376 96.928l0.008 0.228 0.07 80.75-0.57-0.478a6138.664 6138.664 0 0 0-166.4-133.28c-19.436-15.048-38.756-29.11-53.406-49.204-0.038-0.054-0.078-0.1-0.116-0.156-11.454-15.702-20.618-33.9-26.82-53.578-20.774-65.992-1.836-139.96 56.586-180.07C400.59568 52.304 458.18968 44 511.99568 44c44.974 0 108.716 6.89 157.02 39.71a15 15 0 1 0 16.86-24.812C631.26768 21.79 561.18168 14 511.99568 14c-66.612 0-121.838 12.96-164.158 38.524-54.46 32.906-87.212 90.702-87.688 154.288l-4.74 1.328c-59.556 16.656-106.432 61.742-125.392 120.602L57.57968 553.624c-16.984 2.486-31.696 14.086-37.812 30.454l-16.75 44.804c-9.196 24.594 3.336 52.086 27.938 61.29zM512.00168 299.93a138.532 138.532 0 0 0-3.92-2.68c-68.486-45.234-82.86-82.696-82.86-106.148 0-26.61 7.484-47.446 22.248-61.946 24.126-23.702 60.93-24.22 63.96-24.22h0.198c0.21 0.01 0.484 0.01 0.694 0 0.39-0.006 39.14-0.404 64.212 24.22 14.758 14.5 22.24 35.336 22.24 61.938 0 23.46-14.374 60.92-82.858 106.156-1.312 0.876-2.618 1.766-3.914 2.68z m464.132 294.648l16.75 44.804c3.4 9.102-1.24 19.282-10.342 22.688l-115.344 43.118c-8.836 3.304-19.298-1.274-22.688-10.344 0 0-16.72-44.734-16.75-44.804-3.36-8.994 1.382-19.336 10.344-22.68 0 0 114.992-42.984 115.344-43.118 8.992-3.36 19.328 1.344 22.686 10.336zM658.10368 393.484c35.382-23.336 66.766-54.586 84.992-93.266 9.586-20.234 15.89-41.46 18.874-62.764 49.134 14.264 87.742 51.726 103.454 100.492l71.07 220.6-100.118 37.43-47.132-121.906a15.002 15.002 0 0 0-28.992 5.406v475.906c0 13.274-10.796 24.072-24.07 24.072h-160.172V430.68c28.156-7.242 56.57-20.36 82.094-37.196zM31.11968 639.384l16.75-44.806c3.296-8.828 13.71-13.696 22.68-10.336l115.35 43.118c8.868 3.312 13.72 13.648 10.336 22.68l-16.74 44.804c-3.36 8.968-13.736 13.688-22.69 10.344L41.46168 662.07c-9.108-3.406-13.75-13.586-10.342-22.688z m0 0" p-id="3952"></path></svg>