<?xml version="1.0" standalone="no"?><!DOCTYPE svg PUBLIC "-//W3C//DTD SVG 1.1//EN" "http://www.w3.org/Graphics/SVG/1.1/DTD/svg11.dtd"><svg t="1568820420438" class="icon" viewBox="0 0 1024 1024" version="1.1" xmlns="http://www.w3.org/2000/svg" p-id="2141" xmlns:xlink="http://www.w3.org/1999/xlink" width="200" height="200"><defs><style type="text/css"></style></defs><path d="M101.986263 394.343434c0-14.558384 11.920808-26.479192 26.479192-26.479192h767.896565c14.558384 0 26.479192 11.920808 26.479192 26.479192v503.104647c0 14.558384-11.920808 26.479192-26.479192 26.479192H128.465455c-14.558384 0-26.479192-11.920808-26.479192-26.479192V394.343434z m0 503.104647" fill="#68AC9B" p-id="2142"></path><path d="M128.465455 937.166869c-22.509899 0-39.718788-17.208889-39.718788-39.718788V394.343434c0-22.509899 17.208889-39.718788 39.718788-39.718788h767.896565c22.509899 0 39.718788 17.208889 39.718788 39.718788v503.104647c0 22.509899-17.208889 39.718788-39.718788 39.718788H128.465455z m0-556.063031c-7.938586 0-13.239596 5.288081-13.239596 13.239596v503.104647c0 7.938586 5.288081 13.239596 13.239596 13.239596h767.896565c7.951515 0 13.239596-5.288081 13.239596-13.239596V394.343434c0-7.938586-5.288081-13.239596-13.239596-13.239596H128.465455z m767.896565 0" fill="#231C1C" p-id="2143"></path><path d="M565.372121 659.135354c0-102.374141-82.993131-185.354343-185.354343-185.354344-102.374141 0-185.354343 82.980202-185.354344 185.354344s82.993131 185.354343 185.354344 185.354343c102.361212 0 185.354343-82.980202 185.354343-185.354343z m0 0" fill="#FAC546" p-id="2144"></path><path d="M380.017778 857.729293c-109.886061 0-198.593939-88.707879-198.59394-198.593939s88.707879-198.593939 198.59394-198.59394 198.593939 88.707879 198.593939 198.59394-88.707879 198.593939-198.593939 198.593939z m0-370.708687c-95.327677 0-172.114747 76.8-172.114748 172.114748 0 95.327677 76.787071 172.114747 172.114748 172.114747s172.114747-76.787071 172.114747-172.114747-76.787071-172.114747-172.114747-172.114748z m0 0" fill="#231C1C" p-id="2145"></path><path d="M855.311515 818.010505c0-21.20404-17.18303-38.4-38.4-38.4-21.20404 0-38.4 17.19596-38.4 38.4 0 13.71798 7.31798 26.388687 19.2 33.254141 11.88202 6.852525 26.51798 6.852525 38.4 0a38.376727 38.376727 0 0 0 19.2-33.254141z m0 0" fill="#FAC546" p-id="2146"></path><path d="M816.924444 869.650101c-29.129697 0-51.639596-23.828687-51.639596-51.639596 0-27.79798 23.828687-51.626667 51.639596-51.626667 27.79798 0 51.639596 23.828687 51.639596 51.626667s-22.509899 51.639596-51.639596 51.639596z m0-76.8c-14.571313 0-25.160404 11.920808-25.160404 25.160404s11.920808 25.160404 25.160404 25.160404 25.160404-11.920808 25.160404-25.160404-10.60202-25.160404-25.160404-25.160404z m0 0" fill="#231C1C" p-id="2147"></path><path d="M737.486869 818.010505c0-21.928081-17.777778-39.718788-39.718788-39.718788-21.928081 0-39.718788 17.777778-39.718788 39.718788s17.777778 39.718788 39.718788 39.718788c21.928081 0 39.718788-17.777778 39.718788-39.718788z m0 0" fill="#FAC546" p-id="2148"></path><path d="M697.768081 870.968889c-29.129697 0-52.958384-23.828687-52.958384-52.958384s23.828687-52.958384 52.958384-52.958384 52.958384 23.828687 52.958384 52.958384-23.828687 52.958384-52.958384 52.958384z m0-79.437576c-14.571313 0-26.479192 11.920808-26.479192 26.479192 0 14.571313 11.907879 26.479192 26.479192 26.479192s26.479192-11.920808 26.479192-26.479192-11.920808-26.479192-26.479192-26.479192z m-30.448485-618.291717c-2.650505-1.318788-5.30101-3.969293-6.619798-6.619798l-10.589091-25.147475c-2.650505-6.619798 1.318788-14.571313 7.951515-17.208889l84.738586-35.749495c7.951515-2.650505 14.571313 1.318788 17.208889 6.619798L770.585859 120.281212c1.318788 3.969293 1.318788 7.938586 0 10.589091s-3.969293 5.30101-6.619798 6.619798l-86.057374 34.417778c-1.318788 1.318788-3.969293 1.318788-5.30101 1.318788h-5.288081z m11.907879-30.448485l10.589091-3.969293-10.589091 3.969293z m10.60202-3.969293" fill="#231C1C" p-id="2149"></path><path d="M157.672727 370.152727l-9.955555-24.539798 515.245252-209.131313 9.955556 24.539798L157.672727 370.152727z m235.584647 474.33697h-26.479192V473.78101h26.479192v370.708687z m0-370.708687M432.976162 500.260202h26.479192v317.750303h-26.479192zM300.580202 500.260202h26.479192v317.750303h-26.479192zM234.382222 539.97899h26.479192v238.312727H234.382222zM499.174141 539.97899h26.479192v238.312727h-26.479192zM552.132525 434.062222H869.882828v26.479192H552.132525z" fill="#231C1C" p-id="2150"></path></svg>