<svg height="512pt" viewBox="0 -61 512.00001 512" width="512pt" xmlns="http://www.w3.org/2000/svg"><path d="m355.898438 382.695312c-13.398438 0-24.261719-10.859374-24.261719-24.257812v-22.921875l48.519531-32.699219v55.621094c0 13.398438-10.859375 24.257812-24.257812 24.257812zm0 0" fill="#afacb3"/><path d="m149.996094 382.695312c-13.398438 0-24.257813-10.859374-24.257813-24.257812v-22.921875l48.519531-33.375v56.296875c0 13.398438-10.863281 24.257812-24.261718 24.257812zm0 0" fill="#afacb3"/><path d="m435.527344 149.78125-3.4375 11.515625-50.21875 168.457031-1.710938 5.757813h-48.523437v22.925781c0 3.839844-.894531 7.480469-2.496094 10.703125-1.175781 2.40625-2.746094 4.585937-4.613281 6.449219-4.390625 4.390625-10.453125 7.109375-17.144532 7.109375-13.402343 0-24.261718-10.871094-24.261718-24.261719v-22.925781h-157.382813v22.925781c0 2.027344-.253906 4.003906-.71875 5.890625-2.636719 10.550781-12.179687 18.371094-23.542969 18.371094-13.394531 0-24.253906-10.871094-24.253906-24.261719v-22.925781h-46.414062l11.578125-53.664063h-34.785157c0-29.535156 36.003907-69.621094 36.003907-69.621094h-36.003907c0-40.078124 52.882813-73.78125 52.882813-73.78125l-33.894531-8.484374c18.917968-40.152344 78.25-57.023438 78.25-57.023438l-36.0625-12.589844c14.773437-37.980468 100.292968-19.953125 100.292968-19.953125l-26.453124-26.464843c37.972656-20.507813 90.703124 20.511718 90.703124 20.511718v-26.835937c56.957032 0 83.269532 40.351562 83.269532 40.351562v-30.792969c47.398437 9.550782 67.503906 67.503907 67.503906 67.503907l22.214844-22.210938c27.421875 27.414063 29.21875 87.324219 29.21875 87.324219zm0 0" fill="#7c4242"/><path d="m432.484375 167.390625-48.402344 162.363281h-305.410156l10.121094-46.921875h-30.40625c0-25.8125 31.46875-60.855469 31.46875-60.855469h-31.46875c0-35.039062 46.222656-64.5 46.222656-64.5l-29.625-7.421874c16.546875-35.101563 68.40625-49.851563 68.40625-49.851563l-31.523437-11.011719c12.90625-33.195312 87.679687-17.4375 87.679687-17.4375l-23.125-23.128906c33.195313-17.933594 79.292969 17.925781 79.292969 17.925781v-23.460937c49.792968 0 72.789062 35.273437 72.789062 35.273437v-26.917969c41.433594 8.355469 59.015625 59.015626 59.015625 59.015626l19.414063-19.425782c18.980468 18.980469 23.917968 55.753906 25.15625 70.261719.324218 3.824219.394531 6.09375.394531 6.09375zm0 0" fill="#936a60"/><path d="m504.394531 218.652344c-38.03125 0-68.863281-30.832032-68.863281-68.867188l-59.546875.921875c-23.386719.261719-43.992187 9.199219-59.398437 23.730469-5.152344-3.445312-11.34375-5.453125-18.003907-5.453125-17.917969 0-32.445312 14.523437-32.445312 32.441406 0 14.339844 9.308593 26.5 22.207031 30.785157-.390625 3.574218-.59375 7.210937-.59375 10.898437 0 51.035156 41.371094 92.40625 92.40625 92.40625h7.375c64.542969 0 116.863281-52.320313 116.863281-116.863281zm0 0" fill="#e6e6e6"/><path d="m393.957031 289.214844-13.796875 46.296875h-48.523437v22.921875c0 6.691406-2.71875 12.765625-7.109375 17.15625-4.390625 4.386718-10.453125 7.105468-17.144532 7.105468-13.402343 0-24.261718-10.867187-24.261718-24.261718v-22.921875h-157.382813v22.921875c0 13.394531-10.859375 24.261718-24.261719 24.261718-13.394531 0-24.253906-10.867187-24.253906-24.261718v-22.921875c9.796875-91.667969 222.839844-46.296875 222.839844-46.296875zm0 0" fill="#c4becc"/><path d="m501.9375 242.644531c-1.289062 6.15625-3.050781 12.136719-5.261719 17.894531h-.011719c-16.839843 43.851563-59.351562 74.976563-109.132812 74.976563h-7.371094c-25.519531 0-48.625-10.339844-65.34375-27.058594-16.71875-16.730469-27.058594-39.828125-27.058594-65.34375v-.152343c.039063 12.996093 10.371094 24.765624 27.058594 33.285156 16.71875 8.535156 39.824219 13.816406 65.34375 13.816406h7.371094c49.78125 0 92.292969-15.886719 109.132812-38.28125h.011719c2.210938-2.941406 3.972657-5.992188 5.261719-9.136719zm0 0" fill="#c4becc"/><path d="m504.398438 218.652344c0 14.761718-2.738282 28.886718-7.726563 41.882812h-.007813c-19.832031-3.640625-34.847656-21.007812-34.847656-41.882812 0-4.59375.730469-9.011719 2.078125-13.160156 11.367188 8.285156 25.367188 13.160156 40.503907 13.160156zm0 0" fill="#4f5263"/><path d="m405.039062 237.925781c0 7.28125-5.902343 13.183594-13.179687 13.183594-7.28125 0-13.179687-5.902344-13.179687-13.183594 0-7.277343 5.898437-13.179687 13.179687-13.179687 7.277344 0 13.179687 5.902344 13.179687 13.179687zm0 0" fill="#4f5263"/><path d="m512 218.652344c0-4.199219-3.402344-7.605469-7.605469-7.605469-33.777343 0-61.261719-27.480469-61.261719-61.261719 0-.035156-.003906-.074218-.003906-.109375 0-.039062.003906-.078125 0-.121093-.078125-2.566407-2.226562-63.261719-31.445312-92.480469-2.972656-2.96875-7.785156-2.96875-10.753906 0l-14.261719 14.261719c-3.234375-6.769532-8.238281-15.917969-15.195313-25.15625-2.527344-3.355469-7.296875-4.023438-10.652344-1.496094-3.351562 2.527344-4.023437 7.292968-1.496093 10.648437 11.902343 15.792969 17.527343 31.675781 17.582031 31.828125.859375 2.472656 2.929688 4.332032 5.480469 4.917969 2.558593.585937 5.226562-.183594 7.078125-2.035156l16.445312-16.441407c15.40625 20.507813 20.105469 53.753907 21.480469 68.703126l-51.492187.796874c-22.339844.25-43.546876 8.042969-60.316407 22.058594-5.289062-2.484375-11.070312-3.78125-17-3.78125-22.082031 0-40.046875 17.964844-40.046875 40.046875 0 15.21875 8.542969 28.878907 21.78125 35.644531-.113281 2.019532-.171875 4.035157-.171875 6.039063 0 12.636719 2.363281 24.734375 6.660157 35.875-28.96875-5.007813-94.390626-14.03125-145.757813-4.300781-4.125.78125-6.835937 4.757812-6.058594 8.886718.785157 4.125 4.769531 6.835938 8.886719 6.054688 56.839844-10.769531 134.945312 3.195312 151.457031 6.402344 8.316407 13.28125 19.65625 24.484375 33.054688 32.621094-2.570313 1.222656-4.351563 3.832031-4.351563 6.867187v22.921875c0 9.183594-7.472656 16.652344-16.65625 16.652344-9.1875 0-16.65625-7.46875-16.65625-16.652344v-22.921875c0-4.199219-3.402344-7.605469-7.605468-7.605469h-157.378907c-4.199219 0-7.605469 3.40625-7.605469 7.605469v22.921875c0 9.183594-7.46875 16.652344-16.652343 16.652344-9.1875 0-16.65625-7.46875-16.65625-16.652344v-22.457031c2.042969-17.972657 13.230469-30.839844 34.199219-39.320313 3.890624-1.574218 5.769531-6.007812 4.195312-9.902344-1.570312-3.890624-6.003906-5.773437-9.898438-4.195312-23.847656 9.644531-38.132812 24.882812-42.570312 45.347656h-30.523438l9.59375-44.464844c.484376-2.246093-.074218-4.589843-1.515624-6.378906-1.445313-1.785156-3.621094-2.828125-5.917969-2.828125h-26.320313c4.417969-21.066406 24.777344-47.542969 33.191406-56.929687 2.007813-2.230469 2.511719-5.433594 1.289063-8.175782-1.222656-2.742187-3.945313-4.507812-6.945313-4.507812h-27.664062c6.082031-32.203125 48.175781-59.472656 48.628906-59.761719 2.5625-1.632812 3.90625-4.632812 3.417969-7.632812-.484375-2.996094-2.710937-5.417969-5.65625-6.15625l-24.171875-6.058594c20.871094-30.753906 68.25-44.617187 68.761719-44.761719 3.191406-.910156 5.425781-3.777344 5.523437-7.089844.09375-3.316406-1.964844-6.3125-5.09375-7.40625l-27.113281-9.46875c9.40625-9.878906 28.441406-12.371093 44.085937-12.554687 22.171876-.253906 42.980469 4.054687 43.1875 4.097656 3.289063.695313 6.648438-.859375 8.253907-3.816406 1.601562-2.957031 1.070312-6.621094-1.308594-9l-18.140625-18.136719c32.113281-7.210937 71.90625 23.230469 72.34375 23.566406 2.292969 1.785157 5.402344 2.105469 8.007812.828126 2.609376-1.273438 4.265626-3.925782 4.265626-6.832032v-18.976562c46.636718 3.210937 68.351562 35.230468 69.285156 36.644531 1.839844 2.820313 5.3125 4.09375 8.535156 3.136719 3.226562-.960938 5.4375-3.921875 5.4375-7.289063v-20.722656c6.335938 2.382813 12.4375 5.886719 18.21875 10.46875 3.292969 2.609375 8.074219 2.054687 10.683594-1.238281 2.605468-3.289063 2.054687-8.074219-1.238282-10.683594-10.40625-8.246094-21.765624-13.652344-33.765624-16.074219-2.230469-.449219-4.550782.125-6.316407 1.570313-1.765625 1.445312-2.789062 3.605468-2.789062 5.886718v11.0625c-14.019531-12.601562-38.832031-28.226562-75.65625-28.226562-4.199219 0-7.605469 3.40625-7.605469 7.605469v12.523437c-18.964844-11.589844-56.273438-29.332031-86.71875-12.886718-2.113281 1.140624-3.5625 3.214843-3.910156 5.589843-.347656 2.378907.449218 4.777344 2.148437 6.476563l10.285157 10.285156c-6.9375-.671875-14.898438-1.152344-23.136719-1.070312-34.238281.355468-55.332031 10.132812-62.691407 29.0625-.75 1.921874-.683593 4.066406.179688 5.941406.863281 1.871094 2.453125 3.3125 4.398438 3.996094l16.210937 5.660156c-20.140625 8.878906-49.785156 25.976562-62.773437 53.53125-.96875 2.058594-.964844 4.441406.007812 6.496094.972656 2.058593 2.816406 3.570312 5.023438 4.121093l18.25 4.574219c-16.707032 13.589844-42.992188 39.824219-42.992188 70.320312 0 4.199219 3.402344 7.605469 7.605469 7.605469h20.0625c-2.617188 3.476563-5.515625 7.523438-8.421875 11.957031-12.769532 19.457032-19.246094 36.296876-19.246094 50.054688 0 4.199219 3.402344 7.601562 7.605469 7.601562h25.363281l-9.59375 44.46875c-.484375 2.246094.074219 4.589844 1.519531 6.378907 1.441407 1.785156 3.617188 2.824219 5.914063 2.824219h38.804687v15.316406c0 17.570312 14.296875 31.863281 31.867188 31.863281 9.84375 0 18.660156-4.488281 24.511719-11.53125 5.851562 7.042969 14.664062 11.53125 24.511718 11.53125 17.570313 0 31.867188-14.292969 31.867188-31.863281v-15.316406h93.144531v15.316406c0 17.570312 14.296875 31.863281 31.863281 31.863281 9.847656 0 18.664063-4.488281 24.515625-11.53125 5.847657 7.042969 14.664063 11.53125 24.511719 11.53125 17.570312 0 31.863281-14.292969 31.863281-31.863281v-15.324219c68.292969-.398437 123.730469-56.070313 123.730469-124.457031zm-344.839844 139.785156c0 9.183594-7.472656 16.652344-16.65625 16.652344s-16.65625-7.46875-16.65625-16.652344v-15.316406h33.3125zm324.648438-107.136719c-13.28125-5.097656-22.386719-17.949219-22.386719-32.648437 0-.292969.023437-.582032.03125-.875 8.277344 4.269531 17.421875 7.089844 27.105469 8.078125-.578125 8.804687-2.203125 17.328125-4.75 25.445312zm-118.746094 107.136719c0 9.183594-7.472656 16.652344-16.65625 16.652344-9.1875 0-16.65625-7.46875-16.65625-16.652344v-15.316406h33.308594v15.316406zm14.46875-30.527344h-7.371094c-46.761718 0-84.804687-38.039062-84.804687-84.800781 0-3.335937.183593-6.726563.546875-10.074219.390625-3.558594-1.761719-6.90625-5.160156-8.039062-10.167969-3.378906-17-12.851563-17-23.570313 0-13.695312 11.140624-24.839843 24.839843-24.839843 4.929688 0 9.695313 1.445312 13.777344 4.171874 2.949219 1.96875 6.867187 1.640626 9.441406-.789062 14.777344-13.9375 33.542969-21.425781 54.300781-21.660156l52.210938-.808594c2.046875 20.351562 12.109375 38.367188 26.972656 50.847656-.707031 3.378906-1.070312 6.824219-1.070312 10.304688 0 21.046875 13.023437 39.457031 32.035156 46.804687-17.5625 36.894531-55.210938 62.453125-98.71875 62.453125zm0 0"/><path d="m391.859375 217.144531c-11.460937 0-20.785156 9.324219-20.785156 20.78125 0 11.460938 9.324219 20.785157 20.785156 20.785157s20.785156-9.324219 20.785156-20.785157c0-11.457031-9.324219-20.78125-20.785156-20.78125zm0 26.359375c-3.074219 0-5.578125-2.5-5.578125-5.578125 0-3.074219 2.503906-5.574219 5.578125-5.574219s5.574219 2.5 5.574219 5.574219c0 3.078125-2.5 5.578125-5.574219 5.578125zm0 0"/></svg>