<?xml version="1.0" encoding="utf-8"?>
<!-- Generator: Adobe Illustrator 23.0.6, SVG Export Plug-In . SVG Version: 6.00 Build 0)  -->
<svg version="1.1" id="Layer_1" xmlns="http://www.w3.org/2000/svg" xmlns:xlink="http://www.w3.org/1999/xlink" x="0px" y="0px"
	 viewBox="0 0 200 200" style="enable-background:new 0 0 200 200;" xml:space="preserve">
<style type="text/css">
	.st0{fill:#2C2C2C;}
	.st1{fill:#FFE04A;}
	.st2{fill:#FFD05A;}
	.st3{fill:#FFFFFF;}
</style>
<path class="st0" d="M30.3,33.5c-0.9,0-1.8-0.4-2.1-0.5l-0.1-0.1c-2.2-1.2-2.9-4-1.7-6.1c3.4-6.6,10.4-10.7,18.1-10.7
	c3.2,0,6.2,0.7,9,2.1l0.1,0.1c2,1.2,2.9,3.5,2,5.8l-0.1,0.2l-0.1,0.1c-0.8,1.5-2.4,2.4-4,2.4c-0.6,0-1.2-0.1-1.7-0.3l-0.1,0l-0.1,0
	c-1.6-0.8-3.4-1.2-5.2-1.2c-4.3,0-8.2,2.3-10.1,5.9C33.7,32.5,32,33.5,30.3,33.5z M162.8,22.8c-1.5,0-3-0.9-3.9-2.3l-0.1-0.1
	c-1.9-3.7-5.8-6-10.2-6c-1.8,0-3.5,0.4-5.1,1.2c-0.6,0.3-1.2,0.5-1.9,0.5c-1.6,0-3.2-1-4.1-2.4c-1.2-2.1-0.3-4.8,1.9-6.1l0.1-0.1
	c2.8-1.4,5.9-2.1,9-2.1c7.7,0,14.7,4.1,18.1,10.8c0.6,1,0.7,2.2,0.3,3.4c-0.3,1.1-1.1,2-2.1,2.6l-0.1,0.1
	C164.5,22.5,163.8,22.8,162.8,22.8z"/>
<path class="st0" d="M30.3,31.5c-0.3,0-0.8-0.2-1.2-0.3c-1.2-0.7-1.7-2.2-1-3.3c4.5-8.7,15.5-12.2,24.5-7.8c1.2,0.7,1.7,2,1.2,3.3
	c-0.7,1.2-2,1.7-3.3,1.2c-6.7-3.2-14.7-0.7-18,5.7C32.2,31,31.2,31.5,30.3,31.5z M162.8,20.8c-0.8,0-1.7-0.5-2.2-1.3
	c-3.3-6.3-11.3-8.8-18-5.7c-1.2,0.7-2.7,0-3.3-1.2s0-2.7,1.2-3.3c9-4.3,20-0.8,24.5,7.8c0.7,1.2,0.2,2.7-1,3.3
	C163.7,20.7,163.3,20.8,162.8,20.8L162.8,20.8z"/>
<path class="st1" d="M187.3,100c0,45.2-38,81.7-85,81.7s-85-36.5-85-81.7s38-81.7,85-81.7C149.2,18.3,187.3,54.8,187.3,100"/>
<path class="st2" d="M101.3,156c-35.2,0-65.5-11.2-80-35.2c10,34.2,42,59.2,80,59.2s70-25,80-59.2C166.8,144.8,136.5,156,101.3,156"
	/>
<path class="st0" d="M109.8,148.2c-4,0-6.5-0.6-7.1-0.9c-1-0.4-1.8-1.2-2.3-2.2c-0.5-1.1-0.6-2.2-0.2-3.3c0.7-1.7,2.3-2.8,4-2.8
	c0.5,0,0.9,0.1,1.4,0.3c0.2,0.1,1.7,0.4,4.2,0.4c3.4,0,9.2-0.6,17.2-3.5c12.6-4.6,18.6-12.9,20.1-15.3l0.1-0.1
	c0.7-1.4,2.1-2.2,3.7-2.2c0.6,0,1.1,0.1,1.7,0.3c1.1,0.4,1.9,1.2,2.3,2.2c0.5,1,0.5,2.2,0.1,3.2l0,0c-1,2.3-8.2,13.8-24.9,19.9
	C122.5,146.8,115.7,148.2,109.8,148.2z M129.2,105.4c-7.6,0-13.9-2.5-18.6-7.4c-9.9-10.4-9.5-27.8-9.4-29.1c0-0.5,0-3.5,2.8-6.8
	c3.3-3.8,10.9-8.6,28.8-9.7c1.7-0.1,3.4-0.2,5-0.2c27.8,0,30.6,15.8,30.7,16.5l0,0.1l0,0.1c0,0.3-2.8,33-35.6,36.3
	C131.6,105.3,130.4,105.4,129.2,105.4z M47,105.4c-7.7,0-14-2.5-18.7-7.4c-9.9-10.4-9.4-27.8-9.3-29.1c0-0.5,0-3.5,2.8-6.8
	c3.3-3.8,10.9-8.6,28.8-9.7c1.7-0.1,3.4-0.2,5-0.2c27.8,0,30.6,15.8,30.7,16.5l0,0.1l0,0.1c0,0.3-2.8,33-35.6,36.3
	C49.5,105.3,48.2,105.4,47,105.4z"/>
<path class="st0" d="M109.8,147.2c-4,0-6.3-0.7-6.7-0.8c-1.7-0.7-2.7-2.5-2-4.2c0.7-1.7,2.5-2.7,4.2-2c0,0,7.5,2.2,22-3.2
	s20.3-15.3,20.7-15.8c0.8-1.5,2.5-2.2,4.2-1.5c1.7,0.7,2.5,2.5,1.8,4.2c0,0.2-6.5,12.8-24.3,19.3
	C120.8,146.3,114.3,147.2,109.8,147.2L109.8,147.2z M85.3,68.8c0,0-2.3,32.2-34.7,35.3C18.2,107.3,20,68.8,20,68.8
	s-1.2-13.5,30.7-15.5C82.5,51.3,85.3,68.8,85.3,68.8 M167.5,68.8c0,0-2.3,32.2-34.7,35.3s-30.7-35.3-30.7-35.3s-1.2-13.5,30.7-15.5
	C164.7,51.3,167.5,68.8,167.5,68.8"/>
<path class="st0" d="M92.8,73.2c-11.5,0-16.2-3.3-16.7-3.8c-1-0.8-1.3-2.3-0.5-3.5c0.8-1,2.3-1.3,3.5-0.5c0,0,4.5,3.2,15.8,2.8
	c11.3-0.3,17.7-6,18-6.2c0.8-0.8,2.3-1,3.3-0.2s1.2,2.3,0.3,3.5c0,0-7.7,7.3-21.3,7.8C95.3,73.2,92.8,73.2,92.8,73.2z"/>
<path class="st3" d="M28.5,77.7C27,77.5,26,76.3,26,75c0-0.3,0.5-8.5,5.2-13.2c4.7-4.7,10.7-4.5,10.8-4.5c1.3,0,2.5,1.2,2.3,2.5
	c0,1.3-1.2,2.3-2.5,2.3c-0.2,0-4.2,0-7.3,3.2c-2.7,2.7-3.7,8-3.8,10C30.8,76.7,29.8,77.7,28.5,77.7z M111,76.2c-0.2,0-0.5,0-0.7-0.2
	c-1.3-0.3-2-1.7-1.7-3c0.2-0.3,2.3-8.3,7.8-11.8c5.5-3.5,11.3-2.3,11.5-2.2c1.3,0.3,2.2,1.7,1.8,3c-0.3,1.3-1.7,2.2-3,1.8
	c0,0-4-0.8-7.8,1.7c-3.3,2.2-5.3,7.2-5.8,9C113,75.5,112,76.2,111,76.2L111,76.2z"/>
<path class="st0" d="M102.2,185.2c-48.8,0-88.5-38.2-88.5-85.2s39.7-85.2,88.5-85.2c48.8,0,88.5,38.2,88.5,85.2
	S151,185.2,102.2,185.2z M102.2,21.8c-44.9,0-81.5,35.1-81.5,78.2c0,43.1,36.6,78.2,81.7,78.2S184,143.1,184,100
	C183.8,56.9,147.1,21.8,102.2,21.8z"/>
<path class="st0" d="M102.2,184.2c-48.2,0-87.5-37.8-87.5-84.2s39.2-84.2,87.5-84.2c48.2,0,87.5,37.7,87.5,84.2
	C189.7,146.3,150.5,184.2,102.2,184.2z M102.2,20.8c-45.5,0-82.5,35.5-82.5,79.2s37,79.2,82.7,79.2c45.5,0,82.7-35.5,82.7-79.2
	C184.8,56.3,147.8,20.8,102.2,20.8L102.2,20.8z"/>
</svg>
