<?xml version="1.0" encoding="iso-8859-1"?>
<!-- Generator: Adobe Illustrator 19.0.0, SVG Export Plug-In . SVG Version: 6.00 Build 0)  -->
<svg version="1.1" id="Capa_1" xmlns="http://www.w3.org/2000/svg" xmlns:xlink="http://www.w3.org/1999/xlink" x="0px" y="0px"
	 viewBox="0 0 512.001 512.001" style="enable-background:new 0 0 512.001 512.001;" xml:space="preserve">
<path style="fill:#FEC9A3;" d="M100.96,93.861L100.96,93.861c26.127-52.306,79.585-85.345,138.06-85.328h15.53
	c56.282,0.017,108.102,30.65,135.244,79.952l0,0c30.752,55.983,28.653,124.254-5.461,178.249L260.182,462.988
	c-15.751,25.214-43.398,40.505-73.126,40.445l0,0c-47.553,0-86.096-38.542-86.096-86.096
	C100.96,417.338,100.96,93.861,100.96,93.861z"/>
<path style="fill:#F7BB8F;" d="M183.302,255.984v-26.537c0-10.299-4.079-20.18-11.349-27.475l0,0
	c-19.088-19.241-25.692-47.604-17.066-73.296l0,0c12.014-36,45.667-60.31,83.621-60.412l0,0
	c39.575,0.009,75.95,21.733,94.714,56.572l0,0c18.158,33.662,17.091,74.431-2.816,107.086l-60.753,99.748
	c-16.502,27.194-46.009,43.79-77.819,43.773l0,0c-4.71,0-8.533-3.823-8.533-8.533L183.302,255.984L183.302,255.984z"/>
<path style="fill:#E8A779;" d="M257.281,124.152c16.571,28.909,16.571,64.439,0,93.348l-39.08,68.262
	c-2.338,4.087-0.93,9.301,3.166,11.647c0.026,0.017,0.051,0.034,0.077,0.043c1.271,0.725,2.713,1.101,4.181,1.109
	c3.063,0.009,5.896-1.613,7.424-4.266l39.08-68.262c19.489-34.302,19.301-76.377-0.512-110.499
	c-9.813-17.066-31.401-34.131-52.135-45.224c-7.782,1.689-15.299,4.411-22.356,8.106C218.627,87.12,246.7,106.063,257.281,124.152z"
	/>
<path d="M396.877,84.39C368.335,32.451,313.819,0.129,254.55,0.001h-15.53C177.286-0.17,120.816,34.729,93.366,90.021l15.188,7.679
	c24.557-49.55,75.165-80.822,130.466-80.635h15.53c53.253-0.102,102.333,28.849,127.991,75.515
	c29.259,53.236,27.305,118.17-5.12,169.546L253.27,458.381c-22.305,36.571-70.037,48.133-106.608,25.829
	c-23.286-14.207-37.399-39.592-37.169-66.871v-41.896H92.428v41.896c-0.017,52.263,42.34,94.645,94.594,94.662
	c32.501,0.009,62.733-16.656,80.071-44.149l123.981-196.595C426.878,214.668,429.096,143.095,396.877,84.39z"/>
<path d="M262.4,327.317c-15.086,24.515-41.776,39.49-70.566,39.592v17.066c34.822-0.068,67.119-18.192,85.328-47.869l60.583-99.748
	c33.363-54.832,15.965-126.328-38.867-159.691c-18.192-11.067-39.072-16.929-60.369-16.938c-41.742-0.034-78.817,26.682-91.983,66.3
	c-9.685,28.764-2.176,60.531,19.369,81.915c5.58,5.76,8.644,13.49,8.533,21.503v26.537h17.066v-26.537
	c-0.009-12.449-4.949-24.387-13.738-33.192c-16.938-16.852-22.825-41.87-15.188-64.508c7.304-21.989,23.806-39.711,45.224-48.551
	c20.726,7.637,38.159,22.236,49.319,41.299c16.571,28.909,16.571,64.439,0,93.348l-39.08,68.262l14.847,8.533l39.08-68.262
	c19.677-34.361,19.549-76.599-0.341-110.841c-9.079-15.734-21.844-29.037-37.203-38.739h4.096
	c54.755,0.222,98.972,44.788,98.75,99.552c-0.077,18.047-5.068,35.727-14.446,51.137L262.4,327.317z"/>
<g>
</g>
<g>
</g>
<g>
</g>
<g>
</g>
<g>
</g>
<g>
</g>
<g>
</g>
<g>
</g>
<g>
</g>
<g>
</g>
<g>
</g>
<g>
</g>
<g>
</g>
<g>
</g>
<g>
</g>
</svg>
