<svg id="FillOutline" height="512" viewBox="0 0 512 512" width="512" xmlns="http://www.w3.org/2000/svg"><path d="m112 408h288v56h-288z" fill="#d69f44"/><path d="m368 256v64a40 40 0 0 1 -40 40h-72v16h-80a16 16 0 1 1 -32 0v-120a40 40 0 0 1 40-40h24.79a9.991 9.991 0 0 0 9.49-6.84l5.72-17.16h64l5.72 17.16a9.991 9.991 0 0 0 9.49 6.84h24.79a40 40 0 0 1 40 40z" fill="#ecaf4a"/><path d="m176 376v-72l104-16 32.73-72h15.27a40 40 0 0 1 40 40v64a40 40 0 0 1 -40 40v16z" fill="#f9c468"/><path d="m282 80h-2a24 24 0 0 0 -48 0h-2a30 30 0 0 0 -30 30v42a56 56 0 0 0 56 56 56 56 0 0 0 56-56v-42a30 30 0 0 0 -30-30z" fill="#f9c468"/><path d="m176 456h160v-27.63h96v35.63l-24 24h-304l-24-24v-35.63h96z" fill="#ecaf4a"/><path d="m282 80h-2a24 24 0 0 0 -48 0h-2a30 30 0 0 0 -30 30v26l24-16h64l24 16v-26a30 30 0 0 0 -30-30z" fill="#ecaf4a"/><path d="m256 360v48l-140.88 20.13a23.759 23.759 0 1 1 -6.72-47.04l35.6-5.09 32-4.57z" fill="#f9c468"/><path d="m256 408 140.881 20.126a23.759 23.759 0 0 0 27.119-23.52 23.758 23.758 0 0 0 -20.4-23.52l-147.6-21.086z" fill="#f9c468"/><path d="m256 408h24a24 24 0 0 0 24-24 24 24 0 0 0 -24-24h-24z" fill="#ecaf4a"/><path d="m176 371.43v4.57a16 16 0 0 1 -32 0z" fill="#ecaf4a"/><path d="m180.321 187.073a95.04 95.04 0 0 1 -20.321-59.073 96 96 0 0 1 192 0 95.04 95.04 0 0 1 -20.321 59.073l12.605 9.855a110.9 110.9 0 0 0 23.716-68.928 112 112 0 0 0 -224 0 110.9 110.9 0 0 0 23.716 68.928z"/><path d="m432 420.37h-4.2a31.746 31.746 0 0 0 -23.071-47.2l-59.269-8.47a48.066 48.066 0 0 0 30.54-44.7v-64a48.054 48.054 0 0 0 -48-48h-24.79a2 2 0 0 1 -1.9-1.37l-2.4-7.191a63.85 63.85 0 0 0 21.09-47.439v-42a38.06 38.06 0 0 0 -32.927-37.663 32.005 32.005 0 0 0 -62.146 0 38.06 38.06 0 0 0 -32.927 37.663v42a63.85 63.85 0 0 0 21.088 47.439l-2.4 7.2a2 2 0 0 1 -1.9 1.365h-24.788a48.054 48.054 0 0 0 -48 48v113.058l-28.722 4.107a31.741 31.741 0 0 0 -23.08 47.2h-4.198a8 8 0 0 0 -8 8v35.631a8 8 0 0 0 2.343 5.657l24 24a8 8 0 0 0 5.657 2.343h304a8 8 0 0 0 5.657-2.343l24-24a8 8 0 0 0 2.343-5.657v-35.63a8 8 0 0 0 -8-8zm-248 6 72-10.288 72 10.288v21.63h-144zm112-42.37a16.019 16.019 0 0 1 -16 16h-16v-32h16a16.019 16.019 0 0 1 16 16zm116.15 10.286a15.763 15.763 0 0 1 -14.138 25.924l-95.364-13.626a31.972 31.972 0 0 0 8.32-30.653l91.51 13.08a15.709 15.709 0 0 1 9.672 5.275zm-52.15-138.286v64a32.036 32.036 0 0 1 -32 32h-72a8 8 0 0 1 0-16h60a28.032 28.032 0 0 0 28-28v-36h-16v36a12.013 12.013 0 0 1 -12 12h-60a24.011 24.011 0 0 0 -21.353 34.97l-50.647 7.236v-51.342l81.177-12.487a37.88 37.88 0 0 0 28.815-21.836l23.889-52.541h10.119a32.036 32.036 0 0 1 32 32zm-130-168h2a8 8 0 0 0 8-8 16 16 0 0 1 32 0 8 8 0 0 0 8 8h2a22.025 22.025 0 0 1 22 22v11.052l-11.562-7.708a8 8 0 0 0 -4.438-1.344h-64a8 8 0 0 0 -4.438 1.344l-11.562 7.708v-11.052a22.025 22.025 0 0 1 22-22zm-22 64v-11.719l18.422-12.281h59.156l18.422 12.281v11.719a48 48 0 0 1 -96 0zm-56 104a32.036 32.036 0 0 1 32-32h24.79a17.973 17.973 0 0 0 17.08-12.31l.924-2.772a63.763 63.763 0 0 0 58.412 0l.923 2.767a17.967 17.967 0 0 0 14.276 12.1l-20.978 46.14a21.934 21.934 0 0 1 -16.683 12.643l-78.744 12.107v-22.675h-16v104a8 8 0 1 1 -16 0zm-52.145 138.279a15.719 15.719 0 0 1 9.677-5.27l28.2-4.032a24.006 24.006 0 0 0 46.148-6.592l64.12-9.161v31.838l-134.009 19.148a15.762 15.762 0 0 1 -14.136-25.931zm324.145 66.407-19.313 19.314h-297.374l-19.313-19.314v-24.316h80v19.63a8 8 0 0 0 8 8h160a8 8 0 0 0 8-8v-19.63h80z"/><path d="m248 424h16v16h-16z"/></svg>