<?xml version="1.0" encoding="iso-8859-1"?>
<!-- Generator: Adobe Illustrator 19.0.0, SVG Export Plug-In . SVG Version: 6.00 Build 0)  -->
<svg version="1.1" id="Capa_1" xmlns="http://www.w3.org/2000/svg" xmlns:xlink="http://www.w3.org/1999/xlink" x="0px" y="0px"
	 viewBox="0 0 480.005 480.005" style="enable-background:new 0 0 480.005 480.005;" xml:space="preserve">
<path style="fill:#F8C09C;" d="M472.003,46.589C402.079-12.438,297.544-3.605,238.516,66.319
	c-22.208,26.308-35.67,58.88-38.514,93.191v216h112v96h144v-160.68c5.57-3.675,10.913-7.682,16-12V46.589z"/>
<path style="fill:#EF937D;" d="M320.003,207.509c-22.08-0.026-39.974-17.92-40-40h16c0,13.255,10.745,24,24,24s24-10.745,24-24h16
	C359.976,189.59,342.083,207.483,320.003,207.509z"/>
<path style="fill:#D1E3EE;" d="M168.027,201.989l72-2.48v144l-232-8v-128l32-1.104L168.027,201.989z"/>
<path style="fill:#88D0EF;" d="M40.027,206.405l-32,1.104v128l232,8l-139.2-139.208L40.027,206.405z"/>
<g>
	<path style="fill:#F8C09C;" d="M112.003,343.509v-4.416l-88-3.04v135.456h104l-3.856-17.336
		C116.075,417.838,112.003,380.73,112.003,343.509z"/>
	<path style="fill:#F8C09C;" d="M160.003,311.509c0-13.255-10.745-24-24-24s-24,10.745-24,24v27.584l48,1.656V311.509z"/>
	<path style="fill:#F8C09C;" d="M40.003,175.509h32l0,0v48c0,8.837-7.163,16-16,16s-16-7.163-16-16V175.509L40.003,175.509z"/>
	<path style="fill:#F8C09C;" d="M72.003,175.509h32l0,0v48c0,8.837-7.163,16-16,16s-16-7.163-16-16V175.509L72.003,175.509z"/>
	<path style="fill:#F8C09C;" d="M104.003,175.509h32l0,0v48c0,8.837-7.163,16-16,16s-16-7.163-16-16V175.509L104.003,175.509z"/>
	<path style="fill:#F8C09C;" d="M136.003,175.509h32l0,0v48c0,8.837-7.163,16-16,16s-16-7.163-16-16V175.509L136.003,175.509z"/>
</g>
<path d="M320.003,208.005c22.08-0.026,39.974-17.92,40-40h-16c0,13.255-10.745,24-24,24s-24-10.745-24-24h-16
	C280.029,190.086,297.922,207.979,320.003,208.005z"/>
<path d="M7.755,344.005l8.248,0.28v127.72c0,4.418,3.582,8,8,8h104c4.418-0.001,7.999-3.583,7.999-8.001
	c0-0.583-0.064-1.165-0.191-1.735l-3.808-17.328c-7.635-34.507-11.609-69.723-11.856-105.064l71.896,2.48v25.648
	c0,4.418,3.582,8,8,8h103.96v88c0,4.418,3.582,8,8,8h144c4.418,0,8-3.582,8-8V315.573c4.552-3.16,8.968-6.552,13.168-10.112
	c1.795-1.519,2.831-3.752,2.832-6.104V47.085c-0.001-2.352-1.037-4.585-2.832-6.104c-73.281-61.879-182.85-52.636-244.729,20.644
	c-23.438,27.756-37.581,62.164-40.439,98.38v33.648l-16,0.552v-18.2c0-4.418-3.582-8-8-8h-128c-4.418,0-8,3.582-8,8v23.2
	l-24.248,0.8c-4.321,0.134-7.754,3.677-7.752,8v128C0.001,340.328,3.433,343.871,7.755,344.005z M116.363,456.405l1.688,7.6H32.003
	v-119.2l72.088,2.488C104.309,383.996,108.423,420.571,116.363,456.405z M152.003,332.965l-32-1.104v-19.856c0-8.837,7.163-16,16-16
	s16,7.163,16,16V332.965z M208.003,160.645c7.215-86.789,83.42-151.297,170.209-144.083c31.379,2.608,61.259,14.551,85.791,34.291
	v244.736c-4,3.2-8.136,6.248-12.4,9.064c-2.247,1.48-3.6,3.99-3.6,6.68v152.672h-128v-88c0-4.418-3.582-8-8-8h-104v-17.096
	l31.752,1.096h0.248c4.418,0,8-3.582,8-8v-144c-0.002-2.17-0.886-4.246-2.448-5.752c-1.564-1.481-3.647-2.288-5.8-2.248
	l-31.752,1.096V160.645z M232.003,208.285v116.408l-76.992-76.992c11.964-1.49,20.956-11.64,20.992-23.696v-13.784L232.003,208.285z
	 M160.003,224.005c0,4.418-3.582,8-8,8s-8-3.582-8-8v-40h16V224.005z M128.003,224.005c0,4.418-3.582,8-8,8s-8-3.582-8-8v-40h16
	V224.005z M96.003,224.005c0,4.418-3.582,8-8,8s-8-3.582-8-8v-40h16V224.005z M48.003,184.005h16v40c0,4.418-3.582,8-8,8
	s-8-3.582-8-8V184.005z M16.003,215.733l16-0.528v8.8c-0.058,13.197,10.593,23.943,23.79,24.002
	c5.995,0.027,11.781-2.201,16.21-6.242c9.044,8.32,22.956,8.32,32,0c7.203,6.673,17.803,8.145,26.552,3.688l-0.208,0.208
	l89.656,89.648l-52-1.792v-21.512c0-17.673-14.327-32-32-32s-32,14.327-32,32v19.304l-88-3.032V215.733z"/>
<g>
</g>
<g>
</g>
<g>
</g>
<g>
</g>
<g>
</g>
<g>
</g>
<g>
</g>
<g>
</g>
<g>
</g>
<g>
</g>
<g>
</g>
<g>
</g>
<g>
</g>
<g>
</g>
<g>
</g>
</svg>
