<svg id="filled_outline" height="512" viewBox="0 0 512 512" width="512" xmlns="http://www.w3.org/2000/svg" data-name="filled outline"><path d="m368.00012 344v-104h19.16529a15.99974 15.99974 0 0 1 15.61889 12.52905l13.21582 59.47095h24l-5.72729-74.45435a32 32 0 0 0 -31.90576-29.54565h-66.367v136z" fill="#298fd6"/><path d="m160.00012 232a64 64 0 0 1 64 64v16h-16a16 16 0 0 0 -16 16v8.29334a56 56 0 0 0 27.18824 48.01959l12.81176 7.68707v40a56 56 0 0 1 -56 56h-96a56 56 0 0 1 -56-56v-40l12.81176-7.68706a56 56 0 0 0 27.18824-48.0196v-8.29334a16 16 0 0 0 -16-16h-16v-16a64 64 0 0 1 64-64z" fill="#f27d22"/><path d="m144 488v-56l8-40h-48l8 40v56z" fill="#d45815"/><path d="m96 24h64v152h-64z" fill="#f27d22"/><g fill="#d45815"><path d="m64 48h32v32h-32z"/><path d="m160 48h32v32h-32z"/><path d="m144 176 8 168h-48l8-168z"/><path d="m64 112h32v32h-32z"/><path d="m160 112h32v32h-32z"/></g><circle cx="328" cy="368" fill="#41a4e8" r="48"/><path d="m496 184v-16h-328v-16h24a8.00039 8.00039 0 0 0 8-8v-32a8.00039 8.00039 0 0 0 -8-8h-24v-16h24a8.00039 8.00039 0 0 0 8-8v-32a8.00039 8.00039 0 0 0 -8-8h-24v-16a8.00039 8.00039 0 0 0 -8-8h-64a8.00039 8.00039 0 0 0 -8 8v16h-24a8.00039 8.00039 0 0 0 -8 8v32a8.00039 8.00039 0 0 0 8 8h24v16h-24a8.00039 8.00039 0 0 0 -8 8v32a8.00039 8.00039 0 0 0 8 8h24v24a8.00039 8.00039 0 0 0 8 8h7.60962l-1.90454 40h-5.70508a72.08124 72.08124 0 0 0 -72 72v16a8.00039 8.00039 0 0 0 8 8h16a8.00917 8.00917 0 0 1 8 8v8.293a48.24254 48.24254 0 0 1 -23.30469 41.16015l-12.81152 7.6875a7.99994 7.99994 0 0 0 -3.88379 6.85935v40a64.07207 64.07207 0 0 0 64 64h96a64.02279 64.02279 0 0 0 55.39014-32h264.60986v-16h-258.02539a63.89483 63.89483 0 0 0 2.02539-16v-24h48.86133a55.8415 55.8415 0 0 0 78.25415 0h128.88452v-16h-117.41431a55.87646 55.87646 0 0 0 3.073-40h114.34131v-16h-120v-40h28.24927l3.94116 17.73535a8 8 0 0 0 7.80957 6.26465h24a7.99969 7.99969 0 0 0 7.97656-8.61328l-1.18356-15.38672h49.207v-16h-50.438l-3.07715-40h53.51515v-16h-57.00049a40.22444 40.22444 0 0 0 -36.63232-24h-66.36719a8.00039 8.00039 0 0 0 -8 8v16h-173.70508l-1.90454-40zm-328-128h16v16h-16zm0 64h16v16h-16zm-80 16h-16v-16h16zm0-64h-16v-16h16zm16-40h48v136h-48zm39.61035 304h-31.2207l7.23877-152h16.74316zm-7.45508 94.43066a7.9929 7.9929 0 0 0 -.15527 1.56934v48h-16v-48a7.9929 7.9929 0 0 0 -.15527-1.56934l-6.08594-30.43066h28.48242zm103.84473-38.43066a7.99994 7.99994 0 0 0 -3.88379-6.85938l-12.81152-7.68847a48.20125 48.20125 0 0 1 -20.61963-25.45215h71.65625a55.87646 55.87646 0 0 0 3.073 40zm-40-56v-8a8.00917 8.00917 0 0 1 8-8h16a8.00039 8.00039 0 0 0 8-8v-16h96v16a55.96446 55.96446 0 0 0 -45.917 24zm176-56v-32h11.165a7.95239 7.95239 0 0 1 7.80957 6.26465l5.71903 25.73535zm-32-64h58.36719a24.1101 24.1101 0 0 1 23.92871 22.15918l5.06543 65.84082h-8.94433l-11.82324-53.206a23.858 23.858 0 0 0 -23.42876-18.794h-19.165a8.00039 8.00039 0 0 0 -8 8v82.083a55.79738 55.79738 0 0 0 -16-7.7417zm24 152a40 40 0 1 1 -40-40 40.04584 40.04584 0 0 1 40 40zm-40-128v40h-97.81421a72.09481 72.09481 0 0 0 -25.00073-40zm-170.21 109.52051a8.00164 8.00164 0 0 0 2.20117-5.90137l-4.93429-103.61914h4.94312a56.0629 56.0629 0 0 1 56 56v8h-8a24.0275 24.0275 0 0 0 -24 24v8.293a64.31962 64.31962 0 0 0 31.07227 54.87891l8.92773 5.35739v35.4707a48.05375 48.05375 0 0 1 -48 48h-24v-47.208l7.84473-39.22265a8.00012 8.00012 0 0 0 -7.84473-9.56935h-48a8.00012 8.00012 0 0 0 -7.84473 9.56934l7.84473 39.22266v47.208h-24a48.05375 48.05375 0 0 1 -48-48v-35.4707l8.92773-5.35645a64.32244 64.32244 0 0 0 31.07227-54.87985v-8.293a24.0275 24.0275 0 0 0 -24-24h-8v-8a56.0629 56.0629 0 0 1 56-56h4.94312l-4.93433 103.61914a8.00037 8.00037 0 0 0 7.99121 8.38086h48a7.99865 7.99865 0 0 0 5.79-2.47949z"/></svg>