<?xml version="1.0" standalone="no"?><!DOCTYPE svg PUBLIC "-//W3C//DTD SVG 1.1//EN" "http://www.w3.org/Graphics/SVG/1.1/DTD/svg11.dtd"><svg t="1568877482763" class="icon" viewBox="0 0 1025 1024" version="1.1" xmlns="http://www.w3.org/2000/svg" p-id="4350" xmlns:xlink="http://www.w3.org/1999/xlink" width="200.1953125" height="200"><defs><style type="text/css"></style></defs><path d="M1018.653558 752.321378c-0.727421-0.729425-78.152642-73.535624-78.152642-347.264251C940.500916 96.360204 656.470168 63.061166 534.37971 63.061166c-112.305346 0-210.378896 7.091851-273.77672 94.30018-3.334513 4.532853-4.697174 10.262043-3.843507 15.820901L299.504971 451.060978a22.247452 22.247452 0 0 0 2.308508 6.879437c0.172337 0.384751 18.81074 36.12656 18.81074 96.744955 0 51.428446-17.698568 75.537534-38.262732 103.411976-22.097159 30.098787-47.240266 64.251491-47.240266 131.711249 0 121.07247 21.205417 156.335342 25.479765 162.190779 4.061933 5.645025 10.606716 8.815217 17.275742 8.815217a21.101213 21.101213 0 0 0 7.522693-1.370677c4.869511-1.839593 103.325808-39.88991 133.424595-134.105926 61.039217 66.770411 175.743249 125.384892 191.473972 133.206169a21.199405 21.199405 0 0 0 20.267585-0.641253 21.299601 21.299601 0 0 0 10.644791-17.229652c0.250489-4.228258 1.190325-38.042301-24.327515-121.026379 99.991295 43.005996 276.806638 54.255969 301.047985 55.616626 9.362286 0.641252 16.540305-4.140086 20.345737-11.748947a21.548086 21.548086 0 0 0-2.733338-23.341589c-0.296579-0.306599-19.624329-23.986849-30.527624-54.678795 43.569096 11.883209 95.03762 5.214184 102.646481 4.14209 8.210035-1.198341 14.919139-7.139945 17.313816-15.045385 2.396681-7.991609-0.124243-16.712642-6.324352-22.269495z m0 0" fill="#CFD8DC" p-id="4351"></path><path d="M594.615358 328.665926c-4.023859-5.691115-10.520548-9.103781-17.488156-9.103781H235.123225c-98.919202 0-161.204853 61.472063-170.911812 168.641378a21.369738 21.369738 0 0 0 14.832971 22.27751 20.900822 20.900822 0 0 0 6.458614 1.026004 21.4018 21.4018 0 0 0 18.504141-10.646794c31.553628-54.292039 177.76119-53.604697 274.115382-53.181871h26.034849c6.332368 0.51701 152.405667 12.572556 193.063076-99.52238a21.293589 21.293589 0 0 0-2.605088-19.490066z m0 0" fill="#FFD54F" p-id="4352"></path><path d="M491.624204 169.931898C468.032125 169.931898 448.876712 189.129393 448.876712 212.683397c0 23.554004 19.155413 42.755507 42.747492 42.755507 23.600094 0 42.755507-19.201503 42.755506-42.755507 0-23.554004-19.155413-42.747491-42.755506-42.747491z m0 0" fill="#F44336" p-id="4353"></path><path d="M256.500978 255.4369c0 11.803053-9.572697 21.369738-21.377753 21.369738s-21.369738-9.566685-21.369738-21.369738c0-11.813072 9.564681-21.377753 21.369738-21.377753S256.500978 243.623828 256.500978 255.4369z m0 0" fill="#FAFAFA" p-id="4354"></path><path d="M564.133824 319.562145c-173.308493-2.01193-213.707397-19.882834-221.879358-25.143108 0.901761-6.324352 4.532853-9.103781 13.806966-15.390059 11.462387-7.735108 28.690035-19.451992 28.690036-44.969831 0-39.030231-22.269495-85.502998-128.25049-85.502998-104.564227 0-256.500978 91.616939-256.500978 235.13124 0 148.297644 76.99438 169.503061 80.242724 170.354725a21.423843 21.423843 0 0 0 19.31773-4.657096 21.359718 21.359718 0 0 0 7.188039-18.558247c-0.048094-0.126247-1.839593-16.367969 0.040078-38.771726 7.779194-86.09816 50.919452-129.745409 128.334654-129.745409h328.752094c11.756963 0 21.291585-9.494544 21.377753-21.245495a21.327656 21.327656 0 0 0-21.121252-21.501996z m0 0" fill="#FFC107" p-id="4355"></path><path d="M85.502998 554.683366a21.241487 21.241487 0 0 1-5.174106-0.641252C77.03045 553.228524 0 532.281613 0 383.689393 0 240.173088 151.936751 148.556149 256.500978 148.556149c105.980994 0 128.250489 46.472767 128.25049 85.502998 0 25.479765-17.229652 37.236728-28.688032 44.969831-9.316196 6.372446-12.995382 9.189949-13.847045 15.562396 14.919139 10.560626 86.529002 24.968767 234.910811 24.968767 11.797041 0 21.377753 9.574701 21.377753 21.371742 0 11.803053-9.580712 21.377753-21.377753 21.377753H235.123225c-40.485072 0-71.860352 12.09362-93.236102 35.990294-43.859663 49.035773-35.224798 131.805432-35.13863 132.659099 0.765495 6.965605-1.925761 13.847045-7.186035 18.466067a21.405808 21.405808 0 0 1-14.05946 5.260274zM256.500978 191.313659c-72.547695 0-213.753487 67.882583-213.753487 192.375734 0 52.532603 10.474458 84.084227 21.722427 102.848877 3.202254-34.793957 13.893135-81.346881 45.564994-116.744016 29.838278-33.305049 71.952532-50.230106 125.088313-50.230105h70.285276c-6.160031-7.953534-6.160031-15.522317-6.160031-21.377754 0-32.148791 20.477996-46.130098 32.790043-54.466379 9.965464-6.793268 9.965464-7.646935 9.965464-9.658865 0-10.606716 0-42.747491-85.502999-42.747492z m0 0" p-id="4356"></path><path d="M85.502998 511.937879c-3.593018 0-7.22411-0.901761-10.520548-2.779429-10.262043-5.815358-13.895139-18.85683-8.077777-29.118873 43.178333-76.266959 192.163319-75.663781 312.029433-75.068618l27.195115 0.086168c11.797041 0 21.369738 9.580712 21.369738 21.377754s-9.572697 21.377753-21.369738 21.377753l-27.45362-0.086168c-97.125699-0.47092-243.796164-1.072094-274.582294 53.344188a21.293589 21.293589 0 0 1-18.590309 10.867225z m0 0" p-id="4357"></path><path d="M277.878732 960.814591c-6.669025 0-13.213808-3.170192-17.275742-8.815217-4.274348-5.855436-25.479765-41.120313-25.479765-162.190779 0-67.459757 25.143108-101.612462 47.240266-131.711249C302.927656 630.222904 320.626223 606.113816 320.626223 554.68537c0-60.618395-18.636399-96.360204-18.81074-96.744955-5.510763-10.386286-1.627178-23.341589 8.721034-28.898442 10.300117-5.596932 23.255421-1.793503 28.860368 8.546692 0.97791 1.801519 23.97683 44.807515 23.976829 117.096705 0 65.447828-24.70425 99.091538-46.550919 128.719405-20.908838 28.43153-38.944063 52.97146-38.944063 106.40382 0 64.978912 6.450599 101.706646 11.584626 120.60155C322.121143 892.83582 384.751468 848.673566 384.751468 768.440861c0-10.310137 7.350356-19.155413 17.488156-21.03308 9.955444-1.973855 20.171397 3.71726 23.850583 13.376125 18.215577 47.578928 108.117166 106.662325 167.709558 140.392204-5.049863-25.910607-15.436149-66.56-36.719718-125.519155-3.593018-9.783108 0.508994-20.726481 9.612775-25.862513a21.369738 21.369738 0 0 1 27.106943 5.2222c32.016532 39.623389 176.775264 64.766497 284.032752 74.425362-11.624705-21.886748-22.826583-51.169941-22.826584-82.3809 0-8.632861 5.214184-16.460149 13.205793-19.748572 7.953534-3.294434 17.189573-1.454841 23.303515 4.619022 13.338051 13.291961 44.156243 17.698568 72.712015 17.738646C936.657409 702.724509 897.753425 601.619037 897.753425 405.055123c0-260.388571-227.648626-299.246466-363.373715-299.246465-107.435836 0-187.460133 5.510763-239.233252 76.689784-6.965605 9.618787-20.35175 11.630716-29.838278 4.703186-9.574701-6.92753-11.624705-20.305659-4.70519-29.838278C324.000814 70.151014 422.074364 63.057159 534.37971 63.057159c122.090458 0 406.121205 33.301041 406.121206 341.997964 0 273.728626 77.425221 346.53683 78.152642 347.264251 6.20011 5.556853 8.721033 14.277886 6.278262 22.223405-2.434755 7.95153-9.103781 13.855061-17.307804 15.051397-7.654951 1.066082-59.123476 7.781198-102.646482-4.148102 10.905299 30.740039 30.223029 54.380211 30.519609 54.676791a21.461918 21.461918 0 0 1 2.741354 23.343593c-3.803429 7.608861-10.989464 12.438294-20.351749 11.756963-24.235335-1.370677-201.048673-12.572556-301.041973-55.616626 25.557918 82.974059 24.580008 116.790106 24.321503 121.024375a21.4018 21.4018 0 0 1-10.644791 17.229652c-6.20011 3.633096-13.808971 3.843507-20.259569 0.641252-15.732728-7.865362-130.474834-66.433753-191.483992-133.21218-30.098787 94.262106-128.547068 132.266333-133.424595 134.105926a19.772618 19.772618 0 0 1-7.474599 1.416767z m0 0" p-id="4358"></path><path d="M363.373714 234.057143c-11.797041 0-21.369738-9.572697-21.369737-21.37575 0-11.797041 9.572697-21.369738 21.369737-21.369737 64.59416 0 74.818129-8.039703 84.689409-15.780822C468.154364 159.758027 489.189448 148.556149 577.127202 148.556149c11.797041 0 21.377753 9.580712 21.377753 21.377753S588.924243 191.311656 577.127202 191.311656c-79.946145 0-91.999687 9.486528-102.646482 17.82281-18.590309 14.57647-37.401049 24.924681-111.107006 24.924681z m0 0" p-id="4359"></path><path d="M491.624204 255.4369c-23.592078 0-42.747491-19.201503-42.747492-42.755507 0-23.554004 19.155413-42.747491 42.747492-42.747491 23.600094 0 42.755507 19.193487 42.755506 42.747491 0 23.554004-19.155413 42.755507-42.755506 42.755507z m0-42.755507H513.001957z m0 0M256.500978 255.4369c0 11.803053-9.572697 21.369738-21.377753 21.369738s-21.369738-9.566685-21.369738-21.369738c0-11.813072 9.564681-21.377753 21.369738-21.377753S256.500978 243.623828 256.500978 255.4369z m0 0M726.755444 576.063123c-3.975765 0-7.953534-1.072094-11.498458-3.334512-56.736814-36.086481-43.569096-100.977221-35.65564-139.797042 2.262419-11.029542 4.398591-21.501996 4.398591-27.874442 0-11.797041 9.580712-21.369738 21.377754-21.369738s21.377753 9.572697 21.377753 21.369738c0 10.692885-2.442771 22.614168-5.220195 36.423139-8.933448 43.819585-12.947288 76.351123 16.718653 95.207953 9.919374 6.326356 12.909213 19.578239 6.536767 29.497613a21.427851 21.427851 0 0 1-18.035225 9.877291z m0 0M406.129221 704.313613c-9.753049 0-18.512157-6.630951-20.782591-16.462153a21.423843 21.423843 0 0 1 15.905065-25.73827c29.112861-6.841362 36.595476-37.401049 47.883522-110.676165 1.791499-11.672798 12.56454-19.53816 24.367593-17.870904 11.622701 1.791499 19.664407 12.696798 17.870904 24.367593-10.865221 70.621933-20.265581 131.67117-80.376986 145.824814a21.321644 21.321644 0 0 1-4.867507 0.555085z m0 0M726.755444 768.438857c-38.693573 0-121.713722-67.976767-128.126246-125.901902-1.282505-11.718888 7.139945-22.271499 18.850818-23.602098 11.975389-1.110168 22.315585 7.139945 23.646184 18.896908 4.14209 37.15056 68.103014 86.873675 85.715413 87.851585 11.584626 0.641252 21.03308 10.386286 20.728485 21.972916-0.336658 11.544548-9.230027 20.780587-20.814654 20.780587z m0 0" p-id="4360"></path></svg>