<?xml version="1.0" standalone="no"?><!DOCTYPE svg PUBLIC "-//W3C//DTD SVG 1.1//EN" "http://www.w3.org/Graphics/SVG/1.1/DTD/svg11.dtd"><svg t="1568877464548" class="icon" viewBox="0 0 1024 1024" version="1.1" xmlns="http://www.w3.org/2000/svg" p-id="3268" xmlns:xlink="http://www.w3.org/1999/xlink" width="200" height="200"><defs><style type="text/css"></style></defs><path d="M973.25507469 106.89758V50.75533156h-101.79966c0 0.05624906 0.009375 0.11062313 0.009375 0.16687313 0 20.71092656-16.7884875 37.49941406-37.49941407 37.49941406s-37.49941406-16.7884875-37.49941406-37.49941406c0-0.05624906 0.0075-0.11062313 0.009375-0.16687313h-72.15449719c0 0.05624906 0.009375 0.11062313 0.00937407 0.16687313 0 20.71092656-16.7884875 37.49941406-37.49941407 37.49941406s-37.49941406-16.7884875-37.49941406-37.49941406c0-0.05624906 0.0075-0.11062313 0.009375-0.16687313h-72.15449719c0 0.05624906 0.009375 0.11062313 0.009375 0.16687313 0 20.71092656-16.7884875 37.49941406-37.49941406 37.49941406s-37.49941406-16.7884875-37.49941406-37.49941406c0-0.05624906 0.0075-0.11062313 0.00937406-0.16687313H430.05543687c0 0.05624906 0.009375 0.11062313 0.00937501 0.16687313 0 20.71092656-16.7884875 37.49941406-37.49941407 37.49941406s-37.49941406-16.7884875-37.49941406-37.49941406c0-0.05624906 0.0075-0.11062313 0.009375-0.16687313h-101.79966v56.14224844c20.71092656 0 37.49941406 16.7884875 37.49941406 37.49941406s-16.7884875 37.49941406-37.49941406 37.49941407v72.13762218c20.71092656 0 37.49941406 16.7884875 37.49941406 37.49941407s-16.7884875 37.49941406-37.49941406 37.49941406v72.13762312c20.71092656 0 37.49941406 16.7884875 37.49941406 37.49941407s-16.7884875 37.49941406-37.49941406 37.49941406v72.13762312c20.71092656 0 37.49941406 16.7884875 37.49941406 37.49941407s-16.7884875 37.49941406-37.49941406 37.49941406v72.13762312c20.71092656 0 37.49941406 16.7884875 37.49941406 37.49941407s-16.7884875 37.49941406-37.49941406 37.49941406v72.13762219c20.71092656 0 37.49941406 16.7884875 37.49941406 37.49941406s-16.7884875 37.49941406-37.49941406 37.49941406v55.66600594h101.81653406c0.25874625-20.48780531 16.92536062-37.02317156 37.47504-37.02317156s37.21816875 16.53536625 37.47503906 37.02317156h72.18449719c0.25874625-20.48780531 16.92536062-37.02317156 37.47504-37.02317156s37.21816875 16.53536625 37.47503906 37.02317156h72.18449719c0.25874625-20.48780531 16.92536062-37.02317156 37.47503906-37.02317156s37.21816875 16.53536625 37.47504 37.02317156h72.18449719c0.25874625-20.48780531 16.92536062-37.02317156 37.47503906-37.02317156s37.21816875 16.53536625 37.47503907 37.02317156h101.816535v-55.66600594c-20.71092656 0-37.49941406-16.7884875-37.49941407-37.49941406s16.7884875-37.49941406 37.49941407-37.49941406V770.43846219c-20.71092656 0-37.49941406-16.7884875-37.49941407-37.49941407s16.7884875-37.49941406 37.49941407-37.49941406v-72.13762312c-20.71092656 0-37.49941406-16.7884875-37.49941407-37.49941407s16.7884875-37.49941406 37.49941407-37.49941406v-72.13762312c-20.71092656 0-37.49941406-16.7884875-37.49941407-37.49941407s16.7884875-37.49941406 37.49941407-37.49941406v-72.13762219c-20.71092656 0-37.49941406-16.7884875-37.49941407-37.49941406s16.7884875-37.49941406 37.49941407-37.499415V181.89640812c-20.71092656 0-37.49941406-16.7884875-37.49941407-37.49941406s16.7809875-37.49941406 37.49191407-37.49941406z" fill="#EDF2FA" p-id="3269"></path><path d="M367.61891281 172.6265525h491.27607375V851.3621975H367.61891281z" fill="#ADE5FF" p-id="3270"></path><path d="M367.62266281 658.4239625V851.3621975h290.65983281v-82.31496375l-200.640615-200.64249z" fill="#A0E557" p-id="3271"></path><path d="M858.90248656 725.76165969l-200.640615-200.64249-290.63920875 290.64108375V851.3621975h491.27982375z" fill="#62CD4D" p-id="3272"></path><path d="M680.58714688 345.4407275m-104.99835938 0a104.99835937 104.99835937 0 1 0 209.99671969 0 104.99835937 104.99835937 0 1 0-209.99671969 0Z" fill="#FFC66C" p-id="3273"></path><path d="M680.58714688 345.4407275m-37.49941407 0a37.49941406 37.49941406 0 1 0 74.99882813 0 37.49941406 37.49941406 0 1 0-74.99882813 0Z" fill="#FEA02C" p-id="3274"></path><path d="M804.33521375 345.4388525c0-68.23580906-55.51225781-123.74806688-123.74806688-123.74806688s-123.74806688 55.51225781-123.74806593 123.74806688 55.51225781 123.74806688 123.74806593 123.74806688 123.74806688-55.51225781 123.74806688-123.74806688z m-209.99484375 0c0-47.55675656 38.69189531-86.24865281 86.24865188-86.24865281s86.24865281 38.69189531 86.24865281 86.24865281-38.69189531 86.24865281-86.24865281 86.24865281-86.24865281-38.69002031-86.24865188-86.24865281z" p-id="3275"></path><path d="M736.83814344 345.4388525c0-31.01576531-25.23335531-56.24912156-56.24912157-56.24912063s-56.24912156 25.23335531-56.24912062 56.24912063 25.23335531 56.24912156 56.24912062 56.24912156 56.24912156-25.23335531 56.24912157-56.24912156z m-74.99882813 0c0-10.33858875 8.41111875-18.7497075 18.74970656-18.74970656s18.7497075 8.41111875 18.7497075 18.74970656-8.41111875 18.7497075-18.7497075 18.7497075-18.7497075-8.41111875-18.74970656-18.7497075z" p-id="3276"></path><path d="M973.25507469 125.64916156c10.35546281 0 18.7497075-8.39424375 18.74970656-18.74970656V50.75533156c0-10.35546281-8.39424375-18.7497075-18.74970656-18.74970656h-101.79966a18.75345656 18.75345656 0 0 0-18.74783157 19.05157688l0.00375 0.18374718c-0.17062219 10.19234062-8.51611687 18.43096219-18.7478325 18.43096219-10.24296469 0-18.59408438-8.25549563-18.74783156-18.46283625l0.005625-0.45561844c0-10.35546281-8.39424375-18.7497075-18.7497075-18.74970656h-72.15262219c-10.35546281 0-18.7497075 8.39424375-18.7497075 18.74970656l0.005625 0.45374344c-0.15562219 10.20734062-8.50486688 18.46283625-18.7478325 18.46283625s-18.59408438-8.25549563-18.74783156-18.46283625l0.005625-0.45561844c0-10.35546281-8.39424375-18.7497075-18.7497075-18.74970656H577.18438812c-10.35546281 0-18.7497075 8.39424375-18.74970749 18.74970656l0.005625 0.45374344c-0.15562219 10.20734062-8.50486688 18.46283625-18.74783157 18.46283625s-18.59408438-8.25549563-18.7478325-18.46283625l0.005625-0.4556175c0-10.35546281-8.39424375-18.7497075-18.74970656-18.7497075h-72.15262313c-10.35546281 0-18.7497075 8.39424375-18.74970656 18.7497075l0.005625 0.4537425c-0.15562219 10.20734062-8.50486688 18.46283625-18.7478325 18.46283625-10.23171469 0-18.57533438-8.23862156-18.7478325-18.43096219l0.00375-0.18374718A18.7478325 18.7478325 0 0 0 355.06598375 32h-101.79966c-10.35546281 0-18.7497075 8.39424375-18.74970656 18.7497075v56.1422475c0 10.35546281 8.39424375 18.7497075 18.74970656 18.74970656 10.33858875 0 18.7497075 8.41111875 18.7497075 18.7497075s-8.41111875 18.7497075-18.7497075 18.74970656c-10.35546281 0-18.7497075 8.39424375-18.74970656 18.7497075v72.13574813c0 10.35546281 8.39424375 18.7497075 18.74970656 18.74970656s18.7497075-8.39424375 18.7497075-18.74970656V197.43241531c21.82653375-7.73800406 37.49941406-28.59142781 37.49941406-53.03729625s-15.67288031-45.29741719-37.49941406-53.03729625V69.50503906h67.44644625c7.69113 21.91278281 28.58767875 37.66628625 53.09542031 37.66628625s45.40429031-15.75350344 53.09542031-37.66628625h40.94561063c7.69113 21.91278281 28.58767875 37.66628625 53.09542031 37.66628625 24.5077425 0 45.40429031-15.75350344 53.09542031-37.66628625h40.94560969c7.69113 21.91278281 28.58767875 37.66628625 53.09542031 37.66628625 24.5077425 0 45.40429031-15.75350344 53.09542032-37.66628625h40.94561062c7.69113 21.91278281 28.58767875 37.66628625 53.09542031 37.66628625 24.5077425 0 45.40429031-15.75350344 53.09542032-37.66628625h67.44644625V91.36157281c-21.82653375 7.73800406-37.49941406 28.59142781-37.49941407 53.03729625s15.67288031 45.29741719 37.49941407 53.03729625v41.06185782c-21.82653375 7.73800406-37.49941406 28.59142781-37.49941407 53.03729625s15.67288031 45.29741719 37.49941407 53.03729625v41.06185875c-21.82653375 7.73800406-37.49941406 28.59142781-37.49941407 53.03729625s15.67288031 45.29741719 37.49941407 53.03729625v41.06185875c-21.82653375 7.73800406-37.49941406 28.58955375-37.49941407 53.03542125 0 24.44399344 15.67288031 45.29741719 37.49941407 53.03542125v41.06373375c-21.82653375 7.73800406-37.49941406 28.58955375-37.49941407 53.03542125 0 24.44399344 15.67288031 45.29741719 37.49941407 53.03542125v41.06373281c-21.82653375 7.73800406-37.49941406 28.58955375-37.49941407 53.03542125 0 24.44399344 15.67288031 45.29741719 37.49941407 53.03542125V954.48558594h-67.72394157c-7.91050125-21.54716344-28.68892687-37.02317156-52.817925-37.02317157-24.13087313 0-44.90929875 15.47413313-52.817925 37.02317157H739.65059937c-7.91050125-21.54903844-28.68892687-37.02317156-52.817925-37.02317157-24.12899812 0-44.90929875 15.47413313-52.81792406 37.02317157h-41.49872719c-7.91050125-21.54903844-28.68892687-37.02317156-52.81792406-37.02317157-24.12899812 0-44.90929875 15.47413313-52.817925 37.02317157h-41.49685125c-7.91237625-21.54716344-28.69080188-37.02317156-52.8198-37.02317157s-44.90742375 15.47600812-52.817925 37.02317157h-67.72394156v-21.38029032c21.82653375-7.73800406 37.49941406-28.59142781 37.49941406-53.03542125 0-24.44586844-15.67288031-45.29741719-37.49941406-53.03542218v-41.06373282c21.82653375-7.73800406 37.49941406-28.59142781 37.49941406-53.03542125 0-24.44586844-15.67288031-45.29741719-37.49941406-53.03542125v-56.60161593c0-10.35358781-8.39424375-18.7497075-18.7497075-18.74970657s-18.7497075 8.39611875-18.74970656 18.74970657v72.13762312c0 10.35358781 8.39424375 18.7497075 18.74970656 18.74970656 10.33858875 0 18.7497075 8.41111875 18.7497075 18.7497075s-8.41111875 18.7497075-18.7497075 18.74970657c-10.35546281 0-18.7497075 8.39611875-18.74970656 18.7497075v72.13762218c0 10.35358781 8.39424375 18.7497075 18.74970656 18.7497075 10.33858875 0 18.7497075 8.41111875 18.7497075 18.74970657s-8.41111875 18.7497075-18.7497075 18.7497075c-10.35546281 0-18.7497075 8.39611875-18.74970656 18.74970656v55.66600594c0 10.35358781 8.39424375 18.7497075 18.74970656 18.74970656h101.81653406c10.26358969 0 18.62033437-8.25174562 18.7478325-18.51346031 0.12749813-10.20546563 8.52924188-18.50971125 18.7272075-18.50971125s18.59970937 8.30424563 18.7272075 18.50971125c0.12749813 10.26171469 8.48424281 18.51346031 18.74783156 18.51346031h72.18449719a18.7497075 18.7497075 0 0 0 18.7478325-18.51346031c0.12937313-10.20546563 8.52924188-18.50971125 18.7272075-18.50971125s18.59783437 8.30424563 18.7272075 18.50971125a18.7497075 18.7497075 0 0 0 18.74783156 18.51346031h72.18449719a18.7497075 18.7497075 0 0 0 18.7478325-18.51346031c0.12937313-10.20546563 8.52924188-18.50971125 18.72720656-18.50971125s18.59783437 8.30424563 18.7272075 18.50971125a18.7497075 18.7497075 0 0 0 18.7478325 18.51346031h72.18449719a18.7497075 18.7497075 0 0 0 18.74783156-18.51346031c0.12937313-10.20546563 8.52924188-18.50971125 18.7272075-18.50971125s18.59783437 8.30424563 18.7272075 18.50971125c0.12749813 10.26171469 8.48424281 18.51346031 18.7478325 18.51346031h101.81653407c10.35546281 0 18.7497075-8.39611875 18.74970656-18.74970656v-55.66600594c0-10.35358781-8.39424375-18.7497075-18.74970656-18.74970656-10.33858875 0-18.7497075-8.41111875-18.7497075-18.7497075s8.41111875-18.7497075 18.7497075-18.74970657c10.35546281 0 18.7497075-8.39611875 18.74970656-18.7497075v-72.13762218c0-10.35358781-8.39424375-18.7497075-18.74970656-18.7497075-10.33858875 0-18.7497075-8.41111875-18.7497075-18.74970657s8.41111875-18.7497075 18.7497075-18.7497075c10.35546281 0 18.7497075-8.39611875 18.74970656-18.74970656v-72.13762312c0-10.35358781-8.39424375-18.7497075-18.74970656-18.74970657-10.33858875 0-18.7497075-8.41111875-18.7497075-18.7497075s8.41111875-18.7497075 18.7497075-18.74970656c10.35546281 0 18.7497075-8.39611875 18.74970656-18.7497075v-72.13574812c0-10.35546281-8.39424375-18.7497075-18.74970656-18.74970657-10.33858875 0-18.7497075-8.41111875-18.7497075-18.7497075s8.41111875-18.7497075 18.7497075-18.74970656c10.35546281 0 18.7497075-8.39424375 18.74970656-18.7497075v-72.13762219c0-10.35546281-8.39424375-18.7497075-18.74970656-18.7497075-10.33858875 0-18.7497075-8.41111875-18.7497075-18.74970656s8.41111875-18.7497075 18.7497075-18.7497075c10.35546281 0 18.7497075-8.39424375 18.74970656-18.74970656v-72.13012313c0-10.35546281-8.39424375-18.7497075-18.74970656-18.7497075-10.33858875 0-18.7497075-8.41111875-18.7497075-18.74970656s8.40549375-18.7497075 18.7459575-18.7497075z" p-id="3277"></path><path d="M858.90061156 153.87872094H367.62266281c-10.35546281 0-18.7497075 8.39424375-18.7497075 18.74970656v67.81394062c0 10.35546281 8.39424375 18.7497075 18.7497075 18.74970657s18.7497075-8.39424375 18.74970657-18.74970657V191.378135h453.78040968v489.1161075l-168.63111468-168.63111562c-7.32176063-7.32176063-19.194075-7.32176063-26.51771063 0l-108.54955406 108.54955406-65.26398094-65.26398c-7.31988562-7.31988562-19.194075-7.31988562-26.51583563 0l-60.12656062 60.12656062c-3.00932813-6.33365062-9.44610281-10.72295719-16.92535969-10.72295812-10.35546281 0-18.7497075 8.39611875-18.7497075 18.7497075v228.06393656c0 10.35358781 8.39424375 18.7497075 18.7497075 18.74970656h156.89192344c10.35546281 0 18.7497075-8.39611875 18.74970656-18.74970656s-8.39424375-18.7497075-18.74970656-18.7497075h-138.14221688v-9.0879825l271.88950219-271.88950219 181.8909075 181.89090844v99.08657625h-146.892705c-10.35546281 0-18.7497075 8.39611875-18.74970656 18.7497075s8.39424375 18.7497075 18.74970656 18.74970656h165.6405375c10.35546281 0 18.7497075-8.39611875 18.74970657-18.74970656V172.6303025c0-10.35733781-8.39424375-18.75158156-18.74970657-18.75158156zM386.37236938 823.36326031v-0.13312312c0.19687219-0.14812312 0.14624813-0.05249906 0 0.13312312z m0-52.87042406v-104.24274656c0.61686562-0.4799925 1.21873125-0.986235 1.78684687-1.55247563l69.77515969-69.77515968 52.00606312 52.00418718-123.56806968 123.56619469z" p-id="3278"></path><path d="M600.00465687 838.10615469a18.89220469 18.89220469 0 0 0-5.49366468 13.25604281c0 4.93117312 2.00621906 9.76859719 5.49366468 13.25416781a18.89407969 18.89407969 0 0 0 13.25604282 5.49553875c4.93117312 0 9.76859719-2.00621906 13.25604281-5.49553875a18.88470469 18.88470469 0 0 0 5.49366375-13.25416781c0-4.93117312-2.00621906-9.76859719-5.49366375-13.25604281a18.89220469 18.89220469 0 0 0-13.25604281-5.49366469 18.91095469 18.91095469 0 0 0-13.25604282 5.49366469zM378.06999875 558.48614844l40.48999312-16.10412282c9.62235-3.826815 14.31915094-14.72789531 10.49233594-24.35024531s-14.72602031-14.31727594-24.35211937-10.49421094l-40.49186813 16.10412375c-40.65123938 16.17349687-85.427415 16.17349687-126.07865437 0l-40.48999219-16.10412375c-49.58922562-19.72469156-104.20899656-19.72656656-153.79822219 0-9.62235 3.826815-14.31915094 14.72977031-10.49233593 24.35212032 3.82869 9.620475 14.73164438 14.32290094 24.35211937 10.49233593 40.65498937-16.16599781 85.42929-16.16599781 126.08053031 0l40.48811719 16.10412282c24.79836281 9.86422125 50.84545594 14.79539344 76.90004812 14.79539437 26.05084313 0 52.10731125-4.93304813 76.90004813-14.79539437zM57.70313 437.6292875c40.65123938-16.16974781 85.427415-16.16974781 126.08053031 0l40.48999219 16.10412281c24.79461281 9.86234625 50.84733094 14.79351844 76.90004812 14.79351938 26.05271813 0 52.10356125-4.93117312 76.89817313-14.79351938l40.48999312-16.10412281c9.62235-3.826815 14.31915094-14.72977031 10.49233594-24.35212031-3.826815-9.620475-14.72977031-14.31915094-24.35211937-10.49233594l-40.48999313 16.10412375c-40.65123938 16.16974781-85.427415 16.16974781-126.08052937 0l-40.48999219-16.10412375c-49.58922562-19.72469156-104.20899656-19.72656656-153.79822219 0-9.62235 3.826815-14.31915094 14.72977031-10.49233593 24.35211938 3.82869 9.62235 14.73351938 14.32102594 24.35211937 10.49233687zM57.705005 332.87654844c40.65311437-16.16974781 85.42929-16.16787281 126.07865531 0l40.48999219 16.10412375c24.72898875 9.83609625 50.66170875 14.78789438 76.74067594 14.78789437 16.92348563 0 33.90884531-2.08684219 50.66358281-6.2774025 10.04421844-2.51433562 16.15099781-12.69542625 13.63853719-22.73964468-2.51433562-10.04609344-12.69542625-16.14912281-22.73964469-13.63853719-34.89695437 8.73548812-71.014515 6.32052656-104.44336781-6.97676531l-40.48811719-16.10412375c-49.58922562-19.72656656-104.21087156-19.72656656-153.79822219 0-9.62235 3.82869-14.31915094 14.72977031-10.49233594 24.35211937 3.82494 9.620475 14.72414531 14.31727594 24.35024438 10.49233594zM404.7170825 298.02459312l-0.76686281 0.30374532c-9.6261 3.81744-14.33415094 14.71664531-10.51483594 24.34087031a18.75533156 18.75533156 0 0 0 17.43347813 11.84043938 18.6934575 18.6934575 0 0 0 6.90739218-1.32560438l0.76686281-0.30374531c9.6261-3.81744 14.33415094-14.71664531 10.51483594-24.34086938-3.81744-9.624225-14.71664531-14.33415094-24.34087031-10.51483593z" p-id="3279"></path></svg>