<svg height="480pt" viewBox="0 0 480.44054 480" width="480pt" xmlns="http://www.w3.org/2000/svg"><path d="m224.121094 408.179688v32l-9.3125 2.023437c-10.757813 2.339844-19.917969 9.335937-25.007813 19.09375l-5.679687 10.882813h88l-2.160156-5.945313c-3.707032-10.191406-11.6875-18.25-21.839844-22.054687v-36zm0 0" fill="#da922a"/><path d="m40.121094 128.179688-25.515625 31.886718c-4.203125 5.253906-6.492188 11.78125-6.484375 18.511719 0 16.347656 13.25 29.601563 29.597656 29.601563h2.402344l40-80zm0 0" fill="#b6534f"/><path d="m8.121094 120.179688 56 16v-48zm0 0" fill="#ebebeb"/><path d="m157.152344 19.144531c-8.007813-8.105469-19.285156-12.097656-30.605469-10.835937-11.324219 1.257812-21.445313 7.632812-27.476563 17.300781-5.953124-7.816406-16.074218-11.214844-25.542968-8.570313-9.464844 2.640626-16.363282 10.785157-17.410156 20.558594-1.046876 9.773438 3.96875 19.195313 12.664062 23.78125 8.691406 4.585938 19.300781 3.410156 26.777344-2.96875 5.242187 14.414063 18.746094 24.167969 34.078125 24.613282 15.328125.445312 29.378906-8.507813 35.449219-22.59375 6.066406-14.085938 2.925781-30.449219-7.925782-41.285157zm0 0" fill="#b6534f"/><path d="m344.121094 240.179688h-120l-80-82.3125v-69.6875c0-17.675782-14.328125-32-32-32h-16c-17.675782 0-32 14.324218-32 32v53.167968c-32.332032 56.957032-31.953125 126.804688 1 183.40625 32.953125 56.597656 93.503906 91.417969 159 91.425782 44.683594.039062 87.667968-17.152344 120-48zm0 0" fill="#f3af3e"/><path d="m104.121094 108.179688c-6.628906 0-12-5.375-12-12 0-6.628907 5.371094-12 12-12 6.625 0 12 5.371093 12 12 0 6.625-5.375 12-12 12zm0 0" fill="#834b10"/><path d="m352.457031 112.179688c-66.277343 0-120 53.722656-120 120 0 2.695312.207031 5.34375.382813 8h32c-.234375-2.640626-.375-5.304688-.375-8-.050782-41.265626 28.574218-77.023438 68.851562-86 40.273438-8.980469 81.378906 11.230468 98.859375 48.609374 17.480469 37.375 6.644531 81.882813-26.066406 107.035157l22.808594 22.824219c38.996093-32.246094 53.570312-85.492188 36.433593-133.105469-17.132812-47.613281-62.292968-79.359375-112.894531-79.363281zm0 0" fill="#da922a"/><path d="m440.457031 232.179688c0-48.601563-39.402343-88-88-88-48.601562 0-88 39.398437-88 88 0 2.695312.140625 5.359374.375 8h32.191407c-.039063-.289063 0-.585938-.0625-.875-2.800782-20.757813 6.214843-41.34375 23.375-53.359376 17.160156-12.015624 39.589843-13.449218 58.136718-3.714843 18.550782 9.730469 30.117188 29 29.984375 49.949219.003907 18.84375-9.484375 36.425781-25.242187 46.765624l22.886718 22.878907c21.65625-16.613281 34.351563-42.351563 34.355469-69.644531zm0 0" fill="#e4e4e2"/><path d="m408.457031 232.179688c0-30.929688-25.074219-56-56-56-30.929687 0-56 25.070312-56 56 .015625 2.671874.183594 5.34375.503907 8 .039062.285156 47.496093 0 47.496093 0l38.757813 38.765624c15.757812-10.339843 25.246094-27.921874 25.242187-46.765624zm0 0" fill="#da922a"/><path d="m144.121094 157.867188.214844 76c.078124 24.722656 9.082031 48.585937 25.359374 67.199218 19.535157 22.320313 47.777344 35.085938 77.441407 35.007813l96.984375-.296875v-95.597656h-120zm0 0" fill="#ea9d2d"/><path d="m176.3125 190.984375v10.839844c.152344 56.621093 46.179688 102.390625 102.796875 102.226562l65.011719-.183593v-63.6875h-120zm0 0" fill="#da922a"/><path d="m313.625 335.859375-89.457031-95.730469 119.953125.050782v95.597656zm0 0" fill="#ea9d2d"/><path d="m248.121094 273.179688 24 31h72v-31zm0 0" fill="#da922a"/><path d="m104.121094 84.179688c-6.628906 0-12 5.371093-12 12 0 6.625 5.371094 12 12 12 6.625 0 12-5.375 12-12 0-6.628907-5.375-12-12-12zm0 16c-2.210938 0-4-1.792969-4-4 0-2.210938 1.789062-4 4-4 2.207031 0 4 1.789062 4 4 0 2.207031-1.792969 4-4 4zm0 0"/><path d="m352.457031 104.179688c-69.476562.101562-126.199219 55.570312-127.859375 125.023437l-42.550781-43.792969-29.925781-30.792968v-66.4375c0-.800782-.195313-1.601563-.25-2.402344 15.765625-8.355469 25.179687-25.171875 24.058594-42.980469-1.117188-17.808594-12.558594-33.3125-29.246094-39.632813-16.6875-6.320312-35.53125-2.28125-48.164063 10.316407l-.359375.363281c-5.292968-3.691406-11.589844-5.667969-18.039062-5.664062-14.113282-.027344-26.566406 9.207031-30.640625 22.71875-4.074219 13.507812 1.195312 28.089843 12.964843 35.871093-3.144531 4.992188-5.136718 10.621094-5.832031 16.480469l-52.492187 29.984375c-2.96875 1.695313-4.53125 5.085937-3.890625 8.441406s3.339843 5.9375 6.722656 6.421875l20.605469 2.945313-19.207032 24.054687c-8.574218 10.5625-10.726562 24.953125-5.617187 37.558594 5.109375 12.609375 16.675781 21.441406 30.183594 23.050781-.472657 5.472657-.796875 10.957031-.796875 16.472657.125 102.867187 81.222656 187.402343 184 191.796874v9.738282l-3.019532.65625c-13.058593 2.867187-24.183593 11.359375-30.398437 23.199218l-5.679687 10.878907c-1.308594 2.484375-1.21875 5.46875.234374 7.871093 1.453126 2.398438 4.054688 3.863282 6.863282 3.859376h88c2.609375-.003907 5.054687-1.277344 6.550781-3.417969s1.855469-4.875.960937-7.328125l-2.144531-5.886719c-3.808593-10.558594-11.433593-19.308594-21.367187-24.527344v-17.691406c35.03125-6.421875 67.460937-22.824219 93.390625-47.238281 1.660156-1.515625 2.609375-3.664063 2.609375-5.910156v-109.027344l25.445312 25.449218 45.703125 45.703126c2.917969 2.914062 7.574219 3.132812 10.753907.503906 41.589843-34.398438 57.132812-91.191406 38.855468-141.976563-18.28125-50.785156-66.449218-84.648437-120.421875-84.652343zm47.664063 133.597656c-.074219.609375-.203125 1.191406-.296875 1.792968-.191407 1.246094-.410157 2.488282-.703125 3.710938-.160156.6875-.363282 1.351562-.554688 2.023438-.320312 1.121093-.664062 2.226562-1.0625 3.304687-.25.679687-.519531 1.351563-.800781 2.023437-.4375 1.066407-.917969 2.101563-1.441406 3.097657-.320313.640625-.636719 1.28125-.992188 1.902343-.582031 1.03125-1.214843 2.023438-1.871093 3.015626-.367188.546874-.710938 1.113281-1.101563 1.648437-.800781 1.121094-1.707031 2.191406-2.625 3.25-.304687.34375-.570313.71875-.878906 1.054687-1.210938 1.308594-2.496094 2.550782-3.851563 3.710938l-33.820312-33.824219c-1.507813-1.488281-3.546875-2.320312-5.664063-2.308593h-40c0-26.511719 21.488281-48 48-48 26.507813 0 48 21.488281 48 48-.007812 1.871093-.117187 3.738281-.335937 5.597656zm-86.507813 90.082031-66.492187.183594h-.273438c-52.101562 0-94.371094-42.164063-94.503906-94.265625l-.160156-56.160156 16.136718 16.601562v7.605469c.160157 60.921875 49.597657 110.222656 110.519532 110.21875h9.28125v.136719h48v15.621093zm22.507813-32-48.761719.132813-13.863281-14.847657h62.625zm-71.800782-1.105469c-42.421874-6.488281-75.097656-40.824218-79.480468-83.511718l33.542968 34.535156c.121094.128906.296876.175781.433594.296875zm-5.769531-29.601562-15.878906-16.972656h64.925781c6.664063.140624 15.898438.117187 28.523438.046874v16.953126zm-178.429687-240.972656c4.96875.035156 9.640625 2.378906 12.636718 6.34375 1.578126 2.101562 4.113282 3.261718 6.738282 3.085937 2.621094-.132813 5.015625-1.542969 6.398437-3.777344 1.132813-1.828125 2.476563-3.519531 4-5.039062 11.5-11.5 30.148438-11.5 41.648438 0s11.5 30.148437 0 41.648437c-1.265625 1.21875-2.636719 2.320313-4.105469 3.289063-6.835938-13.207031-20.449219-21.511719-35.316406-21.550781h-16c-7.898438-.003907-15.613282 2.34375-22.167969 6.742187-7.011719-2.953125-10.972656-10.433594-9.476563-17.890625 1.496094-7.457031 8.035157-12.832031 15.644532-12.851562zm-24 77.78125v16.992187l-23.785156-3.398437zm-33.601563 92c-4.066406-4.089844-6.363281-9.613282-6.398437-15.382813.003906-4.898437 1.667968-9.652344 4.726562-13.480469l23.121094-28.917968h12.152344v3.078124c-10.421875 18.878907-17.582032 39.382813-21.179688 60.648438-4.667968-.601562-9.023437-2.683594-12.421875-5.945312zm222.769531 257.703124c6.25 2.34375 11.511719 6.761719 14.902344 12.515626h-62.847656c4.101562-7.234376 11.078125-12.386719 19.199219-14.179688l9.28125-2c3.675781-.800781 6.296875-4.058594 6.296875-7.820312v-16.371094c2.671875-.109375 5.359375-.132813 8-.359375v20.730469c-.003906 3.324218 2.054687 6.308593 5.167968 7.484374zm-21.167968-43.484374c-62.644532-.007813-120.5625-33.3125-152.082032-87.449219-31.519531-54.132813-31.886718-120.945313-.96875-175.425781.6875-1.207032 1.050782-2.570313 1.050782-3.957032v-53.167968c0-13.257813 10.742187-24 24-24h16c13.253906 0 24 10.742187 24 24v69.710937l.222656 76c.199219 60.890625 49.613281 110.148437 110.503906 110.152344h.320313l78.960937-.21875h9.992188v20.800781c-30.5625 28.035156-70.53125 43.578125-112 43.554688zm174.652344-131.953126c.355468-.375.753906-.722656 1.097656-1.105468 1.640625-1.804688 3.175781-3.703125 4.59375-5.6875.390625-.542969.71875-1.128906 1.09375-1.679688.984375-1.472656 1.9375-2.953125 2.792968-4.496094.429688-.800781.800782-1.601562 1.222657-2.398437.695312-1.386719 1.351562-2.785156 1.953125-4.21875.359375-.878906.695312-1.757813 1.023437-2.65625.519531-1.4375.984375-2.894531 1.402344-4.382813.253906-.894531.511719-1.785156.726563-2.6875.382812-1.601562.671874-3.265624.925781-4.921874.121093-.796876.289062-1.597657.378906-2.398438 2.886719-23.65625-7.613281-46.960938-27.246094-60.472656-19.632812-13.511719-45.148437-14.996094-66.214843-3.847656-21.066407 11.144531-34.191407 33.070312-34.066407 56.90625h-16c.011719-44.183594 35.839844-79.992188 80.023438-79.976563 44.179687.011719 79.988281 35.839844 79.976562 80.023437-.011719 2.941407-.183593 5.878907-.515625 8.800782-.101562.957031-.300781 1.902344-.445312 2.855468-.28125 1.933594-.578125 3.871094-1 5.765626-.25 1.113281-.578125 2.195312-.871094 3.289062-.457031 1.703125-.921875 3.398438-1.488281 5.0625-.394531 1.136719-.839844 2.242188-1.28125 3.363281-.617188 1.597657-1.257813 3.125-1.96875 4.648438-.527344 1.109375-1.085938 2.207031-1.664063 3.285156-.777344 1.472656-1.597656 2.917969-2.457031 4.335937-.644531 1.058594-1.308594 2.105469-2.007813 3.128907-.933593 1.382812-1.925781 2.726562-2.957031 4.054687-.753906.984375-1.511719 1.960938-2.320312 2.90625-1.105469 1.304688-2.28125 2.550782-3.480469 3.78125-.847656.882813-1.679688 1.769532-2.570312 2.617188-.292969.28125-.621094.527344-.925782.800781l-11.199218-11.199219c1.214843-1.144531 2.335937-2.3125 3.46875-3.496094zm30.496093 37.457032-11.375-11.378906c.28125-.261719.519531-.558594.800781-.800782.976563-.925781 1.863282-1.910156 2.800782-2.871094 1.511718-1.597656 3.007812-3.144531 4.40625-4.800781.914062-1.085937 1.761718-2.207031 2.625-3.328125 1.265625-1.597656 2.496094-3.292968 3.648437-5 .800781-1.199218 1.597657-2.398437 2.320313-3.652344 1.066406-1.730468 2.0625-3.488281 2.992187-5.28125.664063-1.28125 1.320313-2.558593 1.925781-3.871093.863282-1.847657 1.601563-3.730469 2.402344-5.601563.519532-1.320312 1.046875-2.640625 1.503906-4 .679688-2 1.238282-4 1.78125-6.078125.355469-1.304687.746094-2.59375 1.035157-3.921875.503906-2.273437.863281-4.582031 1.199219-6.902344.167968-1.144531.398437-2.265624.527343-3.417968 4-35.378906-11.910156-70.070313-41.335937-90.121094-29.425782-20.046875-67.527344-22.164062-98.992188-5.496094-31.464844 16.664063-51.121094 49.378906-51.0625 84.984375h-16c.035156-51.09375 34.648438-95.6875 84.136719-108.398437 49.492187-12.710938 101.308594 9.683594 125.964844 54.441406 24.652343 44.753906 15.886719 100.519531-21.304688 135.558594zm0 0"/></svg>