<?xml version="1.0" standalone="no"?><!DOCTYPE svg PUBLIC "-//W3C//DTD SVG 1.1//EN" "http://www.w3.org/Graphics/SVG/1.1/DTD/svg11.dtd"><svg t="1568821867533" class="icon" viewBox="0 0 1024 1024" version="1.1" xmlns="http://www.w3.org/2000/svg" p-id="4213" xmlns:xlink="http://www.w3.org/1999/xlink" width="200" height="200"><defs><style type="text/css"></style></defs><path d="M863.46666667 649.70666667c0 187.52-157.01333333 264.96-350.61333334 264.96C319.14666667 914.66666667 162.13333333 837.33333333 162.13333333 649.70666667c0-187.52 157.01333333-414.18666667 350.61333334-414.18666667 193.70666667 0 350.72 226.66666667 350.72 414.18666667z" fill="#FFFFFF" p-id="4214"></path><path d="M512.85333333 926.29333333c-226.88 0-362.34666667-103.36-362.34666666-276.58666666 0-192.85333333 161.6-425.92 362.34666666-425.92s362.24 232.96 362.24 425.92c0 173.22666667-135.36 276.58666667-362.24 276.58666666z m0-679.14666666C325.01333333 247.14666667 173.86666667 467.41333333 173.86666667 649.70666667c0 228.58666667 237.12 253.33333333 338.98666666 253.33333333s338.98666667-24.64 338.98666667-253.33333333c0-182.29333333-151.25333333-402.56-338.98666667-402.56z" fill="#7F0518" p-id="4215"></path><path d="M670.08 137.38666667c-47.68-76.58666667-94.08-22.50666667-104-9.28 6.82666667-16.74666667 8.85333333-81.92-55.36-81.92-60.58666667 0-52.69333333 60.69333333-48.74666667 79.36-13.12-16.32-56.96-60.37333333-101.86666666 11.94666666-53.76 86.4 102.72 218.34666667 102.72 218.34666667 8 5.65333333 15.57333333 9.17333333 22.82666666 11.09333333 8.85333333 3.09333333 20.8 5.97333333 34.56 5.97333334 19.2 0 33.70666667-7.89333333 41.38666667-13.33333334 1.92-1.17333333 3.84-2.34666667 5.86666667-3.84-0.10666667 0 156.37333333-132.05333333 102.61333333-218.34666666z" fill="#FF6A48" p-id="4216"></path><path d="M520.10666667 384.53333333c-12.8 0-25.70666667-2.24-38.4-6.61333333-8.10666667-2.13333333-17.06666667-6.4-25.70666667-12.58666667-7.46666667-6.29333333-164.26666667-140.16-105.81333333-234.02666666 18.02666667-28.90666667 38.4-44.26666667 60.69333333-45.54666667 13.86666667-1.17333333 26.77333333 4.05333333 37.01333333 10.88 0.53333333-14.08 3.94666667-29.65333333 13.76-41.70666667 10.98666667-13.44 27.52-20.26666667 49.17333334-20.26666666 32.42666667 0 49.28 14.93333333 57.81333333 27.52 7.36 10.88 10.88 23.68 12.05333333 35.73333333 10.34666667-7.25333333 23.25333333-13.12 37.86666667-12.16 22.61333333 0.96 43.2 16.32 61.54666667 45.65333333 58.45333333 93.86666667-98.34666667 227.73333333-105.06666667 233.38666667-3.09333333 2.24-5.33333333 3.62666667-7.57333333 5.01333333-7.46666667 5.01333333-24.64 14.72-47.36 14.72zM413.86666667 108.8c-0.53333333 0-1.17333333 0-1.70666667 0.10666667-14.29333333 0.85333333-28.48 12.48-42.24 34.66666666-47.78666667 76.8 98.88 202.02666667 100.26666667 203.30666667 5.65333333 3.94666667 12.05333333 7.14666667 18.34666666 8.74666667 7.89333333 2.66666667 18.77333333 5.65333333 31.57333334 5.65333333 16.32 0 28.8-7.04 34.77333333-11.2 2.45333333-1.49333333 4.16-2.56 5.86666667-3.73333333 0.74666667-0.64 147.41333333-125.86666667 99.52-202.66666667-13.97333333-22.4-28.26666667-34.02666667-42.66666667-34.66666667-19.73333333-1.06666667-37.22666667 19.84-42.02666667 26.24-3.52 4.69333333-9.92 5.97333333-15.04 3.2-5.12-2.88-7.25333333-9.06666667-5.12-14.50666666 2.88-7.04 5.22666667-31.89333333-6.08-48.74666667-7.68-11.41333333-20.58666667-17.17333333-38.4-17.17333333-14.50666667 0-24.64 3.84-31.04 11.73333333-12.90666667 15.89333333-8.10666667 45.01333333-6.29333333 53.54666667 1.06666667 5.33333333-1.6 10.66666667-6.4 12.90666666-4.90666667 2.24-10.66666667 0.96-14.08-3.2-6.18666667-7.57333333-21.44-24.21333333-39.25333333-24.21333333z" fill="#7F0518" p-id="4217"></path><path d="M532.05333333 829.65333333l-0.42666666-14.08s-6.61333333 2.13333333-16.64 6.29333334c-10.02666667-4.16-16.64-6.29333333-16.64-6.29333334l-0.42666667 14.08c-39.68 19.94666667-97.17333333 61.01333333-69.44 123.73333334 16.10666667 36.26666667 57.49333333 30.18666667 88.85333333-4.16 5.22666667 5.65333333 59.09333333 60.26666667 83.94666667 4.16 27.94666667-62.72-29.54666667-103.78666667-69.22666667-123.73333334z" fill="#FF6A48" p-id="4218"></path><path d="M569.70666667 990.18666667c-20.90666667 0-40.96-14.72-52.16-24.64-19.73333333 17.92-42.34666667 26.56-62.08 23.36-16.64-2.66666667-29.97333333-13.65333333-37.54666667-30.82666667-22.93333333-51.94666667 1.38666667-99.94666667 68.58666667-135.68l0.21333333-7.25333333c0.10666667-3.62666667 1.92-7.04 4.90666667-9.17333334s6.72-2.77333333 10.24-1.6c0 0 5.01333333 1.6 13.01333333 4.8 8-3.2 13.12-4.8 13.12-4.8 3.41333333-1.06666667 7.25333333-0.42666667 10.24 1.6 2.98666667 2.13333333 4.8 5.54666667 4.90666667 9.17333334l0.21333333 7.25333333c67.2 35.73333333 91.52 83.73333333 68.58666667 135.68-10.13333333 22.93333333-24.85333333 29.76-35.52 31.57333333-2.13333333 0.32-4.37333333 0.53333333-6.72 0.53333334z m-52.26666667-52.58666667c3.30666667 0 6.4 1.38666667 8.64 3.84 6.82666667 7.46666667 30.4 28.16 46.72 25.28 2.66666667-0.42666667 10.77333333-1.81333333 17.92-17.92 22.93333333-51.73333333-22.18666667-87.68-64-108.58666667-3.2-1.6-5.44-4.58666667-6.18666667-8-0.32 0.10666667-0.74666667 0.32-1.06666666 0.42666667-2.88 1.17333333-6.08 1.17333333-9.06666667 0-0.32-0.10666667-0.74666667-0.32-1.06666667-0.42666667-0.74666667 3.41333333-2.98666667 6.4-6.18666666 8-41.81333333 20.90666667-86.82666667 56.85333333-64 108.58666667 4.48 10.02666667 11.09333333 15.78666667 19.94666666 17.28 14.61333333 2.45333333 33.6-7.04 49.6-24.53333333 2.34666667-2.56 5.54666667-3.94666667 8.74666667-3.94666667z" fill="#7F0518" p-id="4219"></path><path d="M672.85333333 736.53333333s-40.96-115.62666667-151.89333333-115.62666666-155.84 108.58666667-155.84 108.58666666c0.74666667 2.13333333 32.85333333 140.48 149.22666667 140.48 101.54666667-0.10666667 141.97333333-88.64 158.50666666-133.44z" fill="#FFC831" p-id="4220"></path><path d="M514.34666667 881.49333333c-115.2 0-153.70666667-123.52-160.21333334-148.37333333-0.64-2.45333333-0.74666667-5.86666667 0.32-8.21333333 1.92-4.69333333 49.17333333-115.84 166.61333334-115.84 117.86666667 0 162.45333333 122.24 162.88 123.41333333 0.96 2.56 0.85333333 5.33333333-0.10666667 7.89333333-34.56 93.76-91.52 141.12-169.49333333 141.12zM377.38666667 730.45333333c8.96 30.72 44.26666667 127.78666667 136.85333333 127.78666667 66.13333333 0 115.2-40.96 146.02666667-121.70666667-8-19.52-48-104.10666667-139.41333334-104.10666666-91.09333333 0-134.82666667 80.21333333-143.46666666 98.02666666z" fill="#7F0518" p-id="4221"></path><path d="M709.33333333 583.57333333m-58.13333333 0a58.13333333 58.13333333 0 1 0 116.26666667 0 58.13333333 58.13333333 0 1 0-116.26666667 0Z" fill="#7F0518" p-id="4222"></path><path d="M694.72 571.73333333m-26.77333333 0a26.77333333 26.77333333 0 1 0 53.54666666 0 26.77333333 26.77333333 0 1 0-53.54666666 0Z" fill="#FFFFFF" p-id="4223"></path><path d="M728.96 610.77333333m-12.26666667 0a12.26666667 12.26666667 0 1 0 24.53333334 0 12.26666667 12.26666667 0 1 0-24.53333334 0Z" fill="#FFFFFF" p-id="4224"></path><path d="M316.8 583.57333333m-58.13333333 0a58.13333333 58.13333333 0 1 0 116.26666666 0 58.13333333 58.13333333 0 1 0-116.26666666 0Z" fill="#7F0518" p-id="4225"></path><path d="M302.18666667 571.73333333m-26.77333334 0a26.77333333 26.77333333 0 1 0 53.54666667 0 26.77333333 26.77333333 0 1 0-53.54666667 0Z" fill="#FFFFFF" p-id="4226"></path><path d="M336.53333333 610.77333333m-12.26666666 0a12.26666667 12.26666667 0 1 0 24.53333333 0 12.26666667 12.26666667 0 1 0-24.53333333 0Z" fill="#FFFFFF" p-id="4227"></path><path d="M741.22666667 461.22666667c-2.77333333 0-5.65333333-1.06666667-7.89333334-3.09333334-10.88-9.92-21.54666667-14.93333333-31.68-13.97333333-14.61333333 0.96-24.64 12.69333333-24.74666666 12.90666667-4.16 4.90666667-11.52 5.65333333-16.32 1.49333333-4.90666667-4.05333333-5.65333333-11.30666667-1.70666667-16.32 0.64-0.74666667 16.10666667-19.52 40.96-21.33333333 16.96-1.06666667 33.49333333 5.54666667 49.38666667 20.05333333 4.69333333 4.37333333 5.01333333 11.73333333 0.74666666 16.42666667-2.45333333 2.66666667-5.65333333 3.84-8.74666666 3.84z" fill="#7F0518" p-id="4228"></path><path d="M287.57333333 461.22666667c-2.56 0-5.22666667-0.85333333-7.36-2.56-5.01333333-4.05333333-5.76-11.41333333-1.70666666-16.42666667 0.64-0.74666667 16.21333333-19.52 40.96-21.33333333 16.85333333-1.06666667 33.49333333 5.54666667 49.28 20.05333333 4.69333333 4.37333333 5.01333333 11.73333333 0.64 16.42666667-4.26666667 4.8-11.73333333 5.01333333-16.42666667 0.64-10.88-10.02666667-21.65333333-14.93333333-31.89333333-13.97333334-14.61333333 1.06666667-24.42666667 12.69333333-24.53333334 12.8-2.24 2.98666667-5.54666667 4.37333333-8.96 4.37333334z" fill="#7F0518" p-id="4229"></path><path d="M519.36 788.26666667c-75.41333333 0-131.73333333-36.90666667-132.58666667-37.44-5.33333333-3.62666667-6.72-10.77333333-3.2-16.10666667 3.62666667-5.33333333 10.77333333-6.82666667 16.10666667-3.2 4.69333333 3.09333333 115.30666667 75.09333333 230.61333333-0.10666667 5.33333333-3.52 12.58666667-2.02666667 16.10666667 3.41333334 3.52 5.44 1.92 12.58666667-3.41333333 16.10666666-42.88 28.05333333-85.76 37.33333333-123.62666667 37.33333334z" fill="#7F0518" p-id="4230"></path></svg>