<?xml version="1.0" standalone="no"?><!DOCTYPE svg PUBLIC "-//W3C//DTD SVG 1.1//EN" "http://www.w3.org/Graphics/SVG/1.1/DTD/svg11.dtd"><svg t="1569257879460" class="icon" viewBox="0 0 1024 1024" version="1.1" xmlns="http://www.w3.org/2000/svg" p-id="2610" xmlns:xlink="http://www.w3.org/1999/xlink" width="200" height="200"><defs><style type="text/css"></style></defs><path d="M284.5 803.3c41.5-15.1 82.4-16.6 123.1 0.6C366.5 818.7 325.4 818.8 284.5 803.3z" p-id="2611"></path><path d="M974.2 560.6c-8.1-9.1-117.6-81.2-201.4-102.6C689 436.6 629.3 368.5 590.9 339c-204.8-156.6-316-128.7-400.6-92.6S59.8 375.9 52.2 448.7s24.9 176.1 117.1 221.8c92.1 45.7 171.7 54.9 307.2 26 122.3-42.3 140.7-92 164.2-126.3 9-13.1 54.3-62.1 130.5-62.5S974.2 560.6 974.2 560.6z" p-id="2612"></path><path d="M227.8 340.5c50 1 89.5 42.2 88.3 92.2-1.3 51.4-42.1 90-94 88.8-49.3-1.1-88.6-43.2-87.3-93.5C136.2 377.9 177.1 339.5 227.8 340.5z" p-id="2613" data-spm-anchor-id="a313x.7781069.0.i3" class="selected" fill="#ffffff"></path><path d="M208.5 369.2c35.3-4.1 67.8 21 71.5 55.3 3.7 34.4-22.4 65.9-57.6 69.8-35.7 3.9-67.1-20.5-71.1-55.4C147.4 404.4 172.9 373.4 208.5 369.2z" p-id="2614"></path><path d="M208.4 417.2c-0.6 10.7-5.7 18.2-17.3 19.3-11.1 1-17.4-6.3-18.8-15.7-1.4-10 4.4-18.1 14.8-19.5C198.1 399.8 205.8 405.3 208.4 417.2z" p-id="2615"></path><path d="M134.8 584.5a32.6 16.3 0 1 0 65.2 0 32.6 16.3 0 1 0-65.2 0Z" p-id="2616"></path></svg>