<?xml version="1.0" standalone="no"?><!DOCTYPE svg PUBLIC "-//W3C//DTD SVG 1.1//EN" "http://www.w3.org/Graphics/SVG/1.1/DTD/svg11.dtd"><svg t="1568821257761" class="icon" viewBox="0 0 1024 1024" version="1.1" xmlns="http://www.w3.org/2000/svg" p-id="2421" xmlns:xlink="http://www.w3.org/1999/xlink" width="200" height="200"><defs><style type="text/css"></style></defs><path d="M396.434286 257.462857l-29.257143 428.617143h103.862857c23.405714-1.462857 40.96-20.48 40.96-43.885714v-59.977143c0-23.405714 19.017143-43.885714 43.885714-43.885714h234.057143v261.851428H364.251429c-87.771429 0-159.451429-150.674286-134.582858-225.28l46.811429-206.262857c23.405714-105.325714 70.217143-117.028571 119.954286-111.177143z" fill="#FCDD10" p-id="2422"></path><path d="M789.942857 810.422857H364.251429c-36.571429 0-71.68-21.942857-100.937143-62.902857-40.96-55.588571-58.514286-130.194286-43.885715-177.005714l46.811429-206.262857c19.017143-80.457143 54.125714-118.491429 111.177143-118.491429 5.851429 0 13.165714 0 20.48 1.462857 5.851429 0 10.24 5.851429 8.777143 11.702857l-29.257143 418.377143h92.16c17.554286-1.462857 30.72-16.091429 30.72-33.645714v-61.44c0-29.257143 24.868571-54.125714 54.125714-54.125714h234.057143c5.851429 0 10.24 4.388571 10.24 10.24v260.388571c1.462857 5.851429-2.925714 11.702857-8.777143 11.702857zM377.417143 266.24c-33.645714 0-70.217143 11.702857-90.697143 102.4l-48.274286 206.262857c-13.165714 40.96 4.388571 109.714286 39.497143 159.451429 24.868571 35.108571 55.588571 54.125714 84.845714 54.125714h415.451429V548.571429H554.422857c-17.554286 0-33.645714 14.628571-33.645714 33.645714V643.657143c0 29.257143-21.942857 52.662857-51.2 54.125714H365.714286c-2.925714 0-5.851429-1.462857-7.314286-2.925714-1.462857-1.462857-2.925714-4.388571-2.925714-7.314286l29.257143-418.377143c-2.925714-2.925714-4.388571-2.925714-7.314286-2.925714z" fill="#141515" p-id="2423"></path><path d="M196.022857 332.068571h103.862857c30.72 0 54.125714 24.868571 54.125715 54.125715 0 30.72-24.868571 54.125714-54.125715 54.125714h-103.862857v-108.251429z" fill="#A1A69C" p-id="2424"></path><path d="M301.348571 452.022857h-103.862857c-5.851429 0-10.24-4.388571-10.24-10.24v-109.714286c0-5.851429 4.388571-10.24 10.24-10.24h103.862857c35.108571 0 64.365714 29.257143 64.365715 64.365715 0 36.571429-29.257143 65.828571-64.365715 65.828571z m-95.085714-20.48h93.622857c24.868571 0 43.885714-20.48 43.885715-43.885714 0-24.868571-20.48-43.885714-43.885715-43.885714h-93.622857v87.771428z" fill="#141515" p-id="2425"></path><path d="M196.022857 332.068571h45.348572v109.714286h-45.348572z" fill="#FCDD10" p-id="2426"></path><path d="M241.371429 452.022857h-45.348572c-5.851429 0-10.24-4.388571-10.24-10.24v-109.714286c0-5.851429 4.388571-10.24 10.24-10.24h45.348572c5.851429 0 10.24 4.388571 10.24 10.24v109.714286c0 5.851429-4.388571 10.24-10.24 10.24z m-35.108572-20.48h24.868572v-87.771428h-24.868572v87.771428zM501.76 349.622857h-2.925714L351.085714 310.125714c-5.851429-1.462857-8.777143-7.314286-7.314285-13.165714 1.462857-5.851429 7.314286-8.777143 13.165714-7.314286l147.748571 39.497143c5.851429 1.462857 8.777143 7.314286 7.314286 13.165714-1.462857 2.925714-5.851429 7.314286-10.24 7.314286zM374.491429 269.165714c-5.851429 0-10.24-4.388571-10.24-10.24v-30.72c0-46.811429 38.034286-84.845714 84.845714-84.845714h74.605714c5.851429 0 10.24 4.388571 10.24 10.24 0 5.851429-4.388571 10.24-10.24 10.24h-74.605714c-35.108571 0-64.365714 29.257143-64.365714 64.365714v30.72c0 5.851429-4.388571 10.24-10.24 10.24z" fill="#141515" p-id="2427"></path><path d="M500.297143 128.731429h-49.737143c-13.165714 0-23.405714 10.24-23.405714 23.405714v8.777143c0 13.165714 10.24 23.405714 23.405714 23.405714h49.737143c13.165714 0 23.405714-10.24 23.405714-23.405714v-7.314286c0-14.628571-11.702857-24.868571-23.405714-24.868571z" fill="#6E7377" p-id="2428"></path><path d="M500.297143 194.56h-49.737143c-19.017143 0-33.645714-14.628571-33.645714-33.645714v-7.314286c0-19.017143 14.628571-33.645714 33.645714-33.645714h49.737143c19.017143 0 33.645714 14.628571 33.645714 33.645714v7.314286c0 17.554286-16.091429 33.645714-33.645714 33.645714z m-49.737143-55.588571c-7.314286 0-13.165714 5.851429-13.165714 13.165714v8.777143c0 7.314286 5.851429 13.165714 13.165714 13.165714h49.737143c7.314286 0 13.165714-5.851429 13.165714-13.165714v-7.314286c0-7.314286-5.851429-13.165714-13.165714-13.165714h-49.737143z" fill="#141515" p-id="2429"></path><path d="M778.24 895.268571c81.92 0 149.211429-67.291429 149.211429-149.211428s-67.291429-149.211429-149.211429-149.211429S629.028571 664.137143 629.028571 746.057143s67.291429 149.211429 149.211429 149.211428z" fill="#A1A69C" p-id="2430"></path><path d="M778.24 905.508571c-87.771429 0-160.914286-71.68-160.914286-160.914285s71.68-160.914286 160.914286-160.914286c87.771429 0 160.914286 71.68 160.914286 160.914286s-71.68 160.914286-160.914286 160.914285z m0-299.885714c-77.531429 0-138.971429 62.902857-138.971429 138.971429s62.902857 138.971429 138.971429 138.971428c77.531429 0 138.971429-62.902857 138.971429-138.971428s-61.44-138.971429-138.971429-138.971429z" fill="#141515" p-id="2431"></path><path d="M778.24 744.594286m-40.96 0a40.96 40.96 0 1 0 81.92 0 40.96 40.96 0 1 0-81.92 0Z" fill="#DAD9B4" p-id="2432"></path><path d="M778.24 797.257143c-27.794286 0-51.2-23.405714-51.2-51.2s23.405714-51.2 51.2-51.2 51.2 23.405714 51.2 51.2c1.462857 27.794286-21.942857 51.2-51.2 51.2z m0-83.382857c-17.554286 0-30.72 13.165714-30.72 30.72S760.685714 775.314286 778.24 775.314286c17.554286 0 30.72-13.165714 30.72-30.72s-13.165714-30.72-30.72-30.72z" fill="#141515" p-id="2433"></path><path d="M747.52 503.222857c102.4 0 206.262857 81.92 241.371429 187.245714H598.308571c-16.091429-103.862857 46.811429-187.245714 149.211429-187.245714z" fill="#EDA127" p-id="2434"></path><path d="M988.891429 700.708571H598.308571c-4.388571 0-8.777143-4.388571-10.24-8.777142-8.777143-55.588571 2.925714-106.788571 35.108572-144.822858 29.257143-35.108571 73.142857-54.125714 124.342857-54.125714 105.325714 0 213.577143 81.92 250.148571 191.634286 1.462857 1.462857 1.462857 2.925714 1.462858 5.851428 0 5.851429-4.388571 10.24-10.24 10.24z m-381.805715-20.48h367.177143c-38.034286-93.622857-134.582857-166.765714-226.742857-166.765714-43.885714 0-83.382857 16.091429-108.251429 46.811429-26.331429 32.182857-36.571429 73.142857-32.182857 119.954285z" fill="#141515" p-id="2435"></path><path d="M551.497143 408.137143h286.72c33.645714 0 61.44 27.794286 61.44 61.44v24.868571c0 20.48-16.091429 36.571429-36.571429 36.571429H538.331429c-14.628571 0-26.331429-11.702857-26.331429-26.331429v-57.051428c0-21.942857 17.554286-39.497143 39.497143-39.497143z" fill="#8F7EB1" p-id="2436"></path><path d="M863.085714 542.72H538.331429c-20.48 0-38.034286-16.091429-38.034286-38.034286v-57.051428c0-27.794286 21.942857-49.737143 49.737143-49.737143h286.72c39.497143 0 71.68 32.182857 71.68 71.68v24.868571c1.462857 26.331429-19.017143 48.274286-45.348572 48.274286z m-311.588571-124.342857c-16.091429 0-29.257143 13.165714-29.257143 29.257143v57.051428c0 8.777143 7.314286 16.091429 16.091429 16.091429H863.085714c14.628571 0 26.331429-11.702857 26.331429-26.331429v-24.868571c0-27.794286-23.405714-51.2-51.2-51.2H551.497143z" fill="#141515" p-id="2437"></path><path d="M213.577143 573.44c-80.457143 0-157.988571 62.902857-179.931429 143.36h305.737143c8.777143-80.457143-45.348571-143.36-125.805714-143.36z" fill="#EDA127" p-id="2438"></path><path d="M339.382857 727.04H35.108571c-2.925714 0-5.851429-1.462857-8.777142-4.388571-1.462857-2.925714-2.925714-5.851429-1.462858-8.777143 23.405714-86.308571 103.862857-150.674286 188.708572-150.674286 40.96 0 77.531429 16.091429 102.4 43.885714 26.331429 29.257143 38.034286 68.754286 33.645714 111.177143 0 4.388571-4.388571 8.777143-10.24 8.777143zM48.274286 706.56h280.868571c1.462857-33.645714-8.777143-62.902857-29.257143-86.308571-21.942857-23.405714-52.662857-36.571429-86.308571-36.571429-70.217143 0-140.434286 52.662857-165.302857 122.88z" fill="#141515" p-id="2439"></path><path d="M200.411429 895.268571c62.902857 0 115.565714-51.2 115.565714-115.565714s-51.2-115.565714-115.565714-115.565714c-62.902857 0-115.565714 51.2-115.565715 115.565714s52.662857 115.565714 115.565715 115.565714z" fill="#A1A69C" p-id="2440"></path><path d="M200.411429 905.508571c-68.754286 0-125.805714-55.588571-125.805715-125.805714 0-68.754286 55.588571-125.805714 125.805715-125.805714 68.754286 0 125.805714 55.588571 125.805714 125.805714 0 68.754286-55.588571 125.805714-125.805714 125.805714z m0-231.131428c-58.514286 0-105.325714 46.811429-105.325715 105.325714s46.811429 105.325714 105.325715 105.325714c57.051429 0 105.325714-46.811429 105.325714-105.325714s-46.811429-105.325714-105.325714-105.325714z" fill="#141515" p-id="2441"></path><path d="M200.411429 779.702857m-36.571429 0a36.571429 36.571429 0 1 0 73.142857 0 36.571429 36.571429 0 1 0-73.142857 0Z" fill="#DAD9B4" p-id="2442"></path><path d="M200.411429 826.514286c-26.331429 0-46.811429-21.942857-46.811429-46.811429 0-26.331429 21.942857-46.811429 46.811429-46.811428s46.811429 21.942857 46.811428 46.811428c1.462857 26.331429-20.48 46.811429-46.811428 46.811429z m0-73.142857c-14.628571 0-26.331429 11.702857-26.331429 26.331428s11.702857 26.331429 26.331429 26.331429 26.331429-11.702857 26.331428-26.331429-11.702857-26.331429-26.331428-26.331428z" fill="#141515" p-id="2443"></path><path d="M513.462857 308.662857l-48.274286-10.24c-13.165714-2.925714-24.868571 4.388571-26.331428 14.628572l-1.462857 8.777142c-1.462857 10.24 5.851429 21.942857 19.017143 24.868572l48.274285 10.24c13.165714 2.925714 24.868571-4.388571 26.331429-14.628572l1.462857-5.851428c2.925714-13.165714-5.851429-24.868571-19.017143-27.794286z" fill="#6E7377" p-id="2444"></path><path d="M510.537143 365.714286h-7.314286l-48.274286-10.24c-19.017143-2.925714-30.72-20.48-27.794285-36.571429l1.462857-5.851428c2.925714-16.091429 20.48-26.331429 39.497143-23.405715l48.274285 10.24c8.777143 1.462857 16.091429 5.851429 21.942858 13.165715 5.851429 7.314286 7.314286 16.091429 5.851428 23.405714l-2.925714 5.851428c-1.462857 13.165714-16.091429 23.405714-30.72 23.405715z m-51.2-55.588572c-5.851429 0-10.24 2.925714-11.702857 7.314286l-1.462857 5.851429c-1.462857 5.851429 4.388571 10.24 11.702857 11.702857l48.274285 10.24h2.925715c5.851429 0 10.24-2.925714 11.702857-7.314286l1.462857-5.851429c0-2.925714-1.462857-5.851429-1.462857-7.314285-1.462857-2.925714-5.851429-4.388571-8.777143-5.851429l-48.274286-10.24c-1.462857 1.462857-2.925714 1.462857-4.388571 1.462857z" fill="#141515" p-id="2445"></path></svg>