<svg height="512pt" viewBox="0 0 512 512" width="512pt" xmlns="http://www.w3.org/2000/svg"><path d="m458.667969 0h-405.335938c-5.886719 0-10.664062 4.777344-10.664062 10.667969v42.664062c0 5.890625 4.777343 10.667969 10.664062 10.667969h405.335938c5.886719 0 10.664062-4.777344 10.664062-10.667969v-42.664062c0-5.890625-4.777343-10.667969-10.664062-10.667969zm0 0" fill="#b0bec5"/><path d="m458.667969 106.667969h-405.335938c-5.886719 0-10.664062 4.777343-10.664062 10.664062v85.335938c0 5.886719 4.777343 10.664062 10.664062 10.664062h32v288c0 5.890625 4.78125 10.667969 10.667969 10.667969h64c5.886719 0 10.667969-4.777344 10.667969-10.667969v-224c0-47.058593 38.269531-85.332031 85.332031-85.332031s85.332031 38.273438 85.332031 85.332031v224c0 5.890625 4.78125 10.667969 10.667969 10.667969h64c5.886719 0 10.667969-4.777344 10.667969-10.667969v-288h32c5.886719 0 10.664062-4.777343 10.664062-10.664062v-85.335938c0-5.886719-4.777343-10.664062-10.664062-10.664062zm0 0" fill="#b0bec5"/><path d="m458.667969 192h-42.667969c-5.886719 0-10.667969 4.777344-10.667969 10.667969v298.664062c0 5.890625 4.78125 10.667969 10.667969 10.667969h42.667969c5.886719 0 10.664062-4.777344 10.664062-10.667969v-298.664062c0-5.890625-4.777343-10.667969-10.664062-10.667969zm0 0" fill="#90a4ae"/><path d="m96 192h-42.667969c-5.886719 0-10.664062 4.777344-10.664062 10.667969v298.664062c0 5.890625 4.777343 10.667969 10.664062 10.667969h42.667969c5.886719 0 10.667969-4.777344 10.667969-10.667969v-298.664062c0-5.890625-4.78125-10.667969-10.667969-10.667969zm0 0" fill="#90a4ae"/><path d="m501.332031 42.667969h-490.664062c-5.890625 0-10.667969 4.777343-10.667969 10.664062v64c0 5.890625 4.777344 10.667969 10.667969 10.667969h490.664062c5.890625 0 10.667969-4.777344 10.667969-10.667969v-64c0-5.886719-4.777344-10.664062-10.667969-10.664062zm0 0" fill="#607d8b"/><path d="m458.667969 64h-405.335938c-5.886719 0-10.664062-4.777344-10.664062-10.667969v-42.664062c0-5.890625 4.777343-10.667969 10.664062-10.667969h405.335938c5.886719 0 10.664062 4.777344 10.664062 10.667969v42.664062c0 5.890625-4.777343 10.667969-10.664062 10.667969zm-394.667969-21.332031h384v-21.335938h-384zm0 0"/><path d="m501.332031 128h-490.664062c-5.890625 0-10.667969-4.777344-10.667969-10.667969v-64c0-5.886719 4.777344-10.664062 10.667969-10.664062h490.664062c5.890625 0 10.667969 4.777343 10.667969 10.664062v64c0 5.890625-4.777344 10.667969-10.667969 10.667969zm-480-21.332031h469.335938v-42.667969h-469.335938zm0 0"/><path d="m458.667969 512h-106.667969c-5.886719 0-10.667969-4.777344-10.667969-10.667969v-224c0-47.058593-38.269531-85.332031-85.332031-85.332031s-85.332031 38.273438-85.332031 85.332031v224c0 5.890625-4.78125 10.667969-10.667969 10.667969h-106.667969c-5.886719 0-10.664062-4.777344-10.664062-10.667969v-384c0-5.886719 4.777343-10.664062 10.664062-10.664062h405.335938c5.886719 0 10.664062 4.777343 10.664062 10.664062v384c0 5.890625-4.777343 10.667969-10.664062 10.667969zm-96-21.332031h85.332031v-362.667969h-384v362.667969h85.332031v-213.335938c0-58.816406 47.851563-106.664062 106.667969-106.664062s106.667969 47.847656 106.667969 106.664062zm0 0"/><path d="m416 512c-5.886719 0-10.667969-4.777344-10.667969-10.667969v-298.664062c0-5.890625 4.78125-10.667969 10.667969-10.667969h42.667969c5.886719 0 10.664062 4.777344 10.664062 10.667969 0 5.886719-4.777343 10.664062-10.664062 10.664062h-32v288c0 5.890625-4.78125 10.667969-10.667969 10.667969zm0 0"/><path d="m96 512c-5.886719 0-10.667969-4.777344-10.667969-10.667969v-288h-32c-5.886719 0-10.664062-4.777343-10.664062-10.664062 0-5.890625 4.777343-10.667969 10.664062-10.667969h42.667969c5.886719 0 10.667969 4.777344 10.667969 10.667969v298.664062c0 5.890625-4.78125 10.667969-10.667969 10.667969zm0 0"/></svg>