<?xml version="1.0" standalone="no"?><!DOCTYPE svg PUBLIC "-//W3C//DTD SVG 1.1//EN" "http://www.w3.org/Graphics/SVG/1.1/DTD/svg11.dtd"><svg t="1568877947725" class="icon" viewBox="0 0 1024 1024" version="1.1" xmlns="http://www.w3.org/2000/svg" p-id="1604" xmlns:xlink="http://www.w3.org/1999/xlink" width="200" height="200"><defs><style type="text/css"></style></defs><path d="M448.69707852 341.25040197c-17.21735902 74.04758914 74.8243121 262.144 192.49784098 252.30550914 119.74479013-9.96794469 211.00973827-67.05708247 262.79126914-188.74368C971.56108642 245.97238518 818.67611653 127.13377185 715.24250864 127.26322569c-179.94081975 0.12945383-249.32807111 139.93958717-266.54543012 213.98717628z" fill="#F2D4C9" p-id="1605"></path><path d="M715.37196247 127.26322569c103.4336079 0 256.31857778 118.83861333 188.74368 277.54900542-51.78153086 121.81605136-143.04647902 178.77573531-262.79126914 188.74368-2.97743803 0.25890765-5.95487605 0.38836148-8.93231408 0.38836148-113.40155259 0-200.39452445-180.45863506-183.5655269-252.69387062 17.08790518-74.04758914 86.47515653-213.85772247 266.54543012-213.98717628-0.12945383 0-0.12945383 0 0 0m0-25.89076544c-45.82665482 0-88.1580563 8.54395259-125.69966617 25.24349628-32.75181827 14.62828247-62.13783703 35.47034864-87.38133333 62.00838322-53.20552297 56.05350717-72.75305086 121.29823605-78.70792692 146.67118617-5.95487605 25.63185778-2.07126124 60.84329876 11.00357531 99.16163161 12.68647506 37.28270222 32.8812721 74.43595061 56.95968395 104.72814617 19.02971259 23.94895803 39.74232494 42.8492168 61.62002172 56.57132247 25.76131161 15.92282075 52.4288 24.07841185 79.22574222 24.07841186 3.62470717 0 7.37886815-0.12945383 11.00357532-0.51781531 65.89199803-5.43706075 122.98113581-24.72568098 169.45505974-56.95968396 49.19245431-34.17581037 87.89914864-83.75662617 114.95499852-147.44790913 15.53445925-36.63543309 21.48933531-73.40032 17.6057205-109.38848394-3.49525333-32.49291061-14.88719013-63.43237531-33.78744888-92.04167112-21.8776968-33.14017975-52.94661531-61.4905679-89.71150223-81.9442726-35.08198717-19.41807408-72.88250469-30.16274173-106.54049975-30.16274172z" fill="#1A1A1A" p-id="1606"></path><path d="M558.99173925 568.83023013c24.85513482 17.34681283 52.68770765 27.31475753 82.20318025 24.85513481 119.74479013-9.96794469 211.00973827-67.05708247 262.79126914-188.74368 46.2150163-108.61176098-10.61521383-198.45271703-84.14498766-244.40882569 13.07483653 47.50955457 58.25422222 126.86475061-12.16865974 248.81025581-71.9763279 124.27567408-201.68906272 136.44433383-248.68080199 159.48711507z" fill="#D8B5AB" p-id="1607"></path><path d="M108.75132839 578.2803595c185.89569581-375.80446025 471.08247703-327.38872889 548.1075042-267.45160691 63.69128297 49.58081581 225.24965925 235.47651161 59.93712198 442.21427358S377.23856592 958.74515753 357.56158419 961.59314173c-19.67698173 2.84798419-248.81025581-383.31278222-248.8102558-383.31278223z" fill="#F2D4C9" p-id="1608"></path><path d="M734.40167506 747.34705778c-5.43706075-2.84798419-12.16865975-1.4239921-15.92282075 3.3657995-0.64726914 0.77672297-1.16508445 1.4239921-1.81235356 2.20071507-165.31253728 206.73776197-339.42793482 205.83158518-359.10491656 208.67956938h-0.25890766c-21.10097383 0-248.55134815-383.31278222-248.55134814-383.31278223C228.88448 335.55443358 390.31340247 269.79188939 510.31710025 269.79188939c65.89199803 0 119.22697482 19.80643555 146.54173234 41.0368632C705.92183309 348.88817778 812.98014815 467.98569876 784.11194469 615.17470025c-1.4239921 6.99050667 3.10689185 13.72210569 9.9679447 15.01664394h0.25890764c6.99050667 1.4239921 13.72210569-3.10689185 15.14609779-10.0973985 5.69596839-29.25656494 6.86105283-59.03094518 3.36579949-88.80532544-6.2137837-52.04043852-26.14967309-103.4336079-59.28985283-152.4966084-33.14017975-48.93354667-67.57489778-78.19011161-80.77918815-88.54641777-17.08790518-13.33374419-40.26014025-24.59622717-67.1865363-32.75181827-29.38601876-8.93231408-62.26729086-13.72210569-95.27801678-13.72210568-74.17704297 0-148.61299358 23.43114272-215.15226075 67.57489777-82.4620879 54.75896889-153.0144237 140.71631013-209.7152 255.28294716-3.88361482 7.89668347-3.49525333 17.08790518 0.9061768 24.72568099 0.51781531 0.9061768 57.73640691 97.21982419 116.63789827 192.1094795 34.69362569 55.92405333 63.30292148 100.5856237 85.05116445 132.56071902 13.07483653 19.41807408 23.94895803 34.56417185 32.10454913 44.92047802 11.78029827 14.88719013 21.8776968 26.40858075 37.15324838 26.40858074 1.29453827 0 2.71853037-0.12945383 4.01306865-0.25890764 0.77672297-0.12945383 3.23634569-0.25890765 5.30760692-0.51781532 20.0653432-1.68289975 73.40032-6.08432987 141.36357926-35.47034864 84.40389531-36.50597925 161.42892247-97.7376395 229.00382025-182.14153482 0.64726914-0.77672297 1.29453827-1.55344592 1.94180741-2.45962272 4.91924543-6.34323753 2.97743803-15.53445925-4.14252249-19.28862024l-0.38836147 0.12945383z" fill="#1A1A1A" p-id="1609"></path><path d="M761.19861728 683.1379595c-2.84798419 5.82542222-5.82542222 11.65084445-9.06176789 17.6057205-3.3657995 6.08432987-1.29453827 13.59265185 4.53088394 17.21735902 0.12945383 0 0.12945383 0.12945383 0.25890765 0.12945381 6.2137837 3.75416098 14.23992098 1.55344592 17.73517433-4.78979159 3.49525333-6.2137837 6.73159902-12.55702124 9.83849086-18.90025877 2.97743803-6.2137837 0.51781531-13.59265185-5.43706074-16.82899753-0.12945383 0-0.12945383-0.12945383-0.25890765-0.12945383-6.47269136-3.49525333-14.49882864-0.9061768-17.6057205 5.69596839z" fill="#1A1A1A" p-id="1610"></path><path d="M741.00382025 407.1424c52.4288 85.05116445 83.49771852 211.00973827-24.3373195 345.77117235-165.31253728 206.73776197-339.42793482 205.83158518-359.10491656 208.67956938-5.69596839 0.9061768-29.38601876-31.45728-59.93712197-77.6722963 202.33633185-75.73048889 303.43977086-116.2495368 399.10614914-284.92787358 45.04993185-98.77327013 19.28862025-202.07742419 15.14609778-232.75798124 17.47626667 22.3955121 22.13660445 30.5511032 29.12711111 40.90740939z" fill="#D8B5AB" p-id="1611"></path><path d="M99.81901431 603.65330963c-25.63185778 88.41696395 53.20552297 375.02773728 247.12735606 357.9398321 193.92183309-17.08790518 212.04536889-152.62606222 143.56429432-298.00271012S305.13278419 455.42867753 211.01985185 486.7565037s-111.20083753 116.89680592-111.20083754 116.89680593z" fill="#F2E9DD" p-id="1612"></path><path d="M260.21230617 478.85982025c82.9799032 0 173.33867457 63.69128297 230.29835852 184.73061136 68.48107457 145.3766479 50.35753876 280.91480494-143.56429432 298.00271012-5.56651457 0.51781531-11.13302914 0.77672297-16.44063606 0.77672296-181.88262717 0-255.54185482-272.75921383-230.55726616-358.58710122 0 0 17.08790518-85.56897975 111.20083754-116.89680594 15.79336691-5.30760691 32.23400297-8.02613728 49.06300048-8.02613728m0-25.89076543c-19.67698173 0-38.96560197 3.10689185-57.34804542 9.19122171-44.14375506 14.7577363-80.39082667 42.71976297-104.59869236 80.90864199-16.44063605 26.02021925-22.26605827 48.41573136-23.56059654 54.24115358-9.0617679 32.49291061-6.86105283 81.81481876 6.2137837 135.66761087 14.36937482 58.90149136 39.87177876 114.82554469 71.84687408 157.54530764 48.02736987 63.95019061 109.38848395 97.7376395 177.61065087 97.73763952 6.2137837 0 12.55702124-0.25890765 18.77080493-0.77672296 44.40266272-3.88361482 82.20318025-13.98101333 112.49537581-29.90383408 30.0332879-15.79336691 53.07606914-37.28270222 68.48107457-64.20909827 18.25298963-31.84564148 25.50240395-70.29342815 21.23042766-114.17827557-3.75416098-38.96560197-16.44063605-81.55591111-37.54160989-126.60584295-28.86820347-61.36111408-67.96325925-112.23646815-113.01319111-147.18900148-44.01430124-34.30526419-92.81839408-52.4288-140.5868563-52.4288z" fill="#1A1A1A" p-id="1613"></path><path d="M297.62446222 725.59881482m-22.78387358 0a22.78387358 22.78387358 0 1 0 45.56774717 0 22.78387358 22.78387358 0 1 0-45.56774717 0Z" fill="#D3C8B6" p-id="1614"></path><path d="M297.62446222 702.81494124c12.55702124 0 22.78387358 10.22685235 22.78387359 22.78387358 0 12.55702124-10.22685235 22.78387358-22.78387359 22.78387357s-22.78387358-10.22685235-22.78387358-22.78387357c0-12.55702124 10.22685235-22.78387358 22.78387358-22.78387358m0-25.89076543c-26.79694222 0-48.67463902 21.8776968-48.67463902 48.67463901s21.8776968 48.67463902 48.67463902 48.67463901S346.29910124 752.52521086 346.29910124 725.59881482s-21.74824297-48.67463902-48.67463902-48.67463901z" fill="#1A1A1A" p-id="1615"></path><path d="M214.74586181 606.63212893a51.13426173 33.26963358 76.557 1 0 64.71620386-15.46890902 51.13426173 33.26963358 76.557 1 0-64.71620386 15.46890902Z" fill="#D3C8B6" p-id="1616"></path><path d="M253.99852247 662.1664395c-10.48576 0-21.10097383-4.66033778-30.16274172-13.20429036-10.09739852-9.5795832-17.86462815-23.56059653-21.61878914-39.35396345-8.41449876-34.95253333 4.78979161-67.05708247 30.03328789-73.14141236 25.2434963-5.95487605 51.5226232 16.6995437 59.80766815 51.65207704 8.41449876 34.95253333-4.78979161 67.05708247-30.0332879 73.14141235-2.58907653 0.64726914-5.30760691 0.9061768-8.02613728 0.90617678z m-13.59265186-100.71507753c-0.77672297 0-1.4239921 0.12945383-2.07126122 0.25890766-9.32067555 2.20071506-15.92282075 20.58315852-10.87412149 41.94304 2.58907653 10.74466765 7.76722963 20.45370469 14.23992099 26.53803456 5.04869925 4.78979161 10.22685235 6.86105283 14.49882864 5.95487606 9.32067555-2.20071506 15.92282075-20.58315852 10.87412149-41.94304-4.91924543-19.80643555-17.47626667-32.75181827-26.66748841-32.75181828z" fill="#1A1A1A" p-id="1617"></path><path d="M161.38556515 722.48488067a40.00123259 33.26963358 16.552 1 0 18.9560676-63.78198478 40.00123259 33.26963358 16.552 1 0-18.9560676 63.78198478Z" fill="#D3C8B6" p-id="1618"></path><path d="M174.77278025 737.50856691c-5.56651457 0-11.3919368-0.77672297-17.08790519-2.45962272-27.96202667-8.28504494-44.92047803-34.95253333-37.6710637-59.41930666 7.24941431-24.46677333 35.98816395-37.54160987 63.95019061-29.25656494s44.92047803 34.95253333 37.67106372 59.41930666c-5.69596839 19.41807408-25.11404247 31.71618765-46.86228544 31.71618766z m-7.76722964-67.7043516c-10.48576 0-19.67698173 5.04869925-22.13660444 13.20429038-3.10689185 10.61521383 6.08432987 23.04278124 20.19479703 27.1853037 14.11046717 4.14252247 28.60929581-1.16508445 31.84564149-11.78029828 3.10689185-10.61521383-6.08432987-23.04278124-20.19479704-27.1853037-3.3657995-1.03563061-6.60214518-1.4239921-9.70903704-1.4239921z" fill="#1A1A1A" p-id="1619"></path><path d="M187.23243279 840.80335371a33.26963358 39.74232494 46.552 1 0 57.70576-54.66127398 33.26963358 39.74232494 46.552 1 0-57.70576 54.66127398Z" fill="#D3C8B6" p-id="1620"></path><path d="M209.59585975 862.94932543c-12.42756741 0-23.56059653-4.66033778-31.71618765-13.20429037-17.47626667-18.51189728-14.62828247-49.83972347 6.47269137-69.77561284 21.10097383-19.93588939 52.4288-21.10097383 70.03452048-2.71853037 8.80286025 9.32067555 12.81592889 21.8776968 11.13302914 35.47034865-1.4239921 12.68647506-7.76722963 24.85513482-17.6057205 34.30526419-9.96794469 9.32067555-22.3955121 15.01664395-35.21144098 15.79336692-1.16508445 0-2.20071506 0.12945383-3.10689186 0.12945382z m-7.50832197-64.20909826c-10.48576 9.96794469-13.07483653 25.11404247-5.43706075 33.14017974 3.49525333 3.62470717 8.54395259 5.43706075 14.36937482 5.04869926 6.73159902-0.38836148 13.46319803-3.49525333 19.0297126-8.67340642 5.43706075-5.17815309 8.93231408-11.78029827 9.70903703-18.51189728 0.64726914-5.82542222-0.77672297-11.00357531-4.2719763-14.62828247-7.50832197-8.02613728-22.91332741-6.34323753-33.3990874 3.62470717z" fill="#1A1A1A" p-id="1621"></path><path d="M295.51664322 860.11164705a51.13426173 33.26963358 76.557 1 0 64.71620258-15.46890902 51.13426173 33.26963358 76.557 1 0-64.71620258 15.46890902Z" fill="#D3C8B6" p-id="1622"></path><path d="M334.6482568 915.63703309c-22.52496592 0-44.14375506-21.35988148-51.65207705-52.55825384-8.41449876-34.95253333 4.78979161-67.05708247 30.0332879-73.14141234 25.2434963-6.08432987 51.5226232 16.6995437 59.80766816 51.65207704 8.41449876 34.95253333-4.78979161 67.05708247-30.03328791 73.14141235-2.71853037 0.64726914-5.43706075 0.9061768-8.1555911 0.90617679z m-26.40858075-58.51312989c5.04869925 21.23042765 19.28862025 34.69362569 28.6092958 32.49291063 9.32067555-2.20071506 15.92282075-20.58315852 10.87412148-41.94304-5.04869925-21.23042765-19.28862025-34.69362569-28.6092958-32.49291063-9.32067555 2.20071506-16.05227457 20.58315852-10.87412148 41.94304z" fill="#1A1A1A" p-id="1623"></path><path d="M416.95946626 799.05317142a39.09505581 33.26963358 16.552 1 0 18.9560676-63.78198477 39.09505581 33.26963358 16.552 1 0-18.9560676 63.78198477Z" fill="#D3C8B6" p-id="1624"></path><path d="M429.92627358 813.88632494c-5.56651457 0-11.13302914-0.77672297-16.57008988-2.45962272-27.44421136-8.15559111-44.01430124-34.69362569-36.7648869-59.16039902 7.24941431-24.46677333 35.59980247-37.6710637 63.04401381-29.51547259 12.94538272 3.88361482 23.94895803 11.9097521 30.9394647 22.52496592 7.37886815 11.3919368 9.45012939 24.3373195 5.82542222 36.50597928s-12.42756741 22.00715061-24.85513481 27.44421136c-6.73159902 3.23634569-14.11046717 4.66033778-21.61878914 4.66033777z m-6.99050667-67.57489777c-10.22685235 0-19.02971259 5.04869925-21.4893353 13.46319801-3.23634569 10.74466765 5.43706075 22.78387358 19.28862024 26.92639606 7.1199605 2.07126124 14.23992098 1.81235358 20.32425087-0.90617679 5.30760691-2.33016889 9.0617679-6.34323753 10.48576-11.13302914s0.51781531-10.22685235-2.71853037-15.01664395c-3.62470717-5.56651457-9.45012939-9.70903703-16.57008988-11.90975211-3.10689185-0.9061768-6.2137837-1.4239921-9.32067556-1.42399208z" fill="#1A1A1A" p-id="1625"></path><path d="M354.01017638 660.0312734a33.26963358 40.77795555 46.552 1 0 59.20949437-56.08566998 33.26963358 40.77795555 46.552 1 0-59.20949437 56.08566998Z" fill="#D3C8B6" p-id="1626"></path><path d="M376.07348148 681.97287506c-12.29811358 0-23.56059653-4.66033778-31.58673383-12.94538271-8.67340642-9.19122173-12.68647506-22.26605827-10.87412148-35.85871013 1.68289975-12.81592889 8.15559111-25.11404247 18.25298964-34.69362569s22.65441975-15.27555161 35.59980246-16.31118222c13.72210569-1.03563061 26.53803457 3.62470717 35.21144098 12.81592889 17.47626667 18.51189728 14.23992098 50.09863111-7.24941431 70.55233582-10.09739852 9.5795832-22.65441975 15.27555161-35.59980247 16.31118222-1.29453827 0-2.45962272 0.12945383-3.75416099 0.12945382z m30.42164938-25.89076543z m-15.40500543-48.15682371c-0.64726914 0-1.29453827 0-1.81235358 0.12945383-6.86105283 0.51781531-13.98101333 3.88361482-19.67698172 9.32067556-5.69596839 5.43706075-9.45012939 12.42756741-10.35630618 19.15916642-0.38836148 3.49525333-0.51781531 9.96794469 4.01306864 14.7577363s11.00357531 5.04869925 14.49882865 4.7897916c6.86105283-0.51781531 13.98101333-3.88361482 19.67698173-9.32067555 11.00357531-10.35630617 13.8515595-25.89076543 6.2137837-33.91690272-3.62470717-4.14252247-8.93231408-4.91924543-12.55702124-4.91924544z" fill="#1A1A1A" p-id="1627"></path></svg>