<?xml version="1.0" encoding="utf-8"?>
<!-- Generator: Adobe Illustrator 23.0.6, SVG Export Plug-In . SVG Version: 6.00 Build 0)  -->
<svg version="1.1" id="Layer_1" xmlns="http://www.w3.org/2000/svg" xmlns:xlink="http://www.w3.org/1999/xlink" x="0px" y="0px"
	 viewBox="0 0 512 512" style="enable-background:new 0 0 512 512;" xml:space="preserve">
<style type="text/css">
	.st0{fill:#A4C9FF;}
	.st1{fill:#E0EBFC;}
	.st2{fill:#3762CC;}
	.st3{fill:#EAA97D;}
	.st4{fill:#6BDDDD;}
</style>
<path class="st0" d="M201.8,84.7L16,479.3h240h240L310.2,84.7c-9.9-21-31-34.4-54.2-34.4S211.7,63.7,201.8,84.7L201.8,84.7z"/>
<path class="st1" d="M315,266.5l-34.1-27.1c-25.1-19.9-35.5-53-26.4-83.7l29.3-98.6c-8.4-4.4-17.9-6.8-27.7-6.8
	c-2.8,0-5.5,0.2-8.2,0.6l-45.4,123.7c-11.4,31.2-1.9,66.3,23.7,87.4c34.4,28.3,38.2,79.6,8.4,112.8l-93.9,104.5H256h11.3l66.3-111.4
	C353.7,334.2,345.7,290.9,315,266.5L315,266.5z"/>
<path class="st2" d="M16,486.3c-2.4,0-4.6-1.2-5.9-3.3c-1.3-2-1.4-4.5-0.4-6.7L195.5,81.7c11-23.3,34.7-38.4,60.5-38.4
	c25.8,0,49.5,15.1,60.5,38.4l185.8,394.6c1,2.2,0.9,4.7-0.4,6.7c-1.3,2-3.5,3.2-5.9,3.2H16z M485,472.3L303.9,87.6
	c-8.7-18.4-27.5-30.4-47.9-30.4c-20.4,0-39.1,11.9-47.8,30.3L27,472.3H485z"/>
<path class="st2" d="M496,483.3H16c-1.4,0-2.6-0.7-3.4-1.9s-0.8-2.6-0.2-3.8L198.2,82.9c10.5-22.3,33.2-36.7,57.8-36.7
	s47.3,14.4,57.8,36.7l185.8,394.6c0.6,1.2,0.5,2.7-0.2,3.8C498.6,482.6,497.4,483.3,496,483.3L496,483.3z M22.3,475.3h467.4
	L306.6,86.4c-9.2-19.5-29-32.1-50.6-32.1s-41.4,12.6-50.6,32.1l-3.6-1.7l3.6,1.7L22.3,475.3z"/>
<path class="st3" d="M322.5,144.1h-21.4v-15.8h21.4V144.1z"/>
<path class="st4" d="M275.9,124.1l11-16.7h-3.6c-1.9,0-3-2.2-2-4l10-17.9h-2c-1.8,0-3-2.2-2-4l22.5-41.3c0.9-1.7,3.2-1.7,4.1,0
	l22.5,41.3c1,1.7-0.2,4-2,4h-2l10,17.9c1,1.7-0.2,4-2,4h-3.6l11,16.7c1.1,1.7,0,4.1-1.9,4.1h-23.3h-21.4h-23.3
	C275.9,128.3,274.8,125.9,275.9,124.1z"/>
<path class="st2" d="M322.5,148.1h-21.4c-2.2,0-4-1.8-4-4v-11.8h-19.3c-2.3,0-4.4-1.3-5.6-3.4c-1.2-2.2-1.1-4.9,0.3-7l7.5-11.5
	c-0.9-0.5-1.6-1.3-2.2-2.2c-1.2-2.1-1.2-4.7-0.1-6.8l7.4-13.4c-0.6-0.5-1.1-1-1.5-1.7c-1.2-2.1-1.3-4.6-0.1-6.7l22.5-41.3
	c1.1-2.1,3.3-3.3,5.5-3.3s4.4,1.3,5.5,3.3l22.5,41.3c1.1,2.1,1.1,4.7-0.1,6.7c-0.4,0.7-0.9,1.2-1.5,1.7l7.5,13.4
	c1.2,2.1,1.1,4.7-0.1,6.8c-0.6,0.9-1.3,1.7-2.2,2.2l7.5,11.5c1.4,2.1,1.5,4.8,0.3,7c-1.1,2.1-3.3,3.4-5.6,3.4h-19.3v11.8
	C326.5,146.3,324.7,148.1,322.5,148.1L322.5,148.1z M305.1,140.1h13.4v-11.8c0-2.2,1.8-4,4-4H343l-9.7-14.7
	c-0.8-1.2-0.9-2.8-0.2-4.1c0.7-1.3,2-2.1,3.5-2.1h1l-8.9-15.9c-0.7-1.2-0.7-2.8,0-4c0.6-1.1,1.7-1.8,2.9-1.9l-20-36.6l-20,36.6
	c1.2,0.2,2.3,0.9,2.9,1.9c0.7,1.2,0.7,2.7,0,4l-8.9,15.9h1c1.5,0,2.8,0.8,3.5,2.1c0.7,1.3,0.6,2.9-0.2,4.1l-9.7,14.7h20.5
	c2.2,0,4,1.8,4,4L305.1,140.1L305.1,140.1z"/>
<path class="st2" d="M322.5,148.1h-21.4c-2.2,0-4-1.8-4-4v-11.8h-19.3c-2.3,0-4.4-1.3-5.6-3.4c-1.2-2.2-1.1-4.9,0.3-7l7.5-11.5
	c-0.9-0.5-1.6-1.3-2.2-2.2c-1.2-2.1-1.2-4.7-0.1-6.8l7.4-13.4c-0.6-0.5-1.1-1-1.5-1.7c-1.2-2.1-1.3-4.6-0.1-6.7l22.5-41.3
	c1.1-2.1,3.3-3.3,5.5-3.3s4.4,1.3,5.5,3.3l22.5,41.3c1.1,2.1,1.1,4.7-0.1,6.7c-0.4,0.7-0.9,1.2-1.5,1.7l7.5,13.4
	c1.2,2.1,1.1,4.7-0.1,6.8c-0.6,0.9-1.3,1.7-2.2,2.2l7.5,11.5c1.4,2.1,1.5,4.8,0.3,7c-1.1,2.1-3.3,3.4-5.6,3.4h-19.3v11.8
	C326.5,146.3,324.7,148.1,322.5,148.1L322.5,148.1z M305.1,140.1h13.4v-11.8c0-2.2,1.8-4,4-4H343l-9.7-14.7
	c-0.8-1.2-0.9-2.8-0.2-4.1c0.7-1.3,2-2.1,3.5-2.1h1l-8.9-15.9c-0.7-1.2-0.7-2.8,0-4c0.6-1.1,1.7-1.8,2.9-1.9l-20-36.6l-20,36.6
	c1.2,0.2,2.3,0.9,2.9,1.9c0.7,1.2,0.7,2.7,0,4l-8.9,15.9h1c1.5,0,2.8,0.8,3.5,2.1c0.7,1.3,0.6,2.9-0.2,4.1l-9.7,14.7h20.5
	c2.2,0,4,1.8,4,4L305.1,140.1L305.1,140.1z"/>
<path class="st1" d="M295.3,70.3V60.2l14.2-26.1c1-1.9,3.5-1.9,4.6,0l16,29.4c-1.7,2.2-4.3,3.7-7.2,3.9c-2.2,0.2-4.2-0.4-5.9-1.3
	c-0.5-0.3-1.1,0.1-1.1,0.7v3.6c0,5.7-4.6,10.3-10.3,10.3C299.9,80.6,295.3,76,295.3,70.3L295.3,70.3z"/>
<path class="st2" d="M305.6,84.6c-7.9,0-14.3-6.4-14.3-14.3V60.2c0-0.7,0.2-1.3,0.5-1.9L306,32.2c1.2-2.2,3.4-3.5,5.8-3.5h0
	c2.4,0,4.6,1.3,5.8,3.5l16,29.4c0.8,1.4,0.6,3.1-0.4,4.4c-2.5,3.2-6.2,5.2-10.1,5.5c-1.1,0.1-2.2,0-3.3-0.1
	C319.4,78.7,313.1,84.6,305.6,84.6L305.6,84.6z M299.3,61.2v9.1c0,3.5,2.8,6.3,6.3,6.3s6.3-2.8,6.3-6.3v-3.6c0-1.7,0.9-3.3,2.4-4.1
	c1.5-0.8,3.3-0.8,4.7,0c1.1,0.6,2.3,0.9,3.6,0.8c0.9-0.1,1.8-0.3,2.5-0.8l-13.3-24.4L299.3,61.2z"/>
<path class="st1" d="M304.3,88.5h18.6c3.2,0,5.7,2.6,5.7,5.7c0,0.6-0.1,1.2-0.3,1.8h11.1c3.2,0,5.7,2.6,5.7,5.7s-2.6,5.7-5.7,5.7
	h-18.6c-3.2,0-5.7-2.6-5.7-5.7c0-0.6,0.1-1.2,0.3-1.8h-11.1c-3.2,0-5.7-2.6-5.7-5.7S301.2,88.5,304.3,88.5z"/>
<path class="st2" d="M339.5,111.5h-18.6c-4.6,0-8.5-3.2-9.5-7.5h-7c-5.4,0-9.7-4.4-9.7-9.7s4.4-9.7,9.7-9.7h18.6
	c4.6,0,8.5,3.2,9.5,7.5h7c5.4,0,9.7,4.4,9.7,9.7S344.8,111.5,339.5,111.5L339.5,111.5z M304.3,92.5c-1,0-1.7,0.8-1.7,1.7
	s0.8,1.7,1.7,1.7h11.1c1.3,0,2.5,0.6,3.2,1.7s1,2.4,0.6,3.6c-0.1,0.2-0.1,0.3-0.1,0.5c0,1,0.8,1.7,1.7,1.7h18.6c1,0,1.7-0.8,1.7-1.7
	s-0.8-1.7-1.7-1.7h-11.1c-1.3,0-2.5-0.6-3.2-1.7c-0.8-1-1-2.4-0.6-3.6c0.1-0.2,0.1-0.4,0.1-0.5c0-1-0.8-1.7-1.7-1.7L304.3,92.5
	L304.3,92.5z"/>
<path class="st3" d="M179.9,350.9h-28.3V330h28.3V350.9z"/>
<path class="st4" d="M118.3,324.6l14.6-22.1h-4.7c-2.5,0-4-3-2.7-5.2l13.2-23.6h-2.7c-2.4,0-3.9-2.9-2.7-5.2l29.8-54.5
	c1.2-2.2,4.2-2.2,5.4,0l29.8,54.5c1.3,2.3-0.3,5.2-2.7,5.2h-2.7l13.2,23.6c1.3,2.3-0.2,5.2-2.7,5.2h-4.7l14.6,22.1
	c1.5,2.3,0,5.5-2.5,5.5h-30.8h-28.3h-30.8C118.3,330,116.8,326.9,118.3,324.6L118.3,324.6z"/>
<path class="st2" d="M179.9,354.9h-28.3c-2.2,0-4-1.8-4-4V334h-26.8c-2.6,0-4.9-1.4-6.2-3.8c-1.3-2.5-1.2-5.5,0.3-7.9l10.8-16.4
	c-1.5-0.6-2.8-1.6-3.7-3.1c-1.4-2.3-1.4-5.3-0.1-7.6l10.4-18.7c-1-0.6-1.9-1.5-2.5-2.5c-1.4-2.3-1.4-5.2-0.1-7.6l29.8-54.5
	c1.3-2.3,3.6-3.8,6.2-3.8c2.6,0,4.9,1.4,6.2,3.8l29.8,54.5c1.3,2.4,1.2,5.3-0.1,7.6c-0.6,1.1-1.5,1.9-2.5,2.5l10.4,18.7
	c1.3,2.4,1.3,5.3-0.1,7.6c-0.9,1.5-2.2,2.5-3.6,3.1l10.8,16.4c1.6,2.4,1.7,5.4,0.3,7.9c-1.3,2.4-3.6,3.8-6.2,3.8h-26.8v16.9
	C183.9,353.1,182.1,354.9,179.9,354.9L179.9,354.9z M155.6,346.9h20.3V330c0-2.2,1.8-4,4-4h29.5l-14.1-21.4
	c-0.8-1.2-0.9-2.8-0.2-4.1c0.7-1.3,2.1-2.1,3.5-2.1h3.5l-12.8-23c-0.7-1.2-0.7-2.8,0-4s2-2,3.4-2h1.5l-28.6-52.3l-28.6,52.3h1.5
	c1.4,0,2.7,0.8,3.4,2s0.7,2.7,0,4l-12.8,23h3.5c1.5,0,2.8,0.8,3.5,2.1c0.7,1.3,0.6,2.9-0.2,4.1L122.1,326h29.5c2.2,0,4,1.8,4,4
	L155.6,346.9L155.6,346.9z M118.3,324.6L118.3,324.6L118.3,324.6z"/>
<path class="st2" d="M179.9,354.9h-28.3c-2.2,0-4-1.8-4-4V334h-26.8c-2.6,0-4.9-1.4-6.2-3.8c-1.3-2.5-1.2-5.5,0.3-7.9l10.8-16.4
	c-1.5-0.6-2.8-1.6-3.7-3.1c-1.4-2.3-1.4-5.3-0.1-7.6l10.4-18.7c-1-0.6-1.9-1.5-2.5-2.5c-1.4-2.3-1.4-5.2-0.1-7.6l29.8-54.5
	c1.3-2.3,3.6-3.8,6.2-3.8c2.6,0,4.9,1.4,6.2,3.8l29.8,54.5c1.3,2.4,1.2,5.3-0.1,7.6c-0.6,1.1-1.5,1.9-2.5,2.5l10.4,18.7
	c1.3,2.4,1.3,5.3-0.1,7.6c-0.9,1.5-2.2,2.5-3.6,3.1l10.8,16.4c1.6,2.4,1.7,5.4,0.3,7.9c-1.3,2.4-3.6,3.8-6.2,3.8h-26.8v16.9
	C183.9,353.1,182.1,354.9,179.9,354.9L179.9,354.9z M155.6,346.9h20.3V330c0-2.2,1.8-4,4-4h29.5l-14.1-21.4
	c-0.8-1.2-0.9-2.8-0.2-4.1c0.7-1.3,2.1-2.1,3.5-2.1h3.5l-12.8-23c-0.7-1.2-0.7-2.8,0-4s2-2,3.4-2h1.5l-28.6-52.3l-28.6,52.3h1.5
	c1.4,0,2.7,0.8,3.4,2s0.7,2.7,0,4l-12.8,23h3.5c1.5,0,2.8,0.8,3.5,2.1c0.7,1.3,0.6,2.9-0.2,4.1L122.1,326h29.5c2.2,0,4,1.8,4,4
	L155.6,346.9L155.6,346.9z M118.3,324.6L118.3,324.6L118.3,324.6z"/>
<path class="st1" d="M143.9,253.5v-13.4l18.8-34.4c1.4-2.5,4.7-2.5,6,0l21.2,38.8c-2.3,2.9-5.7,4.9-9.6,5.2
	c-2.9,0.2-5.5-0.5-7.8-1.8c-0.6-0.4-1.5,0.1-1.5,0.9v4.7c0,7.5-6.1,13.6-13.6,13.6C150,267.1,143.9,261,143.9,253.5L143.9,253.5z"/>
<path class="st2" d="M157.5,271.1c-9.7,0-17.6-7.9-17.6-17.6v-13.4c0-0.7,0.2-1.3,0.5-1.9l18.8-34.4c1.4-2.5,3.8-4,6.5-4
	s5.2,1.5,6.5,4l21.2,38.8c0.8,1.4,0.6,3.1-0.4,4.4c-3.1,3.9-7.6,6.4-12.4,6.7c-1.9,0.1-3.8,0-5.6-0.5v0.3
	C175.1,263.2,167.2,271.1,157.5,271.1L157.5,271.1z M147.9,241.1v12.4c0,5.3,4.3,9.6,9.6,9.6c5.3,0,9.6-4.3,9.6-9.6v-4.7
	c0-1.8,1-3.4,2.5-4.3c1.5-0.9,3.4-0.9,5,0c1.7,1,3.6,1.4,5.5,1.2c1.8-0.1,3.5-0.8,4.9-1.9l-19.3-35.3L147.9,241.1z"/>
<path class="st1" d="M155.9,277.5h24.6c4.2,0,7.6,3.4,7.6,7.6c0,0.8-0.1,1.6-0.4,2.4h14.6c4.2,0,7.6,3.4,7.6,7.6s-3.4,7.6-7.6,7.6
	h-24.6c-4.2,0-7.6-3.4-7.6-7.6c0-0.8,0.1-1.6,0.4-2.4h-14.6c-4.2,0-7.6-3.4-7.6-7.6S151.7,277.5,155.9,277.5z"/>
<path class="st2" d="M202.2,306.6h-24.6c-5.8,0-10.6-4.3-11.4-9.9h-10.4c-6.4,0-11.6-5.2-11.6-11.6c0-6.4,5.2-11.6,11.6-11.6h24.6
	c5.8,0,10.6,4.3,11.4,9.9h10.4c6.4,0,11.6,5.2,11.6,11.6S208.6,306.6,202.2,306.6L202.2,306.6z M155.9,281.5c-2,0-3.6,1.6-3.6,3.6
	s1.6,3.6,3.6,3.6h14.6c1.3,0,2.5,0.6,3.2,1.7c0.8,1,1,2.4,0.6,3.6c-0.1,0.4-0.2,0.7-0.2,1.1c0,2,1.6,3.6,3.6,3.6h24.6
	c2,0,3.6-1.6,3.6-3.6s-1.6-3.6-3.6-3.6h-14.6c-1.3,0-2.5-0.6-3.2-1.7c-0.8-1-1-2.4-0.6-3.6c0.1-0.4,0.2-0.7,0.2-1.1
	c0-2-1.6-3.6-3.6-3.6L155.9,281.5z"/>
<path class="st3" d="M406.6,461.2h-32.9v-24.3h32.9V461.2z"/>
<path class="st4" d="M334.9,430.5l16.9-25.7h-5.5c-2.9,0-4.6-3.4-3.1-6.1l15.3-27.5h-3.1c-2.8,0-4.6-3.4-3.1-6.1l34.6-63.4
	c1.4-2.6,4.8-2.6,6.3,0l34.6,63.4c1.5,2.7-0.3,6.1-3.1,6.1h-3.1l15.3,27.5c1.5,2.7-0.3,6.1-3.1,6.1h-5.5l16.9,25.7
	c1.7,2.7,0,6.4-3,6.4h-35.8h-32.9h-35.8C334.9,436.9,333.2,433.1,334.9,430.5L334.9,430.5z"/>
<path class="st2" d="M406.6,465.2h-32.9c-2.2,0-4-1.8-4-4v-20.3h-31.8c-2.8,0-5.3-1.5-6.7-4.1c-1.5-2.7-1.3-6,0.4-8.5h0l13-19.8
	c-1.9-0.5-3.6-1.8-4.7-3.6c-1.5-2.5-1.5-5.7-0.1-8.2l12.4-22.3c-1.3-0.6-2.4-1.7-3.2-3c-1.5-2.5-1.5-5.7-0.1-8.2l34.6-63.4
	c1.4-2.5,3.9-4,6.6-4h0c2.8,0,5.3,1.5,6.6,4l34.6,63.4c1.4,2.6,1.3,5.7-0.1,8.2c-0.8,1.3-1.9,2.4-3.2,3l12.4,22.3
	c1.4,2.6,1.4,5.7-0.1,8.2c-1.1,1.8-2.8,3.1-4.7,3.6l13,19.8c1.7,2.5,1.8,5.8,0.4,8.5c-1.4,2.5-3.9,4.1-6.7,4.1h-31.8v20.3
	C410.6,463.4,408.8,465.2,406.6,465.2L406.6,465.2z M377.7,457.2h24.9v-20.3c0-2.2,1.8-4,4-4H442c0,0,0-0.1,0-0.2L425,407
	c-0.8-1.2-0.9-2.8-0.2-4.1c0.7-1.3,2-2.1,3.5-2.1h5.1c0,0,0-0.1,0-0.2l-15.3-27.5c-0.7-1.2-0.7-2.8,0-4c0.7-1.2,2-2,3.5-2h2.8
	c0,0,0-0.1,0-0.2l-34.3-62.7L355.8,367c0,0.1,0,0.1,0,0.2h2.8c1.4,0,2.7,0.8,3.4,2s0.7,2.7,0,4l-15.3,27.5c0,0.1,0,0.1,0,0.2h5.1
	c1.5,0,2.8,0.8,3.5,2.1c0.7,1.3,0.6,2.9-0.2,4.1l-16.9,25.7c0,0.1,0,0.1,0,0.2h35.4c2.2,0,4,1.8,4,4L377.7,457.2L377.7,457.2z
	 M338.3,433L338.3,433L338.3,433z"/>
<path class="st2" d="M406.6,465.2h-32.9c-2.2,0-4-1.8-4-4v-20.3h-31.8c-2.8,0-5.3-1.5-6.7-4.1c-1.5-2.7-1.3-6,0.4-8.5h0l13-19.8
	c-1.9-0.5-3.6-1.8-4.7-3.6c-1.5-2.5-1.5-5.7-0.1-8.2l12.4-22.3c-1.3-0.6-2.4-1.7-3.2-3c-1.5-2.5-1.5-5.7-0.1-8.2l34.6-63.4
	c1.4-2.5,3.9-4,6.6-4h0c2.8,0,5.3,1.5,6.6,4l34.6,63.4c1.4,2.6,1.3,5.7-0.1,8.2c-0.8,1.3-1.9,2.4-3.2,3l12.4,22.3
	c1.4,2.6,1.4,5.7-0.1,8.2c-1.1,1.8-2.8,3.1-4.7,3.6l13,19.8c1.7,2.5,1.8,5.8,0.4,8.5c-1.4,2.5-3.9,4.1-6.7,4.1h-31.8v20.3
	C410.6,463.4,408.8,465.2,406.6,465.2L406.6,465.2z M377.7,457.2h24.9v-20.3c0-2.2,1.8-4,4-4H442c0,0,0-0.1,0-0.2L425,407
	c-0.8-1.2-0.9-2.8-0.2-4.1c0.7-1.3,2-2.1,3.5-2.1h5.1c0,0,0-0.1,0-0.2l-15.3-27.5c-0.7-1.2-0.7-2.8,0-4c0.7-1.2,2-2,3.5-2h2.8
	c0,0,0-0.1,0-0.2l-34.3-62.7L355.8,367c0,0.1,0,0.1,0,0.2h2.8c1.4,0,2.7,0.8,3.4,2s0.7,2.7,0,4l-15.3,27.5c0,0.1,0,0.1,0,0.2h5.1
	c1.5,0,2.8,0.8,3.5,2.1c0.7,1.3,0.6,2.9-0.2,4.1l-16.9,25.7c0,0.1,0,0.1,0,0.2h35.4c2.2,0,4,1.8,4,4L377.7,457.2L377.7,457.2z
	 M338.3,433L338.3,433L338.3,433z"/>
<path class="st1" d="M364.7,347.8v-15.6l21.9-40c1.6-2.9,5.4-2.9,7,0l24.7,45.1c-2.6,3.4-6.6,5.7-11.1,6.1c-3.3,0.2-6.4-0.5-9.1-2.1
	c-0.8-0.4-1.7,0.1-1.7,1v5.5c0,8.7-7.1,15.8-15.8,15.8C371.8,363.6,364.7,356.6,364.7,347.8z"/>
<path class="st2" d="M380.6,367.6c-10.9,0-19.8-8.9-19.8-19.8v-15.6c0-0.7,0.2-1.3,0.5-1.9l21.9-40c1.5-2.7,4.1-4.3,7-4.3h0
	c2.9,0,5.6,1.6,7,4.3l24.7,45.1c0.8,1.4,0.6,3.1-0.4,4.4c-3.4,4.4-8.5,7.2-14,7.6c-2.4,0.2-4.8-0.1-7.1-0.7v1.2
	C400.4,358.7,391.5,367.6,380.6,367.6L380.6,367.6z M368.7,333.3v14.5c0,6.5,5.3,11.8,11.8,11.8s11.8-5.3,11.8-11.8v-5.5
	c0-1.8,1-3.6,2.6-4.5c1.6-0.9,3.5-0.9,5.1,0c2,1.2,4.4,1.7,6.8,1.5c2.4-0.2,4.7-1.1,6.5-2.7l-23.3-42.6L368.7,333.3z M396.1,344.8
	C396.1,344.8,396.1,344.8,396.1,344.8C396.1,344.8,396.1,344.8,396.1,344.8z"/>
<path class="st1" d="M378.6,375.8h28.6c4.9,0,8.8,3.9,8.8,8.8c0,1-0.2,1.9-0.4,2.7h17c4.9,0,8.8,3.9,8.8,8.8s-3.9,8.8-8.8,8.8H404
	c-4.9,0-8.8-3.9-8.8-8.8c0-1,0.2-1.9,0.4-2.7h-17c-4.9,0-8.8-3.9-8.8-8.8S373.8,375.8,378.6,375.8z"/>
<g>
	<path class="st2" d="M404,411.9c-7.2,0-13.4-4.8-15.2-11.5h-10.2c-8.7,0-15.8-7.1-15.8-15.8s7.1-15.8,15.8-15.8h28.6
		c7.2,0,13.4,4.8,15.2,11.5h10.2c8.7,0,15.8,7.1,15.8,15.8s-7.1,15.8-15.8,15.8H404z M378.6,382.8c-1,0-1.8,0.8-1.8,1.8
		s0.8,1.8,1.8,1.8h17c2.2,0,4.4,1.1,5.7,2.9c1.3,1.8,1.7,4.2,1,6.3c-0.1,0.2-0.1,0.4-0.1,0.6c0,1,0.8,1.8,1.8,1.8h28.6
		c1,0,1.8-0.8,1.8-1.8c0-1-0.8-1.8-1.8-1.8h-17c-2.2,0-4.4-1.1-5.7-2.9c-1.3-1.8-1.7-4.2-1-6.3c0.1-0.2,0.1-0.4,0.1-0.6
		c0-1-0.8-1.8-1.8-1.8H378.6z"/>
	<path class="st2" d="M432.6,408.9H404c-6.6,0-12.1-5.1-12.7-11.5h-12.6c-7.1,0-12.8-5.7-12.8-12.8s5.7-12.8,12.8-12.8h28.6
		c6.6,0,12.1,5.1,12.7,11.5h12.6c7.1,0,12.8,5.7,12.8,12.8C445.4,403.2,439.6,408.9,432.6,408.9z M378.6,379.8
		c-2.6,0-4.8,2.2-4.8,4.8s2.2,4.8,4.8,4.8h17c1.3,0,2.5,0.6,3.2,1.7c0.8,1,1,2.4,0.6,3.6c-0.2,0.5-0.2,1-0.2,1.5
		c0,2.6,2.2,4.8,4.8,4.8h28.6c2.6,0,4.8-2.2,4.8-4.8s-2.2-4.8-4.8-4.8h-17c-1.3,0-2.5-0.6-3.2-1.7c-0.8-1-1-2.4-0.6-3.6
		c0.2-0.5,0.2-1,0.2-1.5c0-2.6-2.2-4.8-4.8-4.8L378.6,379.8z"/>
	<path class="st2" d="M140.7,486.3c-2.8,0-5.3-1.6-6.4-4.1c-1.1-2.5-0.7-5.5,1.2-7.5l93.9-104.5c13.1-14.6,19.5-33.4,18.1-53
		c-1.5-19.6-10.6-37.2-25.8-49.7c-27.9-23-38.3-61.3-25.8-95.2l45.4-123.7c0.9-2.4,3-4.2,5.6-4.5c3.1-0.4,6.2-0.6,9.2-0.6
		c10.7,0,21.4,2.6,31,7.6c3,1.5,4.4,5,3.5,8.2l-29.3,98.6c-8.3,28.1,1.1,58,24.1,76.2l34.1,27.1c33.3,26.4,42.1,73.9,20.3,110.5
		l-66.3,111.4c-1.3,2.1-3.6,3.4-6,3.4H140.7z M263.4,472.3l64.3-107.9c18.2-30.6,10.9-70.3-17-92.4l-34.1-27.1
		c-27.5-21.8-38.8-57.6-28.8-91.2l27.6-92.8c-6.1-2.4-12.8-3.7-19.3-3.7c-1,0-2.1,0-3.2,0.1L209,177c-10.4,28.4-1.7,60.4,21.6,79.6
		c18.1,14.9,29.1,36.1,30.8,59.5c1.8,23.4-5.9,45.9-21.6,63.4l-83.4,92.9H263.4z"/>
	<path class="st2" d="M267.3,483.3H140.7c-1.6,0-3-0.9-3.7-2.4s-0.4-3.1,0.7-4.3l93.9-104.5c13.7-15.2,20.4-34.8,18.8-55.2
		c-1.5-20.4-11.1-38.8-26.8-51.8c-26.9-22.2-36.9-59.1-24.9-91.9L244,49.5c0.5-1.4,1.7-2.4,3.2-2.6c2.9-0.4,5.9-0.6,8.8-0.6
		c10.2,0,20.5,2.5,29.6,7.3c1.7,0.9,2.5,2.8,2,4.7l-29.3,98.6c-8.7,29.3,1.1,60.4,25.1,79.4l34.1,27.1
		c32.2,25.5,40.6,71.3,19.6,106.6l-66.3,111.4C270,482.5,268.7,483.3,267.3,483.3L267.3,483.3z M149.6,475.3h115.4l65.1-109.4
		c19-31.8,11.4-73.2-17.7-96.3l-34.1-27.1c-26.5-21-37.4-55.5-27.8-88l28.3-95.4c-7.2-3.2-15.1-4.9-22.9-4.9c-1.7,0-3.5,0.1-5.3,0.3
		l-44.5,121.4c-10.8,29.6-1.8,62.9,22.5,82.9c17.5,14.4,28,34.8,29.7,57.4c1.7,22.6-5.7,44.3-20.9,61.2L149.6,475.3z"/>
</g>
</svg>
