<svg id="Layer_1" enable-background="new 0 0 256 256" height="512" viewBox="0 0 256 256" width="512" xmlns="http://www.w3.org/2000/svg"><path d="m100.906 42.325-92.906 197.311h120 120l-92.906-197.31c-4.941-10.493-15.496-17.19-27.094-17.19-11.598 0-22.153 6.696-27.094 17.189z" fill="#a4c9ff"/><path d="m157.489 133.242-17.072-13.536c-12.536-9.939-17.766-26.505-13.209-41.84l14.653-49.317c-4.2-2.194-8.933-3.413-13.86-3.413-1.387 0-2.758.102-4.108.288l-22.677 61.85c-5.722 15.607-.968 33.126 11.859 43.699 17.194 14.174 19.113 39.817 4.221 56.393l-46.964 52.271h57.668 5.665l33.143-55.675c10.034-16.855 6.051-38.533-9.319-50.72z" fill="#e0ebfc"/><path d="m248 241.636h-240c-.685 0-1.322-.351-1.689-.929s-.412-1.304-.121-1.923l92.906-197.31c5.246-11.14 16.591-18.338 28.904-18.338s23.658 7.198 28.903 18.338l92.906 197.311c.292.619.246 1.345-.121 1.923-.366.577-1.003.928-1.688.928zm-236.848-4h233.695l-91.563-194.459c-4.588-9.744-14.513-16.041-25.284-16.041s-20.696 6.297-25.285 16.041l-1.81-.852 1.81.852z" fill="#3762cc"/><path d="m150.558 64.139h10.699v7.906h-10.699z" fill="#eaa97d" transform="matrix(-1 0 0 -1 311.814 136.184)"/><path d="m137.951 62.069 5.507-8.374h-1.777c-.928 0-1.498-1.116-1.014-1.986l4.979-8.947h-1.013c-.924 0-1.495-1.107-1.019-1.977l11.274-20.635c.462-.845 1.577-.845 2.039 0l11.273 20.634c.475.87-.095 1.977-1.019 1.977h-1.013l4.979 8.947c.484.87-.086 1.986-1.014 1.986h-1.777l5.507 8.374c.568.863.006 2.07-.964 2.07h-11.643-10.699-11.643c-.969.001-1.531-1.206-.963-2.069z" fill="#6bdddd"/><path d="m161.257 74.045h-10.699c-1.104 0-2-.896-2-2v-5.906h-9.643c-1.154 0-2.221-.647-2.782-1.688-.595-1.104-.538-2.437.147-3.479l3.771-5.735c-.439-.27-.815-.651-1.093-1.123-.608-1.035-.623-2.329-.039-3.377l3.724-6.691c-.282-.234-.528-.521-.726-.854-.609-1.027-.632-2.316-.059-3.365l11.273-20.635c.564-1.033 1.628-1.675 2.774-1.675s2.21.642 2.774 1.674l11.273 20.636c.573 1.048.551 2.338-.059 3.365-.197.332-.443.619-.727.854l3.726 6.692c.583 1.049.567 2.343-.041 3.377-.277.472-.653.853-1.092 1.122l3.771 5.735c.686 1.043.742 2.376.147 3.479-.562 1.041-1.628 1.688-2.782 1.688h-9.643v5.906c.005 1.104-.891 2-1.995 2zm-8.699-4h6.699v-5.906c0-1.104.896-2 2-2h10.258l-4.83-7.345c-.404-.614-.438-1.4-.09-2.048.35-.647 1.025-1.051 1.761-1.051h.495l-4.431-7.961c-.345-.619-.335-1.375.024-1.986.316-.538.862-.894 1.474-.971l-10.011-18.322-10.011 18.322c.61.077 1.156.433 1.473.971.359.611.369 1.366.024 1.986l-4.431 7.961h.495c.735 0 1.411.403 1.761 1.051.349.647.314 1.434-.09 2.048l-4.83 7.345h10.259c1.104 0 2 .896 2 2v5.906z" fill="#3762cc"/><path d="m161.257 74.045h-10.699c-1.104 0-2-.896-2-2v-5.906h-9.643c-1.154 0-2.221-.647-2.782-1.688-.595-1.104-.538-2.437.147-3.479l3.771-5.735c-.439-.27-.815-.651-1.093-1.123-.608-1.035-.623-2.329-.039-3.377l3.724-6.691c-.282-.234-.528-.521-.726-.854-.609-1.027-.632-2.316-.059-3.365l11.273-20.635c.564-1.033 1.628-1.675 2.774-1.675s2.21.642 2.774 1.674l11.273 20.636c.573 1.048.551 2.338-.059 3.365-.197.332-.443.619-.727.854l3.726 6.692c.583 1.049.567 2.343-.041 3.377-.277.472-.653.853-1.092 1.122l3.771 5.735c.686 1.043.742 2.376.147 3.479-.562 1.041-1.628 1.688-2.782 1.688h-9.643v5.906c.005 1.104-.891 2-1.995 2zm-8.699-4h6.699v-5.906c0-1.104.896-2 2-2h10.258l-4.83-7.345c-.404-.614-.438-1.4-.09-2.048.35-.647 1.025-1.051 1.761-1.051h.495l-4.431-7.961c-.345-.619-.335-1.375.024-1.986.316-.538.862-.894 1.474-.971l-10.011-18.322-10.011 18.322c.61.077 1.156.433 1.473.971.359.611.369 1.366.024 1.986l-4.431 7.961h.495c.735 0 1.411.403 1.761 1.051.349.647.314 1.434-.09 2.048l-4.83 7.345h10.259c1.104 0 2 .896 2 2v5.906z" fill="#3762cc"/><path d="m147.646 35.166v-5.061l7.119-13.031c.517-.946 1.766-.946 2.283 0l8.023 14.684c-.86 1.104-2.142 1.86-3.624 1.971-1.08.081-2.092-.176-2.95-.671-.246-.142-.553.046-.553.33v1.778c0 2.844-2.305 5.149-5.149 5.149-2.844 0-5.149-2.305-5.149-5.149z" fill="#e0ebfc"/><path d="m152.795 42.314c-3.942 0-7.149-3.207-7.149-7.148v-5.062c0-.335.084-.665.245-.959l7.12-13.03c.589-1.079 1.698-1.75 2.895-1.751h.002c1.196 0 2.306.671 2.896 1.75l8.022 14.685c.382.699.313 1.559-.177 2.188-1.238 1.592-3.081 2.59-5.054 2.736-.561.043-1.121.02-1.669-.069-.25 3.715-3.354 6.66-7.131 6.66zm-3.149-11.699v4.551c0 1.736 1.413 3.148 3.149 3.148s3.148-1.412 3.148-3.148v-1.778c0-.846.455-1.635 1.188-2.06.729-.419 1.635-.425 2.362-.004.549.315 1.169.453 1.804.41.452-.034.882-.168 1.269-.391l-6.659-12.188z" fill="#3762cc"/><path d="m152.17 44.258h9.294c1.581 0 2.863 1.282 2.863 2.863 0 .312-.051.611-.144.892h5.541c1.581 0 2.863 1.282 2.863 2.863s-1.282 2.863-2.863 2.863h-9.294c-1.581 0-2.863-1.282-2.863-2.863 0-.312.051-.611.144-.892h-5.541c-1.581 0-2.863-1.282-2.863-2.863s1.282-2.863 2.863-2.863z" fill="#e0ebfc"/><path d="m169.725 55.739h-9.293c-2.301 0-4.233-1.605-4.736-3.755h-3.525c-2.682 0-4.863-2.182-4.863-4.863s2.182-4.863 4.863-4.863h9.294c2.301 0 4.233 1.605 4.736 3.755h3.524c2.682 0 4.863 2.182 4.863 4.863s-2.182 4.863-4.863 4.863zm-17.555-9.481c-.476 0-.863.388-.863.863s.388.863.863.863h5.542c.643 0 1.245.309 1.621.829s.479 1.189.277 1.8c-.027.084-.042.173-.042.263 0 .476.388.863.863.863h9.293c.476 0 .863-.388.863-.863s-.388-.863-.863-.863h-5.541c-.641 0-1.242-.307-1.619-.825-.376-.519-.48-1.187-.282-1.795.03-.093.045-.182.045-.271 0-.476-.388-.863-.863-.863h-9.294z" fill="#3762cc"/><path d="m75.797 165.022h14.137v10.447h-14.137z" fill="#eaa97d" transform="matrix(-1 0 0 -1 165.731 340.491)"/><path d="m59.139 162.287 7.277-11.065h-2.348c-1.227 0-1.98-1.475-1.34-2.625l6.579-11.822h-1.338c-1.221 0-1.975-1.463-1.347-2.613l14.897-27.266c.61-1.117 2.084-1.117 2.694 0l14.897 27.266c.628 1.15-.126 2.613-1.347 2.613h-1.338l6.579 11.822c.64 1.149-.114 2.625-1.34 2.625h-2.348l7.277 11.065c.75 1.141.008 2.735-1.273 2.735h-15.386-14.137-15.384c-1.282 0-2.024-1.594-1.274-2.735z" fill="#6bdddd"/><path d="m89.934 177.469h-14.137c-1.104 0-2-.896-2-2v-8.446h-13.384c-1.309 0-2.472-.708-3.111-1.895-.673-1.25-.609-2.76.167-3.94l5.383-8.184c-.75-.281-1.394-.82-1.826-1.555-.689-1.172-.706-2.637-.045-3.824l5.201-9.345c-.501-.302-.931-.732-1.248-1.267-.69-1.163-.715-2.623-.066-3.81l14.896-27.266c.633-1.159 1.822-1.879 3.103-1.879 1.28 0 2.469.721 3.102 1.88l14.896 27.265c.649 1.188.623 2.647-.067 3.811-.317.534-.747.964-1.247 1.266l5.2 9.345c.661 1.188.644 2.652-.045 3.824-.432.734-1.076 1.273-1.825 1.554l5.383 8.186c.776 1.181.84 2.69.166 3.939-.64 1.187-1.802 1.895-3.11 1.895h-13.386v8.446c0 1.104-.895 2-2 2zm-12.137-4h10.137v-8.446c0-1.104.896-2 2-2h14.748l-7.038-10.701c-.404-.614-.438-1.4-.089-2.048.349-.647 1.025-1.051 1.76-1.051h1.747l-6.385-11.475c-.345-.619-.336-1.375.023-1.986s1.015-.986 1.724-.986h.741l-14.299-26.172-14.299 26.172h.741c.709 0 1.365.375 1.724.986s.368 1.367.023 1.986l-6.386 11.475h1.748c.735 0 1.412.403 1.76 1.051.349.647.315 1.434-.089 2.048l-7.038 10.701h14.748c1.104 0 2 .896 2 2v8.446zm-18.657-11.182h.01z" fill="#3762cc"/><path d="m89.934 177.469h-14.137c-1.104 0-2-.896-2-2v-8.446h-13.384c-1.309 0-2.472-.708-3.111-1.895-.673-1.25-.609-2.76.167-3.94l5.383-8.184c-.75-.281-1.394-.82-1.826-1.555-.689-1.172-.706-2.637-.045-3.824l5.201-9.345c-.501-.302-.931-.732-1.248-1.267-.69-1.163-.715-2.623-.066-3.81l14.896-27.266c.633-1.159 1.822-1.879 3.103-1.879 1.28 0 2.469.721 3.102 1.88l14.896 27.265c.649 1.188.623 2.647-.067 3.811-.317.534-.747.964-1.247 1.266l5.2 9.345c.661 1.188.644 2.652-.045 3.824-.432.734-1.076 1.273-1.825 1.554l5.383 8.186c.776 1.181.84 2.69.166 3.939-.64 1.187-1.802 1.895-3.11 1.895h-13.386v8.446c0 1.104-.895 2-2 2zm-12.137-4h10.137v-8.446c0-1.104.896-2 2-2h14.748l-7.038-10.701c-.404-.614-.438-1.4-.089-2.048.349-.647 1.025-1.051 1.76-1.051h1.747l-6.385-11.475c-.345-.619-.336-1.375.023-1.986s1.015-.986 1.724-.986h.741l-14.299-26.172-14.299 26.172h.741c.709 0 1.365.375 1.724.986s.368 1.367.023 1.986l-6.386 11.475h1.748c.735 0 1.412.403 1.76 1.051.349.647.315 1.434-.089 2.048l-7.038 10.701h14.748c1.104 0 2 .896 2 2v8.446zm-18.657-11.182h.01z" fill="#3762cc"/><path d="m71.95 126.739v-6.688l9.407-17.218c.683-1.251 2.334-1.251 3.017 0l10.601 19.403c-1.136 1.459-2.83 2.458-4.789 2.604-1.427.107-2.765-.232-3.898-.887-.325-.188-.731.061-.731.436v2.349c0 3.757-3.046 6.803-6.803 6.803-3.758.002-6.804-3.044-6.804-6.802z" fill="#e0ebfc"/><path d="m78.753 135.543c-4.854 0-8.804-3.949-8.804-8.804v-6.688c0-.335.084-.665.245-.959l9.407-17.219c.678-1.239 1.897-1.979 3.264-1.979 1.367 0 2.586.74 3.263 1.979l10.601 19.403c.382.699.313 1.559-.177 2.188-1.525 1.96-3.792 3.188-6.218 3.369-.94.072-1.877-.008-2.778-.232v.138c.001 4.855-3.949 8.804-8.803 8.804zm-4.803-14.98v6.177c0 2.648 2.155 4.804 4.803 4.804 2.649 0 4.804-2.155 4.804-4.804v-2.35c0-.89.479-1.72 1.251-2.166.765-.442 1.715-.443 2.479-.003.835.482 1.79.699 2.749.625.909-.068 1.757-.398 2.474-.951l-9.644-17.651z" fill="#3762cc"/><path d="m77.928 138.752h12.28c2.089 0 3.783 1.694 3.783 3.783 0 .412-.068.807-.19 1.178h7.322c2.089 0 3.783 1.694 3.783 3.783s-1.694 3.783-3.783 3.783h-12.28c-2.089 0-3.783-1.694-3.783-3.783 0-.412.068-.807.19-1.178h-7.322c-2.089 0-3.783-1.694-3.783-3.783s1.693-3.783 3.783-3.783z" fill="#e0ebfc"/><path d="m101.124 153.28h-12.28c-2.91 0-5.325-2.16-5.725-4.961h-5.191c-3.189 0-5.783-2.595-5.783-5.784 0-3.188 2.594-5.783 5.783-5.783h12.28c2.91 0 5.325 2.16 5.725 4.962h5.191c3.189 0 5.783 2.595 5.783 5.783s-2.594 5.783-5.783 5.783zm-23.196-12.528c-.983 0-1.783.8-1.783 1.783s.8 1.784 1.783 1.784h7.322c.641 0 1.243.308 1.62.826.376.52.48 1.188.281 1.797-.06.182-.09.369-.09.555 0 .983.8 1.783 1.783 1.783h12.28c.983 0 1.783-.8 1.783-1.783s-.8-1.783-1.783-1.783h-7.322c-.641 0-1.243-.308-1.62-.826-.376-.52-.48-1.188-.281-1.797.06-.182.09-.369.09-.556 0-.983-.8-1.783-1.783-1.783z" fill="#3762cc"/><path d="m186.84 218.429h16.44v12.149h-16.44z" fill="#eaa97d" transform="matrix(-1 0 0 -1 390.12 449.006)"/><path d="m167.468 215.248 8.462-12.868h-2.73c-1.427 0-2.303-1.716-1.559-3.052l7.651-13.749h-1.556c-1.42 0-2.297-1.701-1.566-3.038l17.324-31.708c.71-1.299 2.423-1.299 3.133 0l17.324 31.708c.73 1.337-.146 3.038-1.566 3.038h-1.556l7.651 13.749c.744 1.337-.132 3.052-1.559 3.052h-2.73l8.462 12.868c.872 1.327.009 3.18-1.481 3.18h-17.892-16.44-17.891c-1.49.001-2.353-1.853-1.481-3.18z" fill="#6bdddd"/><path d="m203.28 232.577h-16.44c-1.104 0-2-.896-2-2v-10.148h-15.891c-1.399 0-2.645-.76-3.331-2.031-.727-1.348-.658-2.975.178-4.248h.001l6.498-9.88c-.971-.243-1.814-.875-2.353-1.791-.742-1.263-.761-2.843-.048-4.123l6.207-11.154c-.655-.323-1.218-.84-1.615-1.51-.743-1.254-.771-2.828-.071-4.108l17.323-31.709c.69-1.262 1.932-2.015 3.321-2.015h.001c1.391.001 2.632.754 3.32 2.015l17.324 31.709c.699 1.28.672 2.854-.071 4.108-.397.67-.96 1.188-1.615 1.51l6.208 11.154c.712 1.281.692 2.861-.051 4.124-.538.915-1.381 1.547-2.351 1.79l6.497 9.88c.837 1.272.906 2.899.18 4.247-.687 1.272-1.932 2.032-3.331 2.032h-15.89v10.148c0 1.105-.895 2-2 2zm-14.44-4h12.44v-10.148c0-1.104.896-2 2-2h17.72c.002-.025-.002-.055-.02-.081l-8.462-12.868c-.404-.614-.438-1.4-.09-2.048.35-.647 1.025-1.051 1.761-1.051h2.56c.001-.024-.003-.053-.019-.081l-7.651-13.747c-.345-.619-.335-1.375.023-1.986.359-.611 1.016-.986 1.725-.986h1.386c.002-.023-.002-.051-.018-.079l-17.136-31.363-17.135 31.363c-.015.028-.02.056-.018.079h1.385c.709 0 1.365.375 1.724.986s.369 1.367.024 1.986l-7.65 13.748c-.017.028-.021.056-.019.08h2.56c.735 0 1.411.403 1.761 1.051.349.647.314 1.434-.09 2.048l-8.462 12.867c-.019.027-.022.057-.021.082h17.721c1.104 0 2 .896 2 2v10.148zm-19.696-12.071h.01z" fill="#3762cc"/><path d="m203.28 232.577h-16.44c-1.104 0-2-.896-2-2v-10.148h-15.891c-1.399 0-2.645-.76-3.331-2.031-.727-1.348-.658-2.975.178-4.248h.001l6.498-9.88c-.971-.243-1.814-.875-2.353-1.791-.742-1.263-.761-2.843-.048-4.123l6.207-11.154c-.655-.323-1.218-.84-1.615-1.51-.743-1.254-.771-2.828-.071-4.108l17.323-31.709c.69-1.262 1.932-2.015 3.321-2.015h.001c1.391.001 2.632.754 3.32 2.015l17.324 31.709c.699 1.28.672 2.854-.071 4.108-.397.67-.96 1.188-1.615 1.51l6.208 11.154c.712 1.281.692 2.861-.051 4.124-.538.915-1.381 1.547-2.351 1.79l6.497 9.88c.837 1.272.906 2.899.18 4.247-.687 1.272-1.932 2.032-3.331 2.032h-15.89v10.148c0 1.105-.895 2-2 2zm-14.44-4h12.44v-10.148c0-1.104.896-2 2-2h17.72c.002-.025-.002-.055-.02-.081l-8.462-12.868c-.404-.614-.438-1.4-.09-2.048.35-.647 1.025-1.051 1.761-1.051h2.56c.001-.024-.003-.053-.019-.081l-7.651-13.747c-.345-.619-.335-1.375.023-1.986.359-.611 1.016-.986 1.725-.986h1.386c.002-.023-.002-.051-.018-.079l-17.136-31.363-17.135 31.363c-.015.028-.02.056-.018.079h1.385c.709 0 1.365.375 1.724.986s.369 1.367.024 1.986l-7.65 13.748c-.017.028-.021.056-.019.08h2.56c.735 0 1.411.403 1.761 1.051.349.647.314 1.434-.09 2.048l-8.462 12.867c-.019.027-.022.057-.021.082h17.721c1.104 0 2 .896 2 2v10.148zm-19.696-12.071h.01z" fill="#3762cc"/><path d="m182.366 173.908v-7.777l10.94-20.024c.795-1.454 2.714-1.454 3.509 0l12.328 22.564c-1.321 1.697-3.291 2.858-5.569 3.029-1.659.124-3.215-.27-4.534-1.031-.378-.218-.85.071-.85.508v2.732c0 4.37-3.542 7.912-7.912 7.912-4.37-.001-7.912-3.543-7.912-7.913z" fill="#e0ebfc"/><path d="m190.277 183.82c-5.466 0-9.912-4.446-9.912-9.912v-7.777c0-.335.084-.665.245-.959l10.94-20.023c.729-1.334 2.04-2.131 3.508-2.132h.001c1.469 0 2.78.797 3.51 2.132l12.327 22.563c.382.699.313 1.559-.177 2.187-1.717 2.208-4.267 3.591-6.997 3.796-1.202.089-2.396-.037-3.533-.371v.585c0 5.465-4.446 9.911-9.912 9.911zm-5.912-17.178v7.267c0 3.26 2.652 5.912 5.912 5.912s5.912-2.652 5.912-5.912v-2.732c0-.92.496-1.777 1.294-2.237.791-.457 1.771-.456 2.558-.001 1.024.591 2.193.851 3.383.769 1.215-.092 2.342-.562 3.268-1.35l-11.632-21.29zm13.675 5.759c.001.001.003.002.004.003-.001-.001-.003-.002-.004-.003z" fill="#3762cc"/><path d="m189.318 187.879h14.281c2.43 0 4.4 1.97 4.4 4.4 0 .479-.079.939-.221 1.37h8.515c2.43 0 4.4 1.97 4.4 4.4s-1.97 4.4-4.4 4.4h-14.281c-2.43 0-4.4-1.97-4.4-4.4 0-.479.079-.939.221-1.37h-8.515c-2.43 0-4.4-1.97-4.4-4.4s1.97-4.4 4.4-4.4z" fill="#e0ebfc"/><g fill="#3762cc"><path d="m216.293 204.448h-14.281c-3.316 0-6.052-2.536-6.369-5.771h-6.325c-3.528 0-6.399-2.871-6.399-6.399s2.871-6.399 6.399-6.399h14.281c3.316 0 6.051 2.535 6.369 5.77h6.325c3.528 0 6.399 2.871 6.399 6.4 0 3.528-2.871 6.399-6.399 6.399zm-26.976-14.569c-1.323 0-2.399 1.076-2.399 2.399s1.076 2.399 2.399 2.399h8.516c.642 0 1.243.308 1.62.827.376.519.48 1.187.28 1.796-.08.245-.121.497-.121.748 0 1.323 1.076 2.399 2.399 2.399h14.281c1.323 0 2.399-1.076 2.399-2.399s-1.076-2.4-2.399-2.4h-8.516c-.642 0-1.243-.308-1.62-.827-.376-.519-.48-1.187-.28-1.796.08-.245.121-.496.121-.747 0-1.323-1.076-2.399-2.399-2.399z"/><path d="m133.665 241.636h-63.333c-.79 0-1.505-.465-1.827-1.186s-.188-1.563.339-2.151l46.964-52.271c6.834-7.607 10.178-17.413 9.415-27.611-.763-10.197-5.529-19.396-13.42-25.901-13.46-11.095-18.469-29.553-12.465-45.931l22.677-61.85c.255-.694.872-1.191 1.604-1.293 1.474-.203 2.948-.307 4.381-.307 5.115 0 10.228 1.259 14.786 3.641.849.443 1.264 1.425.991 2.342l-14.652 49.317c-4.349 14.634.571 30.218 12.533 39.703l17.072 13.536c16.085 12.753 20.296 35.671 9.797 53.31l-33.144 55.675c-.361.606-1.013.977-1.718.977zm-58.848-4h57.711l32.562-54.698c9.479-15.924 5.678-36.614-8.844-48.128l-17.072-13.536c-13.25-10.507-18.7-27.769-13.883-43.977l14.169-47.691c-3.602-1.619-7.531-2.47-11.46-2.47-.87 0-1.758.044-2.653.131l-22.253 60.695c-5.421 14.786-.899 31.45 11.253 41.468 8.74 7.205 14.02 17.394 14.865 28.689.846 11.295-2.858 22.156-10.428 30.583z"/></g></svg>