<?xml version="1.0" encoding="utf-8"?>
<!-- Generator: Adobe Illustrator 23.0.6, SVG Export Plug-In . SVG Version: 6.00 Build 0)  -->
<svg version="1.1" id="Layer_1" xmlns="http://www.w3.org/2000/svg" xmlns:xlink="http://www.w3.org/1999/xlink" x="0px" y="0px"
	 viewBox="0 0 512 512" style="enable-background:new 0 0 512 512;" xml:space="preserve">
<style type="text/css">
	.st0{fill:#E7335B;}
	.st1{fill:#38071F;}
</style>
<path class="st0" d="M412.9,175C412.9,88.3,342.6,7.6,256,7.6S99.1,88.3,99.1,175c0,76.1,54.2,163.7,126,184
	c-0.4,1.4-0.6,2.8-0.6,4.3c0,8.7,7,15.7,15.7,15.7c8.7,0,15.7-7,15.7-15.7c0,8.7,7,15.7,15.7,15.7c8.7,0,15.7-7,15.7-15.7
	c0-1.5-0.2-3-0.6-4.3C358.7,338.7,412.9,251,412.9,175z"/>
<g>
	<path class="st1" d="M271.7,386.6c12.5,0,22.8-9.9,23.3-22.3c33.4-11.2,64.5-36.7,88.1-72.3c23.7-35.8,37.3-78.4,37.3-117.1
		c0-43.8-17.5-88-47.9-121.3C340.9,19.1,299.5,0,256,0s-84.9,19.1-116.5,53.7C109,86.9,91.5,131.1,91.5,175
		c0,38.7,13.6,81.4,37.3,117.1c23.6,35.6,54.7,61,88.1,72.3c0.6,12.4,10.8,22.3,23.3,22.3c2.9,0,5.6-0.5,8.1-1.5v22.5
		c0,30.9,25.1,56,56,56c22.5,0,40.8,18.3,40.8,40.8v7.6h15.2v-7.6c0-30.9-25.1-56-56-56c-22.5,0-40.8-18.3-40.8-40.8v-22.5
		C266.1,386.1,268.9,386.6,271.7,386.6z M240.3,371.4c-4.5,0-8.1-3.7-8.1-8.1c0-0.7,0.1-1.5,0.3-2.2l2.1-7.3l-7.3-2.1
		c-32.2-9.1-62.6-33.2-85.7-67.9c-22.1-33.3-34.8-73-34.8-108.7c0-40.1,16-80.5,44-111c28.8-31.4,66.2-48.7,105.3-48.7
		s76.6,17.3,105.3,48.7c27.9,30.5,44,71,44,111c0,35.8-12.7,75.4-34.8,108.7c-23,34.7-53.5,58.9-85.7,67.9l-7.4,2.1l2.1,7.3
		c0.2,0.8,0.3,1.5,0.3,2.2c0,4.5-3.7,8.1-8.1,8.1s-8.1-3.7-8.1-8.1v-7.6h-15.2v7.6C248.4,367.7,244.7,371.4,240.3,371.4z"/>
	<path class="st1" d="M374.8,175h15.2c0-18.5-3.9-37.7-11.2-55.5l-14.1,5.8C371.4,141.3,374.8,158.4,374.8,175z"/>
	<path class="st1" d="M338.9,84.5c6.6,7.2,12.4,15.1,17.3,23.5l13.1-7.7c-5.5-9.4-12-18.2-19.2-26.1C324.3,46,290.8,30.4,256,30.4
		v15.2C286.5,45.6,316,59.4,338.9,84.5z"/>
</g>
</svg>
