<?xml version="1.0" encoding="iso-8859-1"?>
<!-- Generator: Adobe Illustrator 19.0.0, SVG Export Plug-In . SVG Version: 6.00 Build 0)  -->
<svg version="1.1" id="Layer_1" xmlns="http://www.w3.org/2000/svg" xmlns:xlink="http://www.w3.org/1999/xlink" x="0px" y="0px"
	 viewBox="0 0 512 512" style="enable-background:new 0 0 512 512;" xml:space="preserve">
<path style="fill:#FFDB6F;" d="M256.155,119.897c75.965,0,137.542,61.577,137.542,137.542S332.12,394.981,256.155,394.981
	s-137.556-61.577-137.556-137.542S180.19,119.897,256.155,119.897z"/>
<g>
	<path style="fill:#201F2E;" d="M158.29,425.239c-6.548-3.78-14.919-1.537-18.7,5.01l-16.6,28.753
		c-3.781,6.548-1.537,14.921,5.01,18.7c2.156,1.244,4.509,1.836,6.833,1.836c4.731,0,9.332-2.455,11.868-6.846l16.6-28.753
		C167.082,437.392,164.838,429.019,158.29,425.239z"/>
	<path style="fill:#201F2E;" d="M353.71,86.761c2.156,1.244,4.509,1.836,6.833,1.836c4.731,0,9.332-2.455,11.868-6.846l16.6-28.753
		c3.781-6.548,1.537-14.921-5.01-18.7c-6.546-3.78-14.919-1.537-18.7,5.01l-16.6,28.753
		C344.918,74.608,347.162,82.981,353.71,86.761z"/>
	<path style="fill:#201F2E;" d="M68.06,348.699l-28.753,16.6c-6.548,3.78-8.792,12.152-5.01,18.7
		c2.535,4.392,7.137,6.846,11.868,6.846c2.322,0,4.676-0.591,6.833-1.836l28.753-16.6c6.548-3.78,8.792-12.152,5.01-18.7
		C82.982,347.162,74.608,344.918,68.06,348.699z"/>
	<path style="fill:#201F2E;" d="M437.107,165.136c2.322,0,4.676-0.591,6.833-1.836l28.753-16.6c6.548-3.78,8.792-12.152,5.01-18.7
		c-3.78-6.548-12.154-8.793-18.7-5.01l-28.753,16.6c-6.548,3.78-8.792,12.152-5.01,18.7
		C427.775,162.682,432.376,165.136,437.107,165.136z"/>
	<path style="fill:#201F2E;" d="M60.58,256c0-7.561-6.129-13.69-13.69-13.69H13.69C6.129,242.31,0,248.439,0,256
		s6.129,13.69,13.69,13.69H46.89C54.451,269.69,60.58,263.561,60.58,256z"/>
	<path style="fill:#201F2E;" d="M498.31,242.31H465.11c-7.561,0-13.69,6.129-13.69,13.69s6.129,13.69,13.69,13.69h33.201
		c7.561,0,13.69-6.129,13.69-13.69S505.871,242.31,498.31,242.31z"/>
	<path style="fill:#201F2E;" d="M81.75,139.59l-28.753-16.6c-6.548-3.778-14.921-1.537-18.7,5.01
		c-3.781,6.548-1.537,14.921,5.01,18.7l28.753,16.6c2.156,1.244,4.509,1.836,6.833,1.836c4.731,0,9.332-2.455,11.868-6.846
		C90.542,151.742,88.298,143.37,81.75,139.59z"/>
	<path style="fill:#201F2E;" d="M472.692,365.3l-28.753-16.6c-6.547-3.778-14.919-1.536-18.7,5.01
		c-3.781,6.548-1.537,14.921,5.01,18.7l28.753,16.6c2.156,1.244,4.509,1.836,6.833,1.836c4.731,0,9.332-2.455,11.868-6.846
		C481.483,377.452,479.239,369.079,472.692,365.3z"/>
	<path style="fill:#201F2E;" d="M139.59,81.75c2.535,4.392,7.137,6.846,11.868,6.846c2.322,0,4.676-0.591,6.833-1.836
		c6.548-3.78,8.792-12.152,5.01-18.7l-16.6-28.753c-3.78-6.549-12.154-8.792-18.7-5.01c-6.548,3.78-8.792,12.152-5.01,18.7
		L139.59,81.75z"/>
	<path style="fill:#201F2E;" d="M372.41,430.25c-3.78-6.548-12.154-8.793-18.7-5.01c-6.548,3.78-8.792,12.152-5.01,18.7l16.6,28.753
		c2.535,4.392,7.137,6.846,11.868,6.846c2.322,0,4.676-0.591,6.833-1.836c6.548-3.78,8.792-12.152,5.01-18.7L372.41,430.25z"/>
	<path style="fill:#201F2E;" d="M256,60.58c7.561,0,13.69-6.129,13.69-13.69V13.69C269.69,6.129,263.561,0,256,0
		s-13.69,6.129-13.69,13.69V46.89C242.31,54.451,248.439,60.58,256,60.58z"/>
	<path style="fill:#201F2E;" d="M256,451.42c-7.561,0-13.69,6.129-13.69,13.69v33.201c0,7.561,6.129,13.69,13.69,13.69
		s13.69-6.129,13.69-13.69V465.11C269.69,457.549,263.561,451.42,256,451.42z"/>
	<path style="fill:#201F2E;" d="M256,104.762c-83.393,0-151.238,67.845-151.238,151.238S172.607,407.239,256,407.239
		S407.239,339.393,407.239,256S339.393,104.762,256,104.762z M256,379.859c-68.296,0-123.859-55.563-123.859-123.859
		S187.704,132.141,256,132.141S379.859,187.704,379.859,256S324.296,379.859,256,379.859z"/>
</g>
<g>
</g>
<g>
</g>
<g>
</g>
<g>
</g>
<g>
</g>
<g>
</g>
<g>
</g>
<g>
</g>
<g>
</g>
<g>
</g>
<g>
</g>
<g>
</g>
<g>
</g>
<g>
</g>
<g>
</g>
</svg>
