<?xml version="1.0" standalone="no"?><!DOCTYPE svg PUBLIC "-//W3C//DTD SVG 1.1//EN" "http://www.w3.org/Graphics/SVG/1.1/DTD/svg11.dtd"><svg t="1568821860555" class="icon" viewBox="0 0 1024 1024" version="1.1" xmlns="http://www.w3.org/2000/svg" p-id="3789" xmlns:xlink="http://www.w3.org/1999/xlink" width="200" height="200"><defs><style type="text/css"></style></defs><path d="M413.21054815 483.35834075l-89.56586667-25.6075852 44.78293334-45.38974814-95.87674074-43.56930371 36.65161482-50.00154073-74.3954963-119.05706667 117.35798518-9.34494815 49.39472593 7.03905185L517.82542223 230.43792592 538.09303705 406.65694815" fill="#46C373" p-id="3790"></path><path d="M852.78720001 145.36248889l54.3706074 42.71976296-66.02145185 127.43111112-108.25576296-99.88171852" fill="#A5DC69" p-id="3791"></path><path d="M809.46062223 282.624L731.06014815 228.61748148 454.10986668 472.79976297 271.09451853 574.62328889l-136.53333334 110.19757036-26.33576296 117.84343705 30.09801482 53.88515555 76.45866666 46.36065185 456.08201482-355.8362074" fill="#DDF29E" p-id="3792"></path><path d="M824.26690371 299.9789037h-0.72817778c-24.15122963 1.45635555-46.60337778 12.37902222-62.74465185 30.46210371l-64.32237037 71.96823704c-91.14358518 102.06625185-203.52568889 182.89398518-329.25771852 237.14322963-63.71555555 27.42802963-118.45025185 72.0896-158.37866666 128.88746667-20.87442963 29.73392592-28.88438518 66.62826667-22.33078519 102.43034073 1.57771852 8.61677037 4.00497778 16.86945185 7.03905185 24.87940741 15.4130963 5.94678518 32.03982222 9.34494815 49.27336296 9.34494814 56.6765037 0 112.50346667-13.47128889 162.99045926-39.20023703l1.69908149-0.84954075c94.0562963-48.05973333 178.28219259-113.23164445 248.30862221-192.23893333 68.69143703-77.42957037 122.69795555-166.87407408 159.22820742-263.72171851l23.42305185-62.01647408c5.5826963-14.68491852 7.16041482-30.4621037 4.85451852-45.99656296-6.06814815-1.09226667-12.50038518-1.45635555-19.05398519-1.09226667z" fill="#DDF29E" p-id="3793"></path><path d="M626.56663705 172.66915555c-22.57351111 36.0448-52.4288 54.97742222-52.4288 54.97742223s-16.384-101.82352592-41.87022223-127.43111111c-36.89434075 21.23851852-64.32237037 70.26915555-64.32237037 70.26915555s-37.50115555-52.18607408-91.99312592-71.24005925c-25.85031111 30.4621037-14.68491852 94.0562963-14.68491852 94.05629628s-4.12634075-1.82044445-11.40811853-3.76225184c24.51531852 34.34571852 55.46287408 50.36562963 55.46287408 50.36562962s-36.28752592 12.01493333-52.55016296 45.63247408c42.84112592 38.10797037 110.56165925 37.37979259 110.56165926 37.37979259s-14.19946667 29.4912-69.78370371 51.33653333c76.70139259 37.86524445 130.22245925 22.57351111 131.19336296 22.20942222 0 0 0.12136297 0 0.12136297-0.12136295l114.688-102.06625185c6.18951111-33.01072592 8.13131852-97.21173333-12.98583703-121.6056889z" fill="#46C373" p-id="3794"></path><path d="M923.78453334 170.60598518l-55.82696296-46.23928888c-3.39816297-2.79134815-7.64586667-4.12634075-12.01493333-3.64088889-4.36906667 0.36408889-8.37404445 2.54862222-11.04402964 5.94678518l-10.07312593 12.25765926c-5.82542222 7.16041482-12.25765925 13.71401482-19.17534814 19.78216297-1.33499259 0.84954075-2.66998518 1.94180741-3.76225186 3.2768-4.97588148 4.12634075-10.07312592 7.88859259-15.41309629 11.40811851-3.39816297 1.69908148-6.91768889 3.03407408-10.43721481 4.12634075-10.07312592 3.03407408-20.6317037 1.94180741-29.8552889-2.91271111-9.22358518-4.85451852-16.01991111-13.1072-19.05398517-23.18032594-4.49042963-14.80628148 3.88361482-30.4621037 18.56853333-35.07389628 10.07312592-3.03407408 20.87442963 2.66998518 23.9085037 12.7431111 0.9709037 3.03407408 0.60681482 6.31087408-0.84954074 9.22358518-1.45635555 2.79134815-4.00497778 4.97588148-7.16041482 5.82542222-8.61677037 2.66998518-13.47128889 11.77220741-10.92266667 20.51034075 2.66998518 8.61677037 11.77220741 13.47128889 20.51034075 10.92266667 11.40811852-3.51952592 20.87442963-11.28675555 26.45712592-21.84533334 5.5826963-10.55857778 6.79632592-22.69487408 3.2768-34.10299258-8.37404445-27.42802963-37.50115555-42.84112592-64.80782222-34.4670815C714.06933334 94.99685925 695.8648889 129.09985185 705.6952889 161.13967408c5.5826963 18.08308148 17.59762963 32.40391111 32.768 41.14204444-1.94180741 1.69908148-3.64088889 3.76225185-5.09724445 5.82542223-23.9085037 4.12634075-45.63247408 16.14127408-61.89511111 34.3457185l-11.52948148 12.98583705c1.21362963-33.98162963-3.15543703-72.81777778-20.9957926-93.57084445-3.39816297-3.88361482-8.49540741-6.06814815-13.71401481-5.5826963-5.21860741 0.36408889-9.8304 3.2768-12.62174814 7.64586667-8.73813333 14.0781037-18.81125925 25.2434963-27.42802963 33.49617778-7.16041482-34.46708148-20.99579259-88.35223703-41.26340742-108.86257778-5.21860741-5.21860741-13.34992592-6.43223703-19.78216295-2.66998519-25.00077037 14.32082963-45.51111111 39.44296297-57.89013333 56.91922964-16.86945185-18.32580741-46.8461037-45.8752-84.95407408-59.10376297-6.43223703-2.18453333-13.47128889-0.24272592-17.84035556 4.85451852-19.41807408 22.81623703-21.9666963 58.25422222-20.87442963 82.28408889-25.72894815-5.46133333-68.08462222-8.61677037-112.86755556 12.1362963-6.31087408 2.91271111-10.07312592 9.46631111-9.4663111 16.384 5.82542222 62.98737778 43.08385185 103.03715555 68.69143703 123.42613334-12.50038518 8.49540741-26.45712592 21.48124445-35.55934815 40.17114073-3.15543703 6.5536-1.57771852 14.56355555 3.88361482 19.41807407 26.82121482 23.9085037 61.65238518 33.98162963 87.1386074 38.3506963-9.34494815 7.28177778-22.81623703 15.53445925-41.50613333 22.81623704-6.06814815 2.42725925-10.07312592 8.13131852-10.31585184 14.56355556-0.24272592 6.43223703 3.2768 12.50038518 9.10222221 15.4130963 29.97665185 14.80628148 56.91922963 21.9666963 79.00728889 25.12213333-31.31164445 18.20444445-63.71555555 34.58844445-96.9690074 48.7879111-7.5245037 3.2768-15.17037037 6.79632592-22.45214815 10.55857779-7.76722963 4.00497778-11.52948148 13.34992592-8.13131852 21.35988148 3.76225185 8.73813333 14.0781037 12.37902222 22.45214814 8.13131852 6.91768889-3.51952592 13.95674075-6.79632592 20.9957926-9.8304 52.4288-22.57351111 102.91579259-50.1229037 150.7328-81.79863705 1.33499259-0.60681482 2.54862222-1.45635555 3.64088889-2.42725925 42.84112592-28.76302222 83.49771852-61.04557037 121.12023704-96.24082964 0.72817778-0.60681482 1.45635555-1.21362963 2.06317037-1.9418074 20.02488889-18.81125925 39.20023703-38.3506963 57.40468148-58.73967408l64.32237037-71.96823703c9.58767408-10.67994075 21.72397037-18.32580741 35.31662221-22.20942222 2.66998518 7.28177778 7.03905185 13.83537778 12.86447408 19.17534815 5.94678518 5.46133333 13.1072 9.34494815 20.87442963 11.28675555 5.09724445 23.66577778 24.15122963 41.74885925 48.05973333 45.38974815l1.3349926 2.06317037c3.15543703 4.61179259 7.28177778 8.25268148 11.89357036 10.67994073-0.72817778 3.51952592-1.82044445 6.91768889-3.03407406 10.31585186l-23.42305186 62.01647407C763.82814815 498.65007408 711.27798519 585.66731852 643.55745186 661.88325925 574.50192593 739.67691852 492.58192593 803.02838518 400.10334815 850.35994075l-1.69908147 0.84954073c-47.93837037 24.51531852-101.70216297 37.50115555-155.58731853 37.50115555-58.61831111 0-108.61985185-42.5984-117.84343704-100.73125925-4.97588148-31.19028148 3.03407408-63.10874075 21.35988149-88.83768889 5.94678518-8.37404445 12.25765925-16.50536297 18.81125926-24.27259259 6.06814815-7.16041482 4.97588148-18.08308148-2.66998518-23.78714075-7.03905185-5.21860741-16.99081482-3.76225185-22.69487408 2.91271112-7.5245037 8.98085925-14.80628148 18.32580741-21.48124445 27.91348148-23.18032592 33.13208889-32.40391111 75.00231111-25.00077037 114.80936296 13.22856297 72.21096297 76.21594075 124.63976297 149.64053333 124.63976297 58.9824 0 117.9648-14.19946667 170.3936-41.02068149l1.69908149-0.84954074c96.24082963-49.152 181.31626667-115.17345185 253.04177778-196.00118518 70.26915555-79.25001482 125.00385185-169.66542222 162.38364444-268.81896297l23.42305186-62.01647407c2.91271111-7.64586667 4.85451852-15.65582222 5.94678518-23.78714074 2.91271111-2.18453333 4.97588148-5.09724445 6.06814815-8.61677037l6.43223704-22.20942222c10.43721482-35.80207408 26.94257778-68.93416297 49.39472593-98.78945185l4.61179258-6.18951112c5.33997037-6.91768889 4.12634075-16.86945185-2.54862222-22.45214815zM563.82198519 359.68948148c-4.49042963-5.46133333-9.10222222-10.8013037-13.83537778-15.89854815L541.24847408 258.35140741c-0.9709037-8.98085925-8.98085925-15.53445925-17.96171852-14.68491852-8.98085925 0.9709037-15.53445925 8.98085925-14.68491851 17.96171852l4.97588148 48.66654814c-21.23851852-16.62672592-44.41884445-30.4621037-69.17688889-41.14204444l-12.98583704-46.11792593c-2.42725925-8.73813333-11.52948148-13.83537778-20.14625185-11.28675555-8.73813333 2.42725925-13.83537778 11.52948148-11.28675556 20.14625185l6.67496296 23.66577777c-23.30168889-6.67496297-47.69564445-10.8013037-72.57505184-12.01493333-8.98085925-0.36408889-16.74808889 6.5536-17.11217778 15.53445926-0.48545185 8.98085925 6.5536 16.74808889 15.53445925 17.11217779 40.77795555 1.94180741 79.73546667 12.50038518 114.93072593 30.4621037l-56.43377778 18.20444444c-8.61677037 2.79134815-13.34992592 12.01493333-10.55857778 20.63170371 2.18453333 6.91768889 8.61677037 11.40811852 15.53445926 11.40811851 1.69908148 0 3.39816297-0.24272592 4.97588149-0.84954074l83.25499258-26.82121481c13.47128889 9.70903703 26.09303703 20.51034075 37.7438815 32.64663704 0.36408889 0.36408889 0.60681482 0.72817778 0.9709037 0.9709037 2.66998518 2.79134815 5.33997037 5.70405925 7.88859258 8.61677037l-68.69143703 11.04402963c-8.98085925 1.45635555-15.04900741 9.8304-13.59265185 18.81125926 1.33499259 8.00995555 8.25268148 13.83537778 16.14127407 13.83537777 0.84954075 0 1.69908148-0.12136297 2.66998519-0.24272592l42.5984-6.91768888c-24.63668148 20.51034075-50.36562963 39.80705185-77.06548149 57.76877036-8.73813333 1.82044445-39.80705185 6.43223703-84.34725925-8.37404444 32.88936297-19.90352592 43.44794075-40.17114075 44.78293333-42.96248889 2.42725925-5.09724445 2.06317037-11.16539259-0.9709037-15.89854815-3.03407408-4.73315555-8.37404445-7.64586667-13.95674075-7.64586666-0.60681482 0-51.21517037 0.24272592-88.71632592-24.87940742 14.44219259-18.56853333 35.80207408-26.09303703 36.0448-26.09303703 6.18951111-2.06317037 10.55857778-7.64586667 11.16539259-14.19946667 0.48545185-6.5536-2.91271111-12.74311111-8.73813334-15.89854815-2.66998518-1.33499259-61.53102222-33.13208889-73.78868147-101.82352592 52.79288889-19.17534815 100.00308148 0 100.36717037 0.24272592 5.5826963 2.3058963 11.89357037 1.45635555 16.62672592-2.30589629 4.73315555-3.76225185 7.03905185-9.70903703 5.94678518-15.65582223-2.18453333-12.50038518-5.09724445-48.42382222 4.97588149-70.87597036 42.47703703 19.78216297 71.96823703 60.07466667 72.21096296 60.43875555 3.2768 4.49042963 8.61677037 7.16041482 14.19946667 6.79632593 5.5826963-0.36408889 10.67994075-3.51952592 13.34992592-8.37404445 0.24272592-0.36408889 19.53943703-34.46708148 45.99656296-55.7056 12.98583703 25.00077037 24.75804445 75.97321482 29.8552889 107.40622223 0.84954075 5.46133333 4.36906667 10.07312592 9.4663111 12.37902222 4.97588148 2.3058963 10.8013037 1.82044445 15.53445927-1.09226667 1.09226667-0.60681482 20.51034075-13.1072 40.41386667-36.77297778 6.43223703 28.03484445 4.36906667 71.1186963-1.45635557 93.20675556l-14.56355555 16.74808889c-13.95674075 15.65582222-28.39893333 30.70482963-43.44794074 45.26838518z m277.19300741-70.87597037l-2.42725926 8.37404444-2.66998519-4.00497777c-3.03407408-4.49042963-8.13131852-7.16041482-13.59265184-7.16041481-13.95674075 0-25.36485925-10.92266667-25.85031112-24.87940742l-0.12136296-4.00497777c-0.12136297-4.49042963-2.18453333-8.73813333-5.46133333-11.65084445-3.03407408-2.66998518-6.91768889-4.12634075-10.80130371-4.12634074-0.48545185 0-0.9709037 0-1.45635555 0.12136296-4.49042963 0.36408889-8.8594963-1.09226667-12.25765926-4.12634073-3.15543703-2.79134815-4.97588148-6.67496297-5.2186074-10.80130371l18.68989628-7.5245037c31.06891852-12.50038518 58.61831111-32.768 79.9781926-58.61831111l31.19028148 25.85031111c-22.57351111 31.06891852-39.3216 65.536-50.00154074 102.5517037z" fill="" p-id="3795"></path><path d="M557.26838519 598.89588148c44.05475555-40.2925037 85.31816297-84.46862222 122.69795556-131.19336296l78.6432-98.66808889c5.5826963-7.03905185 4.49042963-17.3549037-2.54862222-23.05896296-7.03905185-5.5826963-17.3549037-4.49042963-23.05896297 2.54862222l-78.6432 98.66808889c-36.16616297 45.38974815-76.3373037 88.23087408-119.17842963 127.43111111-6.67496297 6.06814815-7.16041482 16.50536297-1.09226667 23.18032593 3.2768 3.51952592 7.64586667 5.33997037 12.1362963 5.33997036 3.88361482 0 7.88859259-1.33499259 11.04402963-4.2477037zM481.78062223 657.87828148c3.51952592 0 7.03905185-1.09226667 10.07312592-3.51952593l0.60681483-0.48545185c7.16041482-5.5826963 8.37404445-15.89854815 2.66998517-23.05896295-5.5826963-7.16041482-15.89854815-8.37404445-23.05896296-2.6699852l-0.48545185 0.3640889c-7.16041482 5.5826963-8.37404445 15.89854815-2.79134815 23.05896296 3.2768 4.12634075 8.00995555 6.31087408 12.98583704 6.31087407zM190.26678519 823.53872592c2.06317037 0 4.00497778-0.36408889 6.06814815-1.21362962l9.58767407-3.76225185c78.03638518-30.94755555 152.91733333-70.51188148 222.33694815-117.72207408 7.5245037-5.09724445 9.46631111-15.29173333 4.36906667-22.81623704-5.09724445-7.5245037-15.29173333-9.46631111-22.81623704-4.36906666-67.47780741 45.8752-140.17422222 84.34725925-216.02607408 114.32391111l-9.58767406 3.76225185c-8.37404445 3.2768-12.50038518 12.86447408-9.22358519 21.23851852 2.54862222 6.67496297 8.73813333 10.55857778 15.29173333 10.55857777zM270.48770371 553.38477037c-21.48124445 6.91768889-122.69795555 88.83768889-138.47514073 110.31893333-15.77718518 21.48124445 26.69985185 19.17534815 26.69985184 19.17534815s95.87674075-89.20177778 158.13594074-114.3239111c61.04557037-24.63668148-46.36065185-15.17037037-46.36065185-15.17037038z" fill="" p-id="3796"></path></svg>