<?xml version="1.0" standalone="no"?><!DOCTYPE svg PUBLIC "-//W3C//DTD SVG 1.1//EN" "http://www.w3.org/Graphics/SVG/1.1/DTD/svg11.dtd"><svg t="1568821847632" class="icon" viewBox="0 0 1024 1024" version="1.1" xmlns="http://www.w3.org/2000/svg" p-id="3063" xmlns:xlink="http://www.w3.org/1999/xlink" width="200" height="200"><defs><style type="text/css"></style></defs><path d="M546.03445535 420.7824748c0 16.43003546-11.64172402 30.14820732-27.12998258 33.33663273-0.52194861 0.11346706-1.05524398 0.20424076-1.58853936 0.2836677-0.24962761 0.03404017-0.49925522 0.079427-0.74888284 0.11346714-0.97581706 0.13616055-1.97432743 0.22693422-2.97283788 0.27232099-0.10212038 0-0.20424076 0.01134668-0.30636114 0.01134672-0.43117499 0.01134668-0.8623499 0.0226934-1.2935249 0.02269343h-0.23828092c-0.351748 0-0.69214929-0.01134668-1.04389729-0.02269343-0.14750722 0-0.30636115-0.01134668-0.45386838-0.0226934-0.05673353 0-0.10212038 0-0.15885389-0.01134669-1.25948475-0.06808023-2.4962761-0.20424076-3.72172072-0.40848162-0.31770784-0.05673353-0.62406899-0.11346706-0.94177692-0.17020062-0.13616055-0.0226934-0.272321-0.05673353-0.41982828-0.07942698C489.57322851 450.89664198 477.95419794 437.18981685 477.95419794 420.7824748 477.95419794 401.98097706 493.19282891 386.7423461 511.99432665 386.7423461s34.04012871 15.23863097 34.0401287 34.0401287z" fill="#FFFFFF" p-id="3064"></path><path d="M686.63647005 713.66907336L576.74848597 572.13490177s-14.7552768-14.7552768-33.39352178-2.91222528c0 0-28.34566371 19.80313486-14.75527793 36.88819256 0 0 96.88004267 119.78955207 109.30553969 140.5634287 20.38558037 34.36426354 77.07690781 12.42549703 48.7312441-33.00522439z" fill="#FFFFFF" p-id="3065"></path><path d="M752.45277184 657.5601903s5.43615431-9.51327061 24.85099293-20.96802475c0 0 23.88025117-16.50261219 41.35360512-7.37763896 0 0 8.73667698 8.9308251 0.97074289 19.41483861 0 0-9.31912249 16.30846407-18.24994873 15.53187043 0 0-7.76593522 3.10637454 17.08505771-0.58244551 0 0 14.94942493 87.17262393-3.10637341 84.45454677 0 0-34.94670905 6.21274795-43.10094165 4.27126443 0 0-20.77387662-3.68881891-27.95736633-14.7552768 0 0-12.42549703-18.24994759-6.21274908-41.93605063-0.19414813 0 1.55318727-21.16217401 14.36698055-38.05308359z" fill="#FFC799" p-id="3066"></path><path d="M742.55120498 673.28620886l-90.27899847 33.19937365s-18.8323931 8.34838073-13.20208953 29.70470286c0 0 10.48401237 32.81107627 31.25788899 26.21003208l90.86144285-13.59038692c-0.19414813 0.19414813-24.26854741-26.01588281-18.63824384-75.52372167z" fill="#FFFFFF" p-id="3067"></path><path d="M786.23459101 737.54932452l-20.77387776-11.84305152 170.65642894-298.98850987 10.6781605 6.01859983z" fill="#994C2E" p-id="3068"></path><path d="M818.65736989 629.21452659s10.6781605 8.54252885 10.4840135 23.68610304c0 0-11.45475413 25.23929031-29.89885098 0.19414812l19.41483748-23.88025116z" fill="#FFC799" p-id="3069"></path><path d="M858.06949262 683.57607311c6.21274795-20.38558037-9.12497437-30.28714723-9.12497436-30.28714724-26.40418019-19.99728299-35.72330269 10.87230976-35.72330269 10.87230976-16.89090958 1.94148352-13.59038691 19.60898674-13.59038691 19.60898674-20.19143225 9.12497437-10.6781605 28.7339611-10.6781605 28.73395996-3.49467079 0.58244551-14.94942493 0.77659363-12.61964515 14.94942607 0 0 1.74733539 10.6781605 25.82173468 19.41483747 0.58244551 0.58244551 11.45475413 1.16488989 11.45475527 1.16489102 5.43615431 0.19414813 12.23134777-4.65956067 17.66750208-12.81379328 18.8323931-25.23929031 21.74461838-35.14085717 26.79247758-51.6434705z" fill="#FFCEA1" p-id="3070"></path><path d="M813.99780921 662.02560285c-0.58244551 1.35903915-0.97074176 2.32978091-0.97074176 2.32978091-0.58244551 0-1.16488989 0.19414813-1.7473354 0.19414812 0 0.97074176 0.38829625 2.13563165 1.55318728 2.52392903 3.30052267 1.35903915 6.40689607 2.71807715 9.51327061 4.46541256 3.10637454 1.74733539 5.24200619-3.30052267 2.13563164-5.04785807-3.10637454-1.74733539-6.21274795-3.10637454-9.51327061-4.46541255h-0.97074176zM799.82497678 687.07074504c3.30052267 1.35903915 6.40689607 2.71807715 9.51327175 4.46541255 3.10637454 1.74733539 5.24200619-3.30052267 2.13563165-5.04785806-3.10637454-1.74733539-6.21274795-3.10637454-9.51327061-4.46541256-0.97074176-0.38829625-1.94148352-0.19414813-2.52392904 0.38829626 0 0.97074176 0.19414813 1.55318727 0.19414813 1.55318726-0.38829625 0.19414813-0.97074176 0.38829625-1.35903801 0.58244552 0 0.97074176 0.38829625 1.94148352 1.55318613 2.52392903zM789.92340992 716.77544676c3.10637454 1.35903915 6.40689607 2.71807715 9.51327061 4.46541255 3.10637454 1.74733539 5.24200619-3.30052267 2.13563278-5.04785692-3.10637454-1.74733539-6.21274795-3.10637454-9.51327174-4.46541369-3.10637454-1.35903915-5.24200619 3.68881891-2.13563165 5.04785806z" fill="#FFC392" p-id="3071"></path><path d="M596.35747271 873.64734067l-0.9707429 25.04514104-3.30052152 92.02633387-1.94148466 55.91473379c-16.69676146 2.32978091-33.78181803 3.88296818-50.86687574 4.65956068-1.74733539 0-3.49467079 0.19414813-5.24200618 0.19414926-7.37763897 0.19414813-14.7552768 0.38829625-22.13291577 0.38829625h-4.07711631v-105.81086891c0-7.37763897 0.77659363-14.17283243 2.13563279-20.38558037 7.96008334-34.94670905 35.91745081-53.97325027 57.85621731-59.79770083 0.58244551-0.19414813 0.97074176-0.19414813 1.55318728-0.38829739 5.24200619-1.16488989 10.09571613-1.74733539 14.17283242-1.35903801 0.58244551 0 1.16488989 0.19414813 1.55318614 0.19414812 6.98934158 0.77659363 11.26060601 3.88296818 11.26060714 9.3191225zM482.3923712 945.87053853v105.03427527c-0.97074176 0-1.74733539 0-2.71807715-0.19414812-21.55047026-1.16488989-42.71264427-3.49467079-63.68066902-6.98934272-5.43615431-0.97074176-10.6781605-1.94148352-16.11431594-2.91222528l-1.94148352-50.47857949-3.10637455-86.9784758-1.16488988-29.70470172v-0.97074176c0.58244551-4.46541255 4.27126443-7.37763897 10.09571499-8.34838074 0.58244551-0.19414813 1.35903915-0.19414813 2.13563278-0.19414812h0.97074176c3.68881891-0.19414813 7.76593522 0.19414813 12.42549703 1.16488988 0.38829625 0 0.77659363 0.19414813 1.16488988 0.19414813 13.59038691 3.10637454 29.89885099 11.64890339 42.32434688 26.01588395 0.38829625 0.38829625 0.77659363 0.77659363 0.9707429 1.16488988 1.74733539 2.13563165 3.49467079 4.65956067 5.24200619 7.18348971 4.85370994 7.57178709 8.73667698 16.30846407 11.06645788 26.21003207 1.55318727 6.01859982 2.32978091 12.61964515 2.32977977 19.80313486z" fill="#FFCEA1" p-id="3072"></path><path d="M323.38484679 747.64503951l116.4890294-137.26290603s11.45475413-17.27920583-4.65956181-32.22863189c0 0-26.40418019-21.93876765-40.38286336-5.04785806 0 0-97.6566363 119.78955207-115.90658389 136.48631352-29.70470286 27.37492195 5.43615431 75.52372053 44.45997966 38.05308246z" fill="#FFFFFF" p-id="3073"></path><path d="M491.32319744 544.95412793c-75.91201792 0-137.26290603 180.36384768-137.26290717 295.1055417 0 114.74169401 274.71996131 114.74169401 274.71996246 0s-61.54503737-295.10554169-137.45705529-295.1055417z" fill="#FFFFFF" p-id="3074"></path><path d="M546.07304135 624.94326216c2.13563165-3.10637454 3.49467079-6.79519346 3.49467079-10.48401237 0-9.901568-7.96008334-17.86165134-17.86165134-17.86165135-0.58244551 0-15.72601856 0-16.50261219 0.19414813V868.01703709h3.49467078V599.12152747h7.96008335v268.50721337c1.16488989 0 2.32978091 0 3.49467079-0.19414926V599.12152747h1.55318727c8.54252885 0 15.33772231 6.98934158 15.33772231 15.33772232 0 3.49467079-1.16488989 6.98934158-3.49467079 9.70741873l-0.58244551 0.77659364 0.58244551 0.77659363c2.32978091 2.71807715 3.49467079 6.21274795 3.49467079 9.70741874 0 3.49467079-1.16488989 6.98934158-3.49467079 9.70741988l-0.58244551 0.7765925 0.58244551 0.77659363c2.32978091 2.71807715 3.49467079 6.21274795 3.49467079 9.70741987 0 3.49467079-1.16488989 6.98934158-3.49467079 9.70741874l-0.58244551 0.77659364 0.58244551 0.77659364c2.32978091 2.71807715 3.49467079 6.21274795 3.49467079 9.70741873 0 3.49467079-1.16488989 6.98934158-3.49467079 9.70741988l-0.58244551 0.77659249 0.58244551 0.77659364c2.32978091 2.71807715 3.49467079 6.21274795 3.49467079 9.70741988 0 3.49467079-1.16488989 6.98934158-3.49467079 9.70741874l-0.58244551 0.77659363 0.58244551 0.77659363c2.32978091 2.71807715 3.49467079 6.21274795 3.49467079 9.70741874 0 3.49467079-1.16488989 6.98934158-3.49467079 9.70741988l-0.58244551 0.7765925 0.58244551 0.77659363c2.32978091 2.71807715 3.49467079 6.21274795 3.49467079 9.70741988 0 3.49467079-1.16488989 6.98934158-3.49467079 9.70741873l-0.58244551 0.77659364 0.58244551 0.77659364c2.32978091 2.71807715 3.49467079 6.21274795 3.49467079 9.70741874 0 3.49467079-1.16488989 6.98934158-3.49467079 9.70741987l-0.58244551 0.7765925 0.58244551 0.77659363c2.32978091 2.71807715 3.49467079 6.21274795 3.49467079 9.70741988 0 3.49467079-1.16488989 6.98934158-3.49467079 9.70741874l-0.58244551 0.77659363 0.58244551 0.77659364c2.32978091 2.71807715 3.49467079 6.21274795 3.49467079 9.70741873 0 3.49467079-1.16488989 6.98934158-3.49467079 9.70741988l-0.58244551 0.77659364 0.58244551 0.7765925c2.32978091 2.71807715 3.49467079 6.21274795 3.49467079 9.70741987 0 3.49467079-1.16488989 6.98934158-3.49467079 9.70741874l-0.58244551 0.77659363 0.58244551 0.77659364c2.32978091 2.71807715 3.49467079 6.21274795 3.49467079 9.70741874 0 3.49467079-1.16488989 6.98934158-3.49467079 9.70741987l-0.58244551 0.77659364 0.58244551 0.77659249c2.13563165 2.71807715 3.49467079 6.21274795 3.49467079 9.70741988 0.77659363 0 1.74733539 0 2.52392903-0.19414812 0-3.68881891-1.16488989-7.37763897-3.30052267-10.28986425 2.13563165-3.10637454 3.49467079-6.79519346 3.4946708-10.48401351 0-3.68881891-1.16488989-7.37763897-3.4946708-10.48401238 2.13563165-3.10637454 3.49467079-6.79519346 3.4946708-10.48401237 0-3.68881891-1.16488989-7.37763897-3.4946708-10.48401237 2.13563165-3.10637454 3.49467079-6.79519346 3.4946708-10.48401352 0-3.68881891-1.16488989-7.37763897-3.4946708-10.48401237 2.13563165-3.10637454 3.49467079-6.79519346 3.4946708-10.48401237 0-3.68881891-1.16488989-7.37763897-3.4946708-10.48401351 2.13563165-3.10637454 3.49467079-6.79519346 3.4946708-10.48401237 0-3.68881891-1.16488989-7.37763897-3.4946708-10.48401238 2.13563165-3.10637454 3.49467079-6.79519346 3.4946708-10.48401237 0-3.68881891-1.16488989-7.37763897-3.4946708-10.48401351 2.13563165-3.10637454 3.49467079-6.79519346 3.4946708-10.48401238 0-3.88296818-1.16488989-7.57178709-3.4946708-10.48401237 2.13563165-3.10637454 3.49467079-6.79519346 3.4946708-10.48401237 0-3.68881891-1.16488989-7.37763897-3.4946708-10.48401352 2.13563165-3.10637454 3.49467079-6.79519346 3.4946708-10.48401237 0-3.68881891-1.16488989-7.37763897-3.4946708-10.48401237 2.13563165-3.10637454 3.49467079-6.79519346 3.4946708-10.48401238 0-3.68881891-1.16488989-7.37763897-3.4946708-10.4840135 2.13563165-3.10637454 3.49467079-6.79519346 3.4946708-10.48401238-0.19414813-3.68881891-1.35903915-7.37763897-3.68881892-10.48401237z" fill="#E2E2E2" p-id="3075"></path><path d="M529.76457728 577.57105721c0 10.48401237-8.73667698 19.02654123-19.60898674 19.02654123h-42.51849614c-10.87230976 0-19.60898674-8.54252885-19.60898674-19.02654123v-41.35360625c0-10.48401237 8.73667698-19.02654123 19.60898674-19.02654123h42.51849614c10.87230976 0 19.60898674 8.54252885 19.60898674 19.02654123v41.35360625z" fill="#FFCEA1" p-id="3076"></path><path d="M510.15559054 517.19090973h-42.51849614c-10.87230976 0-19.60898674 8.54252885-19.60898674 19.02654123v19.22069049c13.39623879 1.74733539 26.98662571 2.71807715 40.77116075 2.71807715 13.97868317 0 27.56907008-0.97074176 40.96530887-2.71807715v-19.22069049c0-10.48401237-8.73667698-19.02654123-19.60898674-19.02654123z" fill="#FFA669" p-id="3077"></path><path d="M626.2563237 857.92132097c-15.14357419 3.30052267-53.19665664 10.09571613-129.30282383 10.09571612-76.68861155 0-123.47837099-7.57178709-140.56342869-10.87230976-4.0771163-0.77659363 28.34566371 129.30282269 28.34566372 129.30282382s78.43594695 29.31640547 215.69885297 2.5239279c0 0 29.70470286-131.82675171 25.82173583-131.05015808zM507.82580963 653.09477775c0 7.37763897-6.01859982 13.39623879-13.39623878 13.39623765-7.37763897 0-13.39623879-6.01859982-13.39623766-13.39623765 0-7.37763897 6.01859982-13.39623879 13.39623766-13.39623879 7.37763897 0 13.39623879 6.01859982 13.39623878 13.39623879z" fill="#383838" p-id="3078"></path><path d="M442.59195335 624.94326216c-2.13563165-3.10637454-3.30052267-6.79519346-3.30052266-10.48401237 0-9.901568 7.96008334-17.86165134 17.86165134-17.86165135 0.58244551 0 15.72601856 0 16.50261219 0.19414813V868.01703709h-3.49467079V599.12152747h-8.15423146v268.50721337c-1.16488989 0-2.32978091 0-3.49467194-0.19414926V599.12152747h-1.55318613c-8.54252885 0-15.33772231 6.98934158-15.33772231 15.33772232 0 3.49467079 1.16488989 6.98934158 3.49467079 9.70741873l0.58244437 0.77659364-0.58244437 0.77659363c-2.13563165 2.71807715-3.49467079 6.21274795-3.49467079 9.70741874 0 3.49467079 1.16488989 6.98934158 3.49467079 9.70741988l0.58244437 0.7765925-0.58244437 0.77659363c-2.13563165 2.71807715-3.49467079 6.21274795-3.49467079 9.70741987 0 3.49467079 1.16488989 6.98934158 3.49467079 9.70741874l0.58244437 0.77659364-0.58244437 0.77659364c-2.13563165 2.71807715-3.49467079 6.21274795-3.49467079 9.70741873 0 3.49467079 1.16488989 6.98934158 3.49467079 9.70741988l0.58244437 0.77659249-0.58244437 0.77659364c-2.13563165 2.71807715-3.49467079 6.21274795-3.49467079 9.70741988 0 3.49467079 1.16488989 6.98934158 3.49467079 9.70741874l0.58244437 0.77659363-0.58244437 0.77659363c-2.13563165 2.71807715-3.49467079 6.21274795-3.49467079 9.70741874 0 3.49467079 1.16488989 6.98934158 3.49467079 9.70741988l0.58244437 0.7765925-0.58244437 0.77659363c-2.13563165 2.71807715-3.49467079 6.21274795-3.49467079 9.70741988 0 3.49467079 1.16488989 6.98934158 3.49467079 9.70741873l0.58244437 0.77659364-0.58244437 0.77659364c-2.13563165 2.71807715-3.49467079 6.21274795-3.49467079 9.70741874 0 3.49467079 1.16488989 6.98934158 3.49467079 9.70741987l0.58244437 0.7765925-0.58244437 0.77659363c-2.13563165 2.71807715-3.49467079 6.21274795-3.49467079 9.70741988 0 3.49467079 1.16488989 6.98934158 3.49467079 9.70741874l0.58244437 0.77659363-0.58244437 0.77659364c-2.13563165 2.71807715-3.49467079 6.21274795-3.49467079 9.70741873 0 3.49467079 1.16488989 6.98934158 3.49467079 9.70741988l0.58244437 0.77659364-0.58244437 0.7765925c-2.13563165 2.71807715-3.49467079 6.21274795-3.49467079 9.70741987 0 3.49467079 1.16488989 6.98934158 3.49467079 9.70741874l0.58244437 0.77659363-0.58244437 0.77659364c-2.13563165 2.71807715-3.49467079 6.21274795-3.49467079 9.70741874 0 3.49467079 1.16488989 6.98934158 3.49467079 9.70741987l0.58244437 0.77659364-0.58244437 0.77659249c-2.13563165 2.71807715-3.49467079 6.21274795-3.49467079 9.70741988-0.77659363 0-1.74733539 0-2.52392903-0.19414812 0-3.68881891 1.16488989-7.37763897 3.30052267-10.28986425-2.13563165-3.10637454-3.30052267-6.79519346-3.30052267-10.48401351 0-3.68881891 1.16488989-7.37763897 3.30052267-10.48401238-2.13563165-3.10637454-3.30052267-6.79519346-3.30052267-10.48401237 0-3.68881891 1.16488989-7.37763897 3.30052267-10.48401237-2.13563165-3.10637454-3.30052267-6.79519346-3.30052267-10.48401352 0-3.68881891 1.16488989-7.37763897 3.30052267-10.48401237-2.13563165-3.10637454-3.30052267-6.79519346-3.30052267-10.48401237 0-3.68881891 1.16488989-7.37763897 3.30052267-10.48401351-2.13563165-3.10637454-3.30052267-6.79519346-3.30052267-10.48401237 0-3.68881891 1.16488989-7.37763897 3.30052267-10.48401238-2.13563165-3.10637454-3.30052267-6.79519346-3.30052267-10.48401237 0-3.68881891 1.16488989-7.37763897 3.30052267-10.48401351-2.13563165-3.10637454-3.30052267-6.79519346-3.30052267-10.48401238 0-3.88296818 1.16488989-7.57178709 3.30052267-10.48401237-2.13563165-3.10637454-3.30052267-6.79519346-3.30052267-10.48401237 0-3.68881891 1.16488989-7.37763897 3.30052267-10.48401352-2.13563165-3.10637454-3.30052267-6.79519346-3.30052267-10.48401237 0-3.68881891 1.16488989-7.37763897 3.30052267-10.48401237-2.13563165-3.10637454-3.30052267-6.79519346-3.30052267-10.48401238 0-3.68881891 1.16488989-7.37763897 3.30052267-10.4840135-2.13563165-3.10637454-3.30052267-6.79519346-3.30052267-10.48401238 0-3.68881891 1.16488989-7.37763897 3.49467079-10.48401237z" fill="#E2E2E2" p-id="3079"></path><path d="M507.82580963 699.10794468c0 7.37763897-6.01859982 13.39623879-13.39623878 13.39623765-7.37763897 0-13.39623879-6.01859982-13.39623766-13.39623765 0-7.37763897 6.01859982-13.39623879 13.39623766-13.39623879 7.37763897 0 13.39623879 6.01859982 13.39623878 13.39623879z" fill="#383838" p-id="3080"></path><path d="M569.37084701 610.18798536c0.19414813 3.10637454 0.19414813 6.21274795 0.19414812 9.31912249 0 62.32163101-34.17011541 112.80021049-76.4944623 112.80020935-42.32434688 0-76.49446229-50.47857949-76.49446342-112.80020935 0-5.43615431 0.19414813-10.87230976 0.77659363-16.11431595-38.05308245 62.70992725-63.48652089 163.27878997-63.48652089 236.86102699 0 6.01859982 0.77659363 11.64890339 2.32978091 17.0850577 20.38558037 3.68881891 69.50512071 10.87230976 140.56342869 10.87230862 66.59289543 0 109.49968782-6.40689607 129.30282268-10.09571612 1.55318727-5.63030357 2.52392903-11.64890339 2.52392904-17.8616502 0.19414813-71.25245611-23.29780565-167.16175701-59.21525646-230.06583353z" fill="#EA6A47" p-id="3081"></path><path d="M528.98798365 576.21201807c0 10.48401237-8.73667698 19.02654123-19.60898674 19.02654122h-42.51849614c-10.87230976 0-19.60898674-8.54252885-19.60898674-19.02654122v-41.159457c0-10.48401237 8.73667698-19.02654123 19.60898674-19.02654122h42.51849614c10.87230976 0 19.60898674 8.54252885 19.60898674 19.02654122v41.159457z" fill="#FFCEA1" p-id="3082"></path><path d="M509.37899691 516.02601985h-42.51849614c-10.87230976 0-19.60898674 8.54252885-19.60898674 19.02654122v19.22068936c13.39623879 1.74733539 26.98662571 2.71807715 40.96530887 2.71807715 13.97868317 0 27.56907008-0.97074176 40.96530887-2.71807715v-19.22068936c-0.19414813-10.48401237-8.9308251-19.02654123-19.80313486-19.02654122z" fill="#FFA669" p-id="3083"></path><path d="M482.58652046 881.02497849c-5.8244517 10.48401237-19.02654123 14.56112867-29.70470286 9.12497437l-102.89864249-54.1673984c-10.48401237-5.63030357-14.36698055-18.63824498-8.54252885-29.12225735l70.28171435-126.97304292c5.8244517-10.48401237 19.22068935-14.56112867 29.70470172-9.12497436l102.89864362 54.16739954c10.48401237 5.63030357 14.36698055 18.63824498 8.54252886 29.12225735l-70.28171435 126.97304177z" fill="#d4237a" p-id="3084"></path><path d="M479.67429405 880.24838486c-5.63030357 10.28986425-18.63824498 14.36698055-28.73395997 8.93082624l-99.59812096-52.42006301c-10.09571613-5.43615431-13.78453504-18.05579947-8.15423147-28.34566485l68.34023083-123.67251911c5.63030357-10.28986425 18.63824498-14.36698055 28.73395997-8.93082624l99.59812096 52.42006414c10.09571613 5.43615431 13.78453504 18.05579947 8.15423146 28.34566372l-68.34023082 123.67251911z" fill="#FFFFFF" p-id="3085"></path><path d="M476.76206877 891.70314013c-5.8244517 10.48401237-18.8323931 14.7552768-29.12225736 9.31912249L339.4991616 843.9426378c-7.96008334-6.60104533-6.40689607-14.17283243-0.58244437-24.6568448l70.08756622-126.97304177c5.8244517-10.48401237 18.8323931-14.7552768 29.12225735-9.3191225l100.56886158 52.8083604c10.28986425 5.43615431 13.78453504 18.44409685 7.96008448 28.92810808l-69.89341809 126.97304292z" fill="#F65E6F" p-id="3086"></path><path d="M430.16645632 680.66384783l-3.49467079-11.84305152-8.15423147 3.10637454-5.24200619 5.8244517-5.04785806 8.9308251v0.58244551c-0.77659363 0.97074176-1.55318727 2.13563165-2.13563278 3.30052267l-70.28171434 126.77889365c-5.8244517 10.48401237-3.68881891 21.55047026 3.88296817 26.4041802l90.47314546-163.08464185z" fill="#d4237a" p-id="3087"></path><path d="M759.05381717 124.62287987c0 69.11682446-55.72058567 125.03155826-124.25496462 125.03155825s-124.25496462-55.91473379-124.25496576-125.03155825c0-69.11682446 55.72058567-125.03155826 124.25496576-125.03155826s124.25496462 56.10888306 124.25496462 125.03155826z" fill="#932A34" p-id="3088"></path><path d="M611.30689763 28.90772708c-1.16488989 33.39352178 27.76321821 68.53437895 51.83761864 88.33751381 12.23134777 10.09571613 27.76321821 17.27920583 43.87753415 15.14357419 16.30846407-2.13563165 25.82173469-15.92016782 26.79247644-31.45203825 1.74733539-28.53981184-25.23929031-81.34817223-60.38014635-66.59289544-12.42549703 5.24200619-13.97868317 22.13291577-9.51327061 33.19937366 5.24200619 13.20208953 17.27920583 21.55047026 31.64618639 18.63824498 8.34838073-1.74733539 5.8244517-14.7552768-2.52392904-13.00794141-22.71536128 4.65956067-24.26854741-39.80041899 1.35903801-25.43343843 16.89090958 9.31912249 39.99456711 54.1673984 18.44409685 68.53437894-19.80313486 13.20208953-45.04242517-11.06645789-57.27377294-24.46269553-13.78453504-15.33772231-31.64618638-39.60626973-30.86959274-61.54503737 0-8.9308251-13.20208953-10.09571613-13.3962388-1.35903915z" fill="#7F212D" p-id="3089"></path><path d="M732.64963698 300.52131499c0 128.1379328-109.69383595 232.00731705-244.82111033 232.00731705-135.32142251 0-244.82111033-103.86938425-244.82111033-232.00731705S352.70125227 68.51399681 487.82852665 68.51399681s244.82111033 103.86938425 244.82111033 232.00731818z" fill="#993035" p-id="3090"></path><path d="M341.63479438 394.87742863c0 32.22863189-25.82173469 58.2445147-57.66207033 58.2445147s-57.66206919-26.01588281-57.66206919-58.2445147 25.82173469-58.2445147 57.66206919-58.2445147 57.66206919 26.01588281 57.66207033 58.2445147z" fill="#FFC28F" p-id="3091"></path><path d="M341.63479438 394.87742863c0-32.22863189-25.82173469-58.2445147-57.66207033-58.2445147-13.39623879 0-25.82173469 4.65956067-35.72330154 12.61964515 0 0 4.65956067 72.61149525 45.2365733 103.28693874 27.37492195-4.65956067 48.14879858-28.7339611 48.14879857-57.66206919z" fill="#FFA669" p-id="3092"></path><path d="M635.1871488 393.71253875c-0.77659363 32.22863189 24.46269667 58.82696021 56.30303118 59.6035527 31.84033451 0.77659363 58.2445147-24.85099293 58.82696021-57.07962368 0.77659363-32.22863189-24.46269667-58.82696021-56.30303118-59.60355384-31.84033451-0.77659363-58.05036658 24.85099293-58.82696021 57.07962482z" fill="#FFC28F" p-id="3093"></path><path d="M635.1871488 393.71253875c0.77659363-32.22863189 26.98662571-57.85621845 58.82696021-57.07962482 13.59038691 0.19414813 25.82173469 5.24200619 35.52915342 13.39623879 0 0-6.21274795 72.61149525-47.37220494 102.31619697-27.37492195-5.24200619-47.56635421-29.70470286-46.98390869-58.63281094z" fill="#FFA669" p-id="3094"></path><path d="M719.05925006 332.74994575c0 114.1592485-103.67523613 206.76802787-231.42487153 206.76802788-127.74963541 0-231.23072341-92.60877824-231.23072456-206.76802788s103.481088-206.76802787 231.23072456-206.76802674c127.94378467-0.19414813 231.42487267 92.41463011 231.42487153 206.76802674z" fill="#FFCEA1" p-id="3095"></path><path d="M356.19592306 366.14346753c6.21274795 0.19414813 1.55318727 8.54252885-4.65956181 8.34838072-6.60104533-0.19414813-12.42549703-2.71807715-17.08505771-7.37763782-4.46541255-4.46541255 2.32978091-11.26060601 6.79519345-6.98934272 2.71807715 2.91222528 10.87230976 6.01859982 14.94942607 6.01859982zM621.59676189 374.49184825c6.60104533-0.19414813 12.42549703-2.71807715 17.0850577-7.37763782 4.46541255-4.46541255-2.32978091-11.26060601-6.79519346-6.98934272-2.71807715 2.71807715-10.87230976 5.8244517-14.94942492 6.01859982-6.21274795 0.19414813-1.55318727 8.54252885 4.65956068 8.34838072z" fill="#754C29" p-id="3096"></path><path d="M342.60553614 385.94660353a30.09299911 24.46269667 90 1 0 48.92539221 0 30.09299911 24.46269667 90 1 0-48.92539221 0Z" fill="#754C29" p-id="3097"></path><path d="M581.40804665 385.94660353a30.09299911 24.46269667 90 1 0 48.92539221 0 30.09299911 24.46269667 90 1 0-48.92539221 0Z" fill="#754C29" p-id="3098"></path><path d="M604.12340793 376.43333177a7.96008334 7.76593522 90 1 0 15.53187044 0 7.96008334 7.76593522 90 1 0-15.53187044 0Z" fill="#F1F2F2" p-id="3099"></path><path d="M369.20386446 376.43333177c0 4.27126443-3.49467079 7.96008334-7.76593521 7.96008448s-7.76593522-3.49467079-7.76593522-7.96008448c0-4.27126443 3.49467079-7.96008334 7.76593522-7.96008334 4.27126443 0.19414813 7.76593522 3.68881891 7.76593521 7.96008334z" fill="#F1F2F2" p-id="3100"></path><path d="M672.46363875 423.99968598c0 8.9308251-13.97868317 16.30846407-31.25789013 16.30846407-17.27920583 0-31.25789013-7.37763897-31.25788899-16.30846407 0-8.9308251 13.97868317-16.30846407 31.25788899-16.30846407 17.27920583 0 31.25789013 7.37763897 31.25789013 16.30846407z" fill="#FFB883" p-id="3101"></path><path d="M297.36896285 423.99968598a31.25789013 16.30846407 0 1 0 62.51577912 0 31.25789013 16.30846407 0 1 0-62.51577912 0Z" fill="#FFB883" p-id="3102"></path><path d="M550.15015765 453.31609145c0 21.74461838-27.18077383 39.4121216-60.5742956 39.4121216s-60.57429561-17.66750322-60.57429562-39.4121216h121.14859122z" fill="#FFA669" p-id="3103"></path><path d="M550.15015765 445.93845363c0 21.74461838-27.18077383 39.4121216-60.5742956 39.4121216s-60.57429561-17.66750322-60.57429562-39.4121216h121.14859122z" fill="#A4493A" p-id="3104"></path><path d="M438.32068893 445.93845363c0.58244551 11.64890339 23.68610304 20.96802589 52.22591488 20.96802474s51.64346937-9.31912249 52.22591488-20.96802474h-104.45182976z" fill="#FBFFFF" p-id="3105"></path><path d="M678.48223858 338.38024932c-14.94942493-31.25789013-46.59561131-52.80836039-83.09550877-52.80836039-50.09028323 0-90.86144285 40.57701149-92.22048085 90.86144284-16.89090958-6.40689607-31.84033451-3.30052267-40.77116075 0.19414927-1.35903915-50.28443136-42.13019875-90.86144285-92.22048199-90.86144399-35.91745081 0-66.98119168 20.77387662-82.31891399 51.061025-6.40689607 12.81379328-10.09571613 27.18077383-10.09571612 42.51849614 0 27.18077383 11.64890339 51.83761863 30.09299911 68.9226752 16.50261219 15.14357419 38.24723171 24.46269667 62.321631 24.46269668 22.52121202 0 43.29508978-8.34838073 59.40940573-21.93876764 1.74733539-1.55318727 3.49467079-3.10637454 5.24200618-4.8537088 14.7552768-14.7552768 24.6568448-34.36426354 27.18077384-56.30303119 5.8244517-2.91222528 22.71536128-9.70741874 41.93605062 0 2.32978091 21.93876765 12.42549703 41.74190251 27.1807727 56.30303119 2.71807715 2.52392903 5.43615431 5.04785806 8.34838073 7.37763782 2.52392903 1.94148352 5.04785806 3.68881891 7.76593521 5.43615546 0.77659363 0.58244551 1.55318727 0.97074176 2.32978091 1.359038 13.59038691 7.96008334 29.31640547 12.42549703 46.20731506 12.42549704 26.01588281 0 49.50783773-11.06645789 66.39874731-28.53981298 16.11431595-16.89090958 26.01588281-39.60626973 26.0158828-64.8455589-0.58244551-14.56112867-3.88296818-28.34566371-9.70741873-40.77116075z m-308.50178048 122.50762923c-19.60898674 0-37.85893433-7.18348971-51.83761863-19.02654123-1.35903915-1.16488989-2.52392903-2.13563165-3.68881892-3.30052267-6.01859982-5.8244517-11.26060601-12.61964515-15.33772231-19.99728298-6.40689607-11.64890339-9.901568-25.04514105-9.90156686-39.21797348 0-14.7552768 3.88296818-28.53981184 10.48401237-40.38286336 13.97868317-24.6568448 40.18871523-41.35360512 70.28171435-41.35360626 44.45997966 0 80.76572672 36.69404445 80.76572672 81.73646962 0 44.84827591-36.30574706 81.54232035-80.76572672 81.54232036z m297.82361884-45.43072142c-3.88296818 7.96008334-8.9308251 15.14357419-15.14357419 21.35632213-0.97074176 0.97074176-1.94148352 1.94148352-3.1063734 2.91222528-14.36698055 13.20208953-33.39352178 21.35632213-54.36154766 21.35632213-16.69676146 0-32.22863189-5.24200619-45.2365733-13.97868316-0.58244551-0.38829625-0.97074176-0.58244551-1.35903801-0.97074176-20.5797285-14.7552768-34.17011541-39.21797347-34.17011541-66.78704356 0-45.04242517 36.30574706-81.73646962 80.76572672-81.73646962 31.45203826 0 58.82696021 18.44409685 72.223199 45.04242518 5.43615431 11.06645789 8.54252885 23.49195378 8.54252886 36.69404444 0.19414813 12.81379328-2.91222528 25.04514105-8.15423261 36.11159894z" fill="#994C2E" p-id="3106"></path><path d="M712.65235399 235.86990308c-15.33772231-32.42278002-30.09299911-50.86687573-50.86687687-73.19393963-20.77387662-22.52121202-36.69404445-30.28714723-74.16468253-51.44932238-37.47063808-21.16217401-120.37199758-18.05579947-120.37199644-18.05579946s-48.34294784-0.77659363-107.16990805 32.61692814c-58.82696021 33.39352178-90.47314659 83.48380501-103.67523613 134.54483001-13.20208953 51.06102499 0 83.28965575 0 83.28965575 21.74461838-54.55569579 138.03949966-82.9013595 208.32121515-100.56886272 95.71515278-24.07439929 161.7256027-20.96802589 180.94629205-19.22068935 7.76593522 79.21254059 72.80564338 125.22570638 72.80564338 125.22570638h10.09571612v-35.72330155c0 0.19414813-0.58244551-44.84827591-15.92016668-77.46520519z" fill="#993035" p-id="3107"></path><path d="M273.48871168 435.64858937c0 4.65956067-3.68881891 8.34838073-8.15423147 8.3483796-4.46541255 0-8.15423261-3.68881891-8.1542326-8.3483796 0-4.46541255 3.68881891-8.34838073 8.1542326-8.34838072 4.46541255 0 8.15423261 3.68881891 8.15423147 8.34838072z" fill="#FFFFFF" p-id="3108"></path><path d="M721.00073358 435.64858937c0 4.65956067-3.68881891 8.34838073-8.15423147 8.3483796-4.46541255 0-8.15423261-3.68881891-8.1542326-8.3483796 0-4.46541255 3.68881891-8.34838073 8.1542326-8.34838072 4.46541255 0 8.15423261 3.68881891 8.15423147 8.34838072z" fill="#FFFFFF" p-id="3109"></path><path d="M537.5305125 567.28119297l-48.53709597 33.19937251-48.53709596-33.19937251c-13.39623879 7.57178709-26.01588281 18.05579947-37.6647862 30.86959274 0 13.39623879 27.76321821 36.30574706 50.28443136 36.30574706 15.53187043 0 28.92810923-5.04785806 35.9174508-12.42549589 6.98934158 7.37763897 20.38558037 12.42549703 35.91745081 12.42549589 22.71536128 0 50.47857949-23.10365753 50.47857949-36.30574706-11.84305152-12.81379328-24.46269667-23.29780565-37.85893433-30.86959274z" fill="" p-id="3110"></path><path d="M537.5305125 558.54451485l-48.53709597 33.19937366-48.53709596-33.19937366c-13.39623879 7.57178709-26.01588281 18.05579947-37.6647862 30.86959275 0 13.39623879 27.76321821 36.30574706 50.28443136 36.30574819 15.53187043 0 28.92810923-5.04785806 35.9174508-12.42549703 6.98934158 7.37763897 20.38558037 12.42549703 35.91745081 12.42549703 22.71536128 0 50.47857949-23.10365753 50.47857949-36.30574819-11.84305152-12.81379328-24.46269667-23.29780565-37.85893433-30.86959275z" fill="#FFFFFF" p-id="3111"></path><path d="M412.49895424 718.71693142s10.09571613-5.04785806 33.00522439-4.0771163c0 0 29.70470286-0.97074176 39.21797348 15.72601856 0 0 2.13563165 11.84305152-10.48401238 16.50261219 0 0-19.41483861 6.40689607-26.40418019 0.9707429 0 0-0.38829625 6.40689607 16.89090958 10.6781605 17.08505771 4.27126443 30.4812965-0.58244551 30.48129536-0.58244551s30.28714723-1.94148352 20.5797285 17.86165134c-3.30052267 6.60104533-32.61692814 18.24994759-45.62486955 11.06645789 3.68881891 2.91222528 43.4892379 0.38829625 48.14879858 12.03719964 1.94148352 4.65956067 3.10637454 23.49195378-43.68338603 15.14357418 0 0 32.03448263 3.49467079 33.78181917 13.00794141 2.71807715 14.56112867-24.07439929 19.60898674-49.89613512 6.01859982 0 0-7.37763897-4.27126443-18.05579946-10.48401237 0 0 31.64618638 14.56112867 34.5584128 22.13291577 5.43615431 14.17283243-12.23134777 14.36698055-20.5797285 10.87230976 0 0-39.80041899-15.53187043-53.58495402-27.37492196 0 0-20.38558037-14.94942493-26.21003208-20.77387776 0 0-15.33772231-13.97868317-15.14357304-26.79247644 0 0 0-21.55047026 18.8323931-37.66478621-0.19414813-0.38829625 13.59038691-16.89090958 34.17011541-24.26854741z" fill="#FFCEA1" p-id="3112"></path><path d="M394.83145102 726.67701476l-95.52100465-20.19143225s-20.96802589-3.10637454-28.34566372 17.4733551c0 0-10.09571613 32.61692814 11.26060601 38.05308245l86.39603029 35.52915456c0.19414813 0-6.98934158-33.19937365 26.21003207-70.86415986z" fill="#FFFFFF" p-id="3113"></path></svg>