<?xml version="1.0" encoding="utf-8"?>
<!-- Generator: Adobe Illustrator 23.0.6, SVG Export Plug-In . SVG Version: 6.00 Build 0)  -->
<svg version="1.1" id="Layer_1" xmlns="http://www.w3.org/2000/svg" xmlns:xlink="http://www.w3.org/1999/xlink" x="0px" y="0px"
	 viewBox="0 0 511 512" style="enable-background:new 0 0 511 512;" xml:space="preserve">
<style type="text/css">
	.st0{fill:#A45E43;}
	.st1{fill:#C27749;}
	.st2{fill:#E18F4E;}
	.st3{fill:#FFA754;}
	.st4{fill:#FFF0D3;}
	.st5{fill:#FFFFFF;}
	.st6{fill:#FFE2A8;}
	.st7{fill:#49C9FF;}
	.st8{fill:#2DADE3;}
	.st9{fill:#85453D;}
	.st10{fill:#60312C;}
	.st11{fill:#9DB55F;}
	.st12{fill:#B9D171;}
</style>
<path class="st0" d="M371,306.5l89,150h30v-150H371z"/>
<path class="st1" d="M248,306.5v150h212v-45l-15-30l15-30v-45H248z"/>
<path class="st2" d="M475,291.5l-15,15l15,15h30v-30H475z"/>
<path class="st3" d="M233,291.5h242v30H233V291.5z"/>
<path class="st4" d="M430,351.5l-45,30l45,30h30v-60H430z"/>
<path class="st5" d="M278,351.5h152v60H278V351.5z"/>
<path class="st6" d="M153,171.5h-25l-30,105l75,0v-85C173,180.5,164,171.5,153,171.5z"/>
<path class="st4" d="M128,171.5h-25c-11,0-20,9-20,20v85l45,0V171.5z"/>
<path class="st7" d="M83,261.5c-9.3,10.6-15,24.5-15,39.7c0,2.2,0.1,4.3,0.3,6.4L83,441.5h30v-135h60l-30-45H83z"/>
<path class="st8" d="M173,261.5h-30v180h30l14.7-133.9c0.2-2.1,0.3-4.3,0.3-6.4C188,286,182.3,272.1,173,261.5z"/>
<path class="st9" d="M113,51.5h30c8.3,0,15-6.7,15-15c0-16.6-13.4-30-30-30s-30,13.4-30,30C98,44.8,104.7,51.5,113,51.5z"/>
<path class="st2" d="M142.1,81L128,141.5c24.9,0,45-20.1,45-45L142.1,81z"/>
<path class="st3" d="M143,96.5c0-5.4-0.3-10.6-0.9-15.5L101,60.5c-10.9,8.2-18,21.3-18,36c0,24.9,20.1,45,45,45
	C136.3,141.5,143,121.4,143,96.5z"/>
<path class="st10" d="M128,51.5l14.9,39.8c9.4,3.3,19.5,5.2,30.1,5.2C173,71.6,152.9,51.5,128,51.5z"/>
<path class="st9" d="M128,51.5c-10.1,0-19.5,3.4-27,9c10.5,14,25.1,24.9,41.9,30.8C142,68.9,135.7,51.5,128,51.5z"/>
<path class="st9" d="M505,216.5l-60-30l30,60h30V216.5z"/>
<path class="st0" d="M475,246.5H233v-30l242-60V246.5z"/>
<path class="st11" d="M475,216.5l-30-105l30-105h30v210H475z"/>
<path class="st12" d="M233,6.5h242v210H233V6.5z"/>
<path class="st6" d="M38,169c-4.1,0-7.5-3.4-7.5-7.5v-35c0-4.1,3.4-7.5,7.5-7.5s7.5,3.4,7.5,7.5v35C45.5,165.6,42.1,169,38,169z"/>
<path d="M135.5,201.5c0,4.1-3.4,7.5-7.5,7.5c-4.1,0-7.5-3.4-7.5-7.5c0-4.1,3.4-7.5,7.5-7.5C132.1,194,135.5,197.4,135.5,201.5z"/>
<path d="M135.5,231.5c0,4.1-3.4,7.5-7.5,7.5c-4.1,0-7.5-3.4-7.5-7.5c0-4.1,3.4-7.5,7.5-7.5C132.1,224,135.5,227.4,135.5,231.5z"/>
<path d="M505,284H233c-4.1,0-7.5,3.4-7.5,7.5v30c0,4.1,3.4,7.5,7.5,7.5h7.5v174.5c0,4.1,3.4,7.5,7.5,7.5c4.1,0,7.5-3.4,7.5-7.5V464
	h227v39.5c0,4.1,3.4,7.5,7.5,7.5c4.1,0,7.5-3.4,7.5-7.5V329h7.5c4.1,0,7.5-3.4,7.5-7.5v-30C512.5,287.4,509.1,284,505,284z
	 M482.5,449h-227V329h227V449z M497.5,314h-257v-15h257V314z"/>
<path d="M278,419h182c4.1,0,7.5-3.4,7.5-7.5v-60c0-4.1-3.4-7.5-7.5-7.5H278c-4.1,0-7.5,3.4-7.5,7.5v60
	C270.5,415.6,273.9,419,278,419z M285.5,359h167v45h-167V359z"/>
<path d="M190.4,496.4l-24.9-8.3V449h7.5c3.8,0,7-2.9,7.5-6.7l14.7-133.9c0.3-2.4,0.4-4.8,0.4-7.2c0-15.5-5.3-30.4-15-42.4v-67.3
	c0-15.2-12.3-27.5-27.5-27.5h-50c-12.6,0-23.2,8.5-26.5,20H23c-4.1,0-7.5-3.4-7.5-7.5s3.4-7.5,7.5-7.5h15c4.1,0,7.5-3.4,7.5-7.5
	c0-4.1-3.4-7.5-7.5-7.5H23c-12.4,0-22.5,10.1-22.5,22.5S10.6,199,23,199h52.5v59.8c-9.7,12-15,26.9-15,42.4c0,2.4,0.1,4.8,0.4,7.2
	l14.7,133.9c0.4,3.8,3.6,6.7,7.5,6.7h7.5v39.1l-24.9,8.3c-3.9,1.3-6.1,5.6-4.7,9.5c1.1,3.1,4,5.1,7.1,5.1c0.8,0,1.6-0.1,2.4-0.4
	l30-10c3.1-1,5.1-3.9,5.1-7.1V449h7.5c4.1,0,7.5-3.4,7.5-7.5V314h15v127.5c0,4.1,3.4,7.5,7.5,7.5h7.5v44.5c0,3.2,2.1,6.1,5.1,7.1
	l30,10c0.8,0.3,1.6,0.4,2.4,0.4c3.1,0,6.1-2,7.1-5.1C196.4,501.9,194.3,497.7,190.4,496.4z M103,179h50c6.9,0,12.5,5.6,12.5,12.5
	V254h-75v-62.5C90.5,184.6,96.1,179,103,179z M143,299h-30c-4.1,0-7.5,3.4-7.5,7.5V434H89.7L75.8,306.8c-0.2-1.9-0.3-3.8-0.3-5.6
	c0-11.7,3.9-23,11-32.2h82.9c7.1,9.2,11,20.5,11,32.2c0,1.9-0.1,3.8-0.3,5.6L166.3,434h-15.8V306.5C150.5,302.4,147.1,299,143,299z"
	/>
<path d="M75.5,96.5c0,28.9,23.6,52.5,52.5,52.5s52.5-23.6,52.5-52.5c0-17.9-9-33.6-22.6-43.1c4.7-4.1,7.6-10.2,7.6-16.9
	C165.5,15.8,148.7-1,128-1c-20.7,0-37.5,16.8-37.5,37.5c0,6.7,3,12.7,7.6,16.9C84.5,62.9,75.5,78.6,75.5,96.5z M128,134
	c-20.7,0-37.5-16.8-37.5-37.5c0-9.7,3.7-18.5,9.7-25.1c16.7,18.8,39.6,30.2,64.6,32.3C161.5,120.9,146.2,134,128,134z M128,59
	c18,0,33,12.7,36.6,29.6c-20.2-2-38.6-11.2-52.3-26.1C117.1,60.2,122.4,59,128,59z M113,44c-4.1,0-7.5-3.4-7.5-7.5
	c0-12.4,10.1-22.5,22.5-22.5s22.5,10.1,22.5,22.5c0,4.1-3.4,7.5-7.5,7.5H113z"/>
<path d="M505-1H233c-4.1,0-7.5,3.4-7.5,7.5v240c0,4.1,3.4,7.5,7.5,7.5h272c4.1,0,7.5-3.4,7.5-7.5V6.5C512.5,2.4,509.1-1,505-1z
	 M497.5,14v195h-257V14H497.5z M240.5,239v-15h257v15H240.5z"/>
<g>
	<path class="st5" d="M445,104h-15c-4.1,0-7.5-3.4-7.5-7.5s3.4-7.5,7.5-7.5h15c4.1,0,7.5,3.4,7.5,7.5S449.1,104,445,104z"/>
	<path class="st5" d="M445,134h-15c-4.1,0-7.5-3.4-7.5-7.5s3.4-7.5,7.5-7.5h15c4.1,0,7.5,3.4,7.5,7.5S449.1,134,445,134z"/>
	<path class="st5" d="M294,164c-4.1,0-7.5-3.4-7.5-7.5v-90c0-4.1,3.4-7.5,7.5-7.5c4.1,0,7.5,3.4,7.5,7.5v90
		C301.5,160.6,298.1,164,294,164z"/>
	<path class="st5" d="M399,164c-4.1,0-7.5-3.4-7.5-7.5v-90c0-4.1,3.4-7.5,7.5-7.5c4.1,0,7.5,3.4,7.5,7.5v90
		C406.5,160.6,403.1,164,399,164z"/>
	<path class="st5" d="M346.5,141.5c-4.1,0-7.5-3.4-7.5-7.5V89c0-4.1,3.4-7.5,7.5-7.5c4.1,0,7.5,3.4,7.5,7.5v45
		C354,138.1,350.6,141.5,346.5,141.5z"/>
	<path class="st5" d="M369,119h-45c-4.1,0-7.5-3.4-7.5-7.5s3.4-7.5,7.5-7.5h45c4.1,0,7.5,3.4,7.5,7.5S373.1,119,369,119z"/>
</g>
<path d="M180.1,203.1l133.1-100.2c2.9-2.9,2.9-7.7,0-10.6c-2.9-2.9-7.7-2.9-10.6,0l-132.7,99.8c0,0-4.5,6.1,0,10.6
	S180.1,203.1,180.1,203.1z"/>
</svg>
