<svg id="Layer_1" height="512" viewBox="0 0 128 128" width="512" xmlns="http://www.w3.org/2000/svg" data-name="Layer 1"><path d="m62.75 11.75h2.5c.671 0 1.336.024 2 .051v-10.051h-6.5v10.05c.664-.026 1.329-.05 2-.05z" fill="#596675"/><path d="m72.625 119.75a5.375 5.375 0 0 1 -5.375-5.375v-51.362l-3.263-1.013-3.237 1.006v51.369a11.875 11.875 0 0 0 11.875 11.875 11.875 11.875 0 0 0 11.875-11.875v-13.875h-6.5v13.875a5.375 5.375 0 0 1 -5.375 5.375z" fill="#596675"/><path d="m115.5 62-12.882 4-12.881-4-12.873 4-12.877-4-12.872 4-12.869-4-12.873 4-12.873-4a50.25 50.25 0 0 1 50.25-50.25h2.5a50.25 50.25 0 0 1 50.25 50.25z" fill="#eaeaea"/><path d="m102.618 66 12.882-4a50.25 50.25 0 0 0 -50.25-50.25h-1.25l1.884 1.466a61.813 61.813 0 0 1 23.853 48.784z" fill="#ff6e6e"/><path d="m65.25 11.75h-1.25l1.317 1.025a56.933 56.933 0 0 1 45.923 50.548l4.26-1.323a50.25 50.25 0 0 0 -50.25-50.25z" fill="#e56363"/><path d="m25.382 66-12.882-4a50.25 50.25 0 0 1 50.25-50.25h1.25l-1.884 1.466a61.813 61.813 0 0 0 -23.853 48.784z" fill="#ff6e6e"/><path d="m65.884 13.216-1.884-1.466-1.884 1.466a61.813 61.813 0 0 0 -23.853 48.784h-.009l12.86 4 12.872-4 12.877 4 12.873-4a61.813 61.813 0 0 0 -23.852-48.784z" fill="#eaeaea"/><path d="m63.987 66.188 3.263 1.014v-4.189l-3.263-1.013-3.237 1.006v4.188z" fill="#373f47"/><path d="m65.884 13.216-1.884-1.466-1.884 1.466c-.6.469-1.177.964-1.759 1.452a67.283 67.283 0 0 1 24.293 48.913l5.087-1.581a61.813 61.813 0 0 0 -23.853-48.784z" fill="#d2d2d2"/><path d="m78 100.5h6.5v14.25h-6.5z" fill="#373f47"/><path d="m62.75 11.75h1.25l-1.317 1.025a56.933 56.933 0 0 0 -45.923 50.548l-4.26-1.323a50.25 50.25 0 0 1 50.25-50.25z" fill="#e56363"/><path d="m60.75 87.75a1.75 1.75 0 0 0 1.75-1.75v-3.125a1.75 1.75 0 0 0 -3.5 0v3.125a1.75 1.75 0 0 0 1.75 1.75z"/><path d="m69 10.15v-8.4a1.75 1.75 0 0 0 -1.75-1.75h-6.5a1.75 1.75 0 0 0 -1.75 1.75v8.4a52.058 52.058 0 0 0 -48.25 51.85 1.75 1.75 0 0 0 1.231 1.671l12.873 4a1.754 1.754 0 0 0 .522.078 1.758 1.758 0 0 0 .519-.079l12.354-3.836 12.351 3.837a1.753 1.753 0 0 0 1.039 0l7.361-2.289v9.368a1.75 1.75 0 0 0 3.5 0v-10.455a5.4 5.4 0 0 1 1.5-.415 5.771 5.771 0 0 1 1.5.423v50.073a7.125 7.125 0 0 0 13.926 2.124h3.1a10.123 10.123 0 0 1 -20.026-2.125v-20.25a1.75 1.75 0 0 0 -3.5 0v20.25a13.616 13.616 0 0 0 27.213.733 1.757 1.757 0 0 0 .037-.358v-14.25a1.75 1.75 0 0 0 -1.75-1.75h-6.5a1.75 1.75 0 0 0 -1.75 1.75v13.875a3.625 3.625 0 0 1 -7.25 0v-48.985l7.345 2.282a1.766 1.766 0 0 0 1.039 0l12.353-3.839 12.363 3.838a1.791 1.791 0 0 0 1.039 0l12.881-4a1.75 1.75 0 0 0 1.23-1.671 52.058 52.058 0 0 0 -48.25-51.85zm10.75 92.1h3v10.75h-3zm22.868-38.083-11.144-3.46a63.1 63.1 0 0 0 -22.257-47.032 48.51 48.51 0 0 1 44.517 47.041zm-40.118-54.167v-6.5h3v6.5q-1.5-.008-3 0zm-11.385 54.167-11.082-3.444a60.263 60.263 0 0 1 7.232-27.334 1.75 1.75 0 1 0 -3.077-1.667 63.779 63.779 0 0 0 -7.661 28.978l-11.15 3.466-11.111-3.45a49.012 49.012 0 0 1 29.623-43.391 48.272 48.272 0 0 1 14.9-3.65 63.655 63.655 0 0 0 -7.637 7.748 1.75 1.75 0 1 0 2.694 2.234 60.15 60.15 0 0 1 8.406-8.285v45.335zm25.749 0-11.114-3.452v-45.342a59.611 59.611 0 0 1 22.2 45.349z"/></svg>