<?xml version="1.0" encoding="utf-8"?>
<!-- Generator: Adobe Illustrator 23.0.6, SVG Export Plug-In . SVG Version: 6.00 Build 0)  -->
<svg version="1.1" id="Layer_1" xmlns="http://www.w3.org/2000/svg" xmlns:xlink="http://www.w3.org/1999/xlink" x="0px" y="0px"
	 viewBox="0 0 200 200" style="enable-background:new 0 0 200 200;" xml:space="preserve">
<style type="text/css">
	.st0{fill:#FFE35E;}
	.st1{fill:#303133;}
	.st2{fill:#FFC93F;}
	.st3{fill:#FFA450;}
</style>
<path class="st0" d="M5.3,100c0-26.1,10.7-49.9,27.6-66.9S73.5,5.4,99.4,5.4s49.6,10.2,66.5,27.8c16.9,17,27.6,40.8,27.6,66.9
	s-10.7,49.9-27.6,66.9s-40.6,27.8-66.5,27.8s-49.6-10.8-66.5-27.8C16,149.9,5.3,126.1,5.3,100L5.3,100z"/>
<path class="st1" d="M99.4,197.6c-26,0-50.8-10.2-68.8-28.8C12,150.8,1.8,126.5,1.8,100c0-26,10.2-50.8,28.8-68.8
	C49.2,12.5,73.5,2.4,99.4,2.4s50.8,10.2,68.8,28.2c18.6,18.6,28.8,42.9,28.8,69.4c0,26-10.2,50.8-28.8,68.8
	C150.2,187.5,126,197.6,99.4,197.6z M100,9.2C100,9.2,99.4,9.2,100,9.2c-24.8,0-47.4,9.6-64.9,26.5C18.2,52.6,8.6,75.7,8.6,100
	s9.6,47.4,26.5,64.3s40.1,26.5,64.3,26.5s47.4-9.6,64.3-26.5s26.5-40.1,26.5-64.3s-9.6-47.4-26.5-64.3S124.3,9.2,100,9.2z"/>
<path class="st2" d="M100,10.6C100,10.6,100.6,10.6,100,10.6C100.6,10.6,100,10.6,100,10.6z M14.4,126.7
	c17.8,22.2,49.4,36.7,85.6,36.7s67.8-14.4,85.6-36.7c-11.1,36.7-45,62.8-85.6,62.8S25.6,163.3,14.4,126.7z"/>
<path class="st1" d="M100,147.8c-23.9,0-35-18.9-36.7-22.2c-0.6-1.1-0.6-2.2,0-3.3c1.1-1.7,3.3-2.2,5-1.1l1.7,1.7
	c2.2,4.4,10.6,18.9,30.6,18.9c19.4,0,28.3-14.4,30.6-18.3c0-0.6,0.6-1.1,1.7-1.7c1.7-1.1,3.9-0.6,5,1.1c0.6,1.1,0.6,2.2,0,3.3
	C133.9,130.6,123.3,147.8,100,147.8 M148.9,76.1c-2.2,0-3.3-1.7-3.3-3.3c0-5.6-5.6-12.8-11.7-12.8c-6.1,0-11.7,7.2-11.7,12.8
	c0,2.2-1.7,3.3-3.3,3.3c-2.2,0-3.3-1.7-3.3-3.3c0-9.4,8.3-20,18.9-20c10.6,0,18.9,10.6,18.9,20C152.2,74.4,150.6,76.1,148.9,76.1
	 M81.7,76.1c-2.2,0-3.3-1.7-3.3-3.3c0-5.6-5.6-12.8-11.7-12.8C60.6,60,55,67.2,55,72.8c0,2.2-1.7,3.3-3.3,3.3
	c-2.2,0-3.3-1.7-3.3-3.3c0-9.4,8.3-20,18.9-20s18.9,10.6,18.9,20C85,74.4,83.3,76.1,81.7,76.1"/>
<path class="st3" d="M60,92.2c0,7.2-7.2,13.3-15.6,13.3c-8.9,0-15.6-6.1-15.6-13.3c0-7.2,7.2-13.3,15.6-13.3
	C53.3,78.9,60,85,60,92.2 M170.6,92.2c0,7.2-7.2,13.3-15.6,13.3c-8.9,0-15.6-6.1-15.6-13.3c0-7.2,7.2-13.3,15.6-13.3
	C163.3,78.9,170.6,85,170.6,92.2"/>
</svg>
