<?xml version="1.0" standalone="no"?><!DOCTYPE svg PUBLIC "-//W3C//DTD SVG 1.1//EN" "http://www.w3.org/Graphics/SVG/1.1/DTD/svg11.dtd"><svg t="1568877494829" class="icon" viewBox="0 0 1024 1024" version="1.1" xmlns="http://www.w3.org/2000/svg" p-id="5156" xmlns:xlink="http://www.w3.org/1999/xlink" width="200" height="200"><defs><style type="text/css"></style></defs><path d="M34.133333 512c0-130.844444 54.044444-250.311111 139.377778-335.644444 85.333333-85.333333 204.8-139.377778 335.644445-139.377778 130.844444 0 250.311111 51.2 335.644444 139.377778 85.333333 85.333333 139.377778 204.8 139.377778 335.644444 0 130.844444-54.044444 250.311111-139.377778 335.644444-85.333333 85.333333-204.8 139.377778-335.644444 139.377778s-250.311111-54.044444-335.644445-139.377778c-85.333333-85.333333-139.377778-204.8-139.377778-335.644444z" fill="#FFE35E" p-id="5157"></path><path d="M509.155556 1004.088889c-130.844444 0-256-51.2-347.022223-145.066667C68.266667 768 17.066667 645.688889 17.066667 512c0-130.844444 51.2-256 145.066666-347.022222C256 71.111111 378.311111 19.911111 509.155556 19.911111s256 51.2 347.022222 142.222222c93.866667 93.866667 145.066667 216.177778 145.066666 349.866667 0 130.844444-51.2 256-145.066666 347.022222-91.022222 93.866667-213.333333 145.066667-347.022222 145.066667zM512 54.044444s-2.844444 0 0 0c-125.155556 0-238.933333 48.355556-327.111111 133.688889-85.333333 85.333333-133.688889 201.955556-133.688889 324.266667s48.355556 238.933333 133.688889 324.266667 201.955556 133.688889 324.266667 133.688889c122.311111 0 238.933333-48.355556 324.266666-133.688889S967.111111 634.311111 967.111111 512c0-122.311111-48.355556-238.933333-133.688889-324.266667s-199.111111-133.688889-321.422222-133.688889z" fill="#303133" p-id="5158"></path><path d="M512 54.044444s2.844444 0 0 0c2.844444 0 0 0 0 0zM73.955556 648.533333c91.022222 113.777778 253.155556 187.733333 438.044444 187.733334s347.022222-73.955556 438.044444-187.733334c-56.888889 187.733333-230.4 321.422222-438.044444 321.422223-207.644444 0-381.155556-133.688889-438.044444-321.422223z" fill="#FFC93F" p-id="5159"></path><path d="M512 756.622222c-122.311111 0-179.2-96.711111-187.733333-113.777778-2.844444-5.688889-2.844444-11.377778 0-17.066666 5.688889-8.533333 17.066667-11.377778 25.6-5.688889l8.533333 8.533333c11.377778 22.755556 54.044444 96.711111 156.444444 96.711111 99.555556 0 145.066667-73.955556 156.444445-93.866666 0-2.844444 2.844444-5.688889 8.533333-8.533334 8.533333-5.688889 19.911111-2.844444 25.6 5.688889 2.844444 5.688889 2.844444 11.377778 0 17.066667-19.911111 22.755556-73.955556 110.933333-193.422222 110.933333m250.311111-366.933333c-11.377778 0-17.066667-8.533333-17.066667-17.066667 0-28.444444-28.444444-65.422222-59.733333-65.422222S625.777778 344.177778 625.777778 372.622222c0 11.377778-8.533333 17.066667-17.066667 17.066667-11.377778 0-17.066667-8.533333-17.066667-17.066667 0-48.355556 42.666667-102.4 96.711112-102.4s96.711111 54.044444 96.711111 102.4c-5.688889 8.533333-14.222222 17.066667-22.755556 17.066667m-344.177778 0c-11.377778 0-17.066667-8.533333-17.066666-17.066667 0-28.444444-28.444444-65.422222-59.733334-65.422222s-59.733333 36.977778-59.733333 65.422222c0 11.377778-8.533333 17.066667-17.066667 17.066667-11.377778 0-17.066667-8.533333-17.066666-17.066667 0-48.355556 42.666667-102.4 96.711111-102.4s96.711111 54.044444 96.711111 102.4c-5.688889 8.533333-14.222222 17.066667-22.755556 17.066667" fill="#303133" p-id="5160"></path><path d="M307.2 472.177778c0 36.977778-36.977778 68.266667-79.644444 68.266666-45.511111 0-79.644444-31.288889-79.644445-68.266666 0-36.977778 36.977778-68.266667 79.644445-68.266667 45.511111 0 79.644444 31.288889 79.644444 68.266667M873.244444 472.177778c0 36.977778-36.977778 68.266667-79.644444 68.266666-45.511111 0-79.644444-31.288889-79.644444-68.266666 0-36.977778 36.977778-68.266667 79.644444-68.266667 42.666667 0 79.644444 31.288889 79.644444 68.266667" fill="#FFA450" p-id="5161"></path></svg>