<?xml version="1.0" encoding="utf-8"?>
<!-- Generator: Adobe Illustrator 23.0.6, SVG Export Plug-In . SVG Version: 6.00 Build 0)  -->
<svg version="1.1" id="Layer_1" xmlns="http://www.w3.org/2000/svg" xmlns:xlink="http://www.w3.org/1999/xlink" x="0px" y="0px"
	 viewBox="0 0 200 200" style="enable-background:new 0 0 200 200;" xml:space="preserve">
<style type="text/css">
	.st0{fill:#00EFD1;}
	.st1{fill:#00ACEA;}
	.st2{fill:#FEDB41;}
	.st3{fill:#083863;}
</style>
<path class="st0" d="M45.08,143.32L45.08,143.32c0,6.04-4.89,10.93-10.93,10.93s-10.92-4.89-10.92-10.93s4.89-10.92,10.93-10.92
	S45.08,137.29,45.08,143.32z"/>
<path class="st1" d="M57.18,109.05l6.81,2.22c4.6,1.5,8.52,4.59,11.07,8.7l8.54,13.8c-27.13,16.6-43.8-0.62-43.8-0.62
	C42.01,121.45,48.75,113.89,57.18,109.05L57.18,109.05z"/>
<path class="st2" d="M78.04,102.1c9.43-1.55,18.38-1.42,23.91-1.09c3.52,0.21,5.66,0.5,5.66,0.5l76.85,45.2
	c-44.45,12.81-84.18-26.46-86.64-24.11c-1.64,1.57-3.26,3.02-4.84,4.36c-2.95,2.5-6.08,4.78-9.38,6.81l-8.54-13.8
	c-2.55-4.12-6.47-7.2-11.07-8.7l-6.81-2.22C63.58,105.37,70.95,103.26,78.04,102.1z"/>
<path class="st1" d="M91.79,93.98c0,0,66.6-35.15,80.58-62.69c0,0,31.68,10.7,18.12,31.04c0,0-20.73,28.04-88.53,38.58l0,0.09
	c-5.53-0.33-14.48-0.46-23.91,1.09l-0.02-0.13L91.79,93.98z"/>
<path class="st0" d="M78.11,100.8l83.75-94.22l0.01-0.02c4.8,1.98,7.53,4.54,7.53,4.54c6.69,5.55,6.84,12.57,2.98,20.19
	c-13.98,27.54-80.58,62.69-80.58,62.69l-13.77,7.99C78.05,101.58,78.07,101.19,78.11,100.8z"/>
<path class="st1" d="M112.89,27.68c21.16-26.71,39.29-25.11,48.98-21.11l-0.01,0.02L78.11,100.8
	C80.5,74.21,112.89,27.68,112.89,27.68z"/>
<path class="st3" d="M34.15,156.59c0.91,0,1.83-0.09,2.72-0.28c7.17-1.51,11.77-8.54,10.26-15.71c1.22,0.52,2.46,0.97,3.73,1.34
	c5.57,1.64,13.73,2.43,23.77-1.2L86.19,152l-9.49,40.9c-0.29,1.26,0.49,2.52,1.75,2.81c1.26,0.29,2.52-0.49,2.81-1.75l9.79-42.19
	c0.18-0.8-0.06-1.63-0.65-2.21l-11.08-10.79c1.88-0.9,3.71-1.9,5.49-2.99l0.01,0c2.72-1.68,5.34-3.53,7.84-5.53l13.27,15.73
	l-4.43,49.5c-0.12,1.29,0.84,2.43,2.12,2.54c0.07,0,0.14,0.01,0.21,0.01c1.21,0,2.22-0.93,2.33-2.13l4.52-50.48
	c0.05-0.62-0.14-1.24-0.54-1.72l-13.9-16.48c0.55-0.48,1.11-0.98,1.66-1.49c5.12,4.05,10.54,7.72,16.21,10.96
	c0.07,0.16,0.15,0.32,0.25,0.46l14.4,21.06l8.19,37.22l0.01,0.05c0.29,1.26,1.55,2.05,2.81,1.76c0,0,0,0,0,0
	c1.26-0.29,2.05-1.55,1.76-2.81l-8.29-37.67c-0.07-0.29-0.19-0.57-0.36-0.82l-10.01-14.64c0.19,0.09,0.38,0.18,0.58,0.28
	c14.22,6.73,28.32,10.14,41.64,10.14c6.76,0.03,13.5-0.9,20-2.76c0.58-0.17,1.07-0.55,1.37-1.06c0.65-1.12,0.28-2.55-0.83-3.2
	l-73.43-43.19c29.76-5.76,49.23-14.87,60.65-21.84c13.89-8.47,19.28-15.64,19.5-15.95c0.02-0.03,0.05-0.06,0.07-0.09
	c3.72-5.57,4.7-11.05,2.91-16.3c-3.23-9.48-14.73-15.21-19.81-17.33c2.52-6.21,3.21-14.16-4.6-20.66c-2.44-2.08-5.2-3.75-8.18-4.94
	c-6.91-2.83-14.58-3.2-21.73-1.04c-10.23,2.97-20.31,10.67-29.98,22.86c-0.03,0.04-0.06,0.08-0.09,0.12
	c-1.33,1.91-32.39,46.82-35.14,73.77c-7.66,1.42-14.32,3.74-19.82,6.91c-9.52,5.47-15.59,13.4-18.05,23.6
	c-4.89-1.46-10.19,0.01-13.63,3.79c-4.92,5.43-4.52,13.81,0.91,18.73L6.7,193.02c-0.5,1.19,0.06,2.55,1.25,3.06c0,0,0,0,0,0
	c1.19,0.51,2.57-0.05,3.07-1.24l18.25-39.18C30.82,156.28,32.48,156.59,34.15,156.59L34.15,156.59z M34.15,134.75
	c4.74,0,8.58,3.84,8.58,8.58s-3.84,8.58-8.58,8.58s-8.58-3.84-8.58-8.58C25.58,138.59,29.42,134.75,34.15,134.75z M157.78,7.64
	L81.9,93.01c6.61-25.68,31.7-62.23,32.87-63.93c9.04-11.39,18.31-18.53,27.57-21.22c2.68-0.79,5.45-1.2,8.24-1.21
	C153.01,6.65,155.43,6.98,157.78,7.64z M170.28,30.23C156.79,56.8,91.36,91.56,90.7,91.91l-0.08,0.05l-3.11,1.8l74.98-84.35
	c1.91,0.89,3.7,2.04,5.31,3.41c0.03,0.03,0.07,0.06,0.1,0.09C173.26,17.36,174.02,22.86,170.28,30.23z M170.11,75.86
	c-12.25,7.42-34.09,17.38-68.52,22.74c-0.06,0.01-0.11,0.02-0.16,0.04c-4.32-0.23-8.66-0.23-12.99,0l4.48-2.6
	c3.22-1.7,64.61-34.41,80.52-61.81c4.28,1.77,14.81,6.82,17.47,14.64c1.3,3.82,0.54,7.79-2.34,12.12
	C188.16,61.5,182.87,68.13,170.11,75.86z M99.36,120.84c-0.91-0.8-2.28-0.77-3.16,0.07c-1.57,1.51-3.17,2.94-4.73,4.26
	c-2.27,1.92-4.65,3.7-7.12,5.35l-7.29-11.78c-2.84-4.59-7.21-8.02-12.34-9.7l-1.35-0.44c4.83-1.99,9.89-3.39,15.05-4.19
	c7.73-1.2,15.58-1.55,23.39-1.06c2.46,0.15,4.24,0.34,5.03,0.43l71.43,42.02c-20.29,3.96-39.66-2.23-52.8-8.45
	C109.85,129.94,99.46,120.93,99.36,120.84L99.36,120.84z M42.37,132.31c2-8.87,7.08-15.82,15.1-20.7l5.79,1.89
	c4.07,1.33,7.55,4.06,9.8,7.71l7.28,11.76c-9.83,5.5-19.21,7.03-27.92,4.54C48.75,136.47,45.33,134.7,42.37,132.31z"/>
</svg>
