<svg height="511pt" viewBox="0 -45 511.99958 511" width="511pt" xmlns="http://www.w3.org/2000/svg"><g fill-rule="evenodd"><path d="m374.445312 329.898438c50.164063-15.480469 93.792969-49.347657 120.933594-95.757813 8.347656-13.738281 9.128906-31.496094.5-46.390625-26.964844-46.613281-70.535156-80.710938-120.71875-96.390625-29.359375 31.113281-47.402344 73.03125-47.53125 119.15625v.496094c0 45.945312 17.773438 87.742187 46.816406 118.886719zm0 0" fill="#ffd89e"/><path d="m327.632812 211.011719c0-.164063-.003906-.328125-.003906-.492188 0 .164063 0 .328125.003906.492188zm46.8125 118.886719c-29.042968-31.144532-46.816406-72.941407-46.816406-118.886719 0-.164063 0-.328125 0-.492188.128906-46.128906 18.171875-88.042969 47.53125-119.160156-3.230468-1.007813-6.488281-1.941406-9.769531-2.796875-17.117187-4.460938-34.90625-6.800781-52.992187-6.800781-29.484376 0-58.1875 6.222656-84.46875 17.707031-12.800782 5.589844-25.03125 12.429688-36.492188 20.402344-15.304688 10.648437-29.25 23.324218-41.382812 37.753906-7.632813 9.082031-14.550782 18.859375-20.640626 29.269531-8.34375 13.742188-9.125 31.5-.5 46.390625 6.207032 10.730469 13.292969 20.792969 21.140626 30.125 12.128906 14.433594 26.074218 27.105469 41.378906 37.753906 11.464844 7.976563 23.691406 14.816407 36.496094 20.40625 26.28125 11.480469 54.980468 17.703126 84.46875 17.703126 18.082031 0 35.875-2.339844 52.992187-6.800782 3.039063-.789062 6.058594-1.648437 9.054687-2.574218zm0 0" fill="#ffc059"/><path d="m227.929688 99.464844c26.28125-11.480469 54.984374-17.703125 84.46875-17.703125 18.082031 0 35.875 2.339843 52.992187 6.800781-4.539063-17.78125-13.746094-34.351562-27.097656-47.703125-26.136719-26.140625-64.613281-36.386719-100.3125-26.855469-8.152344 2.171875-14.035157 8.59375-15.902344 16.25-6.109375 23.324219-3.796875 47.792969 5.851563 69.210938zm0 0" fill="#ff755b"/><path d="m312.398438 339.273438c-29.488282 0-58.1875-6.222657-84.46875-17.703126-9.648438 21.421876-11.960938 45.890626-5.851563 69.214844 1.867187 7.652344 7.75 14.078125 15.902344 16.246094 35.699219 9.535156 74.175781-.714844 100.3125-26.851562 13.351562-13.355469 22.558593-29.925782 27.097656-47.707032-17.117187 4.460938-34.910156 6.800782-52.992187 6.800782zm0 0" fill="#ff755b"/><path d="m36.597656 357.710938c49.324219 13.167968 102.484375-.992188 138.59375-37.105469 6.039063-6.035157 11.460938-12.550781 16.242188-19.441407-15.304688-10.648437-29.25-23.320312-41.378906-37.753906-7.847657-9.332031-14.933594-19.394531-21.140626-30.125-8.625-14.894531-7.847656-32.648437.5-46.390625 6.089844-10.410156 13.003907-20.1875 20.640626-29.269531 12.132812-14.429688 26.078124-27.105469 41.382812-37.753906-4.785156-6.890625-10.207031-13.40625-16.242188-19.441406-36.113281-36.113282-89.273437-50.273438-138.59375-37.101563-11.261718 3-19.390624 11.875-21.972656 22.449219-11.378906 43.4375-1.609375 89.746094 25.621094 124.742187-27.230469 34.992188-37 81.300781-25.621094 124.738281 2.582032 10.578126 10.710938 19.449219 21.96875 22.453126zm0 0" fill="#ff755b"/></g><path d="m504.539062 182.746094c-29.113281-50.324219-76.613281-86.636719-131.082031-102.339844-5.476562-17.605469-15.105469-33.628906-28.09375-46.621094-28.628906-28.625-70.765625-39.910156-109.960937-29.445312-11.378906 3.035156-20.191406 12.015625-23.019532 23.453125-5.726562 21.921875-4.710937 45.21875 2.765626 66.59375-7.324219 3.585937-14.445313 7.570312-21.335938 11.933593-3.605469-4.542968-7.46875-8.882812-11.546875-12.960937-8.703125-8.703125-18.480469-16.351563-29.070313-22.734375-4.730468-2.851562-10.875-1.328125-13.730468 3.402344-2.851563 4.730468-1.328125 10.875 3.402344 13.730468 9.203124 5.542969 17.699218 12.1875 25.253906 19.746094 3.25 3.25 6.324218 6.707032 9.230468 10.300782-10.199218 7.820312-19.75 16.535156-28.515624 26.070312-16.648438-11.75-42.382813-22.320312-60.464844-24.222656-5.480469-.582032-10.414063 3.402344-10.992188 8.898437-.578125 5.492188 3.40625 10.414063 8.898438 10.992188 14.015625 1.472656 35.851562 10.410156 49.65625 19.726562-5.457032 7.144531-10.511719 14.648438-15.113282 22.507813-3.546874 5.863281-5.917968 12.21875-7.113281 18.742187h-19.703125c-5.523437 0-10 4.476563-10 10 0 5.523438 4.476563 10 10 10h19.707032c1.128906 6.160157 3.304687 12.179688 6.546874 17.773438 4.75 8.210937 9.992188 16.042969 15.671876 23.476562-13.804688 9.316407-35.636719 18.25-49.652344 19.726563-5.492188.578125-9.476563 5.5-8.898438 10.992187.542969 5.136719 4.882813 8.953125 9.9375 8.953125.347656 0 .703125-.015625 1.058594-.054687 18.078125-1.902344 43.804688-12.472657 60.457031-24.222657 8.761719 9.542969 18.308594 18.265626 28.507813 26.085938-2.902344 3.585938-5.972656 7.039062-9.21875 10.285156-33.5625 33.5625-82.96875 46.789063-128.945313 34.511719-7.34375-1.957031-13.027343-7.765625-14.832031-15.160156-.011719-.054688-.027344-.109375-.039062-.164063-10.484376-40.019531-1.574219-83.40625 23.835937-116.0625 2.8125-3.613281 2.8125-8.671875 0-12.285156-25.410156-32.652344-34.320313-76.042969-23.835937-116.0625.011718-.054688.027343-.109375.039062-.164062 1.804688-7.394532 7.488281-13.203126 14.835938-15.160157 10.324218-2.753906 21.011718-4.261719 31.757812-4.46875 5.519531-.105469 9.910156-4.671875 9.804688-10.191406-.105469-5.457031-4.5625-9.808594-9.996094-9.808594-.066406 0-.132813 0-.199219.003907-12.355469.238281-24.644531 1.96875-36.519531 5.140624-14.386719 3.832032-25.523438 15.1875-29.089844 29.648438-11.382812 43.523438-2.8125 90.492188 22.882812 127.207031-25.695312 36.710938-34.261718 83.679688-22.886718 127.199219 3.566406 14.460938 14.703125 25.820312 29.085937 29.652344 13.042969 3.484375 26.324219 5.179687 39.519531 5.179687 40.257813 0 79.65625-15.804687 108.726563-44.871093 4.074219-4.078126 7.933594-8.410157 11.535156-12.945313 6.890625 4.363281 14.015625 8.351563 21.339844 11.933594-7.46875 21.371093-8.480469 44.660156-2.757813 66.574219 2.828126 11.4375 11.640626 20.421874 23.015626 23.453124 9.675781 2.582032 19.527343 3.839844 29.316406 3.839844 29.859375 0 59.089844-11.722656 80.652344-33.285156 12.988281-12.988281 22.617187-29.019531 28.09375-46.636719 54.09375-15.617187 101.367187-51.566406 130.511718-101.351562 10.496094-17.34375 10.714844-38.992188.566406-56.515625zm-272.789062-149.957032c.015625-.054687.027344-.109374.042969-.164062 1.066406-4.371094 4.425781-7.800781 8.765625-8.957031 32.324218-8.632813 67.0625.664062 90.664062 24.261719 7.832032 7.835937 14.179688 17.023437 18.796875 27.082031-12.324219-2.140625-24.902343-3.25-37.621093-3.25-27.292969 0-53.96875 5.105469-78.832032 14.617187-5.742187-17.273437-6.429687-35.972656-1.816406-53.589844zm99.472656 340.316407c-23.601562 23.597656-58.339844 32.898437-90.667968 24.261719-4.335938-1.152344-7.695313-4.585938-8.761719-8.957032-.015625-.054687-.027344-.109375-.042969-.160156-4.613281-17.613281-3.925781-36.300781 1.808594-53.570312 24.851562 9.5 51.527344 14.597656 78.839844 14.597656 12.714843 0 25.296874-1.117188 37.625-3.261719-4.617188 10.0625-10.964844 19.253906-18.800782 27.089844zm155.609375-144.15625c-.027343.046875-.058593.09375-.085937.144531-36.140625 61.792969-102.945313 100.179688-174.347656 100.179688-71.800782 0-138.789063-38.699219-174.828126-101-6.5-11.222657-6.347656-25.085938.394532-36.1875.027344-.046876.054687-.09375.085937-.140626 36.136719-61.796874 102.945313-100.183593 174.347657-100.183593 71.796874 0 138.789062 38.699219 174.828124 101.003906 6.496094 11.21875 6.347657 25.085937-.394531 36.183594zm0 0"/><path d="m344.648438 258.023438c-4.65625-15.417969-7.015626-31.402344-7.015626-47.503907 0-28.8125 7.613282-57.234375 22.019532-82.1875 2.761718-4.78125 1.125-10.898437-3.660156-13.660156-4.785157-2.761719-10.898438-1.121094-13.660157 3.660156-16.160156 27.992188-24.703125 59.867188-24.703125 92.1875 0 18.0625 2.648438 35.992188 7.871094 53.285157 1.304688 4.324218 5.273438 7.113281 9.570312 7.113281.957032 0 1.929688-.140625 2.894532-.429688 5.285156-1.597656 8.277344-7.179687 6.683594-12.464843zm0 0"/><path d="m397.511719 144.90625c-10.683594 0-20.640625 5.746094-25.984375 15-2.761719 4.78125-1.121094 10.898438 3.664062 13.660156 4.785156 2.765625 10.898438 1.121094 13.660156-3.660156 1.777344-3.085938 5.097657-5 8.660157-5s6.878906 1.914062 8.660156 5c1.851563 3.207031 5.214844 5 8.671875 5 1.695312 0 3.414062-.429688 4.988281-1.339844 4.785157-2.761718 6.421875-8.878906 3.660157-13.660156-5.339844-9.253906-15.296876-15-25.980469-15zm0 0"/><path d="m282.625 196.027344c3.09375-1.785156 5-5.085938 5-8.660156 0-3.570313-1.90625-6.875-5-8.660157-5.160156-2.980469-8.363281-8.53125-8.363281-14.488281s3.203125-11.511719 8.363281-14.488281c4.785156-2.761719 6.421875-8.878907 3.660156-13.664063-2.761718-4.78125-8.875-6.421875-13.660156-3.660156-11.328125 6.542969-18.367188 18.730469-18.367188 31.8125 0 8.539062 3 16.695312 8.230469 23.152344-5.230469 6.453125-8.230469 14.609375-8.230469 23.148437 0 8.539063 3 16.695313 8.230469 23.148438-5.230469 6.457031-8.230469 14.613281-8.230469 23.152343 0 13.078126 7.039063 25.269532 18.367188 31.808594 1.574219.910156 3.292969 1.339844 4.988281 1.339844 3.457031 0 6.820313-1.792969 8.671875-5 2.761719-4.78125 1.125-10.898438-3.660156-13.660156-5.160156-2.980469-8.363281-8.53125-8.363281-14.488282 0-5.960937 3.203125-11.511718 8.363281-14.492187 3.09375-1.785156 5-5.085937 5-8.660156s-1.90625-6.875-5-8.660157c-5.160156-2.980468-8.363281-8.53125-8.363281-14.488281s3.203125-11.511719 8.363281-14.492187zm0 0"/><path d="m222.617188 219.179688c3.09375-1.785157 5-5.089844 5-8.660157 0-3.574219-1.90625-6.875-5-8.664062-5.160157-2.976563-8.363282-8.527344-8.363282-14.488281 0-5.957032 3.203125-11.511719 8.363282-14.488282 4.785156-2.761718 6.421874-8.878906 3.660156-13.660156-2.761719-4.785156-8.875-6.425781-13.660156-3.664062-11.328126 6.542968-18.367188 18.730468-18.367188 31.8125 0 8.539062 2.996094 16.695312 8.230469 23.152343-5.234375 6.453125-8.230469 14.609375-8.230469 23.148438 0 13.082031 7.039062 25.269531 18.367188 31.8125 1.574218.90625 3.292968 1.339843 4.992187 1.339843 3.453125 0 6.816406-1.792968 8.667969-5 2.761718-4.785156 1.125-10.902343-3.660156-13.664062-5.160157-2.976562-8.363282-8.53125-8.363282-14.488281s3.203125-11.511719 8.363282-14.488281zm0 0"/><path d="m108.101562 73.007812.003907.003907c.917969.261719 1.84375.386719 2.753906.386719 4.351563 0 8.351563-2.863282 9.605469-7.257813 1.519531-5.308594-1.558594-10.847656-6.871094-12.363281s-10.84375 1.558594-12.363281 6.867187c-1.515625 5.3125 1.558593 10.847657 6.871093 12.363281zm0 0"/><path d="m360.179688 293.761719c-2.175782-5.078125-8.050782-7.425781-13.128907-5.25s-7.429687 8.058593-5.253906 13.132812c1.628906 3.792969 5.320313 6.066407 9.199219 6.066407 1.3125 0 2.648437-.261719 3.933594-.8125 5.078124-2.175782 7.429687-8.054688 5.253906-13.132813zm0 0"/></svg>