<?xml version="1.0" encoding="utf-8"?>
<!-- Generator: Adobe Illustrator 23.0.6, SVG Export Plug-In . SVG Version: 6.00 Build 0)  -->
<svg version="1.1" id="Layer_1" xmlns="http://www.w3.org/2000/svg" xmlns:xlink="http://www.w3.org/1999/xlink" x="0px" y="0px"
	 viewBox="0 0 200 200" style="enable-background:new 0 0 200 200;" xml:space="preserve">
<style type="text/css">
	.st0{fill:#111111;}
	.st1{fill:#FEC43C;}
	.st2{fill:#FFD73A;}
	.st3{fill:#FFC13C;}
	.st4{fill:#873A18;}
</style>
<path class="st0" d="M3,100c0,53.6,43.4,97,97,97s97-43.4,97-97S153.6,3,100,3S3,46.4,3,100z"/>
<path class="st1" d="M8.8,100c0,50.4,40.8,91.2,91.2,91.2s91.2-40.8,91.2-91.2S150.4,8.8,100,8.8S8.8,49.6,8.8,100z"/>
<path class="st2" d="M189.4,81.6C180.8,40,144.2,8.8,100,8.8C49.6,8.8,8.8,49.6,8.8,100c0,22.1,7.8,42.1,20.8,57.8
	c15.5,8.6,33.2,13.3,52.2,13.3C135.4,171.2,179.9,132.5,189.4,81.6z"/>
<path class="st3" d="M17.9,103.8c0,7.1,8.2,12.8,18.2,12.8c10.1,0,18.2-5.7,18.2-12.8c0,0,0,0,0,0c0-7.1-8.2-12.8-18.2-12.8
	C26.1,91.1,17.9,96.8,17.9,103.8C17.9,103.8,17.9,103.8,17.9,103.8z"/>
<path class="st3" d="M145.6,103.5c0,7.1,8.2,12.8,18.2,12.8c10.1,0,18.2-5.7,18.3-12.8c0,0,0,0,0,0c0-7.1-8.2-12.8-18.2-12.8
	C153.8,90.7,145.6,96.4,145.6,103.5C145.6,103.5,145.6,103.5,145.6,103.5z"/>
<path class="st4" d="M50,109.5c-6.8-1.8-13-6-17.3-12.2c-4.7-6.8-6.6-15-5.1-23.2s6-15.3,12.8-20.1c17.2-12,40.9-7.8,52.7,9.3
	c1.1,1.6,0.7,4-0.9,5.1c-1.6,1.1-4,0.7-5.1-0.9C77.4,53.7,58.2,50.4,44.4,60c-5.3,3.6-8.8,9.1-9.9,15.3c-1.1,6.2,0.4,12.6,4,17.7
	c7.5,10.8,22.4,13.3,33,5.8L73,98c4-2.9,6.8-7.1,7.7-12c0.9-4.9-0.2-9.9-3.1-13.9c-2.9-4-7.1-6.8-12-7.7c-4.9-0.9-9.9,0.2-13.9,3.1
	l-1.5,0.9c-6,4.2-7.7,12.8-3.3,18.8c2,2.9,5.1,4.9,8.8,5.5c3.5,0.5,7.1-0.2,10-2.2l1.5-0.9c3.8-2.6,4.7-7.8,2-11.7
	c-1.3-1.8-3.1-3.1-5.5-3.5c-2.2-0.4-4.4,0.2-6.2,1.5c-1.6,1.1-4,0.7-5.1-0.9c-1.1-1.6-0.7-4,0.9-5.1c3.5-2.4,7.7-3.3,11.7-2.6
	c4.2,0.7,7.7,2.9,10,6.4c4.9,7.1,3.3,16.8-3.8,21.7l-1.1,0.9c-9.3,6.6-22.4,4.2-29-5.1s-4.2-22.4,5.1-29l1.5-0.9
	c5.7-4,12.6-5.5,19.3-4.4c6.8,1.3,12.8,4.9,16.8,10.6c4,5.7,5.5,12.6,4.4,19.3c-1.3,6.8-4.9,12.8-10.6,16.8l-1.5,0.9
	C68.1,110.4,58.6,111.7,50,109.5z"/>
<path class="st4" d="M131,109.5c-6.8-1.8-13-6-17.3-12.2c-4.7-6.8-6.6-15-5.1-23.2s6-15.3,12.8-20.1c17.2-12,40.9-7.8,52.7,9.3
	c1.1,1.6,0.7,4-0.9,5.1c-1.6,1.1-4,0.7-5.1-0.9c-9.7-13.9-28.6-17.3-42.5-7.7c-5.3,3.6-8.8,9.1-9.9,15.3c-1.1,6.2,0.4,12.6,4,17.7
	c7.5,10.8,22.4,13.3,33,5.8l1.5-0.9c4-2.9,6.8-7.1,7.7-12c0.9-4.9-0.2-9.9-3.1-13.9c-2.9-4-7.1-6.8-12-7.7
	c-4.9-0.9-9.9,0.2-13.9,3.1l-1.5,0.9c-6,4.2-7.7,12.8-3.3,18.8c2,2.9,5.1,4.9,8.8,5.5c3.5,0.5,7.1-0.2,10-2.2l1.5-0.9
	c3.8-2.6,4.7-7.8,2-11.7c-1.3-1.8-3.1-3.1-5.5-3.5c-2.2-0.4-4.4,0.2-6.2,1.5c-1.6,1.1-4,0.7-5.1-0.9c-1.1-1.6-0.7-4,0.9-5.1
	c3.5-2.4,7.7-3.3,11.7-2.6c4.2,0.7,7.7,2.9,10,6.4c4.9,7.1,3.3,16.8-3.8,21.7l-1.3,1.1c-9.3,6.6-22.4,4.2-29-5.1
	c-6.6-9.3-4.2-22.4,5.1-29l1.5-0.9c5.7-4,12.6-5.5,19.3-4.4c6.8,1.3,12.8,4.9,16.8,10.6c4,5.7,5.5,12.6,4.4,19.3
	c-1.3,6.8-4.9,12.8-10.6,16.8l-1.5,0.9C149.1,110.4,139.6,111.7,131,109.5L131,109.5z"/>
<path class="st4" d="M92.7,142c0,5,4.1,9.1,9.1,9.1c5,0,9.1-4.1,9.1-9.1c0-5-4.1-9.1-9.1-9.1C96.8,132.8,92.7,136.9,92.7,142
	C92.7,142,92.7,142,92.7,142z"/>
</svg>
