<?xml version="1.0" standalone="no"?><!DOCTYPE svg PUBLIC "-//W3C//DTD SVG 1.1//EN" "http://www.w3.org/Graphics/SVG/1.1/DTD/svg11.dtd"><svg t="1568884312266" class="icon" viewBox="0 0 1024 1024" version="1.1" xmlns="http://www.w3.org/2000/svg" p-id="10814" xmlns:xlink="http://www.w3.org/1999/xlink" width="200" height="200"><defs><style type="text/css"></style></defs><path d="M512 512m-512 0a512 512 0 1 0 1024 0 512 512 0 1 0-1024 0Z" fill="#FEC43C" p-id="10815"></path><path d="M1013.76 408.576C965.632 175.104 759.808 0 512 0 229.376 0 0 229.376 0 512c0 123.904 44.032 236.544 116.736 324.608C203.776 884.736 303.104 911.36 409.6 911.36c301.056 0 550.912-217.088 604.16-502.784z" fill="#FFD73A" p-id="10816"></path><path d="M51.2 533.504a102.4 71.68 0 1 0 204.8 0 102.4 71.68 0 1 0-204.8 0Z" fill="#FFC13C" p-id="10817"></path><path d="M768 531.456a102.4 71.68 0 1 0 204.8 0 102.4 71.68 0 1 0-204.8 0Z" fill="#FFC13C" p-id="10818"></path><path d="M231.424 565.248c-37.888-10.24-72.704-33.792-97.28-68.608-26.624-37.888-36.864-83.968-28.672-130.048 8.192-46.08 33.792-86.016 71.68-112.64 96.256-67.584 229.376-44.032 295.936 52.224 6.144 9.216 4.096 22.528-5.12 28.672-9.216 6.144-22.528 4.096-28.672-5.12-54.272-77.824-161.792-96.256-239.616-41.984-29.696 20.48-49.152 51.2-55.296 86.016-6.144 34.816 2.048 70.656 22.528 99.328 41.984 60.416 125.952 74.752 185.344 32.768l8.192-5.12c22.528-16.384 37.888-39.936 43.008-67.584 5.12-27.648-1.024-55.296-17.408-77.824-16.384-22.528-39.936-37.888-67.584-43.008-27.648-5.12-55.296 1.024-77.824 17.408l-8.192 5.12c-33.792 23.552-43.008 71.68-18.432 105.472 11.264 16.384 28.672 27.648 49.152 30.72 19.456 3.072 39.936-1.024 56.32-12.288l8.192-5.12c21.504-14.336 26.624-44.032 11.264-65.536-7.168-10.24-17.408-17.408-30.72-19.456-12.288-2.048-24.576 1.024-34.816 8.192-9.216 6.144-22.528 4.096-28.672-5.12-6.144-9.216-4.096-22.528 5.12-28.672 19.456-13.312 43.008-18.432 65.536-14.336 23.552 4.096 43.008 16.384 56.32 35.84 27.648 39.936 18.432 94.208-21.504 121.856l-6.144 5.12c-52.224 36.864-125.952 23.552-162.816-28.672-36.864-52.224-23.552-125.952 28.672-162.816l8.192-5.12c31.744-22.528 70.656-30.72 108.544-24.576 37.888 7.168 71.68 27.648 94.208 59.392 22.528 31.744 30.72 70.656 24.576 108.544-7.168 37.888-27.648 71.68-59.392 94.208l-8.192 5.12c-45.056 32.768-98.304 39.936-146.432 27.648z" fill="#873A18" p-id="10819"></path><path d="M686.08 565.248c-37.888-10.24-72.704-33.792-97.28-68.608-26.624-37.888-36.864-83.968-28.672-130.048s33.792-86.016 71.68-112.64c96.256-67.584 229.376-44.032 295.936 52.224 6.144 9.216 4.096 22.528-5.12 28.672-9.216 6.144-22.528 4.096-28.672-5.12C839.68 251.904 733.184 232.448 655.36 286.72c-29.696 20.48-49.152 51.2-55.296 86.016-6.144 34.816 2.048 70.656 22.528 99.328 41.984 60.416 125.952 74.752 185.344 32.768l8.192-5.12c22.528-16.384 37.888-39.936 43.008-67.584 5.12-27.648-1.024-55.296-17.408-77.824-16.384-22.528-39.936-37.888-67.584-43.008-27.648-5.12-55.296 1.024-77.824 17.408l-8.192 5.12c-33.792 23.552-43.008 71.68-18.432 105.472 11.264 16.384 28.672 27.648 49.152 30.72 19.456 3.072 39.936-1.024 56.32-12.288l8.192-5.12c21.504-14.336 26.624-44.032 11.264-65.536-7.168-10.24-17.408-17.408-30.72-19.456-12.288-2.048-24.576 1.024-34.816 8.192-9.216 6.144-22.528 4.096-28.672-5.12-6.144-9.216-4.096-22.528 5.12-28.672 19.456-13.312 43.008-18.432 65.536-14.336 23.552 4.096 43.008 16.384 56.32 35.84 27.648 39.936 18.432 94.208-21.504 121.856l-7.168 6.144c-52.224 36.864-125.952 23.552-162.816-28.672-36.864-52.224-23.552-125.952 28.672-162.816l8.192-5.12c31.744-22.528 70.656-30.72 108.544-24.576 37.888 7.168 71.68 27.648 94.208 59.392 22.528 31.744 30.72 70.656 24.576 108.544-7.168 37.888-27.648 71.68-59.392 94.208l-8.192 5.12c-45.056 32.768-98.304 39.936-146.432 27.648z" fill="#873A18" p-id="10820"></path><path d="M522.24 747.52m-51.2 0a51.2 51.2 0 1 0 102.4 0 51.2 51.2 0 1 0-102.4 0Z" fill="#873A18" p-id="10821"></path></svg>