<svg height="512pt" viewBox="0 -23 512.00018 512" width="512pt" xmlns="http://www.w3.org/2000/svg"><g fill-rule="evenodd"><path d="m121.015625 44.550781-29.421875-20.90625-24.664062 20.90625v90.738281l54.085937-33.628906zm0 0" fill="#349ecf"/><path d="m130.003906 7.496094h-72.058594c-6.234374 0-11.308593 5.070312-11.308593 11.300781v14.476563c0 6.203124 5.074219 11.277343 11.308593 11.277343h72.058594c6.234375 0 11.308594-5.074219 11.308594-11.277343v-14.476563c0-6.230469-5.074219-11.300781-11.308594-11.300781zm0 0" fill="#b3adad"/><path d="m227.257812 54.890625-172.488281 110v256.523437l181.984375 23.996094 163.8125-23.996094v-258.164062zm0 0" fill="#f5df87"/><path d="m426.675781 458.496094h-397.984375c-10.203125 0-18.566406-8.355469-18.566406-18.527344 0-10.199219 8.363281-18.554688 18.566406-18.554688h397.984375c10.203125 0 18.566407 8.355469 18.566407 18.554688 0 10.171875-8.363282 18.527344-18.566407 18.527344zm0 0" fill="#e6e6e6"/><path d="m494.054688 458.496094c12.785156 0 14.882812-19.886719.480468-25.890625-10.289062-4.308594-10.6875-1.585938-11.707031-6.515625-2.40625-11.671875-12.414063-20.652344-24.292969-22.4375-7.398437-1.105469-3.371094.421875-8.898437-4.449219-11.625-10.285156-35.179688-15.976563-58.679688-15.496094-23.496093-.480469-47.027343 5.214844-58.648437 15.496094-5.527344 4.871094-1.5 3.34375-8.902344 4.449219-11.875 1.785156-21.882812 10.765625-24.292969 22.4375-1.019531 4.925781-1.414062 2.207031-11.707031 6.515625-14.398438 6.003906-12.300781 25.890625.484375 25.890625zm0 0" fill="#47a831"/><path d="m340.386719 439.148438c0-20.625 10.460937-39.492188 27.695312-53.96875-14.882812 2.296874-28.007812 7.140624-35.773437 14.023437-5.527344 4.875-1.5 3.34375-8.902344 4.449219-11.875 1.785156-21.882812 10.765625-24.292969 22.4375-1.019531 4.929687-1.414062 2.210937-11.707031 6.515625-14.398438 6.003906-12.300781 25.894531.484375 25.894531h55.644531c-2.042968-6.207031-3.148437-12.695312-3.148437-19.351562zm0 0" fill="#178035"/><path d="m63.699219 18.796875c0-6.230469 5.101562-11.300781 11.3125-11.300781h-17.066407c-6.234374 0-11.308593 5.070312-11.308593 11.300781v14.476563c0 6.203124 5.074219 11.277343 11.308593 11.277343h17.066407c-2.210938 0-4.253907-.625-6.007813-1.730469-3.175781-2.011718-5.304687-5.550781-5.304687-9.546874zm0 0" fill="#757a85"/><path d="m195.878906 270.871094h-69.535156c-6.207031 0-11.308594 5.070312-11.308594 11.304687v139.238281h92.152344v-139.238281c0-6.234375-5.074219-11.304687-11.308594-11.304687zm0 0" fill="#349ecf"/><path d="m327.234375 270.871094h-62.503906c-6.207031 0-11.308594 5.070312-11.308594 11.304687v56.234375c0 6.230469 5.101563 11.300782 11.308594 11.300782h62.503906c6.238281 0 11.3125-5.070313 11.3125-11.300782v-56.234375c0-6.234375-5.074219-11.304687-11.3125-11.304687zm0 0" fill="#c9eeff"/><path d="m254.300781 187.214844c5.328125-15.238282-2.691406-31.925782-17.941406-37.25-15.25-5.355469-31.945313 2.6875-37.304687 17.929687-5.328126 15.242188 2.71875 31.925781 17.972656 37.253907 15.25 5.324218 31.914062-2.691407 37.273437-17.933594zm0 0" fill="#ff698f"/><path d="m400.738281 183.53125-153.949219-96.234375c-22.960937-14.363281-15.902343-14.53125-38.664062 0l-153.355469 97.765625c-38.152343 23.203125-65.054687-22.550781-33.078125-42.179688l184.617188-113.289062c18.796875-12.523438 23.8125-10.625 42.777344 0l182.011718 113.230469c31.578125 19.660156 8.277344 64.847656-30.359375 40.707031zm0 0" fill="#a66d30"/><path d="m54.769531 185.0625v30.824219l161.886719-103.207031c8.050781-5.183594 13.578125-6.484376 21.429688 0l162.480468 101.589843v-30.851562l-153.777344-96.121094c-22.960937-14.363281-15.902343-14.53125-38.664062 0l-127.644531 81.363281zm0 0" fill="#d9a13f"/><path d="m264.730469 270.871094c-6.207031 0-11.308594 5.070312-11.308594 11.304687v20.566407c0-6.230469 5.101563-11.304688 11.308594-11.304688h62.503906c6.238281 0 11.3125 5.074219 11.3125 11.304688v-20.566407c0-6.230469-5.074219-11.300781-11.3125-11.300781h-62.503906zm0 0" fill="#81c6e6"/><path d="m126.34375 270.871094c-6.207031 0-11.308594 5.070312-11.308594 11.304687v20.566407c0-6.230469 5.101563-11.304688 11.308594-11.304688h69.535156c6.234375 0 11.308594 5.074219 11.308594 11.304688v-20.566407c0-6.230469-5.074219-11.300781-11.308594-11.300781h-69.535156zm0 0" fill="#4275ab"/><path d="m84.023438 104.492188v-37.847657c0-5.496093 4.507812-9.96875 10.007812-9.96875h26.984375v-12.125h-54.085937v70.566407l17.09375-10.480469zm0 0" fill="#4275ab"/></g><path d="m497.429688 425.691406c-3.359376-1.40625-5.847657-2.167968-7.609376-2.644531-3.539062-13.917969-15.476562-24.601563-30.175781-26.808594-1.070312-.160156-1.921875-.269531-2.605469-.351562-.582031-.597657-1.363281-1.355469-2.4375-2.296875-9.910156-8.769532-26.929687-14.746094-46.539062-16.707032v-66.066406c0-4.140625-3.355469-7.496094-7.496094-7.496094-4.136718 0-7.492187 3.355469-7.492187 7.496094v65.367188c-.703125.003906-1.410157.011718-2.113281.023437-26.5625-.515625-50.914063 6.140625-63.609376 17.371094-1.074218.949219-1.859374 1.707031-2.445312 2.308594-.683594.082031-1.535156.1875-2.609375.351562-11.273437 1.691407-20.902344 8.378907-26.382813 17.679688h-81.226562v-47.207031c0-4.140626-3.355469-7.496094-7.496094-7.496094s-7.496094 3.355468-7.496094 7.496094v47.207031h-77.164062v-131.742188c0-2.0625 1.746094-3.808593 3.8125-3.808593h69.535156c2.105469 0 3.8125 1.707031 3.8125 3.808593v49.605469c0 4.140625 3.359375 7.496094 7.496094 7.496094 4.140625 0 7.496094-3.355469 7.496094-7.496094v-49.605469c0-10.367187-8.433594-18.796875-18.804688-18.796875h-69.535156c-10.367188 0-18.804688 8.429688-18.804688 18.796875v131.742188h-45.273437v-224.742188l149.890625-95.558593c3.09375-1.976563 5.683594-3.710938 7.769531-5.101563 3.078125-2.0625 6.257813-4.191406 7.421875-4.535156 1.144532.335937 4.246094 2.382812 7.25 4.363281 2.191406 1.445312 4.914063 3.246094 8.21875 5.308594l150.253906 93.929687v88.304688c0 4.140625 3.355469 7.496093 7.496094 7.496093s7.496094-3.355468 7.496094-7.496093v-80.4375c13.679688 4.894531 23.753906 1.664062 29.105469-1.183594 9.59375-5.109375 15.785156-15.179687 16.160156-26.277344.425781-12.542969-6.234375-24.03125-18.273437-31.527343l-182.011719-113.234376c-.097657-.058593-.195313-.117187-.292969-.175781-20.203125-11.316406-28.34375-14.492187-50.476562.222657l-73.761719 45.261718v-16.488281h1.492187c10.367188 0 18.804688-8.421875 18.804688-18.773437v-14.472657c0-10.367187-8.4375-18.800781-18.804688-18.800781h-72.058594c-10.371093 0-18.804687 8.433594-18.804687 18.800781v14.472657c0 10.351562 8.433594 18.773437 18.804687 18.773437h1.492188v58.878906l-41.667969 25.566407c-19.699219 12.097656-21.417969 32.476562-12.9375 46.363281 5.785157 9.464843 16.472657 16.050781 29.421875 16.050781 4.136719 0 8.507813-.675781 13.019532-2.144531v217.15625h-18.582032c-14.371094 0-26.0625 11.6875-26.0625 26.050781 0 14.347656 11.691406 26.023438 26.0625 26.023438h465.363282c8.722656 0 15.769531-5.933594 17.535156-14.769532 1.75-8.722656-1.941406-20.4375-14.160156-25.53125zm-443.296876-392.417968v-14.472657c0-2.101562 1.710938-3.8125 3.8125-3.8125h72.058594c2.101563 0 3.8125 1.710938 3.8125 3.8125v14.472657c0 2.085937-1.710937 3.78125-3.8125 3.78125h-72.058594c-2.101562 0-3.8125-1.695313-3.8125-3.78125zm20.292969 18.773437h39.09375v25.6875l-39.09375 23.992187zm-56.800781 122.992187c-4.613281-7.554687-3.933594-18.449218 7.984375-25.769531l184.621094-113.289062c.078125-.050781.15625-.101563.234375-.152344 7.605468-5.066406 11.957031-7.441406 16.394531-7.441406 4.710937 0 9.519531 2.679687 18.410156 7.660156l181.863281 113.140625c7.367188 4.585938 11.453126 11.25 11.214844 18.292969-.195312 5.757812-3.347656 10.953125-8.226562 13.550781-6.683594 3.558594-15.6875 2.203125-25.355469-3.820312-.058594-.039063-.121094-.074219-.179687-.109376l-153.824219-96.15625c-3.144531-1.96875-5.675781-3.640624-7.90625-5.109374-13.976563-9.222657-17.1875-9.199219-31.269531.21875-2.128907 1.425781-4.539063 3.039062-7.492188 4.925781l-153.285156 97.71875c-15.597656 9.453125-27.90625 4.976562-33.183594-3.660157zm-.003906 264.929688c0-6.097656 4.964844-11.058594 11.070312-11.058594h250.222656c-7.644531 5.8125-9.949218 14.917969-8.59375 22.09375h-241.628906c-6.105468 0-11.070312-4.949218-11.070312-11.035156zm479.269531 8.3125c-.542969 2.722656-2.210937 2.722656-2.835937 2.722656h-206.164063c-.625 0-2.292969 0-2.835937-2.722656-.585938-2.921875.804687-6.910156 5.25-8.761719 3.359374-1.40625 5.417968-1.929687 6.921874-2.308593 4.839844-1.226563 7.902344-3.191407 9.230469-9.609376 1.734375-8.398437 9.164063-15.203124 18.058594-16.539062 1.375-.203125 2.316406-.308594 2.992187-.386719 3.207032-.359375 5.042969-.960937 7.421876-3.570312.433593-.476563 1.03125-1.128907 2.347656-2.289063 9.34375-8.265625 29.578125-13.640625 50.933594-13.640625.859374 0 1.726562.007813 2.59375.023438.101562.003906.207031.003906.308593 0 22.308594-.460938 43.835938 5.015625 53.566407 13.625 1.304687 1.152343 1.902343 1.804687 2.339843 2.28125 2.378907 2.609375 4.210938 3.210937 7.421875 3.570312.671875.074219 1.617188.179688 2.980469.386719 8.902344 1.335938 16.332031 8.136719 18.066406 16.542969 1.328125 6.414062 4.394531 8.378906 9.234375 9.605469 1.5.378906 3.5625.898437 6.929688 2.308593 4.433594 1.851563 5.824218 5.839844 5.238281 8.761719zm0 0"/><path d="m264.730469 357.207031h62.503906c10.371094 0 18.808594-8.433593 18.808594-18.796875v-56.234375c0-10.367187-8.4375-18.796875-18.808594-18.796875h-62.503906c-10.367188 0-18.804688 8.429688-18.804688 18.796875v56.234375c0 10.363282 8.4375 18.796875 18.804688 18.796875zm-3.8125-75.03125c0-2.0625 1.746093-3.808593 3.8125-3.808593h62.503906c2.105469 0 3.816406 1.707031 3.816406 3.808593v56.234375c0 2.101563-1.710937 3.808594-3.816406 3.808594h-62.503906c-2.066407 0-3.8125-1.746094-3.8125-3.808594zm0 0"/><path d="m261.375 189.6875c3.238281-9.261719 2.679688-19.226562-1.574219-28.066406-4.253906-8.84375-11.699219-15.492188-20.960937-18.730469-19.113282-6.707031-40.132813 3.390625-46.859375 22.53125-3.242188 9.261719-2.675781 19.230469 1.589843 28.074219 4.265626 8.839844 11.71875 15.492187 20.984376 18.726562 3.996093 1.394532 8.066406 2.058594 12.078124 2.058594 15.179688-.003906 29.433594-9.480469 34.742188-24.59375zm-14.144531-4.957031c-3.976563 11.308593-16.414063 17.292969-27.734375 13.339843-5.484375-1.914062-9.898438-5.851562-12.421875-11.085937-2.527344-5.234375-2.859375-11.136719-.949219-16.605469 3.148438-8.957031 11.585938-14.570312 20.570312-14.570312 2.382813 0 4.808594.394531 7.179688 1.226562.003906 0 .007812.003906.011719.003906 5.480469 1.914063 9.886719 5.851563 12.40625 11.085938 2.519531 5.230469 2.851562 11.132812.9375 16.605469zm0 0"/></svg>