<?xml version="1.0" encoding="iso-8859-1"?>
<!-- Generator: Adobe Illustrator 19.0.0, SVG Export Plug-In . SVG Version: 6.00 Build 0)  -->
<svg version="1.1" id="Capa_1" xmlns="http://www.w3.org/2000/svg" xmlns:xlink="http://www.w3.org/1999/xlink" x="0px" y="0px"
	 viewBox="0 0 512 512" style="enable-background:new 0 0 512 512;" xml:space="preserve">
<path style="fill:#8BDB7D;" d="M422.67,10.005L9.748,422.927c109.335,109.335,297.588,103.336,406.923-5.999
	S532.005,119.339,422.67,10.005z"/>
<path style="fill:#FD6244;" d="M380.256,52.419c85.768,85.778,79.759,236.327-6.009,322.085
	c-85.758,85.768-236.307,91.777-322.085,6.009L380.256,52.419z"/>
<path d="M333.783,189.159c5.329-1.43,8.499-6.909,7.069-12.248c-1.43-5.329-6.909-8.499-12.248-7.069
	c-5.329,1.43-8.499,6.909-7.069,12.248C322.964,187.42,328.454,190.589,333.783,189.159z"/>
<path d="M328.604,246.091c5.339,1.43,10.818-1.74,12.248-7.069c1.43-5.339-1.74-10.818-7.069-12.248
	c-5.329-1.43-10.818,1.74-12.248,7.069C320.105,239.182,323.274,244.662,328.604,246.091z"/>
<path d="M303.797,303.803c3.909-3.899,3.909-10.229,0-14.138c-3.899-3.899-10.229-3.899-14.138,0
	c-3.899,3.909-3.899,10.239,0,14.138C293.568,307.713,299.898,307.713,303.797,303.803z"/>
<path d="M239.016,340.858c5.329-1.43,8.499-6.909,7.069-12.248c-1.43-5.329-6.909-8.499-12.248-7.069
	c-5.329,1.43-8.499,6.919-7.069,12.248C228.198,339.118,233.677,342.288,239.016,340.858z"/>
<path d="M176.905,340.858c5.339,1.43,10.818-1.74,12.248-7.069c1.43-5.329-1.74-10.818-7.069-12.248
	c-5.339-1.43-10.818,1.74-12.248,7.069C168.406,333.949,171.576,339.428,176.905,340.858z"/>
<path d="M429.991,2.935c-3.904-3.903-10.234-3.903-14.141,0L2.928,415.857c-3.904,3.904-3.904,10.236,0,14.14
	c113.056,113.054,307.608,107.455,421.064-5.999C537.465,310.52,543.059,116.004,429.991,2.935z M380.319,66.747
	c75.583,83.899,65.533,222.272-12.892,300.687c-78.537,78.548-216.972,88.313-300.69,12.895L380.319,66.747z M409.851,409.857
	c-103.78,103.781-281.378,108.836-385.567,12.923l28.306-28.306c91.328,83.063,242.446,73.64,328.976-12.9
	c87.234-87.222,95.394-238.275,12.901-328.976l28.307-28.307C518.687,128.478,513.63,306.077,409.851,409.857z"/>
<path d="M332.082,346.229c3.905,3.904,10.235,3.904,14.141,0c3.904-3.904,3.904-10.236,0-14.14l-14.139-14.138
	c-3.905-3.904-10.235-3.904-14.141,0c-3.904,3.904-3.904,10.236,0,14.14L332.082,346.229z"/>
<path d="M161.378,398.809c5.335,1.433,10.818-1.74,12.246-7.068l5.179-19.317c1.43-5.333-1.735-10.816-7.068-12.246
	c-5.332-1.432-10.816,1.734-12.246,7.068l-5.179,19.317C152.88,391.896,156.045,397.379,161.378,398.809z"/>
<path d="M372.417,178.81l19.317-5.179c5.333-1.43,8.498-6.913,7.068-12.246c-1.431-5.333-6.911-8.499-12.247-7.068l-19.317,5.179
	c-5.333,1.43-8.498,6.913-7.068,12.246C361.594,177.049,367.057,180.247,372.417,178.81z"/>
<path d="M237.117,372.424l5.179,19.317c1.432,5.336,6.919,8.499,12.247,7.068c5.334-1.43,8.498-6.913,7.068-12.247l-5.18-19.317
	c-1.431-5.332-6.91-8.502-12.247-7.068C238.851,361.606,235.687,367.089,237.117,372.424z"/>
<path d="M367.238,256.439l19.317,5.179c5.357,1.438,10.823-1.759,12.247-7.068c1.43-5.333-1.735-10.816-7.068-12.247l-19.317-5.179
	c-5.339-1.434-10.816,1.734-12.247,7.068C358.74,249.526,361.905,255.009,367.238,256.439z"/>
<g>
</g>
<g>
</g>
<g>
</g>
<g>
</g>
<g>
</g>
<g>
</g>
<g>
</g>
<g>
</g>
<g>
</g>
<g>
</g>
<g>
</g>
<g>
</g>
<g>
</g>
<g>
</g>
<g>
</g>
</svg>
