<svg height="511pt" viewBox="-46 0 511 511.998" width="511pt" xmlns="http://www.w3.org/2000/svg"><path d="m335.027344 311.945312c0-61.253906-55.847656-110.914062-124.738282-110.914062-68.886718 0-124.734374 49.660156-124.734374 110.914062 0 61.257813 55.847656 110.914063 124.734374 110.914063 68.890626 0 124.738282-49.65625 124.738282-110.914063zm0 0" fill="#4e5173"/><path d="m242.597656 204.796875c39.605469 18.585937 66.605469 55.5625 66.605469 98.148437 0 61.257813-55.847656 110.914063-124.734375 110.914063-11.175781 0-22.003906-1.3125-32.308594-3.761719 17.359375 8.144532 37.136719 12.761719 58.128906 12.761719 68.890626 0 124.738282-49.65625 124.738282-110.914063 0-51.320312-39.203125-94.492187-92.429688-107.148437zm0 0" fill="#363b51"/><path d="m305.394531 396.691406c0-45.746094-42.578125-82.828125-95.105469-82.828125-52.523437 0-95.101562 37.082031-95.101562 82.828125 0 45.742188 42.578125 82.824219 95.101562 82.824219 52.527344 0 95.105469-37.082031 95.105469-82.824219zm0 0" fill="#6e7093"/><path d="m273.792969 335.035156c10.101562 13.15625 15.996093 28.972656 15.996093 45.988282 0 45.746093-42.578124 82.828124-95.101562 82.828124-24.40625 0-46.664062-8.011718-63.503906-21.175781 17.058594 22.214844 46.121094 36.839844 79.105468 36.839844 52.527344 0 95.105469-37.082031 95.105469-82.824219 0-24.488281-12.207031-46.492187-31.601562-61.65625zm0 0" fill="#4e5173"/><path d="m268.816406 392.710938c0 18.65625-15.132812 33.792968-33.792968 33.792968-9.78125 0-18.558594-4.183594-24.734376-10.828125-6.171874 6.644531-14.949218 10.828125-24.734374 10.828125-18.65625 0-33.789063-15.136718-33.789063-33.792968 0-7.847657 2.671875-15.078126 7.175781-20.804688 13.890625 7.035156 31.8125 11.273438 51.347656 11.273438 19.539063 0 37.457032-4.238282 51.351563-11.273438 4.5 5.726562 7.175781 12.957031 7.175781 20.804688zm0 0" fill="#e6eff5"/><path d="m242.738281 228.617188c-21.632812-10.253907-43.265625-10.253907-64.894531 0-2.332031 1.109374-2.925781 4.164062-1.222656 6.105468l15.023437 17.121094c1.296875 1.476562 1.296875 3.6875 0 5.167969l-8.960937 10.210937c-2.519532 2.871094.15625 7.335938 3.863281 6.390625 15.828125-4.023437 31.660156-4.023437 47.488281 0 3.707032.945313 6.382813-3.519531 3.859375-6.390625l-8.957031-10.210937c-1.296875-1.480469-1.296875-3.691407 0-5.167969l15.023438-17.121094c1.703124-1.9375 1.109374-4.996094-1.222657-6.105468zm0 0" fill="#ed6161"/><path d="m328.34375 365.359375c.1875-.328125.371094-.65625.550781-.984375 2.003907-3.625.6875-8.1875-2.9375-10.191406s-8.1875-.6875-10.191406 2.941406c-.773437 1.398438-1.582031 2.777344-2.425781 4.144531-.097656.144531-.1875.292969-.273438.445313-1.574218 2.515625-3.265625 4.976562-5.070312 7.371094-13.28125-36.347657-52.0625-62.722657-97.707032-62.722657-45.652343 0-84.4375 26.386719-97.710937 62.746094-1.730469-2.285156-3.351563-4.625-4.855469-7.007813-.210937-.421874-.460937-.824218-.75-1.203124-6.691406-10.933594-11.058594-22.835938-12.910156-35.308594-.019531-.21875-.054688-.441406-.09375-.660156-.304688-2.15625-.535156-4.328126-.6875-6.515626-.289062-4.132812-3.882812-7.257812-8.007812-6.957031-4.132813.289063-7.246094 3.875-6.957032 8.007813.027344.375.054688.753906.085938 1.132812l-55.152344 13.34375c-6.179688 1.5-10.890625 6.738282-11.714844 13.019532l-10.96875 82.542968c-.5468748 4.105469 2.339844 7.875 6.445313 8.421875.335937.042969.667969.066407.996093.066407 3.703126 0 6.925782-2.742188 7.425782-6.515626l10.972656-82.550781c.027344-.195312.179688-.359375.378906-.40625l53.863282-13.035156c2.335937 10.453125 6.214843 20.484375 11.5625 29.917969l-43.15625 69.46875c-4.027344 6.464844-2.796876 14.800781 2.921874 19.816406l63.007813 55.441406c1.425781 1.253906 3.191406 1.867188 4.953125 1.867188 2.082031 0 4.152344-.859375 5.632812-2.542969 2.738282-3.109375 2.433594-7.851563-.675781-10.585937l-63.019531-55.445313c-.179688-.160156-.214844-.414063-.082031-.625l39.554687-63.675781c2.15625 2.785156 4.453125 5.507812 6.894532 8.148437-.367188 3.09375-.554688 6.238281-.554688 9.417969 0 49.804688 46.027344 90.328125 102.601562 90.328125 56.578126 0 102.605469-40.523437 102.605469-90.328125 0-3.183594-.1875-6.328125-.554687-9.429688 2.425781-2.632812 4.71875-5.355468 6.878906-8.15625l39.574219 63.703126c.128906.203124.089843.457031-.097657.621093l-63.011718 55.441407c-3.109375 2.734374-3.414063 7.476562-.675782 10.585937 1.484376 1.683594 3.550782 2.542969 5.632813 2.542969 1.757813 0 3.527344-.613282 4.953125-1.867188l63-55.433594c5.726562-5.023437 6.957031-13.359374 2.933594-19.816406zm-118.054688 106.65625c-48.304687 0-87.601562-33.789063-87.601562-75.324219 0-3.523437.28125-6.992187.828125-10.386718.046875-.21875.082031-.4375.109375-.660157 6.234375-36.316406 42.722656-64.28125 86.667969-64.28125 43.949219 0 80.441406 27.976563 86.667969 64.300781.023437.203126.058593.40625.097656.605469.550781 3.40625.835937 6.886719.835937 10.421875 0 41.535156-39.300781 75.324219-87.605469 75.324219zm0 0"/><path d="m409.046875 346.972656c-.828125-6.292968-5.535156-11.53125-11.722656-13.03125l-55.148438-13.34375c.234375-2.878906.351563-5.765625.351563-8.652344 0-9.609374-1.285156-18.957031-3.710938-27.914062l60.03125-21.613281c5.484375-1.972657 9.363282-6.78125 10.117188-12.535157l11.050781-82.78125c.546875-4.105468-2.335937-7.875-6.441406-8.425781-4.101563-.554687-7.878907 2.335938-8.425781 6.441407l-11.054688 82.796874c-.019531.175782-.144531.324219-.324219.390626l-59.871093 21.554687c-5.945313-13.957031-14.761719-26.65625-25.792969-37.515625l28.808593-46.441406c4.429688-7.148438 2.289063-16.65625-4.773437-21.199219l-82.839844-53.339844c-3.484375-2.242187-8.125-1.234375-10.367187 2.246094-2.242188 3.480469-1.234375 8.125 2.246094 10.367187l82.84375 53.339844c.222656.144532.289062.449219.144531.679688l-27.511719 44.351562c-21.417969-16.578125-48.816406-27.113281-78.863281-28.625v-186.222656c0-4.144531-3.359375-7.5-7.5-7.5-4.144531 0-7.5 3.355469-7.5 7.5v186.226562c-27.742188 1.417969-54.5 10.671876-76.054688 26.421876-.960937.703124-1.910156 1.414062-2.847656 2.140624l-27.472656-44.289062c-.144531-.234375-.082031-.539062.144531-.683594l82.839844-53.339844c3.480468-2.242187 4.488281-6.886718 2.246094-10.367187-2.242188-3.480469-6.882813-4.488281-10.367188-2.246094l-82.835938 53.339844c-7.0625 4.542969-9.207031 14.054687-4.777343 21.199219l28.777343 46.386718c-11.132812 10.980469-19.894531 23.746094-25.777343 37.5625l-59.859375-21.550781c-.175782-.0625-.296875-.210937-.324219-.402343l-11.050781-82.78125c-.546875-4.105469-4.316406-6.988282-8.425782-6.441407-4.105468.550781-6.9882808 4.320313-6.441406 8.425781l11.050782 82.765626c.757812 5.769531 4.632812 10.578124 10.113281 12.550781l60.023437 21.605469c-.300781 1.113281-.582031 2.230468-.847656 3.351562-.949219 4.03125 1.550781 8.070312 5.582031 9.019531 4.035157.957031 8.070313-1.546875 9.019531-5.578125.699219-2.96875 1.542969-5.886718 2.519532-8.746094.019531-.046874.035156-.09375.050781-.140624.039063-.101563.074219-.207032.105469-.3125 14.910156-42.863282 60.449218-73.082032 112.109375-73.082032 64.644531 0 117.234375 46.390625 117.234375 103.414063 0 4.371093-.3125 8.746093-.929688 13.066406-.027344.167969-.050781.335937-.070312.5-.285156 1.914063-.628906 3.816406-1.03125 5.703125-.867188 4.050781 1.714844 8.035156 5.765625 8.902344.53125.113281 1.054687.167968 1.574219.167968 3.085937-.003906 5.890624-1.917968 7-4.824218l53.957031 13.054687c.203125.050781.355469.214844.382812.417969l10.972657 82.542969c.5 3.769531 3.722656 6.511719 7.425781 6.511719.328125 0 .660156-.019532.996093-.066407 4.105469-.546875 6.992188-4.316406 6.445313-8.421875zm0 0"/><path d="m278.847656 360.421875c-2.503906-3.304687-7.207031-3.949219-10.507812-1.445313-2.945313 2.234376-6.34375 4.335938-10.089844 6.238282-13.320312 6.75-30.355469 10.464844-47.960938 10.464844-10.339843 0-20.480468-1.28125-29.789062-3.707032-6.539062-1.703125-12.671875-3.972656-18.171875-6.757812-.003906 0-.011719-.003906-.019531-.007813-3.742188-1.90625-7.132813-4.003906-10.066406-6.230469-3.300782-2.503906-8.007813-1.855468-10.511719 1.445313-2.5 3.300781-1.855469 8.003906 1.445312 10.507813 1.660157 1.257812 3.425781 2.476562 5.289063 3.652343-2.742188 5.609375-4.203125 11.828125-4.203125 18.128907 0 22.769531 18.523437 41.292968 41.292969 41.292968 8.9375 0 17.632812-2.960937 24.734374-8.28125 7.101563 5.320313 15.796876 8.28125 24.734376 8.28125 22.769531 0 41.292968-18.523437 41.292968-41.292968 0-6.300782-1.464844-12.519532-4.199218-18.128907 1.859374-1.175781 3.625-2.394531 5.285156-3.652343 3.300781-2.503907 3.949218-7.207032 1.445312-10.507813zm-43.824218 58.582031c-7.355469 0-14.1875-2.996094-19.238282-8.433594-1.417968-1.527343-3.410156-2.394531-5.496094-2.394531-2.085937 0-4.078124.867188-5.496093 2.394531-5.046875 5.4375-11.878907 8.433594-19.238281 8.433594-14.496094 0-26.292969-11.796875-26.292969-26.292968 0-3.964844.859375-7.769532 2.511719-11.242188 13.648437 5.734375 30.59375 9.210938 48.515624 9.210938 17.316407 0 34.269532-3.242188 48.515626-9.210938 1.652343 3.472656 2.507812 7.277344 2.507812 11.242188.003906 14.496093-11.792969 26.292968-26.289062 26.292968zm0 0"/><path d="m240.953125 396.238281c-2.929687-2.925781-7.679687-2.925781-10.605469 0-2.929687 2.929688-2.929687 7.679688 0 10.609375l.925782.925782c1.464843 1.460937 3.382812 2.195312 5.304687 2.195312 1.917969 0 3.835937-.734375 5.300781-2.195312 2.929688-2.929688 2.929688-7.679688 0-10.609376zm0 0"/><path d="m178.703125 407.773438c1.460937 1.460937 3.382813 2.195312 5.300781 2.195312 1.917969 0 3.839844-.734375 5.304688-2.195312l.925781-.925782c2.929687-2.933594 2.929687-7.679687 0-10.609375-7.089844-7.085937-18.628906 4.4375-11.53125 11.535157zm0 0"/><path d="m202.617188 220.96875c-.886719-4.046875-4.882813-6.601562-8.929688-5.722656-6.34375 1.390625-12.753906 3.609375-19.058594 6.597656-3.242187 1.535156-5.519531 4.4375-6.25 7.960938-.722656 3.496093.25 7.183593 2.605469 9.867187l12.949219 14.757813-6.886719 7.84375c-3.320313 3.785156-3.78125 9.21875-1.144531 13.523437 2.621094 4.277344 7.640625 6.320313 12.492187 5.089844 14.527344-3.695313 29.261719-3.695313 43.789063 0 .945312.238281 1.890625.351562 2.828125.351562 3.882812 0 7.554687-1.996093 9.667969-5.441406 2.632812-4.304687 2.175781-9.734375-1.148438-13.519531l-6.882812-7.847656 12.949218-14.757813c2.355469-2.683594 3.324219-6.371094 2.601563-9.867187-.726563-3.523438-3.007813-6.425782-6.246094-7.960938-6.304687-2.988281-12.714844-5.207031-19.058594-6.597656-4.042969-.882813-8.042969 1.675781-8.929687 5.722656-.886719 4.046875 1.675781 8.042969 5.71875 8.929688 3.773437.828124 7.597656 2.019531 11.414062 3.554687l-11.796875 13.445313c-3.769531 4.292968-3.769531 10.769531 0 15.0625l1.980469 2.253906c-9.976562-1.476563-20-1.476563-29.980469 0l1.980469-2.253906c3.769531-4.292969 3.769531-10.769532 0-15.0625l-11.796875-13.445313c3.816406-1.535156 7.640625-2.726563 11.414063-3.554687 4.042968-.886719 6.605468-4.882813 5.71875-8.929688zm0 0"/></svg>